<svg width="226" height="120" viewBox="0 0 226 120" fill="none" xmlns="http://www.w3.org/2000/svg">
<path d="M66.4947 63.4328C66.4991 65.9576 65.5004 68.3807 63.7183 70.169C61.9361 71.9574 59.5165 72.9646 56.9918 72.969L55.55 72.9715C53.0253 72.976 50.6022 71.9772 48.8138 70.1951C47.0254 68.4129 46.0182 65.9934 46.0138 63.4686L46 55.5387C45.9956 53.014 46.9943 50.5909 48.7765 48.8025C50.5586 47.0141 52.9782 46.007 55.5029 46.0026L56.9447 46C59.4695 45.9956 61.8926 46.9943 63.6809 48.7765C65.4693 50.5586 66.4765 52.9782 66.4809 55.5029L66.4947 63.4328ZM59.7094 55.2301C59.7071 54.7974 59.6197 54.3694 59.452 53.9705C59.2843 53.5716 59.0397 53.2097 58.7322 52.9053C58.4246 52.6009 58.0601 52.3602 57.6595 52.1967C57.2589 52.0332 56.83 51.9502 56.3973 51.9525L56.0461 51.9543C55.1722 51.9589 54.336 52.3104 53.7214 52.9316C53.1067 53.5527 52.764 54.3926 52.7685 55.2664L52.8131 63.7785C52.8153 64.2111 52.9028 64.6392 53.0705 65.038C53.2382 65.4369 53.4827 65.7989 53.7903 66.1032C54.0979 66.4076 54.4624 66.6484 54.863 66.8119C55.2636 66.9753 55.6925 67.0583 56.1252 67.0561L56.4764 67.0542C57.3502 67.0496 58.1865 66.6981 58.8011 66.077C59.4158 65.4558 59.7585 64.616 59.7539 63.7421L59.7094 55.2301Z" fill="#2C6BB0"/>
<path d="M77.4907 66.9488L87.9484 66.9996C88.0628 67.0008 88.1721 67.0471 88.2526 67.1285C88.333 67.2098 88.3782 67.3196 88.3782 67.434L88.3551 72.4156C88.3551 72.473 88.3437 72.5299 88.3216 72.5829C88.2994 72.6359 88.267 72.684 88.2262 72.7244C88.1854 72.7648 88.1369 72.7967 88.0837 72.8183C88.0305 72.8398 87.9735 72.8506 87.9161 72.85L70.8501 72.8454C70.7349 72.8454 70.6244 72.7996 70.543 72.7181C70.4615 72.6367 70.4158 72.5262 70.4158 72.411L70.4111 46.5926C70.4111 46.5352 70.4225 46.4783 70.4446 46.4253C70.4668 46.3723 70.4992 46.3242 70.54 46.2838C70.5808 46.2434 70.6293 46.2115 70.6825 46.19C70.7357 46.1684 70.7927 46.1576 70.8501 46.1582L76.6312 46.186C76.6886 46.186 76.7455 46.1973 76.7985 46.2195C76.8515 46.2416 76.8996 46.274 76.94 46.3148C76.9804 46.3556 77.0123 46.4041 77.0339 46.4573C77.0554 46.5105 77.0662 46.5675 77.0656 46.625L77.0564 66.5144C77.0564 66.6296 77.1021 66.7401 77.1836 66.8216C77.265 66.903 77.3755 66.9488 77.4907 66.9488Z" fill="#2C6BB0"/>
<path d="M91.188 46.7547C91.1874 46.6906 91.1995 46.627 91.2236 46.5676C91.2477 46.5082 91.2834 46.4541 91.3285 46.4086C91.3736 46.363 91.4273 46.3269 91.4865 46.3022C91.5456 46.2775 91.6091 46.2648 91.6732 46.2648L101.835 46.2325C104.354 46.2235 106.774 47.1702 108.562 48.8644C110.35 50.5586 111.359 52.8615 111.369 55.2668L111.396 63.7328C111.401 64.9243 111.16 66.1051 110.686 67.2078C110.213 68.3104 109.517 69.3133 108.638 70.1591C107.758 71.005 106.713 71.6772 105.562 72.1373C104.41 72.5975 103.176 72.8366 101.928 72.8411L91.7657 72.8734C91.6378 72.8734 91.515 72.8229 91.4242 72.7329C91.3333 72.6429 91.2816 72.5207 91.2804 72.3928L91.188 46.7547ZM98.055 52.6282L98.0273 66.4731C98.0273 66.603 98.0789 66.7276 98.1708 66.8195C98.2626 66.9114 98.3872 66.963 98.5172 66.963L101.063 66.9676C101.529 66.9688 101.991 66.8756 102.422 66.6935C102.852 66.5113 103.244 66.2437 103.574 65.9059C103.904 65.5681 104.166 65.1668 104.345 64.725C104.524 64.2831 104.616 63.8093 104.617 63.3307L104.626 55.789C104.628 54.824 104.256 53.898 103.593 53.2144C102.93 52.5307 102.03 52.1454 101.091 52.1429L98.5449 52.1383C98.415 52.1383 98.2904 52.1899 98.1985 52.2818C98.1066 52.3736 98.055 52.4982 98.055 52.6282Z" fill="#2C6BB0"/>
<path d="M121.581 46.2422H115.528C115.341 46.2422 115.19 46.3932 115.19 46.5795V72.5042C115.19 72.6905 115.341 72.8415 115.528 72.8415H121.581C121.768 72.8415 121.919 72.6905 121.919 72.5042V46.5795C121.919 46.3932 121.768 46.2422 121.581 46.2422Z" fill="#2C6BB0"/>
<path d="M153.301 62.2031L158.675 72.4251C158.7 72.4723 158.712 72.5251 158.71 72.5783C158.707 72.6316 158.691 72.6834 158.663 72.729C158.635 72.7745 158.595 72.8121 158.548 72.8382C158.501 72.8643 158.447 72.878 158.393 72.8779L151.799 72.8225C151.563 72.8211 151.332 72.7508 151.135 72.6203C150.938 72.4898 150.783 72.3047 150.69 72.0877C149.525 69.3828 148.17 66.5624 146.623 63.6264C146.277 62.9748 145.695 62.7576 144.96 62.8131C144.461 62.85 144.213 63.1181 144.216 63.6171L144.271 72.4898C144.271 72.5817 144.235 72.6698 144.17 72.7348C144.105 72.7998 144.017 72.8363 143.925 72.8363L137.922 72.841C137.638 72.841 137.497 72.6977 137.497 72.4112L137.534 46.4958C137.534 46.4365 137.557 46.3796 137.598 46.3373C137.64 46.2949 137.696 46.2705 137.755 46.2693C141.582 46.217 145.363 46.2308 149.1 46.3109C150.496 46.3387 151.952 46.7684 153.467 47.6002C156.148 49.0698 157.686 52.5079 157.4 55.4793C157.206 57.4849 156.074 59.8509 154.271 61.0108C153.932 61.2295 153.626 61.4899 153.352 61.7918C153.238 61.9181 153.221 62.0552 153.301 62.2031ZM144.225 52.6789L144.253 57.032C144.253 57.0957 144.266 57.1587 144.291 57.2173C144.316 57.276 144.353 57.3291 144.398 57.3738C144.444 57.4184 144.497 57.4536 144.557 57.4774C144.616 57.5013 144.679 57.5132 144.743 57.5126L147.816 57.4941C148.203 57.4913 148.586 57.423 148.943 57.293C149.3 57.1631 149.624 56.974 149.896 56.7367C150.168 56.4994 150.383 56.2184 150.529 55.9099C150.675 55.6014 150.748 55.2713 150.745 54.9386V54.6798C150.74 54.0085 150.424 53.3671 149.868 52.8966C149.312 52.426 148.56 52.1649 147.779 52.1705L144.706 52.189C144.642 52.1896 144.579 52.2028 144.52 52.2277C144.462 52.2527 144.408 52.2889 144.364 52.3344C144.319 52.3799 144.284 52.4337 144.26 52.4928C144.236 52.5519 144.224 52.6152 144.225 52.6789Z" fill="#E17639"/>
<path d="M170.145 67.0752C173.348 67.4818 174.494 65.5225 174.475 62.796C174.441 57.6111 174.434 52.2336 174.452 46.6636C174.452 46.5631 174.492 46.4667 174.563 46.3956C174.634 46.3245 174.73 46.2846 174.831 46.2846L180.326 46.2384C180.757 46.2322 180.972 46.4448 180.972 46.8761C180.985 52.6156 180.994 58.0639 181 63.2211C181.006 67.7037 179.053 70.7074 175.141 72.2324C169.946 74.2611 162.848 72.3525 161.138 66.5669C160.775 65.3407 160.607 63.5123 160.635 61.0815C160.69 56.1431 160.695 51.3525 160.649 46.7098C160.648 46.6499 160.659 46.5905 160.682 46.535C160.704 46.4796 160.738 46.4291 160.78 46.3865C160.822 46.344 160.872 46.3102 160.927 46.2872C160.982 46.2641 161.042 46.2523 161.102 46.2523L166.809 46.243C166.942 46.243 167.07 46.2956 167.165 46.3892C167.259 46.4828 167.312 46.6098 167.312 46.7421C167.346 52.1088 167.34 57.3769 167.294 62.5465C167.275 64.6306 167.751 66.7702 170.145 67.0752Z" fill="#E17639"/>
<path d="M132.187 67.0508H127.205C126.947 67.0508 126.738 67.2597 126.738 67.5175V72.3697C126.738 72.6275 126.947 72.8365 127.205 72.8365H132.187C132.444 72.8365 132.653 72.6275 132.653 72.3697V67.5175C132.653 67.2597 132.444 67.0508 132.187 67.0508Z" fill="#E17639"/>
</svg>
