<svg width="226" height="120" viewBox="0 0 226 120" fill="none" xmlns="http://www.w3.org/2000/svg">
<path d="M49.9603 79.3098L38.9193 72.8003L42.8828 70.4634L51.9421 75.8046C52.2765 76.0018 52.6886 76.0018 53.023 75.8046L62.19 70.3999L66.1535 72.7368L55.0048 79.3098C53.444 80.2301 51.5211 80.2301 49.9603 79.3098Z" fill="#242C37"/>
<path d="M61.7237 65.4306L52.5735 60.0358L43.4233 65.4306V70.0679L52.6372 64.6356L61.7237 69.9928V65.4306Z" fill="#242C37"/>
<path d="M71.1438 51.0343L71.1438 64.0535L67.1803 61.7166V51.0343C67.1803 50.6399 66.9743 50.2755 66.6398 50.0783L57.4729 44.6737V40L68.6216 46.5731C70.1824 47.4933 71.1438 49.1939 71.1438 51.0343Z" fill="#242C37"/>
<path d="M53.4917 47.5706V58.3602L62.6419 63.755L66.5746 61.4364L57.3607 56.004V45.2895L53.4917 47.5706Z" fill="#242C37"/>
<path d="M34 51.0343L34 64.0535L37.9635 61.7166V51.0343C37.9635 50.6399 38.1696 50.2755 38.504 50.0783L47.671 44.6737V40L36.5223 46.5731C34.9615 47.4933 34 49.1939 34 51.0343Z" fill="#242C37"/>
<path d="M51.6521 47.5706V58.3602L42.5019 63.755L38.5692 61.4364L47.7831 56.004V45.2895L51.6521 47.5706Z" fill="#242C37"/>
<path d="M102.323 58.0245C102.323 58.9053 102.199 59.6154 101.953 60.1546C101.706 60.6759 101.249 61.0804 100.58 61.368C99.911 61.6376 98.978 61.8174 97.781 61.9073C96.6016 61.9972 94.6095 62.0421 92.7084 62.0421H90.7454C89.0731 62.0421 87.7265 61.9882 86.7055 61.8803C85.6845 61.7725 84.8924 61.5478 84.3291 61.2062C83.7658 60.8647 83.3874 60.3793 83.1937 59.7502C83.0177 59.121 82.9297 58.2941 82.9297 57.2695V56.5685H87.0752V57.1617C87.0752 57.5392 87.1104 57.8358 87.1808 58.0515C87.2512 58.2672 87.4184 58.429 87.6825 58.5368C87.9465 58.6267 88.325 58.6896 88.8179 58.7256C89.3283 58.7435 90.0149 58.7525 90.8774 58.7525H92.6028C93.6941 58.7525 95.0174 58.7435 95.6687 58.7256C96.32 58.6896 96.8129 58.6267 97.1473 58.5368C97.4994 58.4469 97.7282 58.3121 97.8338 58.1324C97.9395 57.9346 97.9923 57.683 97.9923 57.3774V57.1077C97.9923 56.8201 97.9483 56.5954 97.8602 56.4336C97.7898 56.2539 97.6578 56.1191 97.4642 56.0292C97.2705 55.9393 97.0065 55.8854 96.6721 55.8674C96.3552 55.8494 95.9503 55.8404 95.4574 55.8404H91.6288V52.7126H95.4839C96.3288 52.7126 96.9009 52.6228 97.2001 52.443C97.4994 52.2632 97.649 51.9037 97.649 51.3644V51.0678C97.649 50.7982 97.5874 50.5735 97.4642 50.3937C97.3586 50.214 97.1385 50.0792 96.8041 49.9893C96.4872 49.8994 96.0207 49.8365 95.4046 49.8005C94.8061 49.7646 93.5709 49.7466 92.6028 49.7466H90.8774C90.0149 49.7466 89.3283 49.7556 88.8179 49.7736C88.325 49.7916 87.9465 49.8545 87.6825 49.9623C87.4184 50.0702 87.2512 50.232 87.1808 50.4477C87.1104 50.6634 87.0752 50.96 87.0752 51.3375V51.8228H83.0089V51.2296C83.0089 50.205 83.0969 49.3781 83.2729 48.749C83.449 48.1198 83.8098 47.6345 84.3555 47.2929C84.9188 46.9514 85.7021 46.7267 86.7055 46.6188C87.7265 46.511 89.0731 46.457 90.7454 46.457H92.7084C94.5567 46.457 96.5048 46.502 97.649 46.5919C98.8108 46.6817 99.7086 46.8705 100.342 47.1581C100.994 47.4277 101.425 47.8232 101.636 48.3445C101.865 48.8478 101.979 49.5129 101.979 50.3398V50.6903C101.979 51.3375 101.935 51.8678 101.847 52.2812C101.777 52.6767 101.636 53.0002 101.425 53.2519C101.231 53.4856 100.958 53.6743 100.606 53.8181C100.272 53.944 99.8494 54.0608 99.3389 54.1687V54.2496C99.867 54.3394 100.316 54.4473 100.686 54.5731C101.055 54.681 101.363 54.8518 101.61 55.0854C101.856 55.3191 102.032 55.6247 102.138 56.0022C102.261 56.3797 102.323 56.8561 102.323 57.4313V58.0245Z" fill="#242C37"/>
<path d="M119.54 61.7857H104.82V46.5781H109.256V58.2534H119.54V61.7857Z" fill="#242C37"/>
<path d="M130.817 62.0421C129.391 62.0421 128.611 62.0062 127.572 61.9343C126.551 61.8803 125.68 61.7635 124.958 61.5837C124.236 61.386 123.647 61.1163 123.189 60.7748C122.749 60.4333 122.406 59.9839 122.159 59.4266C121.913 58.8694 121.745 58.1863 121.657 57.3774C121.569 56.5685 121.525 55.5978 121.525 54.4653V54.0339C121.525 52.9014 121.569 51.9307 121.657 51.1218C121.745 50.3129 121.913 49.6298 122.159 49.0725C122.406 48.4973 122.749 48.0389 123.189 47.6974C123.647 47.3558 124.236 47.0952 124.958 46.9154C125.68 46.7357 126.551 46.6188 127.572 46.5649C128.611 46.493 129.391 46.457 130.817 46.457H131.471C132.896 46.457 133.668 46.493 134.689 46.5649C135.727 46.6188 136.608 46.7357 137.329 46.9154C138.051 47.0952 138.632 47.3558 139.072 47.6974C139.53 48.0389 139.882 48.4973 140.128 49.0725C140.375 49.6298 140.542 50.3129 140.63 51.1218C140.718 51.9307 140.762 52.9014 140.762 54.0339V54.4653C140.762 55.5978 140.718 56.5685 140.63 57.3774C140.542 58.1863 140.375 58.8784 140.128 59.4536C139.882 60.0108 139.53 60.4602 139.072 60.8018C138.632 61.1433 138.051 61.404 137.329 61.5837C136.608 61.7635 135.727 61.8803 134.689 61.9343C133.668 62.0062 132.896 62.0421 131.471 62.0421H130.817ZM131.312 58.5098C132.597 58.5098 133.149 58.4739 133.87 58.402C134.61 58.3301 135.155 58.1593 135.507 57.8897C135.877 57.6021 136.097 57.1796 136.168 56.6224C136.256 56.0651 136.3 55.3101 136.3 54.3574V54.1148C136.3 53.1441 136.256 52.3801 136.168 51.8228C136.097 51.2476 135.877 50.8252 135.507 50.5555C135.155 50.2679 134.61 50.0882 133.87 50.0163C133.149 49.9443 132.597 49.9084 131.312 49.9084H130.975C129.673 49.9084 129.112 49.9443 128.391 50.0163C127.669 50.0882 127.123 50.2679 126.753 50.5555C126.401 50.8252 126.181 51.2476 126.093 51.8228C126.023 52.3801 125.988 53.1441 125.988 54.1148V54.3574C125.988 55.3101 126.023 56.0651 126.093 56.6224C126.181 57.1796 126.401 57.6021 126.753 57.8897C127.123 58.1593 127.669 58.3301 128.391 58.402C129.112 58.4739 129.673 58.5098 130.975 58.5098H131.312Z" fill="#242C37"/>
<path d="M153.011 62.0421C150.898 62.0421 149.208 61.9612 147.941 61.7994C146.674 61.6197 145.697 61.2602 145.01 60.7209C144.341 60.1816 143.901 59.4176 143.69 58.429C143.479 57.4223 143.373 56.1011 143.373 54.4653V54.0339C143.373 52.9373 143.417 51.9846 143.505 51.1757C143.593 50.3668 143.76 49.6837 144.007 49.1264C144.271 48.5692 144.623 48.1198 145.063 47.7783C145.503 47.4187 146.075 47.1401 146.779 46.9424C147.501 46.7446 148.372 46.6188 149.393 46.5649C150.414 46.493 151.62 46.457 153.011 46.457H154.133C155.893 46.457 157.319 46.5199 158.41 46.6458C159.519 46.7716 160.382 47.0143 160.998 47.3738C161.632 47.7153 162.063 48.2097 162.292 48.8568C162.521 49.486 162.635 50.3039 162.635 51.3105V51.4422H158.331C158.331 50.9255 158.008 50.4723 157.539 50.2859C157.222 50.1421 156.773 50.0432 156.192 49.9893C155.629 49.9174 154.89 49.8814 153.974 49.8814H153.169C151.902 49.8814 150.907 49.9174 150.185 49.9893C149.464 50.0612 148.927 50.241 148.575 50.5286C148.223 50.8162 148.003 51.2476 147.915 51.8228C147.827 52.3801 147.783 53.1441 147.783 54.1148V54.3844C147.783 55.3371 147.827 56.0921 147.915 56.6493C148.003 57.1886 148.223 57.6021 148.575 57.8897C148.927 58.1773 149.464 58.3571 150.185 58.429C150.907 58.5009 151.902 58.5368 153.169 58.5368H153.974C154.995 58.5368 155.805 58.5098 156.403 58.4559C157.02 58.402 157.486 58.3031 157.803 58.1593C158.12 57.9975 158.322 57.7908 158.41 57.5392C158.498 57.2875 158.542 56.9549 158.542 56.5415V56.137H154.911L154.937 53.171H162.793V56.5685C162.793 57.683 162.679 58.5907 162.45 59.2918C162.221 59.9929 161.79 60.5501 161.156 60.9636C160.523 61.377 159.642 61.6646 158.516 61.8264C157.389 61.9702 155.928 62.0421 154.133 62.0421H153.011Z" fill="#242C37"/>
<path d="M170.621 61.7857H166.158V46.5781H170.621V61.7857Z" fill="#242C37"/>
<path d="M183.197 62.0421C181.138 62.0421 179.474 61.9612 178.207 61.7994C176.939 61.6376 175.954 61.2961 175.249 60.7748C174.563 60.2355 174.105 59.4716 173.876 58.4829C173.648 57.4762 173.533 56.137 173.533 54.4653V54.0339C173.533 52.3801 173.639 51.0589 173.85 50.0702C174.079 49.0635 174.537 48.2996 175.223 47.7783C175.91 47.239 176.887 46.8885 178.154 46.7267C179.421 46.5469 181.102 46.457 183.197 46.457H184.319C186.15 46.457 187.62 46.5289 188.729 46.6727C189.855 46.8165 190.718 47.0772 191.316 47.4547C191.915 47.8322 192.311 48.3535 192.505 49.0186C192.698 49.6657 192.795 50.5016 192.795 51.5262V51.9037H188.491C188.491 51.5442 188.456 51.2386 188.386 50.9869C188.315 50.7353 188.13 50.5286 187.831 50.3668C187.549 50.205 187.118 50.0882 186.537 50.0163C185.974 49.9443 185.182 49.9084 184.161 49.9084H183.356C182.106 49.9084 181.12 49.9443 180.398 50.0163C179.694 50.0882 179.157 50.2679 178.788 50.5555C178.436 50.8252 178.216 51.2386 178.128 51.7959C178.04 52.3531 177.996 53.1261 177.996 54.1148V54.3844C177.996 55.3551 178.04 56.1191 178.128 56.6763C178.216 57.2156 178.436 57.62 178.788 57.8897C179.157 58.1593 179.694 58.3301 180.398 58.402C181.12 58.4739 182.106 58.5098 183.356 58.5098H184.002C185.059 58.5098 185.886 58.4829 186.484 58.429C187.083 58.3571 187.532 58.2402 187.831 58.0784C188.259 57.847 188.518 57.336 188.518 56.852L188.517 56.4983H192.795V56.9459C192.795 57.9166 192.698 58.7345 192.505 59.3997C192.311 60.0468 191.906 60.5681 191.29 60.9636C190.674 61.359 189.794 61.6376 188.65 61.7994C187.523 61.9612 186.027 62.0421 184.161 62.0421H183.197Z" fill="#242C37"/>
<path d="M92.8382 71.7413C92.8382 72.5418 92.7898 73.1849 92.6929 73.6705C92.596 74.1562 92.3802 74.5295 92.0456 74.7903C91.7197 75.0512 91.2397 75.2265 90.6055 75.3165C89.9802 75.3974 89.139 75.4379 88.0821 75.4379H82.9297V67.8288H88.0821C89.1214 67.8288 89.9537 67.8693 90.5791 67.9502C91.2044 68.0222 91.6844 68.1886 92.0191 68.4494C92.3538 68.7013 92.574 69.0745 92.6797 69.5692C92.7854 70.0549 92.8382 70.707 92.8382 71.5254V71.7413ZM87.8972 73.6705C88.5313 73.6705 89.029 73.6526 89.3901 73.6166C89.76 73.5716 90.0374 73.4817 90.2224 73.3468C90.4073 73.2029 90.5218 73.0005 90.5659 72.7396C90.6187 72.4698 90.6451 72.1146 90.6451 71.6738V71.5389C90.6451 71.0892 90.6187 70.7339 90.5659 70.4731C90.5218 70.2033 90.4073 70.0009 90.2224 69.866C90.0374 69.7311 89.76 69.6456 89.3901 69.6097C89.029 69.5647 88.5313 69.5422 87.8972 69.5422H85.1492V73.6705H87.8972Z" fill="#242C37"/>
<path d="M96.9541 75.4379H94.7214V67.8288H96.9541V75.4379Z" fill="#242C37"/>
<path d="M108.107 73.1309C108.107 73.6076 108.058 73.9988 107.961 74.3046C107.873 74.6104 107.679 74.8578 107.38 75.0467C107.081 75.2265 106.653 75.3525 106.098 75.4244C105.552 75.4964 104.826 75.5323 103.919 75.5323H103.575C102.518 75.5323 101.681 75.5009 101.065 75.4379C100.448 75.3839 99.9816 75.2715 99.6645 75.1006C99.3562 74.9297 99.1581 74.6959 99.07 74.3991C98.9907 74.0933 98.9511 73.702 98.9511 73.2253V72.942H101.144V73.1444C101.144 73.3063 101.171 73.4367 101.223 73.5356C101.276 73.6256 101.382 73.6975 101.541 73.7515C101.699 73.8055 101.924 73.8414 102.214 73.8594C102.514 73.8774 102.91 73.8864 103.403 73.8864H103.681C104.209 73.8864 104.623 73.8774 104.923 73.8594C105.231 73.8414 105.46 73.8055 105.61 73.7515C105.759 73.6975 105.852 73.6256 105.887 73.5356C105.922 73.4457 105.94 73.3288 105.94 73.1849V73.1444C105.94 72.9915 105.918 72.8701 105.874 72.7801C105.839 72.6812 105.742 72.6092 105.583 72.5643C105.425 72.5103 105.182 72.4743 104.857 72.4563C104.54 72.4383 104.099 72.4293 103.535 72.4293C102.848 72.4293 102.258 72.4204 101.765 72.4024C101.281 72.3754 100.867 72.3304 100.523 72.2675C100.189 72.1955 99.9199 72.1056 99.7174 71.9976C99.5236 71.8897 99.3695 71.7503 99.255 71.5794C99.1493 71.4085 99.0788 71.2061 99.0436 70.9723C99.0171 70.7294 99.0039 70.4461 99.0039 70.1223V70.0684C99.0039 69.5917 99.0524 69.2049 99.1493 68.9081C99.2461 68.6023 99.4355 68.364 99.7174 68.1931C100.008 68.0132 100.413 67.8918 100.933 67.8288C101.461 67.7659 102.148 67.7344 102.994 67.7344H103.443C104.465 67.7344 105.271 67.7748 105.861 67.8558C106.451 67.9278 106.896 68.0537 107.195 68.2336C107.503 68.4044 107.697 68.6338 107.776 68.9216C107.856 69.2094 107.895 69.5647 107.895 69.9874V70.2168H105.702V70.0954C105.702 69.9604 105.685 69.8435 105.649 69.7446C105.614 69.6456 105.53 69.5692 105.398 69.5152C105.275 69.4523 105.086 69.4073 104.83 69.3803C104.575 69.3533 104.222 69.3398 103.773 69.3398H103.443C102.915 69.3398 102.501 69.3488 102.201 69.3668C101.902 69.3848 101.677 69.4208 101.527 69.4748C101.378 69.5197 101.281 69.5917 101.237 69.6906C101.201 69.7806 101.184 69.9065 101.184 70.0684V70.1088C101.184 70.2438 101.201 70.3562 101.237 70.4461C101.281 70.5271 101.386 70.59 101.554 70.635C101.721 70.671 101.977 70.698 102.32 70.716C102.672 70.7249 103.152 70.7294 103.76 70.7294C104.711 70.7294 105.473 70.7564 106.046 70.8104C106.618 70.8644 107.054 70.9768 107.354 71.1477C107.662 71.3096 107.864 71.5479 107.961 71.8627C108.058 72.1685 108.107 72.5733 108.107 73.0769V73.1309Z" fill="#242C37"/>
<path d="M114.897 75.4379H112.691V69.5422H109.48V67.8288H118.12V69.5422H114.897V75.4379Z" fill="#242C37"/>
<path d="M124.575 71.6603C124.953 71.6603 125.257 71.6514 125.486 71.6334C125.715 71.6064 125.887 71.5569 126.001 71.485C126.125 71.413 126.204 71.3096 126.239 71.1747C126.274 71.0397 126.292 70.8644 126.292 70.6485V70.5136C126.292 70.2977 126.274 70.1268 126.239 70.0009C126.204 69.866 126.125 69.7626 126.001 69.6906C125.887 69.6097 125.715 69.5602 125.486 69.5422C125.257 69.5152 124.953 69.5017 124.575 69.5017H121.813V71.6603H124.575ZM128.525 75.4379H126.332V74.8173C126.332 74.4845 126.305 74.2192 126.252 74.0213C126.208 73.8235 126.107 73.675 125.948 73.5761C125.79 73.4682 125.557 73.4007 125.248 73.3737C124.949 73.3378 124.544 73.3198 124.033 73.3198H121.813V75.4379H119.62V67.8288H125.46C126.076 67.8288 126.583 67.8693 126.979 67.9502C127.375 68.0222 127.688 68.1481 127.917 68.328C128.146 68.5079 128.305 68.7462 128.393 69.043C128.481 69.3308 128.525 69.6951 128.525 70.1358V70.4057C128.525 70.9993 128.423 71.4535 128.221 71.7683C128.027 72.0831 127.692 72.2989 127.217 72.4159V72.4563C127.481 72.5013 127.697 72.5598 127.864 72.6317C128.04 72.6947 128.177 72.7936 128.274 72.9285C128.371 73.0634 128.437 73.2388 128.472 73.4547C128.507 73.6705 128.525 73.9449 128.525 74.2777V75.4379Z" fill="#242C37"/>
<path d="M132.742 75.4379H130.509V67.8288H132.742V75.4379Z" fill="#242C37"/>
<path d="M134.805 75.4379V67.8288H140.869C141.441 67.8288 141.917 67.8603 142.295 67.9233C142.683 67.9862 142.991 68.0941 143.22 68.247C143.449 68.391 143.612 68.5843 143.709 68.8272C143.806 69.07 143.854 69.3713 143.854 69.7311C143.854 70.2617 143.762 70.6575 143.577 70.9183C143.392 71.1792 143.137 71.359 142.811 71.458V71.485C143.225 71.5569 143.542 71.7323 143.762 72.0111C143.982 72.2899 144.092 72.6992 144.092 73.2388C144.092 73.6705 144.039 74.0303 143.934 74.3181C143.828 74.597 143.665 74.8218 143.445 74.9927C143.225 75.1546 142.947 75.2715 142.613 75.3435C142.278 75.4064 141.881 75.4379 141.423 75.4379H134.805ZM141.04 73.819C141.375 73.819 141.604 73.756 141.727 73.6301C141.859 73.4952 141.926 73.2973 141.926 73.0365C141.926 72.7666 141.859 72.5733 141.727 72.4563C141.604 72.3394 141.375 72.2809 141.04 72.2809H136.998V73.819H141.04ZM140.988 70.8239C141.216 70.8239 141.393 70.7744 141.516 70.6755C141.648 70.5765 141.714 70.3922 141.714 70.1223C141.714 69.8345 141.648 69.6411 141.516 69.5422C141.393 69.4433 141.216 69.3938 140.988 69.3938H136.998V70.8239H140.988Z" fill="#242C37"/>
<path d="M150.353 75.5323C149.437 75.5323 148.684 75.4964 148.094 75.4244C147.512 75.3435 147.054 75.1996 146.72 74.9927C146.385 74.7768 146.152 74.489 146.019 74.1293C145.896 73.7695 145.834 73.3063 145.834 72.7396V67.8288H148.054V72.0111C148.054 72.3979 148.076 72.7082 148.12 72.942C148.173 73.1759 148.279 73.3558 148.437 73.4817C148.596 73.5986 148.825 73.675 149.124 73.711C149.432 73.747 149.846 73.765 150.366 73.765H150.551C151.071 73.765 151.485 73.747 151.793 73.711C152.101 73.6661 152.334 73.5851 152.493 73.4682C152.652 73.3423 152.753 73.1669 152.797 72.942C152.841 72.7082 152.863 72.3979 152.863 72.0111V67.8288H155.082V72.7396C155.082 73.3063 155.021 73.7695 154.897 74.1293C154.774 74.489 154.545 74.7768 154.21 74.9927C153.885 75.1996 153.427 75.3435 152.836 75.4244C152.255 75.4964 151.502 75.5323 150.577 75.5323H150.353Z" fill="#242C37"/>
<path d="M162.011 75.4379H159.805V69.5422H156.595V67.8288H165.235V69.5422H162.011V75.4379Z" fill="#242C37"/>
<path d="M168.968 75.4379H166.735V67.8288H168.968V75.4379Z" fill="#242C37"/>
<path d="M175.734 75.5323C175.02 75.5323 174.404 75.5144 173.884 75.4784C173.373 75.4514 172.937 75.3929 172.576 75.303C172.215 75.2041 171.92 75.0691 171.691 74.8983C171.471 74.7274 171.299 74.5025 171.176 74.2237C171.053 73.9449 170.969 73.6031 170.925 73.1984C170.881 72.7936 170.859 72.3079 170.859 71.7413V71.5254C170.859 70.9588 170.881 70.4731 170.925 70.0684C170.969 69.6636 171.053 69.3219 171.176 69.043C171.299 68.7552 171.471 68.5259 171.691 68.355C171.92 68.1841 172.215 68.0537 172.576 67.9637C172.937 67.8738 173.373 67.8153 173.884 67.7883C174.404 67.7524 175.02 67.7344 175.734 67.7344H176.077C176.791 67.7344 177.403 67.7524 177.914 67.7883C178.433 67.8153 178.874 67.8738 179.235 67.9637C179.596 68.0537 179.887 68.1841 180.107 68.355C180.336 68.5259 180.512 68.7552 180.635 69.043C180.759 69.3219 180.842 69.6636 180.886 70.0684C180.93 70.4731 180.952 70.9588 180.952 71.5254V71.7413C180.952 72.3079 180.93 72.7936 180.886 73.1984C180.842 73.6031 180.759 73.9494 180.635 74.2372C180.512 74.516 180.336 74.7409 180.107 74.9117C179.887 75.0826 179.596 75.2131 179.235 75.303C178.874 75.3929 178.433 75.4514 177.914 75.4784C177.403 75.5144 176.791 75.5323 176.077 75.5323H175.734ZM175.998 73.765C176.641 73.765 177.143 73.747 177.504 73.711C177.874 73.675 178.147 73.5896 178.323 73.4547C178.508 73.3108 178.618 73.0994 178.654 72.8206C178.698 72.5418 178.72 72.164 178.72 71.6873V71.5659C178.72 71.0802 178.698 70.698 178.654 70.4191C178.618 70.1313 178.508 69.92 178.323 69.7851C178.147 69.6411 177.874 69.5512 177.504 69.5152C177.143 69.4793 176.641 69.4613 175.998 69.4613H175.813C175.161 69.4613 174.655 69.4793 174.294 69.5152C173.933 69.5512 173.66 69.6411 173.475 69.7851C173.299 69.92 173.189 70.1313 173.144 70.4191C173.109 70.698 173.092 71.0802 173.092 71.5659V71.6873C173.092 72.164 173.109 72.5418 173.144 72.8206C173.189 73.0994 173.299 73.3108 173.475 73.4547C173.66 73.5896 173.933 73.675 174.294 73.711C174.655 73.747 175.161 73.765 175.813 73.765H175.998Z" fill="#242C37"/>
<path d="M192.731 75.4379H189.415L185.055 69.7446H185.002V75.4379H182.835V67.8288H186.204L190.511 73.5221H190.551V67.8288H192.731V75.4379Z" fill="#242C37"/>
</svg>
