<svg width="226" height="120" viewBox="0 0 226 120" fill="none" xmlns="http://www.w3.org/2000/svg">
<path d="M41.1779 59.9122L43.8255 63.748C44.0694 64.1013 44.2 64.5188 44.2 64.9451L44.2265 74.2679C44.2285 74.49 44.1174 74.602 43.8933 74.604L37.2801 74.6335C37.0973 74.6335 37.0059 74.5421 37.0059 74.3593C37.0708 65.1033 37.0688 55.7324 37 46.2464C37 46.1128 37.0658 46.0469 37.1975 46.0489L43.7489 46.0666C44.0614 46.0685 44.2167 46.2258 44.2147 46.5383C44.2068 49.2803 44.2019 51.925 44.2 54.4724C44.2 55.3127 43.6516 56.1648 43.1415 56.8311C42.4653 57.7176 41.8118 58.6031 41.1808 59.4876C41.0806 59.6291 41.0796 59.7707 41.1779 59.9122Z" fill="#959BAD"/>
<path d="M59.9238 72.9262C59.9991 72.9031 60.0637 72.8539 60.1058 72.7874C60.148 72.7209 60.165 72.6415 60.1538 72.5636C60.0418 71.856 59.9268 71.1543 59.9297 70.4378C59.9671 63.6034 59.9504 57.061 59.8796 50.8104C59.8718 50.2856 59.858 49.745 59.8383 49.1888C59.8108 48.4045 60.0516 48.3111 60.5607 48.9087C60.9351 49.348 61.171 50.0202 61.4894 50.5391C62.8123 52.6954 64.1174 54.8064 65.4049 56.8723C65.8648 57.6153 66.1223 58.2983 66.1774 58.9214C66.2717 60.0025 66.313 61.0757 66.3012 62.141C66.254 66.5715 66.255 70.6 66.3042 74.2265C66.3081 74.4643 66.1911 74.5842 65.9533 74.5862L52.8595 74.6245C52.6618 74.6255 52.4669 74.5762 52.2932 74.4814C52.1194 74.3865 51.9724 74.2491 51.8659 74.082C50.4114 71.798 48.9647 69.5946 47.5259 67.4717C45.9514 65.1513 44.5274 62.6364 42.7878 60.3779C42.436 59.9199 42.434 59.4786 42.7819 59.0541C44.4301 57.0521 45.5741 54.944 47.0158 52.8802C48.7082 50.4527 50.1539 48.4281 51.3529 46.8065C51.7008 46.3377 52.3023 46.1284 52.8654 46.093C54.8389 45.9731 56.8595 45.9691 58.9273 46.0812C58.9765 46.0842 59.0241 46.1004 59.065 46.1279C59.1059 46.1555 59.1387 46.1934 59.16 46.2379C59.1814 46.2824 59.1904 46.3318 59.1863 46.3809C59.1822 46.4301 59.1651 46.4772 59.1366 46.5175L50.3151 58.6885C50.2384 58.7946 50.2394 58.8998 50.318 59.004C50.6364 59.4138 50.9814 59.8089 51.2733 60.2482C53.6202 63.7686 55.9475 67.2978 58.2551 70.8358C58.6482 71.4353 59.0334 72.0516 59.4108 72.6845C59.5465 72.9085 59.7175 72.9891 59.9238 72.9262Z" fill="#959BAD"/>
<path d="M103.755 53.8385L100.959 53.7058C100.951 52.6267 101.337 51.1731 99.6769 51.1525C97.1492 51.121 94.5467 51.1083 91.8696 51.1141C91.1679 51.1141 90.5792 51.1476 90.1035 51.2144C89.4037 51.3087 89.0264 51.8424 88.9713 52.8154C88.9045 54.0163 88.9104 55.2576 88.989 56.5392C89.048 57.4827 89.6878 57.7981 90.5192 57.8158C93.0018 57.8709 95.332 57.8768 97.5098 57.8335C98.3275 57.8178 99.1629 57.8257 100.016 57.8571C103.902 57.9986 105.96 60.3131 105.963 64.1932C105.965 65.9603 105.962 67.6743 105.954 69.3352C105.948 71.3194 104.792 73.5396 102.973 74.2619C102.317 74.5234 101.193 74.6492 99.6032 74.6393C92.2715 74.6 85.0962 74.603 78.077 74.6482C77.6603 74.6501 77.2515 74.6039 76.8505 74.5096C76.7522 74.488 76.6726 74.4359 76.6117 74.3533C76.2382 73.8521 75.8844 73.3027 75.5503 72.7052C73.0559 68.2413 70.6392 63.9308 68.3002 59.7736C67.6456 58.6119 67.0913 57.4149 66.3867 56.262C64.4113 53.0188 62.3651 49.7638 60.2481 46.497C60.222 46.456 60.2072 46.4089 60.2053 46.3604C60.2034 46.3118 60.2144 46.2637 60.2371 46.2208C60.2599 46.1779 60.2937 46.1418 60.335 46.1163C60.3763 46.0907 60.4237 46.0766 60.4722 46.0754C62.9174 46.0419 65.4265 46.0488 67.9994 46.096C68.479 46.1058 68.8476 46.325 69.1051 46.7535C70.0211 48.2788 70.8928 49.7717 71.7203 51.2321C75.1404 57.2547 78.5222 63.1662 81.8657 68.9666C81.966 69.1404 82.1105 69.2845 82.2845 69.3845C82.4584 69.4844 82.6557 69.5366 82.8564 69.5357C87.9315 69.5298 93.1276 69.5023 98.4445 69.4531C99.2671 69.4472 101.01 69.2379 101.069 68.1352C101.124 67.0718 101.129 65.9632 101.083 64.8094C101.066 64.3613 100.981 63.9298 100.83 63.5151C100.796 63.4227 100.734 63.3568 100.644 63.3175C100.105 63.0816 99.5619 62.9588 99.0135 62.949C95.3477 62.888 91.6298 62.8772 87.8598 62.9165C87.105 62.9244 86.4524 62.8428 85.902 62.6718C84.2509 62.1588 83.8234 60.3397 83.7586 58.7505C83.619 55.1986 83.6465 52.21 83.8411 49.7844C83.9787 48.0626 84.6765 46.9451 85.9345 46.4321C86.5242 46.1923 87.3409 46.0695 88.3846 46.0636C93.6878 46.036 97.8735 46.039 100.942 46.0724C102.012 46.0842 103.469 46.3053 104.268 47.0749C105.14 47.9161 105.654 48.9776 105.81 50.2591C105.935 51.3028 106.022 52.3908 106.069 53.523C106.071 53.5601 106.065 53.5972 106.052 53.632C106.039 53.6668 106.019 53.6986 105.993 53.7256C105.968 53.7525 105.937 53.7741 105.903 53.7889C105.869 53.8037 105.832 53.8116 105.795 53.8119L103.755 53.8385Z" fill="#959BAD"/>
<path d="M80.9016 65.0295C79.6131 62.9479 78.5222 60.7809 77.2692 58.6905C76.4495 57.3224 76.3552 55.9721 76.3522 54.4183C76.3443 51.694 76.3414 49.005 76.3434 46.3515C76.3434 46.2819 76.371 46.2151 76.4202 46.1659C76.4694 46.1167 76.5362 46.0891 76.6058 46.0891L82.2932 46.0566C82.3503 46.0565 82.4067 46.0681 82.459 46.0909C82.5114 46.1136 82.5584 46.1469 82.5972 46.1888C82.636 46.2306 82.6657 46.28 82.6844 46.3339C82.7031 46.3878 82.7105 46.445 82.706 46.5018C82.5792 48.035 82.361 49.577 82.364 51.1338C82.3669 54.4124 82.2814 57.6969 82.5645 60.9991C82.6962 62.5342 82.7541 64.1155 82.7384 65.743C82.7296 66.4005 82.877 67.0374 82.9831 67.6831C82.9902 67.7247 82.9853 67.7675 82.969 67.8065C82.9528 67.8455 82.9259 67.8791 82.8913 67.9035C82.8568 67.9278 82.8161 67.9419 82.7739 67.9441C82.7317 67.9463 82.6898 67.9366 82.6529 67.916C82.474 67.8177 82.3315 67.6742 82.2254 67.4855C81.7655 66.6747 81.394 65.8226 80.9016 65.0295Z" fill="#959BAD"/>
<path d="M125.743 46.2713L123.897 46.2617C123.697 46.2606 123.534 46.4221 123.533 46.6224L123.526 48.0081C123.524 48.2084 123.686 48.3716 123.886 48.3727L125.732 48.3823C125.932 48.3834 126.095 48.2219 126.096 48.0216L126.104 46.6359C126.105 46.4356 125.943 46.2724 125.743 46.2713Z" fill="#959BAD"/>
<path d="M141.223 46.291H139.701C139.405 46.291 139.165 46.5313 139.165 46.8276V47.8301C139.165 48.1264 139.405 48.3667 139.701 48.3667H141.223C141.519 48.3667 141.759 48.1264 141.759 47.8301V46.8276C141.759 46.5313 141.519 46.291 141.223 46.291Z" fill="#959BAD"/>
<path d="M118.954 50.2989L118.768 46.805C118.748 46.4591 118.912 46.2871 119.26 46.2891L120.811 46.2979C121.169 46.2999 121.334 46.4788 121.306 46.8345C121.247 47.5972 121.218 48.1112 121.218 48.3765C121.214 51.665 121.22 55.0713 121.236 58.5956C121.236 58.6389 121.219 58.6805 121.188 58.7114C121.158 58.7422 121.117 58.76 121.074 58.7608L119.425 58.7814C119.305 58.7834 119.23 58.7254 119.198 58.6074L119.092 58.2241C119.074 58.1557 119.037 58.0933 118.987 58.043C118.937 57.9927 118.875 57.9563 118.807 57.9373C118.738 57.9182 118.666 57.9173 118.597 57.9345C118.529 57.9517 118.465 57.9865 118.414 58.0355C117.345 59.0477 116.192 59.3052 114.956 58.8079C112.668 57.888 112.105 55.6443 112.326 53.3623C112.542 51.1569 113.738 49.8468 115.914 49.4321C116.831 49.2552 117.901 50.0954 118.715 50.461C118.882 50.5357 118.962 50.4817 118.954 50.2989ZM116.806 57.1745C117.085 57.174 117.36 57.0978 117.617 56.95C117.874 56.8023 118.108 56.586 118.304 56.3135C118.5 56.0411 118.656 55.7177 118.762 55.362C118.868 55.0062 118.922 54.625 118.921 54.2401C118.921 53.8553 118.865 53.4743 118.758 53.1189C118.651 52.7635 118.494 52.4407 118.297 52.1689C118.099 51.8971 117.865 51.6816 117.608 51.5348C117.35 51.388 117.075 51.3126 116.796 51.3131C116.518 51.3136 116.242 51.3899 115.985 51.5376C115.728 51.6854 115.495 51.9016 115.299 52.1741C115.102 52.4466 114.947 52.7699 114.841 53.1257C114.735 53.4815 114.681 53.8626 114.681 54.2475C114.682 54.6324 114.738 55.0134 114.845 55.3688C114.952 55.7241 115.109 56.0469 115.306 56.3187C115.503 56.5905 115.737 56.806 115.995 56.9528C116.252 57.0997 116.528 57.175 116.806 57.1745Z" fill="#959BAD"/>
<path d="M161.955 46.3184H160.045C159.905 46.3184 159.791 46.4319 159.791 46.5719V58.4893C159.791 58.6293 159.905 58.7429 160.045 58.7429H161.955C162.095 58.7429 162.209 58.6293 162.209 58.4893V46.5719C162.209 46.4319 162.095 46.3184 161.955 46.3184Z" fill="#959BAD"/>
<path d="M144.098 49.5647C144.284 49.5155 144.351 49.3976 144.298 49.2109C144.09 48.4699 144.218 47.9313 144.684 47.5952C145.211 47.2119 145.777 46.9102 146.383 46.69C146.438 46.6695 146.499 46.6646 146.557 46.6758C146.616 46.687 146.67 46.7139 146.714 46.7536C146.758 46.7933 146.791 46.8443 146.808 46.9012C146.826 46.958 146.827 47.0185 146.813 47.0762C146.624 47.8468 146.557 48.6035 146.61 49.3465C146.619 49.49 146.696 49.5657 146.84 49.5735C147.553 49.6089 148.508 49.6767 148.505 50.6497C148.505 51.7141 147.568 51.5814 146.837 51.6197C146.795 51.6218 146.754 51.6325 146.717 51.651C146.68 51.6695 146.647 51.6954 146.62 51.7272C146.593 51.759 146.573 51.7959 146.561 51.8358C146.549 51.8756 146.546 51.9175 146.551 51.9588C146.728 53.5312 146.737 55.0369 146.58 56.4757C146.569 56.5783 146.598 56.6812 146.662 56.7622C146.725 56.8432 146.818 56.8959 146.919 56.9091L148.06 57.0565C148.196 57.0742 148.295 57.144 148.358 57.2659C148.547 57.6354 148.612 58.0138 148.553 58.401C148.543 58.4627 148.519 58.5211 148.482 58.571C148.445 58.6209 148.396 58.6608 148.34 58.687C147.475 59.0998 146.587 59.1607 145.675 58.8698C144.201 58.3951 144.283 57.3484 144.272 55.8389C144.264 54.4551 144.272 53.1509 144.295 51.9263C144.299 51.8143 144.249 51.7367 144.145 51.6934C143.299 51.3485 142.73 51.2541 143.122 50.0335C143.169 49.8821 143.27 49.7858 143.425 49.7445L144.098 49.5647Z" fill="#959BAD"/>
<path d="M134.739 50.2646L134.866 49.9579C134.885 49.9142 134.912 49.8748 134.946 49.8423C134.98 49.8099 135.02 49.785 135.063 49.7692C135.59 49.5845 136.125 49.5648 136.667 49.7103C136.721 49.7246 136.769 49.7563 136.803 49.8006C136.837 49.8448 136.856 49.8991 136.856 49.955C136.864 53.0567 136.856 56.009 136.832 58.8119C136.824 60.2242 136.373 61.5186 134.901 62.0168C132.498 62.8306 128.99 62.9131 128.158 59.9176C128.14 59.8519 128.138 59.7827 128.153 59.7162C128.167 59.6496 128.198 59.5876 128.243 59.5358C128.287 59.4839 128.343 59.4438 128.407 59.4188C128.47 59.3939 128.539 59.3849 128.606 59.3928C129.302 59.4675 129.983 59.6041 130.65 59.8026C131.157 59.9559 131.354 60.4512 131.867 60.6016C132.69 60.8404 133.94 60.6753 134.306 59.7525C134.559 59.1078 134.678 58.4483 134.662 57.7741C134.662 57.7394 134.652 57.7055 134.634 57.6759C134.615 57.6464 134.59 57.6222 134.559 57.606C134.528 57.5897 134.494 57.582 134.459 57.5836C134.424 57.5851 134.391 57.5959 134.362 57.6149C133.622 58.0925 132.988 58.7028 132.053 58.7264C130.082 58.7756 128.792 57.8626 128.185 55.9874C127.374 53.493 128.144 50.4415 130.962 49.5658C132.162 49.1913 133.129 49.7309 134.12 50.4385C134.401 50.641 134.607 50.583 134.739 50.2646ZM132.441 56.8777C133.001 56.8816 133.54 56.5934 133.939 56.0764C134.339 55.5594 134.566 54.8561 134.571 54.1211C134.574 53.7571 134.521 53.3963 134.418 53.0593C134.314 52.7224 134.161 52.4158 133.966 52.157C133.772 51.8983 133.541 51.6926 133.286 51.5515C133.031 51.4104 132.757 51.3368 132.479 51.3349C131.92 51.331 131.381 51.6192 130.981 52.1362C130.582 52.6532 130.354 53.3565 130.349 54.0916C130.347 54.4555 130.399 54.8163 130.502 55.1533C130.606 55.4903 130.759 55.7969 130.954 56.0556C131.148 56.3143 131.379 56.5201 131.634 56.6611C131.889 56.8022 132.163 56.8758 132.441 56.8777Z" fill="#959BAD"/>
<path d="M155.434 58.3045C155.384 58.2156 155.301 58.15 155.203 58.1219C155.104 58.0937 154.999 58.1053 154.909 58.1541C154.615 58.3173 154.326 58.4784 154.043 58.6377C150.348 60.7133 146.922 55.132 151.466 53.8112C152.643 53.4691 153.822 53.1861 155.004 52.962C155.079 52.9479 155.147 52.9073 155.194 52.8477C155.242 52.7881 155.267 52.7136 155.263 52.6377C155.207 51.3699 153.326 50.9512 152.477 51.6411C151.985 52.0421 151.472 52.5168 150.776 52.3635C150.446 52.2927 150.138 52.2171 149.853 52.1365C149.796 52.1208 149.744 52.0921 149.701 52.0526C149.658 52.0132 149.624 51.9641 149.603 51.9093C149.582 51.8545 149.574 51.7955 149.58 51.7372C149.586 51.6788 149.606 51.6227 149.638 51.5733C150.263 50.5945 151.027 49.9665 151.932 49.6893C153.615 49.1704 157.304 49.3473 157.392 51.8623C157.445 53.3758 157.438 54.8519 157.371 56.2907C157.333 57.0691 157.569 57.7885 157.758 58.5315C157.767 58.5693 157.768 58.6088 157.76 58.6469C157.751 58.685 157.734 58.7206 157.709 58.7508C157.685 58.7809 157.653 58.8048 157.618 58.8205C157.582 58.8362 157.543 58.8433 157.504 58.8411L155.9 58.7585C155.757 58.7507 155.649 58.6839 155.579 58.5581L155.434 58.3045ZM154.391 54.4863L151.881 55.4564C151.756 55.5051 151.655 55.6017 151.6 55.7249C151.545 55.8481 151.541 55.9879 151.59 56.1138L151.601 56.1463C151.772 56.586 152.112 56.9395 152.546 57.1291C152.981 57.3187 153.474 57.3289 153.919 57.1576L154.025 57.1192C154.47 56.9471 154.828 56.6073 155.022 56.1744C155.216 55.7415 155.23 55.251 155.06 54.8107L155.048 54.7782C154.999 54.6526 154.903 54.5513 154.779 54.4966C154.656 54.4419 154.516 54.4382 154.391 54.4863Z" fill="#959BAD"/>
<path d="M125.86 49.7264L123.778 49.7301C123.656 49.7303 123.557 49.8295 123.558 49.9516L123.573 58.555C123.573 58.6771 123.672 58.7759 123.794 58.7757L125.876 58.7721C125.998 58.7719 126.097 58.6727 126.096 58.5506L126.081 49.9472C126.081 49.8251 125.982 49.7262 125.86 49.7264Z" fill="#959BAD"/>
<path d="M141.397 49.7598H139.492C139.345 49.7598 139.227 49.8786 139.227 50.0251V58.487C139.227 58.6335 139.345 58.7523 139.492 58.7523H141.397C141.543 58.7523 141.662 58.6335 141.662 58.487V50.0251C141.662 49.8786 141.543 49.7598 141.397 49.7598Z" fill="#959BAD"/>
<path d="M156.958 62.0009L155.272 62.0097C155.062 62.0108 154.892 62.182 154.894 62.3921L154.901 63.7483C154.902 63.9583 155.073 64.1277 155.283 64.1266L156.969 64.1178C157.18 64.1167 157.349 63.9455 157.348 63.7355L157.341 62.3792C157.34 62.1692 157.168 61.9998 156.958 62.0009Z" fill="#959BAD"/>
<path d="M149.004 67.4115C148.738 67.4017 148.482 67.3359 148.234 67.214C148.134 67.1648 148.056 67.0783 148.016 66.9722C147.875 66.5732 147.872 66.1447 148.007 65.6867C148.047 65.5511 148.137 65.4735 148.279 65.4538L148.892 65.3713C148.956 65.3628 149.017 65.3403 149.071 65.3054C149.126 65.2706 149.171 65.2242 149.206 65.1696C149.24 65.115 149.262 65.0536 149.27 64.9895C149.278 64.9255 149.272 64.8606 149.251 64.7993C149.147 64.4828 149.099 64.1614 149.107 63.8351C149.111 63.7329 149.153 63.6504 149.234 63.5875C149.853 63.1157 150.521 62.7098 151.239 62.3698C151.288 62.3463 151.342 62.3364 151.396 62.3409C151.45 62.3455 151.501 62.3643 151.546 62.3956C151.59 62.4269 151.625 62.4694 151.647 62.5188C151.669 62.5682 151.678 62.6226 151.672 62.6764L151.421 64.9202C151.415 64.9813 151.421 65.0432 151.44 65.1018C151.459 65.1604 151.489 65.2145 151.53 65.2606C151.571 65.3066 151.621 65.3437 151.677 65.3693C151.733 65.395 151.793 65.4087 151.855 65.4096L152.972 65.4273C153.022 65.428 153.069 65.4452 153.108 65.4762C153.146 65.5072 153.173 65.5502 153.185 65.5983C153.314 66.1565 153.299 66.6754 153.137 67.155C153.123 67.2004 153.094 67.2401 153.055 67.2682C153.016 67.2963 152.968 67.3114 152.919 67.3113L151.811 67.3201C151.773 67.3201 151.736 67.3276 151.702 67.3422C151.667 67.3567 151.636 67.3781 151.609 67.4049C151.583 67.4318 151.562 67.4637 151.548 67.4987C151.534 67.5338 151.527 67.5713 151.528 67.6091C151.549 69.2621 151.554 70.7413 151.542 72.0464C151.535 72.7088 151.95 72.9329 152.79 72.7186C153.047 72.6538 153.193 72.753 153.229 73.0164L153.37 74.1014C153.404 74.357 153.295 74.5103 153.043 74.5614C152.032 74.7707 150.401 74.8179 149.626 74.1309C149.266 73.8095 149.219 73.0282 149.19 72.5742C149.081 71.0174 149.092 69.3791 149.222 67.6592C149.224 67.6283 149.221 67.5972 149.211 67.5677C149.201 67.5383 149.186 67.5113 149.165 67.4881C149.145 67.465 149.12 67.4463 149.092 67.4331C149.065 67.4199 149.034 67.4126 149.004 67.4115Z" fill="#959BAD"/>
<path d="M135.809 63.0582L135.83 74.5952C135.83 74.621 135.82 74.6458 135.801 74.664C135.783 74.6823 135.758 74.6925 135.733 74.6925L133.43 74.6896C133.404 74.6896 133.379 74.6793 133.361 74.6611C133.343 74.6428 133.333 74.6181 133.333 74.5923L133.315 63.6066C133.315 63.5849 133.322 63.5638 133.336 63.5467C133.349 63.5296 133.368 63.5175 133.389 63.5122L135.688 62.9638C135.703 62.9603 135.718 62.96 135.732 62.9631C135.747 62.9661 135.76 62.9724 135.772 62.9815C135.783 62.9906 135.793 63.0023 135.799 63.0155C135.806 63.0288 135.809 63.0434 135.809 63.0582Z" fill="#959BAD"/>
<path d="M118.184 71.9C118.076 71.6405 117.867 71.4715 117.559 71.3929C116.305 71.0744 115.159 70.7364 114.121 70.3786C112.092 69.6828 111.632 67.5423 113.251 66.0651C114.436 64.986 116.733 65.045 118.08 65.4725C118.979 65.7556 119.635 66.2637 120.05 66.9968C120.292 67.4273 120.174 67.7035 119.696 67.8253C118.696 68.0809 117.89 67.8784 117.278 67.218C117.206 67.1393 117.117 67.0872 117.013 67.0617C116.268 66.8769 115.544 66.9005 114.84 67.1325C114.75 67.1622 114.67 67.2149 114.606 67.2852C114.543 67.3556 114.499 67.4413 114.479 67.5338C114.458 67.6263 114.463 67.7225 114.491 67.8129C114.519 67.9033 114.57 67.9848 114.64 68.0494C114.85 68.246 115.101 68.3767 115.392 68.4415C116.596 68.7167 117.755 69.0538 118.868 69.4528C121.648 70.4494 120.687 73.725 118.375 74.4415C117.546 74.699 116.598 74.7776 115.533 74.6774C114.214 74.5535 113.098 73.9599 112.184 72.8966C112.116 72.8174 112.07 72.7227 112.048 72.621C112.027 72.5193 112.032 72.4139 112.062 72.3146C112.091 72.2153 112.146 72.1253 112.22 72.0528C112.294 71.9804 112.385 71.9278 112.484 71.9C113.481 71.6189 114.239 71.7545 114.758 72.3069C115.636 73.2386 116.898 73.2533 117.974 72.5722C118.083 72.503 118.164 72.3975 118.202 72.2744C118.24 72.1514 118.234 72.0187 118.184 71.9Z" fill="#959BAD"/>
<path d="M131.578 69.9855C131.578 71.257 131.073 72.4763 130.174 73.3754C129.275 74.2745 128.056 74.7796 126.784 74.7796C125.513 74.7796 124.293 74.2745 123.394 73.3754C122.495 72.4763 121.99 71.257 121.99 69.9855C121.99 68.714 122.495 67.4946 123.394 66.5956C124.293 65.6965 125.513 65.1914 126.784 65.1914C128.056 65.1914 129.275 65.6965 130.174 66.5956C131.073 67.4946 131.578 68.714 131.578 69.9855ZM126.83 72.8365C127.131 72.8338 127.429 72.7579 127.706 72.6129C127.983 72.4679 128.234 72.2568 128.444 71.9916C128.655 71.7264 128.821 71.4122 128.934 71.0671C129.046 70.722 129.102 70.3527 129.099 69.9802C129.092 69.228 128.844 68.5087 128.409 67.9806C127.975 67.4524 127.389 67.1587 126.78 67.164C126.479 67.1666 126.181 67.2426 125.904 67.3875C125.627 67.5325 125.376 67.7436 125.166 68.0089C124.955 68.2741 124.789 68.5882 124.676 68.9333C124.564 69.2785 124.508 69.6478 124.511 70.0202C124.518 70.7725 124.766 71.4917 125.201 72.0199C125.635 72.548 126.221 72.8418 126.83 72.8365Z" fill="#959BAD"/>
<path d="M168.71 69.9835C168.71 70.6123 168.586 71.2349 168.346 71.8159C168.105 72.3968 167.752 72.9246 167.308 73.3692C166.863 73.8139 166.335 74.1666 165.754 74.4072C165.173 74.6478 164.551 74.7717 163.922 74.7717C163.293 74.7717 162.671 74.6478 162.09 74.4072C161.509 74.1666 160.981 73.8139 160.536 73.3692C160.092 72.9246 159.739 72.3968 159.498 71.8159C159.258 71.2349 159.134 70.6123 159.134 69.9835C159.134 68.7136 159.638 67.4957 160.536 66.5977C161.434 65.6998 162.652 65.1953 163.922 65.1953C165.192 65.1953 166.41 65.6998 167.308 66.5977C168.206 67.4957 168.71 68.7136 168.71 69.9835ZM163.956 72.8552C164.561 72.8531 165.14 72.5497 165.566 72.0119C165.992 71.4741 166.23 70.7458 166.228 69.9873C166.226 69.6118 166.166 69.2401 166.05 68.8935C165.934 68.5469 165.765 68.2322 165.552 67.9674C165.339 67.7026 165.087 67.4928 164.81 67.35C164.532 67.2073 164.235 67.1343 163.936 67.1354C163.33 67.1375 162.751 67.4408 162.325 67.9787C161.899 68.5165 161.661 69.2448 161.664 70.0032C161.665 70.3788 161.725 70.7505 161.841 71.0971C161.957 71.4437 162.126 71.7584 162.339 72.0232C162.552 72.288 162.804 72.4978 163.081 72.6406C163.359 72.7833 163.656 72.8562 163.956 72.8552Z" fill="#959BAD"/>
<path d="M186.69 72.0405C186.648 71.7261 186.474 71.5265 186.165 71.442C185.056 71.1393 183.919 70.8101 182.754 70.4543C180.15 69.6583 180.088 66.4357 182.594 65.5364C184.534 64.8376 187.421 65.0706 188.556 67.0902C188.59 67.1511 188.611 67.2188 188.615 67.2886C188.62 67.3583 188.609 67.4282 188.583 67.493C188.557 67.5578 188.516 67.616 188.465 67.6631C188.413 67.7103 188.352 67.7452 188.285 67.7654C187.282 68.0661 186.503 67.9413 185.947 67.3909C185.31 66.76 184.033 66.872 183.281 67.1256C183.199 67.1534 183.125 67.2003 183.064 67.2625C183.004 67.3246 182.959 67.4002 182.933 67.4831C182.908 67.566 182.902 67.6538 182.917 67.7392C182.932 67.8247 182.967 67.9054 183.019 67.9747C183.161 68.1634 183.354 68.2931 183.6 68.3639C185.05 68.7796 186.681 69.042 187.955 69.7939C189.096 70.472 189.275 71.9049 188.627 72.9929C187.674 74.5791 185.849 74.8297 184.116 74.6882C182.754 74.5781 181.648 74.0287 180.799 73.0401C180.553 72.7531 180.481 72.4209 180.584 72.0435C180.607 71.959 180.662 71.9108 180.749 71.899C181.424 71.7958 182.497 71.557 183.031 72.1526C183.843 73.0607 184.834 73.2799 186.006 72.8101C186.333 72.6803 186.746 72.4622 186.69 72.0405Z" fill="#959BAD"/>
<path d="M172.921 66.4331C172.928 66.4508 172.94 66.4662 172.956 66.478C172.971 66.4897 172.989 66.4974 173.008 66.5004C173.027 66.5033 173.047 66.5014 173.065 66.4948C173.083 66.4882 173.099 66.4771 173.112 66.4626C174.066 65.3717 175.288 64.9972 176.78 65.3392C178.175 65.6577 178.897 66.9314 178.867 68.2935C178.822 70.2572 178.845 72.2139 178.935 74.1638C178.941 74.3171 178.868 74.4095 178.717 74.4409C178.1 74.5608 177.431 74.5726 176.709 74.4763C176.489 74.4468 176.383 74.321 176.391 74.0989C176.467 72.1294 176.478 70.2768 176.423 68.5412C176.388 67.4326 175.415 66.7928 174.377 67.1525C173.447 67.4768 172.962 68.1255 172.921 69.0984C172.846 70.7731 172.868 72.438 172.988 74.093C173.01 74.3761 172.878 74.5186 172.593 74.5205L170.966 74.5294C170.667 74.5313 170.518 74.3829 170.518 74.0842L170.509 65.755C170.509 65.6765 170.537 65.6007 170.588 65.5408C170.638 65.4809 170.709 65.4409 170.786 65.4277C171.352 65.3334 171.871 65.3648 172.343 65.522C172.474 65.5653 172.569 65.6498 172.626 65.7756L172.921 66.4331Z" fill="#959BAD"/>
<path d="M144.044 73.6108C143.495 73.8909 143.094 74.3656 142.493 74.5278C141.504 74.7931 140.572 74.74 139.698 74.3685C138.498 73.8585 138.226 72.4344 138.256 71.2845C138.301 69.3917 138.28 67.5519 138.194 65.7652C138.184 65.5529 138.286 65.4448 138.501 65.4408L140.373 65.3966C140.632 65.3907 140.756 65.5175 140.744 65.777C140.66 67.6777 140.653 69.5814 140.724 71.488C140.759 72.4727 141.227 72.9514 142.127 72.9238C143.271 72.8855 144.055 72.172 144.088 71.0369C144.149 68.9494 144.147 67.205 144.082 65.8035C144.068 65.548 144.189 65.4182 144.445 65.4143L146.172 65.3907C146.43 65.3868 146.559 65.5136 146.559 65.7711L146.6 74.2418C146.6 74.307 146.576 74.3701 146.532 74.4194C146.489 74.4687 146.429 74.5009 146.364 74.5101C145.835 74.5808 145.304 74.5572 144.769 74.4393C144.723 74.4292 144.68 74.4087 144.644 74.3795C144.608 74.3504 144.579 74.3133 144.56 74.2713L144.294 73.6963C144.239 73.5803 144.156 73.5518 144.044 73.6108Z" fill="#959BAD"/>
<path d="M157.1 65.4824H155.201C155.066 65.4824 154.957 65.592 154.957 65.7271V74.2775C154.957 74.4126 155.066 74.5222 155.201 74.5222H157.1C157.235 74.5222 157.345 74.4126 157.345 74.2775V65.7271C157.345 65.592 157.235 65.4824 157.1 65.4824Z" fill="#959BAD"/>
</svg>
