<svg width="226" height="120" viewBox="0 0 226 120" fill="none" xmlns="http://www.w3.org/2000/svg">
<g id="Frame 1000002530">
<g id="Clip path group">
<mask id="mask0_644_19752" style="mask-type:luminance" maskUnits="userSpaceOnUse" x="33" y="36" width="161" height="48">
<g id="clip0_3684_4853">
<path id="Vector" d="M193.199 36H33.1992V83.9401H193.199V36Z" fill="white"/>
</g>
</mask>
<g mask="url(#mask0_644_19752)">
<g id="Group">
<path id="Vector_2" d="M193.199 78.4079C193.199 79.5289 192.314 80.4256 191.209 80.4256H155.567C154.461 80.4256 153.576 79.5289 153.576 78.4079V42.0138C153.576 40.8929 154.461 39.9961 155.567 39.9961H191.19C192.296 39.9961 193.18 40.8929 193.18 42.0138L193.199 78.4079Z" fill="#959BAD"/>
<path id="Vector_3" d="M158.83 51.7695H167.234C169.058 51.7695 170.441 52.1993 171.344 53.0773C172.247 53.9554 172.707 55.1885 172.707 56.7952C172.707 58.4393 172.21 59.7284 171.214 60.6625C170.219 61.5967 168.708 62.0638 166.662 62.0638H163.898V68.0983H158.83V51.7695ZM163.898 58.7569H165.152C166.128 58.7569 166.828 58.5888 167.215 58.2525C167.603 57.9349 167.805 57.4678 167.805 56.9634C167.824 56.4776 167.639 55.9919 167.289 55.6556C166.939 55.3006 166.294 55.1138 165.354 55.1138H163.898V58.7569ZM173.813 51.7695H179.305L181.572 58.4953L183.801 51.7695H188.943L183.58 64.3804C183.248 65.1651 182.861 65.9311 182.438 66.6597C182.069 67.2016 181.572 67.6312 180.982 67.8928C180.337 68.2104 179.452 68.3785 178.328 68.3785C177.738 68.3785 176.706 68.2851 175.25 68.117V64.7541C176.117 64.8475 176.725 64.8849 177.13 64.8849C178.291 64.8849 179.01 64.4552 179.268 63.5771L173.813 51.7695Z" fill="white"/>
<path id="Vector_4" d="M137.028 76.6533V64.1172H123.98V67.7416C123.98 71.0485 123.538 74.019 122.635 76.6346H121.031V83.9396H124.901V80.3899H134.834V83.9396H138.705V76.6346H137.028V76.6533ZM132.217 76.6533H127.26C127.998 73.3651 128.348 70.5814 128.348 68.3395V68.134H132.217V76.6533Z" fill="#959BAD"/>
<path id="Vector_5" d="M115.614 60.1211C115.485 61.0179 115.024 61.8212 114.324 62.3817C112.813 63.5214 110.749 63.5214 109.237 62.3817C108.537 61.8399 108.077 61.0366 107.947 60.1398H109.772C110.067 61.0739 110.73 61.5223 111.726 61.5223C112.794 61.5223 113.476 61.0553 113.771 60.1398L115.614 60.1211Z" fill="#959BAD"/>
<path id="Vector_6" d="M119.134 64.1172V80.4085H114.619V71.4595L108.832 80.4085H104.262V64.1172H108.814V73.1223L114.637 64.1172H119.134Z" fill="#959BAD"/>
<path id="Vector_7" d="M88.5215 64.1172H101.403V67.5922H93.35V70.1891H100.814V73.5146H93.35V76.7094H101.643V80.4085H88.5215V64.1172Z" fill="#959BAD"/>
<path id="Vector_8" d="M84.7263 65.4249C83.8601 64.5655 82.5516 64.1172 80.8009 64.1172H72.8027V80.4085H77.6311V74.374H80.2665C82.2015 74.374 83.6574 73.907 84.5973 72.9915C85.5371 72.076 86.0163 70.7869 86.0163 69.1242C86.0163 67.5175 85.5924 66.2844 84.7263 65.4249ZM80.7825 70.5627C80.4139 70.899 79.7505 71.0672 78.8106 71.0672H77.6311V67.424H79.0133C79.9163 67.424 80.5429 67.6109 80.8562 67.9658C81.1879 68.3208 81.3722 68.7879 81.3537 69.2736C81.3537 69.7594 81.151 70.2451 80.7825 70.5627Z" fill="#959BAD"/>
<path id="Vector_9" d="M56.0137 64.1172H70.6647V68.134H65.7441V80.4085H60.9342V68.134H56.0137V64.1172Z" fill="#959BAD"/>
<path id="Vector_10" d="M122.432 39.9766H127.242V45.6561H132.476V39.9766H137.304V56.2119H132.476V49.6356H127.242V56.2119H122.432V39.9766Z" fill="#959BAD"/>
<path id="Vector_11" d="M115.687 36C115.576 36.8968 115.098 37.7001 114.397 38.2419C113.679 38.8211 112.776 39.1387 111.854 39.1013C110.932 39.12 110.029 38.8211 109.311 38.2419C108.61 37.7001 108.15 36.8968 108.039 36H109.864C110.159 36.9155 110.803 37.3825 111.817 37.3825C112.886 37.3825 113.568 36.9155 113.863 36H115.687Z" fill="#959BAD"/>
<path id="Vector_12" d="M119.207 39.9766V56.2119H114.691V47.3002L108.923 56.2119H104.371V39.9766H108.905V48.963L114.729 39.9766H119.207Z" fill="#959BAD"/>
<path id="Vector_13" d="M97.0182 39.9766H91.7658L85.9238 56.2119H90.8259L91.5999 53.5403H97.0362L97.8104 56.2119H102.842L97.0182 39.9766ZM92.6135 50.0279L94.309 44.1989L96.0043 50.0279H92.6135Z" fill="#959BAD"/>
<path id="Vector_14" d="M84.3031 56.2119H79.5116V43.9747H75.7521V48.963C75.7521 51.0181 75.6415 52.5314 75.4388 53.4842C75.2729 54.381 74.7569 55.147 73.9829 55.6141C73.2089 56.0624 71.9741 56.2866 70.2787 56.2866C69.6705 56.2866 69.0624 56.2306 68.4727 56.1185V52.8116H69.1913C69.8364 52.8116 70.2971 52.6622 70.5551 52.3633C70.8131 52.0644 70.9605 51.5225 70.9605 50.7192V39.9766H84.3031V56.2119Z" fill="#959BAD"/>
<path id="Vector_15" d="M51.9961 39.9766H56.7876V45.6561H62.0399V39.9766H66.8498V56.2119H62.0399V49.6356H56.7876V56.2119H51.9961V39.9766Z" fill="#959BAD"/>
<path id="Vector_16" d="M47.2974 41.886C45.8967 40.4474 43.9065 39.7188 41.3264 39.7188C38.8016 39.7188 36.8297 40.4474 35.4291 41.942C33.9917 43.3993 33.1992 45.9775 33.1992 48.6117C33.1992 50.5174 33.6599 51.5823 34.3787 52.8341C35.0053 54.0111 35.982 54.9826 37.1614 55.5991C38.304 56.1783 39.7599 56.4772 41.5106 56.4772C43.2614 56.4772 44.6804 56.1409 45.823 55.4684C46.9656 54.8145 47.8871 53.8243 48.4768 52.6286C49.0849 51.4142 49.3982 49.8635 49.3982 47.9578C49.3798 45.3796 48.6979 43.3432 47.2974 41.886ZM43.7406 51.6758C43.1693 52.367 42.3768 52.722 41.3448 52.722C40.3128 52.722 39.5388 52.367 38.9675 51.6571C38.3962 50.9471 38.1013 49.7701 38.1013 48.126C38.1013 46.4819 38.3962 45.2862 38.9859 44.5763C39.5572 43.8663 40.4234 43.474 41.3264 43.5113C42.34 43.5113 43.1324 43.8663 43.7221 44.5763C44.3118 45.2862 44.6067 46.3885 44.6067 47.9205C44.5883 49.7141 44.3118 50.9845 43.7406 51.6758Z" fill="#959BAD"/>
<path id="Vector_17" fill-rule="evenodd" clip-rule="evenodd" d="M145.431 57.5039C146.868 57.5039 148.048 58.6996 148.048 60.1569C148.048 61.6142 146.868 62.8099 145.431 62.8099C143.994 62.8099 142.814 61.6142 142.814 60.1569C142.814 58.6996 143.975 57.5039 145.431 57.5039Z" fill="#959BAD"/>
<path id="Vector_18" fill-rule="evenodd" clip-rule="evenodd" d="M145.431 54.6621C145.947 54.6621 146.463 54.7742 146.924 54.9984V40.8181C146.924 40.0521 146.316 39.9961 145.56 39.9961H145.283C144.528 39.9961 143.92 40.0521 143.92 40.8181V54.9984C144.399 54.7742 144.915 54.6621 145.431 54.6621Z" fill="#959BAD"/>
<path id="Vector_19" fill-rule="evenodd" clip-rule="evenodd" d="M145.432 65.7426C144.916 65.7426 144.4 65.6304 143.939 65.4062V79.5491C143.939 80.3151 144.547 80.4086 145.303 80.4086H145.58C146.335 80.4086 146.943 80.2964 146.943 79.5491V65.4062C146.464 65.6304 145.948 65.7426 145.432 65.7426Z" fill="#959BAD"/>
</g>
</g>
</g>
</g>
</svg>
