<svg width="226" height="120" viewBox="0 0 226 120" fill="none" xmlns="http://www.w3.org/2000/svg">
<g id="Frame 1000002530">
<path id="Vector" d="M168.039 51.0114H162.903C161.915 50.9718 160.949 51.3123 160.204 51.9629C159.459 52.6135 158.991 53.5248 158.898 54.5095L156.657 66.1345C156.256 68.2481 156.869 69.6431 159.331 69.6431H164.499C165.496 69.7043 166.478 69.3706 167.231 68.714C167.985 68.0575 168.449 67.1309 168.525 66.1345L170.84 54.5095C171.21 52.4487 170.586 51.0114 168.081 51.0114M166.739 55.2915L164.752 65.4053C164.754 65.4885 164.739 65.5713 164.708 65.6487C164.678 65.7262 164.632 65.7969 164.574 65.8568C164.516 65.9166 164.447 65.9645 164.371 65.9976C164.294 66.0308 164.212 66.0486 164.129 66.0499H161.18C160.768 66.0499 160.673 65.8914 160.726 65.4158L162.692 55.3021C162.829 54.8476 163.04 54.6363 163.421 54.6363H166.295C166.665 54.6363 166.856 54.8476 166.782 55.3021M152.367 66.0394L155.304 51.0114H147.273C146.267 50.9382 145.272 51.2643 144.505 51.919C143.737 52.5737 143.258 53.5044 143.172 54.5095L139.928 66.0394H138.247L137.508 69.6854H152.832L153.561 66.0394H152.367ZM150.612 54.6257L148.329 66.0394H144.102L147.019 55.2915C147.019 55.1149 147.089 54.9456 147.214 54.8207C147.339 54.6959 147.508 54.6257 147.685 54.6257H150.602H150.612ZM135.817 69.6854L136.313 51.1276H130.903L121.962 69.7488H126.274L127.764 66.3036H131.632L131.346 69.7488L135.817 69.6854ZM132.467 55.9467L131.885 63.2282H129.074L132.245 55.9467H132.467ZM124.297 54.5095C124.72 52.4487 124.086 51.0114 121.592 51.0114H113.137L109.47 69.6854H113.349L114.406 64.2745H119.056C121.539 64.2745 122.564 62.7738 123.029 60.713L124.297 54.5095ZM120.25 55.2915L119.299 59.9521C119.182 60.4594 118.95 60.6179 118.538 60.6179H115.114L116.35 54.6257H119.795C120.208 54.6257 120.355 54.8371 120.303 55.2915M108.868 54.5095C109.269 52.4487 108.646 51.0114 106.141 51.0114H101.058C100.038 50.9338 99.0268 51.255 98.2384 51.9074C97.45 52.5598 96.9454 53.4926 96.8307 54.5095L94.6113 66.1345C94.2414 68.2481 94.8438 69.6431 97.2957 69.6431H102.432C103.435 69.713 104.424 69.3832 105.185 68.7258C105.945 68.0684 106.414 67.1368 106.49 66.1345L108.868 54.5095ZM104.799 55.2915L102.886 65.4053C102.855 65.5881 102.759 65.7534 102.615 65.8702C102.471 65.9869 102.289 66.0471 102.104 66.0394H99.2296C98.8492 66.0394 98.7224 65.8808 98.7752 65.4053L100.773 55.2915C100.773 54.8371 101.037 54.6257 101.491 54.6257H104.324C104.672 54.6257 104.894 54.8371 104.778 55.2915M90.8702 66.0394L93.7976 51.0114H85.7869C84.792 50.9581 83.8152 51.293 83.0622 51.9455C82.3092 52.5979 81.8387 53.5171 81.7498 54.5095L78.442 66.0394H76.7828L76.0219 69.6854H91.3669L92.0855 66.0394H90.8702ZM89.1476 54.6257L86.886 66.0394H82.6587L85.5755 55.2915C85.5727 55.2051 85.5873 55.119 85.6184 55.0383C85.6495 54.9576 85.6966 54.8841 85.7567 54.8219C85.8169 54.7598 85.8889 54.7104 85.9685 54.6767C86.0481 54.643 86.1337 54.6257 86.2202 54.6257H89.1476ZM75.9056 60.5333C76.2967 58.4197 75.652 56.9401 73.1685 56.9401H68.5924L69.7761 51.0114H65.7919L62.1353 69.6854H70.7061C71.7099 69.7553 72.7007 69.4259 73.4628 68.7687C74.2249 68.1116 74.6964 67.18 74.7748 66.1767L75.9056 60.5333ZM71.8263 61.0089L71.002 65.5638C70.981 65.7646 70.8861 65.9505 70.7357 66.0853C70.5853 66.2201 70.3902 66.2941 70.1882 66.293H66.8276L68.0112 60.3325H71.393C71.784 60.3325 71.932 60.5228 71.8263 60.9983M58.2884 69.6854L61.9239 51.1276H53.4694C52.4656 51.0601 51.4754 51.3885 50.7109 52.0424C49.9463 52.6963 49.4684 53.6236 49.3795 54.6257L45.0359 69.7382H49.2632L53.1734 55.3443C53.172 55.2583 53.1876 55.1728 53.2193 55.0928C53.2509 55.0128 53.298 54.9397 53.3579 54.8779C53.4177 54.8161 53.4892 54.7667 53.5681 54.7324C53.6471 54.6982 53.7321 54.6799 53.8181 54.6786H57.295L54.2725 69.6854H58.2884ZM45.67 54.5095C46.061 52.4487 45.4587 51.0114 43.0068 51.0114H35.3766L34.658 54.6257H41.1574C41.5484 54.6257 41.6647 54.8371 41.6118 55.2915L40.7875 59.5822H36.7399L37.3634 56.6125L28 61.0934H34.9539L34.3515 64.0525L40.5339 61.1146L39.7096 65.3419C39.6857 65.5298 39.5896 65.7011 39.4417 65.8195C39.2937 65.9378 39.1055 65.9939 38.9169 65.976H32.4281L31.7411 69.622H39.3925C40.3773 69.6918 41.3497 69.3684 42.0965 68.7226C42.8433 68.0768 43.3037 67.1613 43.3767 66.1767V66.1133L45.67 54.5095ZM170.766 65.3841L169.931 69.6854H173.862L174.708 65.3841H170.766ZM198 56.6125H195.136L193.191 66.5995C193.198 66.6459 193.194 66.6933 193.18 66.738C193.165 66.7826 193.141 66.8234 193.108 66.8571C193.076 66.8908 193.036 66.9165 192.991 66.9323C192.947 66.9481 192.9 66.9536 192.853 66.9482H190.74C190.549 66.9482 190.486 66.8637 190.539 66.5995L192.441 56.6125H189.545L187.527 67.0328C187.22 68.5969 187.633 69.6854 189.524 69.6854H192.811C193.187 69.7142 193.566 69.6683 193.924 69.5504C194.283 69.4326 194.614 69.245 194.9 68.9985C195.186 68.752 195.42 68.4514 195.589 68.114C195.759 67.7767 195.86 67.4092 195.886 67.0328L198 56.6125ZM184.695 56.6125H178.787L176.303 69.6854H178.977L179.749 65.9654H181.091L181.672 69.6854H184.663L183.87 65.7963C184.382 65.6221 184.832 65.3042 185.168 64.8806C185.503 64.457 185.71 63.9457 185.762 63.4079L186.618 59.0644C186.914 57.6271 186.47 56.5808 184.726 56.5808M183.754 59.5822L183.088 62.7527C183.014 63.112 182.856 63.2177 182.57 63.2177H180.193L181.049 58.9904H183.416C183.691 58.9904 183.796 59.1489 183.765 59.4659" fill="#959BAD"/>
</g>
</svg>
