<svg width="226" height="120" viewBox="0 0 226 120" fill="none" xmlns="http://www.w3.org/2000/svg">
<g id="Frame 1000002530">
<path id="path68" d="M86.3447 77.3233C86.3447 78.7724 85.1761 79.9418 83.7384 79.9418C82.3067 79.9418 81.1331 78.7724 81.1331 77.3233C81.1331 75.8746 82.3067 74.7033 83.7384 74.7033C85.1761 74.7033 86.3447 75.8746 86.3447 77.3233ZM177.968 79.9598C174.605 79.9386 173.045 77.13 172.661 76.2241C168.821 66.6438 180.078 57.7398 180.078 57.7398H186.599C186.599 57.7398 176.672 65.7189 178.044 72.7883C178.971 76.2213 181.931 75.3195 183.864 72.6154C186.213 69.3312 188.331 62.8507 186.735 62.6755C185.253 62.5123 183.285 65.7313 183.285 65.7313L183.274 65.7216L181.895 63.6088C182.967 62.2142 186.016 58.5709 189.408 57.431C189.922 57.2711 193 56.4599 193 61.0244C193 65.9079 187.584 80.0209 177.968 79.9598ZM127.664 75.0939C128.445 74.6035 129.512 73.7539 129.512 73.7539L130.171 75.778C129.78 76.1949 126.601 78.7252 124.628 79.6511C122.497 80.6504 120.533 79.3335 120.265 77.7226C119.958 75.8783 120.907 73.4655 120.907 73.4655C120.907 73.4655 117.508 77.3547 114.047 79.2489C113.086 79.7754 112.352 79.9867 111.765 79.9723C109.434 79.9155 108.704 77.6482 108.959 76.4348C109.263 74.9871 112.417 65.2312 112.815 63.6282C112.854 63.4696 112.697 63.2834 112.485 63.3421C111.53 63.6078 109.023 65.2483 109.023 65.2483V62.5378C109.023 62.5378 115.916 57.8364 117.736 57.3173C119.419 56.838 120.857 57.8036 120.434 59.726C120.24 61.0586 116.136 72.3358 115.879 73.7003C115.828 73.9725 116.11 73.9938 116.188 73.9698C117.526 73.5593 119.994 71.4575 121.882 68.4608C123.646 65.6616 124.855 62.1074 126.319 57.7218H132.605C132.605 57.7218 127.852 72.3644 127.316 74.7925C127.258 75.0583 127.529 75.179 127.664 75.0939ZM102.829 61.2347C100.623 62.9293 98.914 63.7742 98.914 63.7742C98.914 63.7742 99.5241 62.3344 100.015 61.5028C101.285 59.3516 107.436 51.06 112.566 49.5213C112.765 49.4616 112.912 49.6063 112.907 49.8106C112.859 51.6189 106.348 58.5316 102.829 61.2347ZM117.611 44.9733C112.943 43.3389 96.4071 48.6046 90.9931 66.9715C90.3288 67.1564 87.1488 67.9778 87.1488 67.9778L85.7645 71.739L90.683 70.2284C90.683 70.2284 90.1443 79.6663 98.401 79.9418C104.893 79.6996 108.37 70.1706 106.348 64.0465C105.937 64.249 100.64 66.5056 100.64 66.5056C100.64 66.5056 101.699 72.6977 99.3883 74.1338C99.0309 74.3557 98.5625 74.3261 98.2607 73.9046C97.5895 72.9662 97.1612 70.5358 97.9134 67.3006C109.802 61.0914 117.916 50.1624 118.411 46.4016C118.538 45.4342 117.776 45.0311 117.611 44.9733ZM141.786 74.1657C140.923 74.7833 139.398 75.099 139.106 72.37C138.685 68.447 141.387 63.7165 142.225 62.6168C143.657 60.7392 145.655 60.5968 145.696 63.4424C145.743 66.7164 143.941 72.6233 141.786 74.1657ZM145.146 47.1782C140.828 47.235 138.627 49.4963 138.627 49.4963L138.739 52.1532C138.739 52.1532 141.488 49.4006 144.616 50.5613C146.741 51.3503 148.852 54.0683 147.407 60.0902C146.108 56.7437 141.076 56.0046 137.029 60.3768C133.798 63.8672 129.434 75.5132 135.877 79.0982C143.888 83.5551 150.917 70.5021 152.538 61.599C153.56 55.9888 154.169 47.0594 145.146 47.1782ZM51.1071 78.6416C48.2966 75.698 50.9511 65.7452 51.5004 63.6014C51.552 63.4017 51.4011 63.2075 51.1954 63.2075C51.0758 63.2075 50.9672 63.2736 50.9139 63.3813C49.7297 65.7808 43.3123 79.9418 37.63 79.9418C37.5247 79.9418 37.4138 79.9418 37.3057 79.934C31.8162 79.4186 32.5344 71.7986 34.2412 67.1818H43.0914C42.37 69.1764 42.1207 70.4323 42.146 71.0859C42.1639 71.5597 42.5568 71.8009 42.9373 71.6003C43.8533 71.1192 45.3646 69.1288 46.6785 66.8356C49.075 62.6519 52.1514 56.3531 57.4642 40.4494H67.1831C64.3021 49.3086 61.959 57.3215 60.6815 66.4848C60.6175 66.9419 61.1401 67.3247 61.5551 66.9327C64.3284 64.3132 74.4313 42.3571 75.0662 40.4494H84.7956C84.7956 40.4494 75.149 67.2942 75.9574 71.7617C76.0673 72.3686 76.6921 72.5304 77.2005 71.947C77.7921 71.2689 78.7118 70.0653 79.2542 69.432L80.7577 70.9403C77.9908 74.3719 73.4965 80.5811 69.0072 79.8341C68.3116 79.7181 67.6385 79.3201 67.1347 78.8047C62.4628 74.725 68.9814 61.0993 70.1238 57.8988C70.3768 57.1902 70.6252 56.5426 70.7835 56.1391C70.8645 55.9324 70.7131 55.7092 70.4923 55.7073C70.3685 55.7059 70.2567 55.7757 70.2047 55.8881C69.9798 56.3697 69.3734 57.6672 69.1673 58.1036C66.274 64.0918 59.6348 79.9418 54.1812 79.9418C53.326 79.9418 52.0475 79.6206 51.1071 78.6416ZM161.598 65.4101C163.267 62.4319 165.99 60.106 167.309 61.0355C168.634 61.9586 165.953 66.6678 159.658 71.6794C159.406 71.2389 159.917 68.3971 161.598 65.4101ZM160.045 74.3742C171.726 68.1974 174.531 60.3713 170.932 58.1821C165.622 55.1929 151.063 60.5386 152.714 75.1669C151.992 75.6014 150.557 76.3826 150.557 76.3826L151.527 79.3414C151.527 79.3414 153.556 78.1202 154.105 77.7407C155.82 79.1297 156.702 79.8937 159.35 79.9455C164.975 80.0629 169.831 73.7932 169.831 73.7932L168.4 71.5869C168.4 71.5869 162.218 77.5502 160.045 74.3742Z" fill="#ED1C24"/>
</g>
</svg>
