<svg width="55" height="54" viewBox="0 0 55 54" fill="none" xmlns="http://www.w3.org/2000/svg">
<g id="Group">
<path id="Vector" d="M53.5679 22.9094H51.7116C49.4046 22.9094 47.3497 21.5268 46.4712 19.4031L46.433 19.3115C45.5469 17.1954 46.0358 14.7662 47.6629 13.1391L48.9768 11.8252C49.2747 11.5273 49.2747 11.046 48.9768 10.7481L43.576 5.34732C43.2781 5.0494 42.7968 5.0494 42.4989 5.34732L41.185 6.66123C39.5502 8.29598 37.1287 8.77724 35.0127 7.89111L34.9363 7.86056C32.7973 6.98207 31.4223 4.91953 31.4223 2.62019V0.763903C31.4223 0.343756 31.0786 0 30.6584 0H23.0194C22.5992 0 22.2555 0.343756 22.2555 0.763903V2.62019C22.2555 4.92717 20.8728 6.98207 18.7415 7.86056C18.7415 7.86056 18.6651 7.89111 18.6575 7.89111C16.5415 8.77724 14.1199 8.29598 12.4852 6.66123L11.1713 5.34732C10.881 5.05703 10.3768 5.05703 10.0942 5.34732L7.38995 8.05153C7.09202 8.34946 7.09202 8.83071 7.38995 9.12864L16.8394 18.5781L35.746 37.4847L45.1955 46.9342C45.3483 47.087 45.5392 47.1557 45.7379 47.1557C45.9365 47.1557 46.1274 47.0793 46.2802 46.9342L48.9844 44.23C49.1296 44.0848 49.206 43.8938 49.206 43.6876C49.206 43.4813 49.1219 43.2904 48.9844 43.1452L47.6705 41.8313C46.0358 40.1966 45.5545 37.775 46.433 35.6742L46.4712 35.5826C47.3497 33.4437 49.4122 32.0686 51.7116 32.0686H53.5679C53.988 32.0686 54.3318 31.7249 54.3318 31.3047V23.6657C54.3318 23.2456 53.988 22.9094 53.5679 22.9094ZM18.4742 18.051C23.4166 13.6662 31.0098 13.8419 35.746 18.5781C40.4822 23.3143 40.6503 30.8999 36.2731 35.8499L18.4742 18.051ZM52.804 30.5485H51.7116C48.7858 30.5485 46.1733 32.2978 45.058 35.0097L45.7608 35.2999L45.0274 35.086C43.9045 37.775 44.5156 40.8535 46.5858 42.9313L47.3573 43.7029L45.7379 45.3223L37.3349 36.9194C42.3079 31.3735 42.1475 22.8254 36.8231 17.501C31.4911 12.1766 22.943 12.0162 17.4047 16.9892L9.00178 8.58626L10.6213 6.96679L11.3928 7.73833C13.463 9.80851 16.5415 10.4196 19.2228 9.30433L19.3068 9.26614C22.0187 8.15084 23.768 5.53829 23.768 2.61255V1.52017H29.8792V2.61255C29.8792 5.53829 31.6286 8.15084 34.3251 9.2585L34.4168 9.29669C37.1134 10.4196 40.1843 9.80851 42.2621 7.73833L43.0336 6.96679L47.3573 11.2905L46.5858 12.062C44.5156 14.1322 43.9045 17.2107 45.0274 19.9073L45.7302 19.617L45.058 19.9837C46.1733 22.6955 48.7858 24.4449 51.7116 24.4449H52.804V30.5485Z" fill="#009482"/>
<path id="Vector_2" d="M32.6445 40.2874L32.1862 39.9742C31.6591 39.6075 31.0862 39.3402 30.5973 39.1263C28.6952 38.3089 26.9535 38.5839 25.5479 39.9284C24.8833 40.57 24.2492 41.2499 23.6458 41.9069L23.3326 42.243C22.7749 42.8465 22.1485 43.068 21.3693 42.9381C20.2846 42.7625 19.3526 42.1742 18.4971 41.5631C17.0227 40.5089 15.6095 39.195 13.9136 37.3082C12.9053 36.1852 11.8893 34.9401 11.2782 33.481C10.6594 31.9991 10.858 31.0747 11.981 30.181C12.6914 29.6157 13.3254 28.974 13.9442 28.3552L14.0129 28.2865C15.3956 26.8809 15.7012 25.1087 14.8838 23.1531C14.2421 21.61 13.249 20.3266 12.2865 19.0815L12.1108 18.8599C11.5608 18.1419 10.9268 17.462 10.2164 16.828C8.78786 15.5446 7.06908 15.5522 5.6253 16.8585C5.34266 17.1106 5.07529 17.3703 4.80792 17.6377C4.56348 17.8821 4.31139 18.1266 4.05166 18.3558C2.85997 19.4252 1.9051 20.7086 1.20994 22.1676C-0.0122995 24.742 -0.310222 27.6219 0.323817 30.7233C0.797437 33.0456 1.79051 35.3679 3.34887 37.8276C5.02946 40.4784 7.13019 42.9916 9.96427 45.7264C12.7678 48.4306 15.3345 50.3556 18.0616 51.7841C20.2158 52.9147 22.2631 53.5869 24.3256 53.839C24.6847 53.8849 25.0513 53.9154 25.4104 53.9536L25.8993 53.9995C25.9222 53.9995 25.9527 53.9995 25.9757 53.9995C25.9909 53.9995 26.0062 53.9995 26.0215 53.9995L27.9313 53.8772C27.9847 53.8772 28.0458 53.862 28.0993 53.8467L28.2215 53.8085C28.2521 53.8008 28.2903 53.7856 28.3208 53.7779C29.9938 53.5029 31.6056 52.8689 33.1258 51.8911C34.3175 51.1195 35.2571 50.1265 36.1738 49.1563C36.3724 48.9501 36.5634 48.7438 36.762 48.5376C38.1599 47.0938 38.1981 45.3674 36.8766 43.8014C35.6543 42.3576 34.1189 41.3034 32.6445 40.2874ZM35.6696 47.4834C35.471 47.6896 35.2724 47.9035 35.0661 48.1098C34.1723 49.0494 33.332 49.9355 32.3008 50.6077C30.941 51.4862 29.566 52.0286 28.084 52.2654C27.9695 52.2807 27.8625 52.3189 27.7556 52.3494L25.9986 52.464L25.5555 52.4258C25.2118 52.3953 24.8604 52.3647 24.5166 52.3189C22.6374 52.0821 20.7582 51.4633 18.7721 50.4244C16.1824 49.0646 13.7227 47.2236 11.0261 44.6187C8.28368 41.968 6.2517 39.5464 4.63987 37.0026C3.18081 34.6956 2.25649 32.5414 1.82107 30.4025C1.24814 27.5913 1.50023 25.1087 2.59261 22.8093C3.19609 21.5336 4.03638 20.4107 5.07529 19.4787C5.3503 19.2342 5.61766 18.9745 5.87739 18.7148C6.12948 18.4703 6.38156 18.2183 6.64129 17.9815C7.07672 17.5919 7.51214 17.4009 7.93993 17.4009C8.36007 17.4009 8.78022 17.5842 9.19273 17.9585C9.82677 18.5315 10.3997 19.1426 10.8962 19.7843L11.0719 20.0058C12.0115 21.2204 12.9053 22.3739 13.4629 23.726C14.0435 25.1239 13.8678 26.2316 12.9129 27.2018L12.8442 27.2705C12.2636 27.8587 11.6601 28.4698 11.0261 28.974C9.36079 30.2879 8.97883 31.9532 9.85732 34.0616C10.5525 35.7345 11.6678 37.0943 12.7678 38.3165C14.54 40.295 16.0297 41.6777 17.6033 42.793C18.604 43.5111 19.7269 44.2062 21.1172 44.4354C22.4082 44.6493 23.5312 44.2597 24.4479 43.2743L24.7611 42.9381C25.3569 42.2965 25.968 41.6319 26.6021 41.0208C27.5493 40.1117 28.657 39.9436 29.9862 40.5166C30.4063 40.6999 30.8952 40.9214 31.3153 41.2117L31.7737 41.5326C33.2327 42.5409 34.6154 43.4882 35.7078 44.7868C36.5328 45.7722 36.5252 46.6049 35.6696 47.4834Z" fill="#009482"/>
</g>
</svg>
