<svg width="16" height="16" viewBox="0 0 16 16" fill="none" xmlns="http://www.w3.org/2000/svg">
  <path
    d="M14.5244 5.31473V2.64104C14.5244 1.81066 14.1479 1.47498 13.2126 1.47498H10.8362C9.90088 1.47498 9.52441 1.81066 9.52441 2.64104V5.30884C9.52441 6.14511 9.90088 6.4749 10.8362 6.4749H13.2126C14.1479 6.48079 14.5244 6.14511 14.5244 5.31473Z"
    stroke-width="1.5" stroke-linecap="round" stroke-linejoin="round" />
  <path
    d="M14.5244 13.213V10.8365C14.5244 9.90125 14.1479 9.52478 13.2126 9.52478H10.8362C9.90088 9.52478 9.52441 9.90125 9.52441 10.8365V13.213C9.52441 14.1483 9.90088 14.5248 10.8362 14.5248H13.2126C14.1479 14.5248 14.5244 14.1483 14.5244 13.213Z"
    stroke-width="1.5" stroke-linecap="round" stroke-linejoin="round" />
  <path
    d="M6.47461 5.31473V2.64104C6.47461 1.81066 6.09814 1.47498 5.16285 1.47498H2.78637C1.85108 1.47498 1.47461 1.81066 1.47461 2.64104V5.30884C1.47461 6.14511 1.85108 6.4749 2.78637 6.4749H5.16285C6.09814 6.48079 6.47461 6.14511 6.47461 5.31473Z"
    stroke-width="1.5" stroke-linecap="round" stroke-linejoin="round" />
  <path
    d="M6.47461 13.1632V10.7867C6.47461 9.85145 6.09814 9.47498 5.16285 9.47498H2.78637C1.85108 9.47498 1.47461 9.85145 1.47461 10.7867V13.1632C1.47461 14.0985 1.85108 14.475 2.78637 14.475H5.16285C6.09814 14.475 6.47461 14.0985 6.47461 13.1632Z"
    stroke-width="1.5" stroke-linecap="round" stroke-linejoin="round" />
</svg>