<svg width="46" height="46" viewBox="0 0 46 46" fill="none" xmlns="http://www.w3.org/2000/svg">
<g id="Frame 206" clip-path="url(#clip0_391_25288)">
<g id="Group">
<path id="Vector" d="M23 0C10.3146 0 0 10.3146 0 23C0 35.6854 10.3146 46 23 46C35.6854 46 46 35.6854 46 23C46 10.3146 35.6854 0 23 0ZM23 44.2308C11.2965 44.2308 1.76923 34.7035 1.76923 23C1.76923 11.2965 11.2965 1.76923 23 1.76923C34.7035 1.76923 44.2308 11.2965 44.2308 23C44.2308 34.7035 34.7035 44.2308 23 44.2308Z" fill="#009482"/>
<path id="Vector_2" d="M22.5577 26.0875L19.8774 21.4433H16.4097L20.8239 29.0864H24.2916L29.5904 19.9129L27.8566 16.9141L22.5577 26.0875Z" fill="#009482"/>
</g>
</g>
<defs>
<clipPath id="clip0_391_25288">
<rect width="46" height="46" fill="white"/>
</clipPath>
</defs>
</svg>
