<svg width="224" height="50" viewBox="0 0 224 50" fill="none" xmlns="http://www.w3.org/2000/svg">
<g clip-path="url(#clip0_490_11562)">
<path d="M62.9312 15.3281H80.6165C81.7401 15.3281 82.6777 15.461 83.4162 15.733C84.1548 16.0053 84.739 16.3786 85.1692 16.8658C85.5995 17.3531 85.9015 17.9352 86.0813 18.6187C86.2546 19.302 86.3446 20.074 86.3446 20.922V22.118C86.3446 22.7445 86.2996 23.3077 86.2095 23.8076C86.1197 24.3139 85.9591 24.7504 85.7216 25.1365C85.4841 25.5161 85.1502 25.8453 84.7198 26.111C84.2895 26.3831 83.7373 26.5919 83.0694 26.7501V26.8009C83.5126 26.8893 83.9235 27.0032 84.3088 27.1551C84.6942 27.3006 85.0345 27.5347 85.3235 27.8448C85.6124 28.155 85.8436 28.5599 86.0105 29.0535C86.1776 29.547 86.261 30.1862 86.261 30.9645V34.1665H80.3981V31.901C80.3981 30.9139 80.2246 30.2305 79.8842 29.8445C79.5441 29.4648 78.9147 29.275 77.9964 29.275H68.7878V34.1665H62.9248V15.3281H62.9312ZM68.7878 24.586H78.4781C79.2679 24.586 79.8264 24.4278 80.1541 24.1051C80.4815 23.7824 80.6419 23.2887 80.6419 22.6116V21.985C80.6419 21.1498 80.4238 20.6183 79.9935 20.3715C79.5633 20.1311 78.8825 20.0045 77.9449 20.0045H68.7878V24.586Z" fill="white"/>
<path d="M98.7764 15.3281H106.405L116.911 34.1602H110.393L108.569 30.8316H96.6895L94.975 34.1602H88.4248L98.7764 15.3281ZM98.8856 26.7753H106.386L102.585 19.7009L98.8856 26.7753Z" fill="white"/>
<path d="M118.657 27.996H124.52C124.52 28.5023 124.572 28.8948 124.681 29.1795C124.784 29.4643 124.944 29.6857 125.156 29.8313C125.368 29.9768 125.631 30.0716 125.945 30.1033C126.261 30.1413 126.633 30.154 127.056 30.154H134.236C134.552 30.154 134.859 30.1413 135.162 30.1161C135.462 30.0907 135.727 30.021 135.964 29.9071C136.202 29.7933 136.388 29.6351 136.53 29.4263C136.67 29.2174 136.74 28.9326 136.74 28.5656C136.74 28.148 136.665 27.8315 136.516 27.6037C136.368 27.376 136.015 27.2051 135.462 27.0848C134.911 26.9646 134.082 26.8888 132.983 26.8633C131.886 26.8381 130.39 26.8254 128.508 26.8254C126.305 26.8254 124.558 26.7495 123.255 26.5913C121.952 26.4329 120.963 26.1483 120.282 25.7307C119.601 25.313 119.171 24.7372 118.978 24.0032C118.786 23.269 118.69 22.3199 118.69 21.1555C118.69 20.3076 118.74 19.5102 118.85 18.7762C118.953 18.0422 119.261 17.403 119.761 16.8652C120.263 16.3272 121.034 15.9033 122.074 15.5932C123.115 15.2832 124.552 15.125 126.402 15.125H134.584C136.271 15.125 137.607 15.2578 138.584 15.53C139.561 15.802 140.298 16.1817 140.799 16.6753C141.299 17.169 141.622 17.7574 141.762 18.4282C141.904 19.1052 141.974 19.8583 141.974 20.6935V21.2948H136.112C136.112 20.9467 136.092 20.6556 136.047 20.4087C136.002 20.1684 135.887 19.9659 135.707 19.8077C135.521 19.6495 135.238 19.5356 134.846 19.4532C134.461 19.3773 133.928 19.3394 133.26 19.3394H126.768C126.1 19.3394 125.561 19.4532 125.156 19.6875C124.752 19.9215 124.546 20.2885 124.546 20.7948C124.546 21.2124 124.618 21.529 124.758 21.7568C124.9 21.9845 125.213 22.1489 125.695 22.2504C126.178 22.3515 126.883 22.4147 127.808 22.4338C128.733 22.4527 129.979 22.459 131.546 22.459C133.818 22.459 135.681 22.5098 137.145 22.6172C138.603 22.7186 139.753 22.9842 140.574 23.3957C141.403 23.8133 141.974 24.4207 142.289 25.2181C142.604 26.0155 142.765 27.0974 142.765 28.4707C142.765 29.7363 142.629 30.7551 142.366 31.5271C142.102 32.299 141.622 32.9002 140.914 33.3243C140.208 33.7483 139.245 34.0331 138.012 34.1722C136.78 34.3114 135.186 34.381 133.234 34.381H126.133C124.796 34.381 123.653 34.3051 122.716 34.1595C121.771 34.014 121.002 33.7545 120.404 33.3812C119.807 33.0078 119.364 32.4952 119.081 31.8309C118.798 31.1728 118.657 30.331 118.657 29.3059V27.996Z" fill="white"/>
<path d="M146.379 15.3281H152.242V22.251H154.99L162.381 15.3281H170.356L160.006 24.5353L171.571 34.1602H163.281L154.831 26.9274H152.242V34.1602H146.379V15.3281Z" fill="white"/>
<path d="M182.232 15.3281H189.86L200.366 34.1602H193.849L192.025 30.8316H180.145L178.431 34.1602H171.88L182.232 15.3281ZM182.334 26.7753H189.834L186.034 19.7009L182.334 26.7753Z" fill="white"/>
<path d="M201.054 15.3281H223.387V20.011H215.149V34.1602H209.284V20.011H201.047V15.3281H201.054Z" fill="white"/>
<path d="M24.4019 44.2555C23.9728 44.4988 23.4464 44.4988 23.0176 44.2555L11.3921 37.5765L6.3103 40.4965L20.4702 48.6355C22.4717 49.7882 24.9412 49.7882 26.9426 48.6355L41.2456 40.4197L36.1639 37.4996L24.4019 44.2555Z" fill="url(#paint0_linear_490_11562)"/>
<path d="M44.4095 7.71586L30.1066 -0.5V5.34011L41.8623 12.0959C42.2912 12.3393 42.5574 12.8004 42.5574 13.2935V26.645L47.6393 29.5651V13.2935C47.646 10.9945 46.4112 8.86851 44.4095 7.71586Z" fill="url(#paint1_linear_490_11562)"/>
<path d="M17.5392 -0.5L3.23619 7.71586C1.23469 8.86851 0 10.9945 0 13.2935V29.5651L5.08174 26.645V13.2935C5.08174 12.8004 5.34818 12.3457 5.77707 12.0959L17.5392 5.34011V-0.5Z" fill="url(#paint2_linear_490_11562)"/>
<path d="M14.8613 17.2696L20.8138 13.8501V10.77L14.8613 13.8501V17.2696Z" fill="url(#paint3_linear_490_11562)"/>
<path d="M20.8138 16.6612L14.8613 19.7414V23.161L20.8138 19.7414V16.6612Z" fill="url(#paint4_linear_490_11562)"/>
<path d="M14.8613 28.7709L20.8138 25.3512V22.2773L14.8613 25.3512V28.7709Z" fill="url(#paint5_linear_490_11562)"/>
<path d="M15.447 31.3643L20.3987 34.4893L36.4108 25.4026V19.0245L22.3872 11.3786V17.0201L31.0366 22.1815L15.447 31.3643Z" fill="url(#paint6_linear_490_11562)"/>
</g>
<defs>
<linearGradient id="paint0_linear_490_11562" x1="26.0003" y1="-0.510747" x2="26.0003" y2="49.5107" gradientUnits="userSpaceOnUse">
<stop stop-color="#00D344"/>
<stop offset="1" stop-color="#009482"/>
</linearGradient>
<linearGradient id="paint1_linear_490_11562" x1="26.0003" y1="-0.510747" x2="26.0003" y2="49.5107" gradientUnits="userSpaceOnUse">
<stop stop-color="#00D344"/>
<stop offset="1" stop-color="#009482"/>
</linearGradient>
<linearGradient id="paint2_linear_490_11562" x1="26.0003" y1="-0.510747" x2="26.0003" y2="49.5107" gradientUnits="userSpaceOnUse">
<stop stop-color="#00D344"/>
<stop offset="1" stop-color="#009482"/>
</linearGradient>
<linearGradient id="paint3_linear_490_11562" x1="26.0003" y1="-0.510747" x2="26.0003" y2="49.5107" gradientUnits="userSpaceOnUse">
<stop stop-color="#00D344"/>
<stop offset="1" stop-color="#009482"/>
</linearGradient>
<linearGradient id="paint4_linear_490_11562" x1="26.0003" y1="-0.510747" x2="26.0003" y2="49.5107" gradientUnits="userSpaceOnUse">
<stop stop-color="#00D344"/>
<stop offset="1" stop-color="#009482"/>
</linearGradient>
<linearGradient id="paint5_linear_490_11562" x1="26.0003" y1="-0.510747" x2="26.0003" y2="49.5107" gradientUnits="userSpaceOnUse">
<stop stop-color="#00D344"/>
<stop offset="1" stop-color="#009482"/>
</linearGradient>
<linearGradient id="paint6_linear_490_11562" x1="26.0003" y1="-0.510747" x2="26.0003" y2="49.5107" gradientUnits="userSpaceOnUse">
<stop stop-color="#00D344"/>
<stop offset="1" stop-color="#009482"/>
</linearGradient>
<clipPath id="clip0_490_11562">
<rect width="223.387" height="50" fill="white"/>
</clipPath>
</defs>
</svg>
