<svg width="46" height="46" viewBox="0 0 46 46" fill="none" xmlns="http://www.w3.org/2000/svg">
<g id="Frame 206">
<g id="Group">
<path id="Vector" d="M31.6175 15.3791C31.6175 10.834 27.9163 7.13281 23.3712 7.13281C18.8262 7.13281 15.125 10.834 15.125 15.3791C15.125 19.9241 18.8262 23.6253 23.3712 23.6253C27.9163 23.6253 31.6175 19.9241 31.6175 15.3791ZM23.3712 22.3468C19.5294 22.3468 16.4035 19.2209 16.4035 15.3791C16.4035 11.5372 19.5294 8.4113 23.3712 8.4113C27.2131 8.4113 30.339 11.5372 30.339 15.3791C30.339 19.2209 27.2131 22.3468 23.3712 22.3468Z" fill="#009482"/>
<path id="Vector_2" d="M39.0451 45.169L35.6891 34.5C35.606 34.2315 35.3567 34.0525 35.0818 34.0525H28.7405C33.0938 28.9194 38.7766 21.1973 38.7766 15.8085C38.7766 7.08922 31.8792 0 23.3964 0C14.9137 0 8.01621 7.09561 8.01621 15.8085C8.01621 21.1909 13.6991 28.9194 18.0587 34.0525H11.6663C11.385 34.0525 11.1421 34.2315 11.059 34.5L7.69659 45.169C7.63267 45.3608 7.67102 45.5717 7.79248 45.7379C7.91394 45.9041 8.10571 46 8.31027 46H38.4314C38.636 46 38.8278 45.9041 38.9492 45.7379C39.0707 45.5717 39.1027 45.3608 39.0451 45.169ZM23.3964 1.27849C31.1696 1.27849 37.4981 7.79878 37.4981 15.8085C37.4981 23.0192 25.8575 35.4908 23.3964 38.0478C20.9353 35.4908 9.2947 23.0128 9.2947 15.8085C9.2947 7.79878 15.6232 1.27849 23.3964 1.27849ZM9.17964 44.7215L12.1329 35.331H19.1582C20.2577 36.5839 21.2102 37.6067 21.8878 38.3291H14.0379C13.6863 38.3291 13.3987 38.6167 13.3987 38.9683C13.3987 39.3199 13.6863 39.6076 14.0379 39.6076H32.7038C33.0554 39.6076 33.3431 39.3199 33.3431 38.9683C33.3431 38.6167 33.0554 38.3291 32.7038 38.3291H24.905C25.5826 37.6131 26.5351 36.5839 27.6346 35.331H34.6088L37.5621 44.7215H9.17964Z" fill="#009482"/>
</g>
</g>
</svg>
