<svg xmlns="http://www.w3.org/2000/svg" width="300" height="70" fill="none"><g clip-path="url(#a)"><path fill="#000" d="M84.629 23.285h23.709c1.506 0 2.763.18 3.756.544.987.364 1.774.866 2.35 1.521.576.655.982 1.431 1.225 2.35.233.914.354 1.95.354 3.09v1.606c0 .84-.057 1.595-.179 2.266a5.025 5.025 0 0 1-.655 1.78c-.317.507-.766.95-1.342 1.304-.575.364-1.315.645-2.213.856v.068c.597.117 1.146.27 1.664.476.518.195.972.507 1.363.924.386.417.697.961.919 1.621.222.66.338 1.516.338 2.562v4.294h-7.859V45.51c0-1.325-.233-2.24-.687-2.757-.454-.507-1.299-.766-2.53-.766H92.499v6.56h-7.86V23.29h.012l-.022-.005Zm7.854 12.412h12.993c1.057 0 1.807-.212 2.245-.645.438-.433.654-1.093.654-2.001v-.84c0-1.12-.29-1.833-.871-2.166-.576-.322-1.489-.49-2.746-.49H92.483v6.142ZM132.682 23.285h10.225l14.086 25.246h-8.736l-2.445-4.463h-15.924l-2.298 4.463h-8.783l13.875-25.246Zm.148 15.348h10.056l-5.097-9.486-4.959 9.486ZM159.339 40.264h7.859c0 .681.069 1.204.216 1.584.138.38.354.676.639.872.286.195.64.322 1.057.364.422.053.924.069 1.489.069h9.623c.423 0 .835-.016 1.242-.053a2.971 2.971 0 0 0 1.072-.28c.317-.153.57-.364.76-.644.191-.28.28-.66.28-1.152 0-.56-.1-.982-.301-1.288-.2-.307-.67-.534-1.415-.698-.74-.163-1.849-.264-3.322-.295a288.107 288.107 0 0 0-6-.053c-2.953 0-5.298-.1-7.041-.312-1.748-.211-3.074-.592-3.988-1.151-.913-.56-1.489-1.331-1.748-2.314-.259-.982-.385-2.255-.385-3.818 0-1.136.068-2.208.211-3.19a4.616 4.616 0 0 1 1.22-2.562c.671-.724 1.706-1.289 3.1-1.706 1.395-.417 3.323-.629 5.805-.629h10.97c2.261 0 4.051.18 5.361.544 1.31.365 2.297.872 2.968 1.537a4.534 4.534 0 0 1 1.289 2.35c.19.91.285 1.918.285 3.038v.808h-7.859a6.39 6.39 0 0 0-.09-1.189 1.384 1.384 0 0 0-.454-.808c-.248-.211-.629-.364-1.151-.475-.518-.1-1.231-.153-2.124-.153h-8.704c-.892 0-1.616.153-2.16.465-.544.311-.819.808-.819 1.484 0 .56.095.982.285 1.288.191.307.613.529 1.258.66.649.138 1.595.222 2.83.249 1.242.026 2.911.032 5.013.032 3.047 0 5.546.068 7.505.21 1.954.138 3.497.492 4.595 1.047 1.115.56 1.875 1.373 2.303 2.445.423 1.067.639 2.52.639 4.363 0 1.695-.18 3.063-.533 4.098a4.358 4.358 0 0 1-1.949 2.409c-.946.57-2.234.95-3.888 1.135-1.653.185-3.787.28-6.406.28h-9.523c-1.791 0-3.322-.1-4.579-.296-1.268-.195-2.298-.544-3.101-1.045a4.485 4.485 0 0 1-1.774-2.076c-.381-.882-.571-2.012-.571-3.386v-1.758h.011ZM196.5 23.285h7.859v9.28h3.687l9.908-9.28h10.69l-13.875 12.343 15.502 12.903h-11.113l-11.329-9.697h-3.47v9.697H196.5V23.285ZM244.563 23.285h10.225l14.086 25.246h-8.736l-2.445-4.463h-15.925l-2.297 4.463h-8.783l13.875-25.246Zm.137 15.348h10.056l-5.097-9.486-4.959 9.486ZM269.8 23.285h29.936v6.274h-11.044v18.972h-7.859V29.56h-11.044v-6.275h.011Z"/><path fill="url(#b)" d="m37.168 8.513 18.27 10.548a2.728 2.728 0 0 1 1.357 2.355v21.095l7.304 4.215v-25.31a10.03 10.03 0 0 0-5.012-8.683L37.168.078v8.435Z"/><path fill="url(#c)" d="m51.777 51.2-18.27 10.547a2.724 2.724 0 0 1-1.357.364c-.475 0-.945-.127-1.357-.364l-18.27-10.548-7.304 4.215 21.919 12.655a10.045 10.045 0 0 0 10.025 0l21.919-12.655-7.305-4.215Z"/><path fill="url(#d)" d="M7.506 42.507V21.412c0-.966.523-1.87 1.357-2.355l18.27-10.548V.074L5.212 12.73a10.03 10.03 0 0 0-5.012 8.683v25.31l7.305-4.215Z"/><path fill="url(#e)" d="m27.133 16.951-7.305 4.215v4.304l7.305-4.22v-4.299Z"/><path fill="url(#f)" d="m27.133 25.554-7.305 4.22v4.3l7.305-4.215v-4.305Z"/><path fill="url(#g)" d="m27.133 34.166-7.305 4.215v4.304l7.305-4.215v-4.304Z"/><path fill="url(#h)" d="M30.856 19.1v8.436l11.335 6.538-22.363 12.914 7.305 4.215 22.362-12.909V29.86L30.856 19.1Z"/></g><defs><linearGradient id="b" x1="50.636" x2="50.636" y1="69.3" y2="-.598" gradientUnits="userSpaceOnUse"><stop stop-color="#009482"/><stop offset=".22" stop-color="#009A7B"/><stop offset=".55" stop-color="#00AE68"/><stop offset=".93" stop-color="#00CD49"/><stop offset="1" stop-color="#00D443"/></linearGradient><linearGradient id="c" x1="32.15" x2="32.15" y1="69.299" y2="-.598" gradientUnits="userSpaceOnUse"><stop stop-color="#009482"/><stop offset=".22" stop-color="#009A7B"/><stop offset=".55" stop-color="#00AE68"/><stop offset=".93" stop-color="#00CD49"/><stop offset="1" stop-color="#00D443"/></linearGradient><linearGradient id="d" x1="13.664" x2="13.664" y1="69.302" y2="-.596" gradientUnits="userSpaceOnUse"><stop stop-color="#009482"/><stop offset=".22" stop-color="#009A7B"/><stop offset=".55" stop-color="#00AE68"/><stop offset=".93" stop-color="#00CD49"/><stop offset="1" stop-color="#00D443"/></linearGradient><linearGradient id="e" x1="23.478" x2="23.478" y1="69.303" y2="-.595" gradientUnits="userSpaceOnUse"><stop stop-color="#009482"/><stop offset=".22" stop-color="#009A7B"/><stop offset=".55" stop-color="#00AE68"/><stop offset=".93" stop-color="#00CD49"/><stop offset="1" stop-color="#00D443"/></linearGradient><linearGradient id="f" x1="23.478" x2="23.478" y1="-249.294" y2="-.595" gradientUnits="userSpaceOnUse"><stop stop-color="#009482"/><stop offset=".22" stop-color="#009A7B"/><stop offset=".55" stop-color="#00AE68"/><stop offset=".93" stop-color="#00CD49"/><stop offset="1" stop-color="#00D443"/></linearGradient><linearGradient id="g" x1="23.478" x2="23.478" y1="69.305" y2="-.593" gradientUnits="userSpaceOnUse"><stop stop-color="#009482"/><stop offset=".22" stop-color="#009A7B"/><stop offset=".55" stop-color="#00AE68"/><stop offset=".93" stop-color="#00CD49"/><stop offset="1" stop-color="#00D443"/></linearGradient><linearGradient id="h" x1="34.659" x2="34.659" y1="69.303" y2="-.595" gradientUnits="userSpaceOnUse"><stop stop-color="#009482"/><stop offset=".22" stop-color="#009A7B"/><stop offset=".55" stop-color="#00AE68"/><stop offset=".93" stop-color="#00CD49"/><stop offset="1" stop-color="#00D443"/></linearGradient><clipPath id="a"><path fill="#fff" d="M0 0h300v69.718H0z"/></clipPath></defs></svg>