<svg width="1226" height="312" viewBox="0 0 1226 312" fill="none" xmlns="http://www.w3.org/2000/svg">
<g clip-path="url(#clip0_601_2800)">
<path d="M1057.89 199.534C1034.87 204.891 1016.04 197.776 1008.34 194.01C1008.92 192.085 1009.17 189.992 1009.17 187.9C1009.17 186.728 1009.09 185.556 1008.92 184.384C1069.02 200.873 1055.96 152.913 1053.62 144.71C1051.28 136.508 1040.14 105.874 1032.28 131.821C1025.41 154.42 1009.84 167.142 1002.73 171.997C1000.47 169.653 997.707 167.895 994.694 166.64C1039.05 122.781 991.011 110.142 982.725 108.05C974.439 105.957 942.382 100.349 960.879 120.103C976.95 137.345 980.298 157.182 980.884 165.803C977.703 166.64 974.773 168.146 972.262 170.155C956.443 109.891 921.457 145.213 915.514 151.323C909.571 157.433 888.646 182.375 915.012 176.265C938.029 170.908 956.862 178.023 964.562 181.789C963.976 183.715 963.725 185.807 963.725 187.9C963.725 189.071 963.809 190.243 963.976 191.415C903.88 174.926 916.937 222.886 919.28 231.089C921.624 239.291 932.756 269.926 940.624 243.979C947.487 221.38 963.055 208.657 970.17 203.803C972.43 206.146 975.192 207.904 978.205 209.159C933.844 253.018 981.888 265.657 990.174 267.749C998.461 269.842 1030.52 275.45 1012.02 255.697C995.95 238.454 992.602 218.617 992.016 209.996C995.196 209.159 998.126 207.653 1000.64 205.644C1016.37 265.992 1051.44 230.67 1057.3 224.56C1063.41 218.366 1084.34 193.424 1057.89 199.534Z" fill="#161616"/>
</g>
<g clip-path="url(#clip1_601_2800)">
<path d="M864.723 199.534C841.706 204.891 822.873 197.776 815.173 194.01C815.759 192.085 816.01 189.992 816.01 187.9C816.01 186.728 815.926 185.556 815.759 184.384C875.855 200.873 862.798 152.913 860.455 144.71C858.111 136.508 846.979 105.874 839.111 131.821C832.248 154.42 816.68 167.142 809.565 171.997C807.305 169.653 804.543 167.895 801.53 166.64C845.891 122.781 797.847 110.142 789.561 108.05C781.275 105.957 749.218 100.349 767.715 120.103C783.786 137.345 787.134 157.182 787.719 165.803C784.539 166.64 781.609 168.146 779.098 170.155C763.279 109.891 728.293 145.213 722.35 151.323C716.407 157.433 695.482 182.375 721.848 176.265C744.865 170.908 763.698 178.023 771.398 181.789C770.812 183.715 770.561 185.807 770.561 187.9C770.561 189.071 770.645 190.243 770.812 191.415C710.716 174.926 723.773 222.886 726.116 231.089C728.46 239.291 739.592 269.926 747.46 243.979C754.323 221.38 769.891 208.657 777.006 203.803C779.266 206.146 782.028 207.904 785.041 209.159C740.68 253.018 788.724 265.657 797.01 267.749C805.296 269.842 837.353 275.45 818.856 255.697C802.785 238.454 799.437 218.617 798.852 209.996C802.032 209.159 804.962 207.653 807.473 205.644C823.208 265.992 858.278 230.67 864.137 224.56C870.247 218.366 891.172 193.424 864.723 199.534Z" fill="#161616"/>
</g>
<g clip-path="url(#clip2_601_2800)">
<path fill-rule="evenodd" clip-rule="evenodd" d="M685.973 4.29248V45.7327H684.93V39.5037H680.844V43.9159H679.192C678.323 43.9159 677.627 44.608 677.627 45.4732V51.01C677.627 51.8752 678.323 52.5673 679.192 52.5673H680.844V66.496C680.844 68.0534 679.54 69.351 677.975 69.351H648.939V73.4173H650.939V78.7811H649.808V76.0127H640.593V79.8193H637.898L637.898 87.0865H640.593L640.593 287.54H637.898L637.898 294.806H640.593V298.613H649.808V295.845H1087.17V297.748H1096.48V288.318H1094.65V86.5673H1096.48V77.1373H1087.17V78.9541H665.196V73.5902H678.236C681.974 73.5902 684.93 70.5623 684.93 66.9286V50.8371H685.973V72.5521C685.973 73.5902 686.842 74.4554 687.886 74.4554L1062.83 74.4553C1063.88 74.4553 1064.74 73.5902 1064.74 72.5521V4.379C1064.74 3.34081 1063.88 2.47568 1062.83 2.47568L687.886 2.4757C686.842 2.38919 685.973 3.25432 685.973 4.29248ZM889.461 187.548C889.461 240.64 846.622 283.681 793.777 283.681C740.933 283.681 698.094 240.64 698.094 187.548C698.094 134.456 740.933 91.4152 793.777 91.4152C846.622 91.4152 889.461 134.456 889.461 187.548ZM986.941 283.681C1039.79 283.681 1082.62 240.64 1082.62 187.548C1082.62 134.456 1039.79 91.4152 986.941 91.4152C934.097 91.4152 891.258 134.456 891.258 187.548C891.258 240.64 934.097 283.681 986.941 283.681Z" fill="#F1F1F1"/>
<path d="M889.485 187.355V99.2834L882.096 91.9297H793.598C846.54 91.9297 889.485 134.668 889.485 187.355Z" fill="#161616" stroke="#161616" stroke-width="0.898438" stroke-miterlimit="10"/>
<path d="M793.598 282.779H882.096L889.486 275.426V187.354C889.486 240.042 846.54 282.779 793.598 282.779Z" fill="#161616" stroke="#161616" stroke-width="0.898438" stroke-miterlimit="10"/>
<path d="M697.621 99.2844V187.356C697.621 134.668 740.566 91.9307 793.509 91.9307H705.01L697.621 99.2844Z" fill="#161616" stroke="#161616" stroke-width="0.898438" stroke-miterlimit="10"/>
<path d="M705.01 282.779H793.509C740.566 282.779 697.621 240.042 697.621 187.354V275.426L705.01 282.779Z" fill="#161616" stroke="#161616" stroke-width="0.898438" stroke-miterlimit="10"/>
<path d="M701.795 249.906V271.621L708.837 278.628H730.657C719.356 270.929 709.619 261.153 701.795 249.906Z" stroke="#F1F1F1" stroke-width="0.898438" stroke-miterlimit="10" stroke-linejoin="round"/>
<path d="M730.656 96.083H708.923L701.881 103.091V124.806C709.618 113.559 719.355 103.784 730.656 96.083Z" stroke="#F1F1F1" stroke-width="0.898438" stroke-miterlimit="10" stroke-linejoin="round"/>
<path d="M856.451 278.626H878.272L885.313 271.619V249.904C877.576 261.151 867.753 270.927 856.451 278.626Z" stroke="#F1F1F1" stroke-width="0.898438" stroke-miterlimit="10" stroke-linejoin="round"/>
<path d="M885.312 124.806V103.091L878.27 96.083H856.449C867.751 103.784 877.574 113.559 885.312 124.806Z" stroke="#F1F1F1" stroke-width="0.898438" stroke-miterlimit="10" stroke-linejoin="round"/>
<path d="M1083 187.356V99.2844L1075.61 91.9307H987.025C1040.05 91.9307 1083 134.668 1083 187.356Z" fill="#161616" stroke="#161616" stroke-width="0.898438" stroke-miterlimit="10"/>
<path d="M987.025 282.779H1075.52L1082.91 275.426V187.354C1083 240.042 1040.05 282.779 987.025 282.779Z" fill="#161616" stroke="#161616" stroke-width="0.898438" stroke-miterlimit="10"/>
<path d="M891.137 99.2834V187.355C891.137 134.668 934.082 91.9297 987.025 91.9297H898.525L891.137 99.2834Z" fill="#161616" stroke="#161616" stroke-width="0.898438" stroke-miterlimit="10"/>
<path d="M898.525 282.779H987.025C934.082 282.779 891.137 240.042 891.137 187.354V275.426L898.525 282.779Z" fill="#161616" stroke="#161616" stroke-width="0.898438" stroke-miterlimit="10"/>
<path d="M808.723 187.354C808.723 195.66 801.943 202.495 793.51 202.495C785.165 202.495 778.297 195.747 778.297 187.354C778.297 178.963 785.077 172.215 793.51 172.215C801.943 172.215 808.723 179.049 808.723 187.354ZM782.034 187.354C782.034 193.67 787.251 198.861 793.597 198.861C799.943 198.861 805.159 193.67 805.159 187.354C805.159 181.039 799.943 175.848 793.597 175.848C787.251 175.848 782.034 181.039 782.034 187.354Z" fill="#F1F1F1" stroke="#161616" stroke-width="0.898438" stroke-miterlimit="10"/>
<path d="M820.373 187.355C820.373 202.063 808.376 214.088 793.511 214.088C778.645 214.088 766.648 202.149 766.648 187.355C766.648 172.561 778.645 160.622 793.511 160.622C808.376 160.622 820.373 172.648 820.373 187.355ZM770.386 187.355C770.386 200.072 780.819 210.455 793.598 210.455C806.377 210.455 816.809 200.072 816.809 187.355C816.809 174.638 806.377 164.256 793.598 164.256C780.819 164.256 770.386 174.638 770.386 187.355Z" fill="#F1F1F1" stroke="#161616" stroke-width="0.898438" stroke-miterlimit="10"/>
<path d="M831.326 187.355C831.326 208.033 814.374 224.903 793.597 224.903C772.82 224.903 755.867 208.033 755.867 187.355C755.867 166.679 772.82 149.809 793.597 149.809C814.374 149.809 831.326 166.679 831.326 187.355ZM759.431 187.355C759.431 206.043 774.732 221.27 793.51 221.27C812.287 221.27 827.588 206.043 827.588 187.355C827.588 168.669 812.287 153.442 793.51 153.442C774.732 153.442 759.431 168.669 759.431 187.355Z" fill="#F1F1F1" stroke="#161616" stroke-width="0.898438" stroke-miterlimit="10"/>
<path d="M843.757 187.355C843.757 214.953 821.242 237.36 793.51 237.36C765.777 237.36 743.262 214.953 743.262 187.355C743.262 159.758 765.777 137.351 793.51 137.351C821.242 137.351 843.757 159.758 843.757 187.355ZM747 187.355C747 212.963 767.864 233.727 793.597 233.727C819.329 233.727 840.193 212.963 840.193 187.355C840.193 161.747 819.329 140.984 793.597 140.984C767.864 140.984 747 161.747 747 187.355Z" fill="#F1F1F1" stroke="#161616" stroke-width="0.898438" stroke-miterlimit="10"/>
<path d="M854.364 187.355C854.364 220.75 827.067 247.829 793.598 247.829C760.041 247.829 732.83 220.663 732.83 187.355C732.83 153.961 760.127 126.882 793.598 126.882C827.067 126.882 854.364 153.961 854.364 187.355ZM736.395 187.355C736.395 218.76 762.04 244.195 793.511 244.195C824.98 244.195 850.626 218.674 850.626 187.355C850.626 156.037 824.98 130.515 793.511 130.515C762.04 130.515 736.395 155.951 736.395 187.355Z" fill="#F1F1F1" stroke="#161616" stroke-width="0.898438" stroke-miterlimit="10"/>
<path d="M865.578 187.355C865.578 226.893 833.325 258.989 793.597 258.989C753.868 258.989 721.615 226.893 721.615 187.355C721.615 147.818 753.868 115.722 793.597 115.722C833.239 115.722 865.578 147.818 865.578 187.355ZM725.18 187.355C725.18 224.816 755.867 255.355 793.51 255.355C831.152 255.355 861.84 224.816 861.84 187.355C861.84 149.895 831.152 119.355 793.51 119.355C755.867 119.355 725.18 149.808 725.18 187.355Z" fill="#F1F1F1" stroke="#161616" stroke-width="0.898438" stroke-miterlimit="10"/>
<rect x="786.141" y="180.36" width="14.375" height="14.375" rx="7.1875" fill="#A0F200"/>
<path d="M876.183 187.355C876.183 232.689 839.148 269.544 793.596 269.544C748.042 269.544 711.008 232.689 711.008 187.355C711.008 142.022 748.042 105.167 793.596 105.167C839.148 105.167 876.183 142.022 876.183 187.355ZM714.572 187.355C714.572 230.699 750.041 265.91 793.508 265.91C837.062 265.91 872.444 230.612 872.444 187.355C872.444 144.098 836.975 108.801 793.508 108.801C750.041 108.801 714.572 144.012 714.572 187.355Z" fill="#F1F1F1" stroke="#161616" stroke-width="0.898438" stroke-miterlimit="10"/>
<path d="M886.443 187.355C886.443 238.312 844.802 279.753 793.598 279.753C742.393 279.753 700.752 238.312 700.752 187.355C700.752 136.399 742.393 94.959 793.598 94.959C844.802 94.959 886.443 136.399 886.443 187.355ZM704.316 187.355C704.316 236.323 744.393 276.119 793.598 276.119C842.803 276.119 882.792 236.323 882.792 187.355C882.792 138.389 842.803 98.5923 793.598 98.5923C744.393 98.5923 704.316 138.389 704.316 187.355Z" fill="#F1F1F1" stroke="#161616" stroke-width="0.898438" stroke-miterlimit="10"/>
<path d="M895.309 249.906V271.621L902.351 278.628H924.171C912.869 270.929 903.046 261.153 895.309 249.906Z" stroke="#F1F1F1" stroke-width="0.898438" stroke-miterlimit="10" stroke-linejoin="round"/>
<path d="M924.171 96.083H902.351L895.309 103.091V124.806C903.046 113.559 912.869 103.784 924.171 96.083Z" stroke="#F1F1F1" stroke-width="0.898438" stroke-miterlimit="10" stroke-linejoin="round"/>
<path d="M1049.88 278.628H1071.7L1078.74 271.621V249.906C1071 261.153 1061.27 270.929 1049.88 278.628Z" stroke="#F1F1F1" stroke-width="0.898438" stroke-miterlimit="10" stroke-linejoin="round"/>
<path d="M1078.83 124.806V103.091L1071.79 96.083H1049.96C1061.27 103.784 1071 113.559 1078.83 124.806Z" stroke="#F1F1F1" stroke-width="0.898438" stroke-miterlimit="10" stroke-linejoin="round"/>
<path d="M641.027 290.739L641.027 83.9707" stroke="#161616" stroke-width="0.898438" stroke-miterlimit="10"/>
<path d="M645.027 79.2988H1092.74C1093.52 79.2988 1094.22 79.9045 1094.22 80.7696V293.94C1094.22 294.719 1093.61 295.411 1092.74 295.411H645.027" stroke="#161616" stroke-width="0.898438" stroke-miterlimit="10"/>
<path d="M1062.83 73.9358L687.884 73.9359C687.102 73.9359 686.406 73.2437 686.406 72.4651V4.29202C686.406 3.5134 687.102 2.8213 687.884 2.8213L1062.83 2.82129C1063.61 2.82129 1064.31 3.51338 1064.31 4.29201L1064.31 72.4651C1064.31 73.2437 1063.7 73.9358 1062.83 73.9358Z" stroke="#161616" stroke-width="0.898438" stroke-miterlimit="10"/>
<path d="M921.824 12.8571C921.824 10.1336 919.606 7.92578 916.869 7.92578C914.132 7.92578 911.914 10.1336 911.914 12.8571C911.914 15.5806 914.132 17.7884 916.869 17.7884C919.606 17.7884 921.824 15.5806 921.824 12.8571Z" stroke="#161616" stroke-width="0.898438" stroke-miterlimit="10"/>
<path d="M915.133 11.04L918.611 14.5871" stroke="#161616" stroke-width="0.898438" stroke-miterlimit="10"/>
<path d="M918.611 11.04L915.133 14.5871" stroke="#161616" stroke-width="0.898438" stroke-miterlimit="10"/>
<path d="M973.203 63.9001C973.203 61.1766 970.984 58.9688 968.248 58.9688C965.511 58.9688 963.293 61.1766 963.293 63.9001C963.293 66.6235 965.511 68.8314 968.248 68.8314C970.984 68.8314 973.203 66.6235 973.203 63.9001Z" stroke="#161616" stroke-width="0.898438" stroke-miterlimit="10"/>
<path d="M966.422 62.1699L969.986 65.6305" stroke="#161616" stroke-width="0.898438" stroke-miterlimit="10"/>
<path d="M969.986 62.1699L966.422 65.6305" stroke="#161616" stroke-width="0.898438" stroke-miterlimit="10"/>
<path d="M920.869 19.9501L926.78 25.8331C923.999 29.2936 922.346 33.6193 922.346 38.3776C922.346 43.1359 923.999 47.4617 926.78 50.9222L920.869 56.8051C916.609 51.8738 914.088 45.3853 914.088 38.3776C914.001 31.37 916.609 24.8814 920.869 19.9501ZM942.516 22.6321C946.08 22.6321 949.296 23.8432 951.991 25.7466L946.08 31.6296C945.037 31.1104 943.819 30.7644 942.602 30.7644C941.298 30.7644 940.168 31.1104 939.125 31.6296L933.213 25.7466C935.734 23.8432 939.038 22.6321 942.516 22.6321ZM942.516 54.1232C938.951 54.1232 935.734 52.9119 933.04 51.0087L938.951 45.1257C939.994 45.6448 941.211 45.9908 942.428 45.9908C943.732 45.9908 944.862 45.6448 945.905 45.1257L951.817 51.0087C949.383 52.9119 946.08 54.1232 942.516 54.1232ZM935.821 34.8305C935.3 35.8687 934.952 37.0799 934.952 38.2911C934.952 39.5888 935.3 40.7135 935.821 41.7517L929.91 47.6346C927.911 45.0392 926.78 41.7516 926.78 38.2046C926.78 34.6575 927.998 31.4565 929.91 28.7746L935.821 34.8305ZM949.296 41.8382C949.818 40.8 950.166 39.5888 950.166 38.3776C950.166 37.0799 949.818 35.9553 949.296 34.917L955.208 29.0341C957.207 31.6296 958.337 34.917 958.337 38.4642C958.337 42.0112 957.12 45.2122 955.208 47.8942L949.296 41.8382ZM924.085 60.0062L929.997 54.1232C933.475 56.8917 937.821 58.5355 942.602 58.5355C947.383 58.5355 951.73 56.8917 955.208 54.1232L961.119 60.0062C956.164 64.2454 949.644 66.7543 942.602 66.7543C935.474 66.7543 929.041 64.1589 924.085 60.0062ZM964.249 56.8051L958.337 50.9222C961.119 47.4617 962.771 43.1359 962.771 38.3776C962.771 33.6193 961.119 29.2936 958.337 25.8331L964.249 19.9501C968.508 24.8814 971.029 31.37 971.029 38.3776C971.116 45.3853 968.508 51.7873 964.249 56.8051ZM961.032 16.7491L955.208 22.6321C951.73 19.8636 947.383 18.2198 942.602 18.2198C937.821 18.2198 933.475 19.8636 929.997 22.6321L924.085 16.7491C929.041 12.5099 935.561 10.001 942.602 10.001C949.644 10.001 956.077 12.5099 961.032 16.7491Z" fill="#161616"/>
<path d="M973.203 12.8571C973.203 10.1336 970.984 7.92578 968.248 7.92578C965.511 7.92578 963.293 10.1336 963.293 12.8571C963.293 15.5806 965.511 17.7884 968.248 17.7884C970.984 17.7884 973.203 15.5806 973.203 12.8571Z" stroke="#161616" stroke-width="0.898438" stroke-miterlimit="10"/>
<path d="M969.986 11.04L966.422 14.5871" stroke="#161616" stroke-width="0.898438" stroke-miterlimit="10"/>
<path d="M969.986 14.5871L966.422 11.04" stroke="#161616" stroke-width="0.898438" stroke-miterlimit="10"/>
<path d="M921.824 63.9001C921.824 61.1766 919.606 58.9688 916.869 58.9688C914.132 58.9688 911.914 61.1766 911.914 63.9001C911.914 66.6235 914.132 68.8314 916.869 68.8314C919.606 68.8314 921.824 66.6235 921.824 63.9001Z" stroke="#161616" stroke-width="0.898438" stroke-miterlimit="10"/>
<path d="M918.611 62.1699L915.133 65.6305" stroke="#161616" stroke-width="0.898438" stroke-miterlimit="10"/>
<path d="M918.611 65.6305L915.133 62.1699" stroke="#161616" stroke-width="0.898438" stroke-miterlimit="10"/>
<path d="M850.192 12.8571C850.192 10.1336 847.974 7.92578 845.237 7.92578C842.5 7.92578 840.281 10.1336 840.281 12.8571C840.281 15.5806 842.5 17.7884 845.237 17.7884C847.974 17.7884 850.192 15.5806 850.192 12.8571Z" stroke="#161616" stroke-width="0.898438" stroke-miterlimit="10"/>
<path d="M843.41 11.04L846.974 14.5871" stroke="#161616" stroke-width="0.898438" stroke-miterlimit="10"/>
<path d="M846.974 11.04L843.41 14.5871" stroke="#161616" stroke-width="0.898438" stroke-miterlimit="10"/>
<path d="M901.482 63.9001C901.482 61.1766 899.264 58.9688 896.527 58.9688C893.79 58.9688 891.572 61.1766 891.572 63.9001C891.572 66.6235 893.79 68.8314 896.527 68.8314C899.264 68.8314 901.482 66.6235 901.482 63.9001Z" stroke="#161616" stroke-width="0.898438" stroke-miterlimit="10"/>
<path d="M894.789 62.1699L898.266 65.6305" stroke="#161616" stroke-width="0.898438" stroke-miterlimit="10"/>
<path d="M898.266 62.1699L894.789 65.6305" stroke="#161616" stroke-width="0.898438" stroke-miterlimit="10"/>
<path d="M849.148 19.9501L855.059 25.8331C852.278 29.2936 850.626 33.6193 850.626 38.3776C850.626 43.1359 852.278 47.4617 855.059 50.9222L849.148 56.8051C844.888 51.8738 842.367 45.3853 842.367 38.3776C842.367 31.37 844.888 24.8814 849.148 19.9501ZM870.881 22.6321C874.446 22.6321 877.662 23.8432 880.357 25.7466L874.446 31.6296C873.403 31.1104 872.185 30.7644 870.968 30.7644C869.664 30.7644 868.534 31.1104 867.491 31.6296L861.579 25.7466C864.1 23.8432 867.317 22.6321 870.881 22.6321ZM870.881 54.1232C867.317 54.1232 864.1 52.9119 861.406 51.0087L867.317 45.1257C868.36 45.6448 869.577 45.9908 870.795 45.9908C872.098 45.9908 873.229 45.6448 874.272 45.1257L880.183 51.0087C877.662 52.9119 874.446 54.1232 870.881 54.1232ZM864.1 34.8305C863.579 35.8687 863.231 37.0799 863.231 38.2911C863.231 39.5888 863.579 40.7135 864.1 41.7517L858.189 47.6346C856.19 45.0392 855.059 41.7516 855.059 38.2046C855.059 34.6575 856.277 31.4565 858.189 28.7746L864.1 34.8305ZM877.575 41.8382C878.097 40.8 878.445 39.5888 878.445 38.3776C878.445 37.0799 878.097 35.9553 877.575 34.917L883.487 29.0341C885.486 31.6296 886.616 34.917 886.616 38.4642C886.616 42.0112 885.4 45.2122 883.487 47.8942L877.575 41.8382ZM852.364 60.0062L858.276 54.1232C861.754 56.8917 866.1 58.5355 870.881 58.5355C875.662 58.5355 880.009 56.8917 883.487 54.1232L889.399 60.0062C884.443 64.2454 877.923 66.7543 870.881 66.7543C863.84 66.7543 857.32 64.1589 852.364 60.0062ZM892.615 56.8051L886.703 50.9222C889.485 47.4617 891.137 43.1359 891.137 38.3776C891.137 33.6193 889.485 29.2936 886.703 25.8331L892.615 19.9501C896.874 24.8814 899.396 31.37 899.396 38.3776C899.396 45.3853 896.787 51.7873 892.615 56.8051ZM889.399 16.7491L883.487 22.6321C880.009 19.8636 875.662 18.2198 870.881 18.2198C866.1 18.2198 861.754 19.8636 858.276 22.6321L852.364 16.7491C857.32 12.5099 863.84 10.001 870.881 10.001C877.923 10.001 884.356 12.5099 889.399 16.7491Z" fill="#161616"/>
<path d="M901.482 12.8571C901.482 10.1336 899.264 7.92578 896.527 7.92578C893.79 7.92578 891.572 10.1336 891.572 12.8571C891.572 15.5806 893.79 17.7884 896.527 17.7884C899.264 17.7884 901.482 15.5806 901.482 12.8571Z" stroke="#161616" stroke-width="0.898438" stroke-miterlimit="10"/>
<path d="M898.266 11.04L894.789 14.5871" stroke="#161616" stroke-width="0.898438" stroke-miterlimit="10"/>
<path d="M898.266 14.5871L894.789 11.04" stroke="#161616" stroke-width="0.898438" stroke-miterlimit="10"/>
<path d="M850.192 63.9001C850.192 61.1766 847.974 58.9688 845.237 58.9688C842.5 58.9688 840.281 61.1766 840.281 63.9001C840.281 66.6235 842.5 68.8314 845.237 68.8314C847.974 68.8314 850.192 66.6235 850.192 63.9001Z" stroke="#161616" stroke-width="0.898438" stroke-miterlimit="10"/>
<path d="M846.974 62.1699L843.41 65.6305" stroke="#161616" stroke-width="0.898438" stroke-miterlimit="10"/>
<path d="M846.974 65.6305L843.41 62.1699" stroke="#161616" stroke-width="0.898438" stroke-miterlimit="10"/>
<path d="M778.469 12.8571C778.469 10.1336 776.251 7.92578 773.514 7.92578C770.778 7.92578 768.559 10.1336 768.559 12.8571C768.559 15.5806 770.778 17.7884 773.514 17.7884C776.251 17.7884 778.469 15.5806 778.469 12.8571Z" stroke="#161616" stroke-width="0.898438" stroke-miterlimit="10"/>
<path d="M771.777 11.04L775.255 14.5871" stroke="#161616" stroke-width="0.898438" stroke-miterlimit="10"/>
<path d="M775.255 11.04L771.777 14.5871" stroke="#161616" stroke-width="0.898438" stroke-miterlimit="10"/>
<path d="M829.762 63.9001C829.762 61.1766 827.544 58.9688 824.807 58.9688C822.071 58.9688 819.852 61.1766 819.852 63.9001C819.852 66.6235 822.071 68.8314 824.807 68.8314C827.544 68.8314 829.762 66.6235 829.762 63.9001Z" stroke="#161616" stroke-width="0.898438" stroke-miterlimit="10"/>
<path d="M823.068 62.1699L826.632 65.6305" stroke="#161616" stroke-width="0.898438" stroke-miterlimit="10"/>
<path d="M826.632 62.1699L823.068 65.6305" stroke="#161616" stroke-width="0.898438" stroke-miterlimit="10"/>
<path d="M777.429 19.9501L783.341 25.8331C780.558 29.2936 778.907 33.6193 778.907 38.3776C778.907 43.1359 780.558 47.4617 783.341 50.9222L777.429 56.8051C773.169 51.8738 770.648 45.3853 770.648 38.3776C770.648 31.37 773.256 24.8814 777.429 19.9501ZM799.162 22.6321C802.727 22.6321 805.944 23.8432 808.638 25.7466L802.727 31.6296C801.683 31.1104 800.467 30.7644 799.249 30.7644C797.946 30.7644 796.815 31.1104 795.772 31.6296L789.861 25.7466C792.382 23.8432 795.598 22.6321 799.162 22.6321ZM799.162 54.1232C795.598 54.1232 792.382 52.9119 789.686 51.0087L795.598 45.1257C796.641 45.6448 797.859 45.9908 799.076 45.9908C800.38 45.9908 801.51 45.6448 802.553 45.1257L808.465 51.0087C805.944 52.9119 802.727 54.1232 799.162 54.1232ZM792.469 34.8305C791.947 35.8687 791.599 37.0799 791.599 38.2911C791.599 39.5888 791.947 40.7135 792.469 41.7517L786.557 47.7211C784.557 45.1257 783.428 41.8382 783.428 38.2911C783.428 34.744 784.644 31.543 786.557 28.8611L792.469 34.8305ZM805.944 41.8382C806.465 40.8 806.812 39.5888 806.812 38.3776C806.812 37.0799 806.465 35.9553 805.944 34.917L811.855 29.0341C813.854 31.6296 814.985 34.917 814.985 38.4642C814.985 42.0112 813.767 45.2122 811.855 47.8942L805.944 41.8382ZM780.645 60.0062L786.557 54.1232C790.034 56.8917 794.381 58.5355 799.162 58.5355C803.944 58.5355 808.29 56.8917 811.768 54.1232L817.68 60.0062C812.724 64.2454 806.204 66.7543 799.162 66.7543C792.121 66.7543 785.687 64.1589 780.645 60.0062ZM820.896 56.8051L814.985 50.9222C817.766 47.4617 819.418 43.1359 819.418 38.3776C819.418 33.6193 817.766 29.2936 814.985 25.8331L820.896 19.9501C825.156 24.8814 827.677 31.37 827.677 38.3776C827.677 45.3853 825.156 51.7873 820.896 56.8051ZM817.68 16.7491L811.768 22.6321C808.29 19.8636 803.944 18.2198 799.162 18.2198C794.381 18.2198 790.034 19.8636 786.557 22.6321L780.645 16.7491C785.601 12.5099 792.121 10.001 799.162 10.001C806.204 10.001 812.724 12.5099 817.68 16.7491Z" fill="#161616"/>
<path d="M829.762 12.8571C829.762 10.1336 827.544 7.92578 824.807 7.92578C822.071 7.92578 819.852 10.1336 819.852 12.8571C819.852 15.5806 822.071 17.7884 824.807 17.7884C827.544 17.7884 829.762 15.5806 829.762 12.8571Z" stroke="#161616" stroke-width="0.898438" stroke-miterlimit="10"/>
<path d="M826.632 11.04L823.068 14.5871" stroke="#161616" stroke-width="0.898438" stroke-miterlimit="10"/>
<path d="M826.632 14.5871L823.068 11.04" stroke="#161616" stroke-width="0.898438" stroke-miterlimit="10"/>
<path d="M778.469 63.9001C778.469 61.1766 776.251 58.9688 773.514 58.9688C770.778 58.9688 768.559 61.1766 768.559 63.9001C768.559 66.6235 770.778 68.8314 773.514 68.8314C776.251 68.8314 778.469 66.6235 778.469 63.9001Z" stroke="#161616" stroke-width="0.898438" stroke-miterlimit="10"/>
<path d="M775.255 62.1699L771.777 65.6305" stroke="#161616" stroke-width="0.898438" stroke-miterlimit="10"/>
<path d="M775.255 65.6305L771.777 62.1699" stroke="#161616" stroke-width="0.898438" stroke-miterlimit="10"/>
<path d="M696.23 187.356C696.23 185.397 694.634 183.809 692.666 183.809C690.697 183.809 689.102 185.397 689.102 187.356C689.102 189.315 690.697 190.903 692.666 190.903C694.634 190.903 696.23 189.315 696.23 187.356Z" stroke="#161616" stroke-width="0.898438" stroke-miterlimit="10"/>
<path d="M693.883 186.144L691.449 188.567" stroke="#161616" stroke-width="0.898438" stroke-miterlimit="10"/>
<path d="M693.883 188.567L691.449 186.144" stroke="#161616" stroke-width="0.898438" stroke-miterlimit="10"/>
<path d="M980.766 46.5099V17.5277C980.766 13.3751 984.156 10.001 988.329 10.001L1049.62 10.001C1053.79 10.001 1057.18 13.375 1057.18 17.5277V46.5099C1057.18 50.6625 1053.79 54.0365 1049.62 54.0365H988.329C984.156 54.123 980.766 50.6625 980.766 46.5099Z" fill="#161616"/>
<path d="M710.662 38.0316V12.2503C710.662 11.0391 711.705 10.001 712.922 10.001H747.609C748.826 10.001 749.87 11.0391 749.87 12.2503V38.0316C749.87 39.2427 748.826 40.2809 747.609 40.2809H712.922C711.705 40.1944 710.662 39.2427 710.662 38.0316Z" fill="#161616" stroke="#F1F1F1" stroke-width="0.898438" stroke-miterlimit="10"/>
<path d="M995.545 44.6066V19.3446C995.545 17.6143 997.023 16.1436 998.761 16.1436H1039.19C1040.93 16.1436 1042.4 17.6143 1042.4 19.3445V44.6066C1042.4 46.3369 1040.93 47.8077 1039.19 47.8077H998.761C997.023 47.8077 995.545 46.4235 995.545 44.6066Z" fill="#161616" stroke="#F1F1F1" stroke-width="0.898438" stroke-miterlimit="10"/>
<path d="M1015.45 25.4863V27.4762H1022.49V25.4863H1015.45Z" fill="white"/>
<path d="M1006.85 34.0527V36.0426H1013.89V34.0527H1006.85Z" fill="white"/>
<path d="M1024.06 34.0527V36.0426H1031.1V34.0527H1024.06Z" fill="white"/>
<path d="M696.23 102.744C696.23 100.786 694.634 99.1973 692.666 99.1973C690.697 99.1973 689.102 100.786 689.102 102.744C689.102 104.703 690.697 106.291 692.666 106.291C694.634 106.291 696.23 104.703 696.23 102.744Z" stroke="#161616" stroke-width="0.898438" stroke-miterlimit="10"/>
<path d="M693.883 101.532L691.449 103.954" stroke="#161616" stroke-width="0.898438" stroke-miterlimit="10"/>
<path d="M693.883 103.954L691.449 101.532" stroke="#161616" stroke-width="0.898438" stroke-miterlimit="10"/>
<path d="M696.23 86.3938C696.23 84.4348 694.634 82.8467 692.666 82.8467C690.697 82.8467 689.102 84.4348 689.102 86.3938C689.102 88.3528 690.697 89.9408 692.666 89.9408C694.634 89.9408 696.23 88.3528 696.23 86.3938Z" stroke="#161616" stroke-width="0.898438" stroke-miterlimit="10"/>
<path d="M693.883 85.0947L691.449 87.6037" stroke="#161616" stroke-width="0.898438" stroke-miterlimit="10"/>
<path d="M693.883 87.6037L691.449 85.0947" stroke="#161616" stroke-width="0.898438" stroke-miterlimit="10"/>
<path d="M893.832 86.3938C893.832 84.4348 892.236 82.8467 890.267 82.8467C888.299 82.8467 886.703 84.4348 886.703 86.3938C886.703 88.3528 888.299 89.9408 890.267 89.9408C892.236 89.9408 893.832 88.3528 893.832 86.3938Z" stroke="#161616" stroke-width="0.898438" stroke-miterlimit="10"/>
<path d="M891.572 85.0947L889.051 87.6037" stroke="#161616" stroke-width="0.898438" stroke-miterlimit="10"/>
<path d="M891.572 87.6037L889.051 85.0947" stroke="#161616" stroke-width="0.898438" stroke-miterlimit="10"/>
<path d="M696.23 288.318C696.23 286.359 694.634 284.771 692.666 284.771C690.697 284.771 689.102 286.359 689.102 288.318C689.102 290.277 690.697 291.865 692.666 291.865C694.634 291.865 696.23 290.277 696.23 288.318Z" stroke="#161616" stroke-width="0.898438" stroke-miterlimit="10"/>
<path d="M693.883 287.106L691.449 289.615" stroke="#161616" stroke-width="0.898438" stroke-miterlimit="10"/>
<path d="M693.883 289.615L691.449 287.106" stroke="#161616" stroke-width="0.898438" stroke-miterlimit="10"/>
<path d="M660.154 86.3938C660.154 84.4348 658.558 82.8467 656.59 82.8467C654.621 82.8467 653.025 84.4348 653.025 86.3938C653.025 88.3528 654.621 89.9408 656.59 89.9408C658.558 89.9408 660.154 88.3528 660.154 86.3938Z" stroke="#161616" stroke-width="0.898438" stroke-miterlimit="10"/>
<path d="M657.806 85.0947L655.285 87.6037" stroke="#161616" stroke-width="0.898438" stroke-miterlimit="10"/>
<path d="M657.806 87.6037L655.285 85.0947" stroke="#161616" stroke-width="0.898438" stroke-miterlimit="10"/>
<path d="M660.154 288.318C660.154 286.359 658.558 284.771 656.59 284.771C654.621 284.771 653.025 286.359 653.025 288.318C653.025 290.277 654.621 291.865 656.59 291.865C658.558 291.865 660.154 290.277 660.154 288.318Z" stroke="#161616" stroke-width="0.898438" stroke-miterlimit="10"/>
<path d="M657.806 287.105L655.285 289.614" stroke="#161616" stroke-width="0.898438" stroke-miterlimit="10"/>
<path d="M657.806 289.614L655.285 287.105" stroke="#161616" stroke-width="0.898438" stroke-miterlimit="10"/>
<path d="M696.23 271.966C696.23 270.006 694.634 268.419 692.666 268.419C690.697 268.419 689.102 270.006 689.102 271.966C689.102 273.925 690.697 275.513 692.666 275.513C694.634 275.513 696.23 273.925 696.23 271.966Z" stroke="#161616" stroke-width="0.898438" stroke-miterlimit="10"/>
<path d="M693.883 270.668L691.449 273.177" stroke="#161616" stroke-width="0.898438" stroke-miterlimit="10"/>
<path d="M693.883 273.177L691.449 270.668" stroke="#161616" stroke-width="0.898438" stroke-miterlimit="10"/>
<path d="M1091.78 102.744C1091.78 100.786 1090.18 99.1973 1088.22 99.1973C1086.25 99.1973 1084.65 100.786 1084.65 102.744C1084.65 104.703 1086.25 106.291 1088.22 106.291C1090.18 106.291 1091.78 104.703 1091.78 102.744Z" stroke="#161616" stroke-width="0.898438" stroke-miterlimit="10"/>
<path d="M1089.52 101.532L1087 103.954" stroke="#161616" stroke-width="0.898438" stroke-miterlimit="10"/>
<path d="M1089.52 103.954L1087 101.532" stroke="#161616" stroke-width="0.898438" stroke-miterlimit="10"/>
<path d="M1091.78 86.3938C1091.78 84.4348 1090.18 82.8467 1088.22 82.8467C1086.25 82.8467 1084.65 84.4348 1084.65 86.3938C1084.65 88.3528 1086.25 89.9408 1088.22 89.9408C1090.18 89.9408 1091.78 88.3528 1091.78 86.3938Z" stroke="#161616" stroke-width="0.898438" stroke-miterlimit="10"/>
<path d="M1089.52 85.0947L1087 87.6037" stroke="#161616" stroke-width="0.898438" stroke-miterlimit="10"/>
<path d="M1089.52 87.6037L1087 85.0947" stroke="#161616" stroke-width="0.898438" stroke-miterlimit="10"/>
<path d="M1091.78 288.318C1091.78 286.359 1090.18 284.771 1088.22 284.771C1086.25 284.771 1084.65 286.359 1084.65 288.318C1084.65 290.277 1086.25 291.865 1088.22 291.865C1090.18 291.865 1091.78 290.277 1091.78 288.318Z" stroke="#161616" stroke-width="0.898438" stroke-miterlimit="10"/>
<path d="M1089.52 287.106L1087 289.615" stroke="#161616" stroke-width="0.898438" stroke-miterlimit="10"/>
<path d="M1089.52 289.615L1087 287.106" stroke="#161616" stroke-width="0.898438" stroke-miterlimit="10"/>
<path d="M893.832 288.318C893.832 286.359 892.236 284.771 890.267 284.771C888.299 284.771 886.703 286.359 886.703 288.318C886.703 290.277 888.299 291.865 890.267 291.865C892.236 291.865 893.832 290.277 893.832 288.318Z" stroke="#161616" stroke-width="0.898438" stroke-miterlimit="10"/>
<path d="M891.572 287.106L889.051 289.615" stroke="#161616" stroke-width="0.898438" stroke-miterlimit="10"/>
<path d="M891.572 289.615L889.051 287.106" stroke="#161616" stroke-width="0.898438" stroke-miterlimit="10"/>
<path d="M1091.78 271.966C1091.78 270.006 1090.18 268.419 1088.22 268.419C1086.25 268.419 1084.65 270.006 1084.65 271.966C1084.65 273.925 1086.25 275.513 1088.22 275.513C1090.18 275.513 1091.78 273.925 1091.78 271.966Z" stroke="#161616" stroke-width="0.898438" stroke-miterlimit="10"/>
<path d="M1089.52 270.668L1087 273.177" stroke="#161616" stroke-width="0.898438" stroke-miterlimit="10"/>
<path d="M1089.52 273.177L1087 270.668" stroke="#161616" stroke-width="0.898438" stroke-miterlimit="10"/>
<path d="M1091.78 187.356C1091.78 185.397 1090.18 183.809 1088.22 183.809C1086.25 183.809 1084.65 185.397 1084.65 187.356C1084.65 189.315 1086.25 190.903 1088.22 190.903C1090.18 190.903 1091.78 189.315 1091.78 187.356Z" stroke="#161616" stroke-width="0.898438" stroke-miterlimit="10"/>
<path d="M1089.52 186.144L1087 188.567" stroke="#161616" stroke-width="0.898438" stroke-miterlimit="10"/>
<path d="M1089.52 188.567L1087 186.144" stroke="#161616" stroke-width="0.898438" stroke-miterlimit="10"/>
<path d="M750.566 89.1621H759.695" stroke="#161616" stroke-width="0.898438" stroke-miterlimit="10" stroke-linecap="round"/>
<path d="M750.566 86.3066H759.695" stroke="#161616" stroke-width="0.898438" stroke-miterlimit="10" stroke-linecap="round"/>
<path d="M827.414 89.1621H836.542" stroke="#161616" stroke-width="0.898438" stroke-miterlimit="10" stroke-linecap="round"/>
<path d="M827.414 86.3066H836.542" stroke="#161616" stroke-width="0.898438" stroke-miterlimit="10" stroke-linecap="round"/>
<path d="M692.059 144.53V153.701" stroke="#161616" stroke-width="0.898438" stroke-miterlimit="10" stroke-linecap="round"/>
<path d="M694.926 144.53V153.701" stroke="#161616" stroke-width="0.898438" stroke-miterlimit="10" stroke-linecap="round"/>
<path d="M692.059 221.01V230.18" stroke="#161616" stroke-width="0.898438" stroke-miterlimit="10" stroke-linecap="round"/>
<path d="M694.926 221.01V230.18" stroke="#161616" stroke-width="0.898438" stroke-miterlimit="10" stroke-linecap="round"/>
<path d="M1085.7 144.53V153.701" stroke="#161616" stroke-width="0.898438" stroke-miterlimit="10" stroke-linecap="round"/>
<path d="M1088.57 144.53V153.701" stroke="#161616" stroke-width="0.898438" stroke-miterlimit="10" stroke-linecap="round"/>
<path d="M1085.7 221.01V230.18" stroke="#161616" stroke-width="0.898438" stroke-miterlimit="10" stroke-linecap="round"/>
<path d="M1088.57 221.01V230.18" stroke="#161616" stroke-width="0.898438" stroke-miterlimit="10" stroke-linecap="round"/>
<path d="M944.078 89.1621H953.206" stroke="#161616" stroke-width="0.898438" stroke-miterlimit="10" stroke-linecap="round"/>
<path d="M944.078 86.3066H953.206" stroke="#161616" stroke-width="0.898438" stroke-miterlimit="10" stroke-linecap="round"/>
<path d="M1020.84 89.1621H1030.06" stroke="#161616" stroke-width="0.898438" stroke-miterlimit="10" stroke-linecap="round"/>
<path d="M1020.84 86.3066H1030.06" stroke="#161616" stroke-width="0.898438" stroke-miterlimit="10" stroke-linecap="round"/>
<path d="M750.566 288.404H759.695" stroke="#161616" stroke-width="0.898438" stroke-miterlimit="10" stroke-linecap="round"/>
<path d="M750.566 285.549H759.695" stroke="#161616" stroke-width="0.898438" stroke-miterlimit="10" stroke-linecap="round"/>
<path d="M827.414 288.404H836.542" stroke="#161616" stroke-width="0.898438" stroke-miterlimit="10" stroke-linecap="round"/>
<path d="M827.414 285.549H836.542" stroke="#161616" stroke-width="0.898438" stroke-miterlimit="10" stroke-linecap="round"/>
<path d="M944.078 288.405H953.206" stroke="#161616" stroke-width="0.898438" stroke-miterlimit="10" stroke-linecap="round"/>
<path d="M944.078 285.549H953.206" stroke="#161616" stroke-width="0.898438" stroke-miterlimit="10" stroke-linecap="round"/>
<path d="M1020.84 288.404H1030.06" stroke="#161616" stroke-width="0.898438" stroke-miterlimit="10" stroke-linecap="round"/>
<path d="M1020.84 285.549H1030.06" stroke="#161616" stroke-width="0.898438" stroke-miterlimit="10" stroke-linecap="round"/>
<path d="M686.406 4.29202V63.208H687.623V4.46506C687.623 4.20552 687.797 4.03249 688.058 4.03249L1062.74 4.03247C1063 4.03247 1063.18 4.2055 1063.18 4.46505V63.208H1064.4V4.29201C1064.4 3.51338 1063.7 2.82129 1062.92 2.82129L687.884 2.8213C687.102 2.8213 686.406 3.5134 686.406 4.29202Z" fill="#161616"/>
<path d="M646.156 83.9712H641.027L641.027 290.739H646.156V293.595H680.93C682.93 293.595 684.581 291.951 684.581 289.961V84.7499C684.581 82.76 682.93 81.1162 680.93 81.1162H646.156V83.9712Z" stroke="#161616" stroke-width="0.898438" stroke-miterlimit="10"/>
<path d="M676.584 99.7172V274.994C676.584 276.985 678.236 278.628 680.235 278.628H684.582V96.083H680.235C678.236 96.083 676.584 97.6409 676.584 99.7172Z" stroke="#161616" stroke-width="0.898438" stroke-miterlimit="10"/>
<path d="M641.027 80.3378H638.332V86.7399H641.027V83.9715H646.156V81.1165H645.026V79.2997H649.373V76.5312H645.026H641.027V80.3378Z" stroke="#161616" stroke-width="0.898438" stroke-miterlimit="10"/>
<path d="M641.027 294.373H638.332V287.971H641.027V290.739H646.156V293.594H645.026V295.324H649.373V298.18H645.026H641.027V294.373Z" stroke="#161616" stroke-width="0.898438" stroke-miterlimit="10"/>
<path d="M651.373 73.0703V79.2994H664.848V73.0703H651.373Z" stroke="#161616" stroke-width="0.898438" stroke-miterlimit="10"/>
<path d="M677.976 69.8694H649.375V73.0704H678.237C681.714 73.0704 684.496 70.302 684.496 66.8414V39.9355H681.28V66.5819C681.28 68.3986 679.802 69.8694 677.976 69.8694Z" stroke="#161616" stroke-width="0.898438" stroke-miterlimit="10"/>
<path d="M678.062 45.4719V51.0087C678.062 51.6144 678.584 52.1335 679.193 52.1335H681.279V44.2607H679.193C678.584 44.2607 678.062 44.7798 678.062 45.4719Z" stroke="#161616" stroke-width="0.898438" stroke-miterlimit="10"/>
<path d="M684.496 45.7324V50.7502H686.409V45.7324H684.496Z" fill="#161616"/>
<path d="M650.418 133.37V152.663H657.894V133.37H650.418Z" fill="#161616"/>
<path d="M650.418 255.095V262.536H657.894V255.095H650.418Z" fill="#161616"/>
<path d="M654.156 226.545V233.986H661.633V226.545H654.156Z" fill="#161616"/>
<path d="M655.547 174.724V194.017H666.066V174.724H655.547Z" fill="#161616"/>
<path d="M653.635 179.83V188.914H664.154V179.83H653.635Z" fill="#161616"/>
<path d="M651.635 181.645V187.182H662.154V181.645H651.635Z" fill="#161616"/>
<path d="M669.804 172.907V196.612H650.418V172.907C650.418 172.389 650.853 172.042 651.287 172.042H668.848C669.37 172.042 669.804 172.475 669.804 172.907Z" stroke="#161616" stroke-width="0.898438" stroke-miterlimit="10"/>
<path d="M655.547 199.381V218.674H666.066V199.381H655.547Z" fill="#161616"/>
<path d="M653.633 204.485V213.569H664.152V204.485H653.633Z" fill="#161616"/>
<path d="M651.635 206.215V211.752H662.154V206.215H651.635Z" fill="#161616"/>
<path d="M669.803 196.698V220.404C669.803 220.922 669.369 221.268 668.934 221.268H651.373C650.852 221.268 650.504 220.836 650.504 220.404V196.698H669.803Z" stroke="#161616" stroke-width="0.898438" stroke-miterlimit="10"/>
<path d="M650.418 109.666V128.958H657.894V109.666H650.418Z" fill="#161616"/>
<path d="M662.066 165.035C662.066 163.267 660.626 161.834 658.849 161.834C657.073 161.834 655.633 163.267 655.633 165.035C655.633 166.802 657.073 168.235 658.849 168.235C660.626 168.235 662.066 166.802 662.066 165.035Z" fill="#161616"/>
<path d="M662.066 242.897C662.066 241.129 660.626 239.696 658.849 239.696C657.073 239.696 655.633 241.129 655.633 242.897C655.633 244.666 657.073 246.099 658.849 246.099C660.626 246.099 662.066 244.666 662.066 242.897Z" fill="#161616"/>
<path d="M686.406 79.2988V295.324" stroke="#161616" stroke-width="0.898438" stroke-miterlimit="10"/>
<path d="M1087.61 79.3006V77.5703H1096.04V86.1352H1094.22" stroke="#161616" stroke-width="0.898438" stroke-miterlimit="10"/>
<path d="M1087.61 295.498V297.315H1096.04V288.75H1094.22" stroke="#161616" stroke-width="0.898438" stroke-miterlimit="10"/>
<path d="M684.496 88.6426V285.981H686.409V88.6426H684.496Z" fill="#161616"/>
<path d="M794.033 173.687C801.422 173.687 807.421 179.656 807.421 187.009" stroke="#161616" stroke-width="0.898438" stroke-miterlimit="10" stroke-linecap="round" stroke-linejoin="round"/>
<path d="M794.033 200.246C786.643 200.246 780.645 194.277 780.645 186.923" stroke="#161616" stroke-width="0.898438" stroke-miterlimit="10" stroke-linecap="round" stroke-linejoin="round"/>
<path d="M794.031 162.093C807.854 162.093 819.068 173.253 819.068 187.009" stroke="#161616" stroke-width="0.898438" stroke-miterlimit="10" stroke-linecap="round" stroke-linejoin="round"/>
<path d="M794.034 211.838C780.21 211.838 768.996 200.678 768.996 186.923" stroke="#161616" stroke-width="0.898438" stroke-miterlimit="10" stroke-linecap="round" stroke-linejoin="round"/>
<path d="M794.033 222.74C774.212 222.74 758.129 206.735 758.129 187.01" stroke="#161616" stroke-width="0.898438" stroke-miterlimit="10" stroke-linecap="round" stroke-linejoin="round"/>
<path d="M794.031 151.192C813.852 151.192 829.935 167.197 829.935 186.922" stroke="#161616" stroke-width="0.898438" stroke-miterlimit="10" stroke-linecap="round" stroke-linejoin="round"/>
<path d="M794.032 245.665C761.431 245.665 735.004 219.365 735.004 186.923" stroke="#161616" stroke-width="0.898438" stroke-miterlimit="10" stroke-linecap="round" stroke-linejoin="round"/>
<path d="M794.033 128.266C826.633 128.266 853.061 154.566 853.061 187.008" stroke="#161616" stroke-width="0.898438" stroke-miterlimit="10" stroke-linecap="round" stroke-linejoin="round"/>
<path d="M794.032 256.827C755.26 256.827 723.877 225.509 723.877 187.01" stroke="#161616" stroke-width="0.898438" stroke-miterlimit="10" stroke-linecap="round" stroke-linejoin="round"/>
<path d="M794.033 117.105C832.805 117.105 864.189 148.423 864.189 186.922" stroke="#161616" stroke-width="0.898438" stroke-miterlimit="10" stroke-linecap="round" stroke-linejoin="round"/>
<path d="M794.032 267.381C749.348 267.381 713.184 231.391 713.184 186.923" stroke="#161616" stroke-width="0.898438" stroke-miterlimit="10" stroke-linecap="round" stroke-linejoin="round"/>
<path d="M794.033 106.551C838.717 106.551 874.882 142.54 874.882 187.009" stroke="#161616" stroke-width="0.898438" stroke-miterlimit="10" stroke-linecap="round" stroke-linejoin="round"/>
<path d="M794.033 277.59C743.698 277.59 702.926 237.014 702.926 186.923" stroke="#161616" stroke-width="0.898438" stroke-miterlimit="10" stroke-linecap="round" stroke-linejoin="round"/>
<path d="M794.033 96.3428C844.368 96.3428 885.14 136.918 885.14 187.01" stroke="#161616" stroke-width="0.898438" stroke-miterlimit="10" stroke-linecap="round" stroke-linejoin="round"/>
<path d="M794.033 235.111C767.344 235.111 745.697 213.569 745.697 187.01" stroke="#161616" stroke-width="0.898438" stroke-miterlimit="10" stroke-linecap="round" stroke-linejoin="round"/>
<path d="M794.033 138.82C820.721 138.82 842.368 160.362 842.368 186.922" stroke="#161616" stroke-width="0.898438" stroke-miterlimit="10" stroke-linecap="round" stroke-linejoin="round"/>
<path d="M887.052 103.177C887.052 105.253 886.357 107.242 885.053 108.887C883.314 110.963 880.793 112.088 878.184 112.088C877.141 112.088 876.359 111.309 876.359 110.271C876.359 109.232 877.141 108.454 878.184 108.454C879.75 108.454 881.315 107.762 882.271 106.551C883.314 105.34 883.661 103.695 883.401 102.138C882.966 100.062 881.315 98.4189 879.315 98.0721C877.663 97.7262 876.098 98.1592 874.881 99.1969C873.664 100.236 872.969 101.706 872.969 103.263C872.969 103.869 873.055 104.561 873.317 105.08C874.273 107.589 873.577 110.531 871.578 112.52L801.422 182.337C797.162 186.576 790.295 186.576 786.034 182.337L715.879 112.52C714.923 111.568 713.445 111.223 712.054 111.655C710.576 112.174 709.011 112.261 707.446 112.001C703.882 111.309 701.1 108.541 700.405 104.994C699.883 102.312 700.579 99.63 702.23 97.5537C703.969 95.4774 706.49 94.3525 709.098 94.3525C714.053 94.3525 718.052 98.3317 718.052 103.263C718.052 104.301 717.27 105.08 716.227 105.08C715.183 105.08 714.401 104.301 714.401 103.263C714.401 100.322 712.054 97.9858 709.098 97.9858C707.533 97.9858 705.968 98.6776 705.012 99.8896C703.969 101.101 703.621 102.744 703.882 104.301C704.317 106.378 705.968 108.021 708.055 108.367C709.011 108.541 709.967 108.454 710.837 108.195C713.532 107.242 716.488 107.935 718.4 109.925L788.555 179.742C791.425 182.596 796.032 182.596 798.814 179.742L868.97 109.925C869.926 108.973 870.361 107.502 869.926 106.291C869.578 105.34 869.405 104.215 869.405 103.177C869.405 100.495 870.621 97.9858 872.621 96.3417C874.708 94.6122 877.403 94.0066 880.097 94.525C883.575 95.2177 886.444 97.9858 887.052 101.447C887.052 101.966 887.052 102.571 887.052 103.177Z" fill="#F1F1F1" stroke="#161616" stroke-width="0.898438" stroke-miterlimit="10"/>
<path d="M887.05 271.533C887.05 273.609 886.355 275.599 885.051 277.243C883.312 279.32 880.791 280.444 878.183 280.444C873.228 280.444 869.229 276.465 869.229 271.533C869.229 270.495 870.011 269.716 871.054 269.716C872.097 269.716 872.88 270.495 872.88 271.533C872.88 274.475 875.227 276.81 878.183 276.81C879.747 276.81 881.313 276.119 882.268 274.908C883.312 273.696 883.66 272.052 883.399 270.495C882.964 268.419 881.313 266.775 879.226 266.429C878.27 266.256 877.314 266.343 876.444 266.601C873.75 267.554 870.794 266.861 868.881 264.872L798.725 195.054C795.857 192.2 791.249 192.2 788.467 195.054L718.311 264.785C717.355 265.736 716.92 267.207 717.355 268.419C717.703 269.37 717.877 270.495 717.877 271.533C717.877 274.215 716.66 276.724 714.66 278.367C712.574 280.098 709.879 280.703 707.184 280.185C703.706 279.492 700.837 276.724 700.229 273.263C699.707 270.582 700.403 267.9 702.055 265.823C703.706 263.747 706.314 262.622 708.922 262.622C709.966 262.622 710.748 263.401 710.748 264.439C710.748 265.478 709.966 266.256 708.922 266.256C707.358 266.256 705.793 266.948 704.836 268.159C703.793 269.37 703.445 271.014 703.706 272.572C704.141 274.648 705.793 276.291 707.792 276.638C709.444 276.984 711.009 276.551 712.226 275.513C713.443 274.474 714.138 273.004 714.138 271.447C714.138 270.841 714.051 270.149 713.791 269.63C712.834 267.121 713.53 264.179 715.529 262.189L785.685 192.372C789.945 188.134 796.813 188.134 801.072 192.372L871.402 262.276C872.359 263.228 873.836 263.574 875.227 263.142C876.705 262.622 878.27 262.536 879.835 262.796C883.399 263.487 886.181 266.256 886.877 269.803C887.05 270.322 887.05 270.927 887.05 271.533Z" fill="#F1F1F1" stroke="#161616" stroke-width="0.898438" stroke-miterlimit="10"/>
<path d="M1002.24 187.354C1002.24 195.66 995.458 202.495 987.027 202.495C978.681 202.495 971.812 195.747 971.812 187.354C971.812 178.963 978.594 172.215 987.027 172.215C995.458 172.215 1002.24 179.049 1002.24 187.354ZM975.551 187.354C975.551 193.67 980.767 198.861 987.113 198.861C993.459 198.861 998.676 193.67 998.676 187.354C998.676 181.039 993.459 175.848 987.113 175.848C980.68 175.848 975.551 181.039 975.551 187.354Z" fill="#F1F1F1" stroke="#161616" stroke-width="0.898438" stroke-miterlimit="10"/>
<path d="M1013.89 187.355C1013.89 202.063 1001.89 214.088 987.027 214.088C972.161 214.088 960.164 202.149 960.164 187.355C960.164 172.561 972.161 160.622 987.027 160.622C1001.89 160.622 1013.89 172.648 1013.89 187.355ZM963.902 187.355C963.902 200.072 974.334 210.455 987.114 210.455C999.893 210.455 1010.33 200.072 1010.33 187.355C1010.33 174.638 999.893 164.256 987.114 164.256C974.248 164.256 963.902 174.638 963.902 187.355Z" fill="#F1F1F1" stroke="#161616" stroke-width="0.898438" stroke-miterlimit="10"/>
<path d="M1024.76 187.355C1024.76 208.033 1007.8 224.903 987.027 224.903C966.249 224.903 949.297 208.033 949.297 187.355C949.297 166.679 966.249 149.809 987.027 149.809C1007.89 149.809 1024.76 166.679 1024.76 187.355ZM952.948 187.355C952.948 206.043 968.249 221.27 987.027 221.27C1005.8 221.27 1021.1 206.043 1021.1 187.355C1021.1 168.669 1005.8 153.442 987.027 153.442C968.249 153.442 952.948 168.669 952.948 187.355Z" fill="#F1F1F1" stroke="#161616" stroke-width="0.898438" stroke-miterlimit="10"/>
<path d="M1037.27 187.355C1037.27 214.953 1014.76 237.36 987.025 237.36C959.293 237.36 936.777 214.953 936.777 187.355C936.777 159.758 959.293 137.351 987.025 137.351C1014.76 137.351 1037.27 159.758 1037.27 187.355ZM940.429 187.355C940.429 212.963 961.292 233.727 987.025 233.727C1012.76 233.727 1033.62 212.963 1033.62 187.355C1033.62 161.747 1012.76 140.984 987.025 140.984C961.292 140.984 940.429 161.747 940.429 187.355Z" fill="#F1F1F1" stroke="#161616" stroke-width="0.898438" stroke-miterlimit="10"/>
<path d="M1047.88 187.355C1047.88 220.75 1020.58 247.829 987.11 247.829C953.555 247.829 926.344 220.663 926.344 187.355C926.344 153.961 953.641 126.882 987.11 126.882C1020.58 126.882 1047.88 153.961 1047.88 187.355ZM929.908 187.355C929.908 218.76 955.554 244.195 987.024 244.195C1018.49 244.195 1044.14 218.674 1044.14 187.355C1044.14 156.037 1018.49 130.515 987.024 130.515C955.554 130.515 929.908 155.951 929.908 187.355Z" fill="#F1F1F1" stroke="#161616" stroke-width="0.898438" stroke-miterlimit="10"/>
<path d="M1059.01 187.355C1059.01 226.893 1026.75 258.989 987.025 258.989C947.296 258.989 915.043 226.893 915.043 187.355C915.043 147.818 947.296 115.722 987.025 115.722C1026.75 115.722 1059.01 147.818 1059.01 187.355ZM918.694 187.355C918.694 224.816 949.382 255.355 987.025 255.355C1024.67 255.355 1055.35 224.816 1055.35 187.355C1055.35 149.895 1024.67 119.355 987.025 119.355C949.382 119.355 918.694 149.808 918.694 187.355Z" fill="#F1F1F1" stroke="#161616" stroke-width="0.898438" stroke-miterlimit="10"/>
<path d="M1069.7 187.354C1069.7 232.688 1032.66 269.543 987.111 269.543C941.557 269.543 904.523 232.688 904.523 187.354C904.523 142.021 941.557 105.166 987.111 105.166C1032.66 105.166 1069.7 142.021 1069.7 187.354ZM908.088 187.354C908.088 230.698 943.557 265.909 987.024 265.909C1030.58 265.909 1065.96 230.611 1065.96 187.354C1065.96 144.097 1030.49 108.8 987.024 108.8C943.47 108.8 908.088 144.011 908.088 187.354Z" fill="#F1F1F1" stroke="#161616" stroke-width="0.898438" stroke-miterlimit="10"/>
<path d="M1079.87 187.355C1079.87 238.312 1038.23 279.753 987.026 279.753C935.821 279.753 894.18 238.312 894.18 187.355C894.18 136.399 935.821 94.959 987.026 94.959C1038.23 94.959 1079.87 136.399 1079.87 187.355ZM897.831 187.355C897.831 236.323 937.821 276.119 987.026 276.119C1036.23 276.119 1076.22 236.323 1076.22 187.355C1076.22 138.389 1036.23 98.5923 987.026 98.5923C937.821 98.5923 897.831 138.389 897.831 187.355Z" fill="#F1F1F1" stroke="#161616" stroke-width="0.898438" stroke-miterlimit="10"/>
<rect x="980.203" y="180.36" width="14.375" height="14.375" rx="7.1875" fill="#A0F200"/>
<path d="M907.393 271.534C907.393 268.811 905.175 266.604 902.438 266.604C899.702 266.604 897.482 268.811 897.482 271.534C897.482 274.258 899.702 276.466 902.438 276.466C905.175 276.466 907.393 274.258 907.393 271.534Z" fill="#F1F1F1" stroke="#161616" stroke-width="0.898438" stroke-miterlimit="10"/>
<path d="M907.393 103.178C907.393 100.454 905.175 98.2461 902.438 98.2461C899.702 98.2461 897.482 100.454 897.482 103.178C897.482 105.901 899.702 108.108 902.438 108.108C905.175 108.108 907.393 105.901 907.393 103.178Z" fill="#F1F1F1" stroke="#161616" stroke-width="0.898438" stroke-miterlimit="10"/>
<path d="M1076.57 103.178C1076.57 100.454 1074.35 98.2461 1071.61 98.2461C1068.87 98.2461 1066.66 100.454 1066.66 103.178C1066.66 105.901 1068.87 108.108 1071.61 108.108C1074.35 108.108 1076.57 105.901 1076.57 103.178Z" fill="#F1F1F1" stroke="#161616" stroke-width="0.898438" stroke-miterlimit="10"/>
<path d="M1076.57 271.534C1076.57 268.811 1074.35 266.604 1071.61 266.604C1068.87 266.604 1066.66 268.811 1066.66 271.534C1066.66 274.258 1068.87 276.466 1071.61 276.466C1074.35 276.466 1076.57 274.258 1076.57 271.534Z" fill="#F1F1F1" stroke="#161616" stroke-width="0.898438" stroke-miterlimit="10"/>
<path d="M900.004 271.533H904.959" stroke="#161616" stroke-width="0.898438" stroke-miterlimit="10"/>
<path d="M902.439 269.023V273.955" stroke="#161616" stroke-width="0.898438" stroke-miterlimit="10"/>
<path d="M900.004 103.178H904.959" stroke="#161616" stroke-width="0.898438" stroke-miterlimit="10"/>
<path d="M902.439 100.755V105.686" stroke="#161616" stroke-width="0.898438" stroke-miterlimit="10"/>
<path d="M1069.18 271.533H1074.14" stroke="#161616" stroke-width="0.898438" stroke-miterlimit="10"/>
<path d="M1071.61 269.023V273.955" stroke="#161616" stroke-width="0.898438" stroke-miterlimit="10"/>
<path d="M1069.18 103.179H1074.13" stroke="#161616" stroke-width="0.898438" stroke-miterlimit="10"/>
<path d="M1071.61 100.755V105.686" stroke="#161616" stroke-width="0.898438" stroke-miterlimit="10"/>
<path d="M713.965 271.534C713.965 268.811 711.747 266.604 709.01 266.604C706.273 266.604 704.055 268.811 704.055 271.534C704.055 274.258 706.273 276.466 709.01 276.466C711.747 276.466 713.965 274.258 713.965 271.534Z" fill="#F1F1F1" stroke="#161616" stroke-width="0.898438" stroke-miterlimit="10"/>
<path d="M713.965 103.178C713.965 100.454 711.747 98.2461 709.01 98.2461C706.273 98.2461 704.055 100.454 704.055 103.178C704.055 105.901 706.273 108.108 709.01 108.108C711.747 108.108 713.965 105.901 713.965 103.178Z" fill="#F1F1F1" stroke="#161616" stroke-width="0.898438" stroke-miterlimit="10"/>
<path d="M883.051 103.178C883.051 100.454 880.833 98.2461 878.096 98.2461C875.359 98.2461 873.141 100.454 873.141 103.178C873.141 105.901 875.359 108.108 878.096 108.108C880.833 108.108 883.051 105.901 883.051 103.178Z" fill="#F1F1F1" stroke="#161616" stroke-width="0.898438" stroke-miterlimit="10"/>
<path d="M883.051 271.533C883.051 268.81 880.833 266.603 878.096 266.603C875.359 266.603 873.141 268.81 873.141 271.533C873.141 274.257 875.359 276.465 878.096 276.465C880.833 276.465 883.051 274.257 883.051 271.533Z" fill="#F1F1F1" stroke="#161616" stroke-width="0.898438" stroke-miterlimit="10"/>
<path d="M706.488 271.533H711.444" stroke="#161616" stroke-width="0.898438" stroke-miterlimit="10"/>
<path d="M709.012 269.023V273.955" stroke="#161616" stroke-width="0.898438" stroke-miterlimit="10"/>
<path d="M706.488 103.179H711.444" stroke="#161616" stroke-width="0.898438" stroke-miterlimit="10"/>
<path d="M709.012 100.755V105.686" stroke="#161616" stroke-width="0.898438" stroke-miterlimit="10"/>
<path d="M875.662 271.533H880.618" stroke="#161616" stroke-width="0.898438" stroke-miterlimit="10"/>
<path d="M878.098 269.023V273.955" stroke="#161616" stroke-width="0.898438" stroke-miterlimit="10"/>
<path d="M875.662 103.178H880.618" stroke="#161616" stroke-width="0.898438" stroke-miterlimit="10"/>
<path d="M878.098 100.755V105.686" stroke="#161616" stroke-width="0.898438" stroke-miterlimit="10"/>
<path d="M991.285 32.0614C991.285 30.5325 990.04 29.293 988.503 29.293C986.967 29.293 985.721 30.5325 985.721 32.0614C985.721 33.5904 986.967 34.8299 988.503 34.8299C990.04 34.8299 991.285 33.5904 991.285 32.0614Z" stroke="#F1F1F1" stroke-width="0.898438" stroke-miterlimit="10" stroke-linejoin="round"/>
<path d="M1052.31 32.0614C1052.31 30.5325 1051.07 29.293 1049.53 29.293C1048 29.293 1046.75 30.5325 1046.75 32.0614C1046.75 33.5904 1048 34.8299 1049.53 34.8299C1051.07 34.8299 1052.31 33.5904 1052.31 32.0614Z" stroke="#F1F1F1" stroke-width="0.898438" stroke-miterlimit="10" stroke-linejoin="round"/>
<path d="M716.051 15.2783V34.8305H744.565V15.2783H716.051Z" stroke="#161616" stroke-width="0.898438" stroke-miterlimit="10"/>
<path d="M718.834 34.9175V15.1924" stroke="#F1F1F1" stroke-width="0.898438" stroke-miterlimit="10" stroke-linejoin="round"/>
<path d="M731.787 34.9175V15.1924" stroke="#F1F1F1" stroke-width="0.898438" stroke-miterlimit="10" stroke-linejoin="round"/>
<path d="M741.002 25.0551C741.002 23.2395 739.756 21.7676 738.22 21.7676C736.683 21.7676 735.438 23.2395 735.438 25.0551C735.438 26.8708 736.683 28.3426 738.22 28.3426C739.756 28.3426 741.002 26.8708 741.002 25.0551Z" stroke="#F1F1F1" stroke-width="0.898438" stroke-miterlimit="10" stroke-linejoin="round"/>
<path d="M722.746 25.0557H727.702" stroke="#F1F1F1" stroke-width="0.898438" stroke-miterlimit="10" stroke-linejoin="round"/>
<path d="M714.922 35.9552H745.609V14.2402H714.922V35.9552ZM744.566 15.365V34.9171H716.052V15.365H744.566Z" fill="#F1F1F1"/>
<path d="M987.461 173.6C994.85 173.6 1000.85 179.569 1000.85 186.923" stroke="#161616" stroke-width="0.898438" stroke-miterlimit="10" stroke-linecap="round" stroke-linejoin="round"/>
<path d="M987.458 200.246C980.069 200.246 974.07 194.277 974.07 186.923" stroke="#161616" stroke-width="0.898438" stroke-miterlimit="10" stroke-linecap="round" stroke-linejoin="round"/>
<path d="M987.461 162.007C1001.28 162.007 1012.5 173.167 1012.5 186.923" stroke="#161616" stroke-width="0.898438" stroke-miterlimit="10" stroke-linecap="round" stroke-linejoin="round"/>
<path d="M987.46 211.838C973.636 211.838 962.422 200.678 962.422 186.923" stroke="#161616" stroke-width="0.898438" stroke-miterlimit="10" stroke-linecap="round" stroke-linejoin="round"/>
<path d="M987.462 222.74C967.642 222.74 951.559 206.735 951.559 187.01" stroke="#161616" stroke-width="0.898438" stroke-miterlimit="10" stroke-linecap="round" stroke-linejoin="round"/>
<path d="M987.461 151.192C1007.28 151.192 1023.36 167.197 1023.36 186.922" stroke="#161616" stroke-width="0.898438" stroke-miterlimit="10" stroke-linecap="round" stroke-linejoin="round"/>
<path d="M987.46 245.665C954.859 245.665 928.432 219.365 928.432 186.923" stroke="#161616" stroke-width="0.898438" stroke-miterlimit="10" stroke-linecap="round" stroke-linejoin="round"/>
<path d="M987.461 128.18C1020.06 128.18 1046.49 154.481 1046.49 186.923" stroke="#161616" stroke-width="0.898438" stroke-miterlimit="10" stroke-linecap="round" stroke-linejoin="round"/>
<path d="M987.46 256.827C948.688 256.827 917.305 225.509 917.305 187.01" stroke="#161616" stroke-width="0.898438" stroke-miterlimit="10" stroke-linecap="round" stroke-linejoin="round"/>
<path d="M987.461 117.105C1026.23 117.105 1057.62 148.423 1057.62 186.922" stroke="#161616" stroke-width="0.898438" stroke-miterlimit="10" stroke-linecap="round" stroke-linejoin="round"/>
<path d="M987.462 267.381C942.777 267.381 906.613 231.391 906.613 186.923" stroke="#161616" stroke-width="0.898438" stroke-miterlimit="10" stroke-linecap="round" stroke-linejoin="round"/>
<path d="M987.461 106.466C1032.14 106.466 1068.31 142.455 1068.31 186.924" stroke="#161616" stroke-width="0.898438" stroke-miterlimit="10" stroke-linecap="round" stroke-linejoin="round"/>
<path d="M987.46 277.59C937.126 277.59 896.354 237.014 896.354 186.923" stroke="#161616" stroke-width="0.898438" stroke-miterlimit="10" stroke-linecap="round" stroke-linejoin="round"/>
<path d="M987.461 96.2559C1037.79 96.2559 1078.57 136.831 1078.57 186.923" stroke="#161616" stroke-width="0.898438" stroke-miterlimit="10" stroke-linecap="round" stroke-linejoin="round"/>
<path d="M987.461 235.024C960.772 235.024 939.125 213.482 939.125 186.923" stroke="#161616" stroke-width="0.898438" stroke-miterlimit="10" stroke-linecap="round" stroke-linejoin="round"/>
<path d="M987.461 138.82C1014.15 138.82 1035.8 160.362 1035.8 186.922" stroke="#161616" stroke-width="0.898438" stroke-miterlimit="10" stroke-linecap="round" stroke-linejoin="round"/>
<path d="M1080.57 103.177C1080.57 105.253 1079.87 107.242 1078.57 108.887C1076.83 110.963 1074.31 112.088 1071.7 112.088C1070.66 112.088 1069.87 111.309 1069.87 110.271C1069.87 109.232 1070.66 108.454 1071.7 108.454C1073.27 108.454 1074.83 107.762 1075.79 106.551C1076.83 105.34 1077.18 103.695 1076.92 102.138C1076.48 100.062 1074.83 98.4189 1072.83 98.0721C1071.18 97.7262 1069.61 98.1592 1068.4 99.1969C1067.18 100.236 1066.48 101.706 1066.48 103.263C1066.48 103.869 1066.57 104.561 1066.83 105.08C1067.79 107.589 1067.09 110.531 1065.09 112.52L994.938 182.337C990.678 186.576 983.811 186.576 979.55 182.337L909.395 112.52C908.438 111.568 906.96 111.223 905.569 111.655C904.091 112.174 902.527 112.261 900.962 112.001C897.398 111.309 894.615 108.541 893.92 104.994C893.399 102.312 894.094 99.63 895.746 97.5537C897.484 95.4774 900.006 94.3525 902.613 94.3525C907.569 94.3525 911.568 98.3317 911.568 103.263C911.568 104.301 910.786 105.08 909.742 105.08C908.699 105.08 907.917 104.301 907.917 103.263C907.917 100.322 905.569 97.9858 902.613 97.9858C901.049 97.9858 899.484 98.6776 898.528 99.8896C897.484 101.101 897.136 102.744 897.398 104.301C897.833 106.378 899.484 108.021 901.57 108.367C902.527 108.541 903.483 108.454 904.353 108.195C907.047 107.242 910.003 107.935 911.916 109.925L982.071 179.742C984.94 182.596 989.548 182.596 992.33 179.742L1062.49 109.925C1063.44 108.887 1063.88 107.502 1063.44 106.291C1063.09 105.34 1062.92 104.215 1062.92 103.177C1062.92 100.495 1064.14 97.9858 1066.14 96.3417C1068.22 94.6122 1070.92 94.0066 1073.61 94.525C1077.09 95.2177 1079.96 97.9858 1080.57 101.447C1080.48 101.966 1080.57 102.571 1080.57 103.177Z" fill="#F1F1F1" stroke="#161616" stroke-width="0.898438" stroke-miterlimit="10"/>
<path d="M1080.57 271.533C1080.57 273.609 1079.87 275.599 1078.57 277.243C1076.83 279.32 1074.31 280.444 1071.7 280.444C1066.74 280.444 1062.75 276.465 1062.75 271.533C1062.75 270.495 1063.53 269.716 1064.57 269.716C1065.61 269.716 1066.4 270.495 1066.4 271.533C1066.4 274.475 1068.74 276.81 1071.7 276.81C1073.26 276.81 1074.83 276.119 1075.79 274.908C1076.83 273.696 1077.18 272.052 1076.92 270.495C1076.48 268.419 1074.83 266.775 1072.74 266.429C1071.79 266.256 1070.83 266.343 1069.96 266.601C1067.27 267.554 1064.31 266.861 1062.4 264.872L992.242 195.054C989.373 192.2 984.766 192.2 981.983 195.054L911.741 264.785C910.785 265.736 910.35 267.207 910.785 268.419C911.133 269.37 911.307 270.495 911.307 271.533C911.307 274.215 910.089 276.724 908.09 278.367C906.003 280.098 903.309 280.703 900.614 280.185C897.136 279.492 894.267 276.724 893.659 273.263C893.137 270.582 893.832 267.9 895.484 265.823C897.223 263.747 899.744 262.622 902.352 262.622C903.395 262.622 904.178 263.401 904.178 264.439C904.178 265.478 903.395 266.256 902.352 266.256C900.787 266.256 899.223 266.948 898.266 268.159C897.223 269.37 896.875 271.014 897.136 272.572C897.571 274.648 899.223 276.291 901.222 276.638C902.874 276.984 904.438 276.551 905.656 275.513C906.873 274.474 907.568 273.004 907.568 271.447C907.568 270.841 907.481 270.149 907.221 269.63C906.264 267.121 906.959 264.179 908.959 262.189L979.115 192.372C983.375 188.134 990.243 188.134 994.502 192.372L1064.92 262.276C1065.87 263.228 1067.35 263.574 1068.74 263.142C1070.22 262.622 1071.79 262.536 1073.35 262.796C1076.92 263.487 1079.7 266.256 1080.39 269.803C1080.48 270.322 1080.57 270.927 1080.57 271.533Z" fill="#F1F1F1" stroke="#161616" stroke-width="0.898438" stroke-miterlimit="10"/>
<path d="M787.25 193.324C790.814 189.777 796.552 189.777 800.117 193.324L870.272 263.141C871.75 264.612 874.01 265.044 876.009 264.438C877.14 264.093 878.444 263.919 879.748 264.179C882.53 264.698 884.79 266.948 885.312 269.716" stroke="#161616" stroke-width="0.898438" stroke-miterlimit="10" stroke-linecap="round" stroke-linejoin="round"/>
<path d="M709.009 264.093C704.575 264.093 701.098 268.072 702.054 272.658" stroke="#161616" stroke-width="0.898438" stroke-miterlimit="10" stroke-linecap="round" stroke-linejoin="round"/>
<path d="M799.943 180.694C796.379 184.242 790.642 184.242 787.078 180.694L716.834 110.791C715.357 109.32 713.096 108.888 711.097 109.493C709.967 109.839 708.663 110.013 707.359 109.753C704.577 109.234 702.317 106.984 701.795 104.216" stroke="#161616" stroke-width="0.898438" stroke-miterlimit="10" stroke-linecap="round" stroke-linejoin="round"/>
<path d="M878.184 109.926C882.617 109.926 886.095 105.946 885.138 101.36" stroke="#161616" stroke-width="0.898438" stroke-miterlimit="10" stroke-linecap="round" stroke-linejoin="round"/>
<path d="M980.854 193.324C984.418 189.777 990.155 189.777 993.719 193.324L1063.96 263.141C1065.44 264.612 1067.7 265.044 1069.7 264.438C1070.83 264.093 1072.13 263.919 1073.44 264.179C1076.22 264.698 1078.48 266.948 1079 269.716" stroke="#161616" stroke-width="0.898438" stroke-miterlimit="10" stroke-linecap="round" stroke-linejoin="round"/>
<path d="M902.698 264.094C898.264 264.094 894.787 268.073 895.743 272.659" stroke="#161616" stroke-width="0.898438" stroke-miterlimit="10" stroke-linecap="round" stroke-linejoin="round"/>
<path d="M993.632 180.694C990.068 184.242 984.331 184.242 980.767 180.694L910.524 110.791C909.046 109.32 906.786 108.888 904.786 109.493C903.656 109.839 902.352 110.013 901.048 109.753C898.266 109.234 896.005 106.984 895.484 104.216" stroke="#161616" stroke-width="0.898438" stroke-miterlimit="10" stroke-linecap="round" stroke-linejoin="round"/>
<path d="M1071.79 109.926C1076.22 109.926 1079.7 105.946 1078.74 101.36" stroke="#161616" stroke-width="0.898438" stroke-miterlimit="10" stroke-linecap="round" stroke-linejoin="round"/>
<mask id="mask0_601_2800" style="mask-type:luminance" maskUnits="userSpaceOnUse" x="647" y="109" width="51" height="150">
<path d="M697.238 109.676V258.738H647.393V109.676H697.238Z" fill="#C4C4C4"/>
</mask>
<g mask="url(#mask0_601_2800)">
<path d="M654.039 112.999C679.199 112.999 687.744 239.749 697.238 239.749" stroke="#A0F200" stroke-width="2.2461" stroke-linecap="round"/>
<path d="M654.039 117.271C679.199 117.271 687.744 244.497 697.238 244.497" stroke="#A0F200" stroke-width="2.2461" stroke-linecap="round"/>
<path d="M654.039 121.544C679.199 121.544 687.744 249.243 697.238 249.243" stroke="#A0F200" stroke-width="2.2461" stroke-linecap="round"/>
<path d="M654.039 125.342C679.199 125.342 687.744 253.99 697.238 253.99" stroke="#FF005E" stroke-width="2.2461" stroke-linecap="round"/>
</g>
<mask id="mask1_601_2800" style="mask-type:luminance" maskUnits="userSpaceOnUse" x="651" y="131" width="212" height="183">
<path d="M862.438 295.876H822.088V131.985H651.664V313.328H862.438V295.876Z" fill="#C4C4C4"/>
</mask>
<g mask="url(#mask1_601_2800)">
<path d="M654.039 144.805C679.199 144.805 747.084 342.287 840.128 293.866" stroke="#A0F200" stroke-width="2.2461" stroke-linecap="round"/>
<path d="M654.039 148.603C679.199 148.603 741.387 342.762 834.432 294.341" stroke="#FF005E" stroke-width="2.2461" stroke-linecap="round"/>
<path d="M654.039 140.533C679.199 140.533 751.831 343.237 844.875 294.816" stroke="#A0F200" stroke-width="2.2461" stroke-linecap="round"/>
<path d="M654.039 136.26C679.199 136.26 757.528 342.762 850.572 294.341" stroke="#A0F200" stroke-width="2.2461" stroke-linecap="round"/>
</g>
<mask id="mask2_601_2800" style="mask-type:luminance" maskUnits="userSpaceOnUse" x="649" y="18" width="37" height="52">
<path d="M685.994 69.4085H649.768V18.5293H685.994V69.4085Z" fill="#C4C4C4"/>
</mask>
<g mask="url(#mask2_601_2800)">
<path d="M654.989 69.7995C654.989 54.6085 647.868 24.2266 686.32 24.2266" stroke="#A0F200" stroke-width="2.2461" stroke-linecap="round"/>
<path d="M660.17 69.7991C660.17 55.2411 654.227 26.125 686.321 26.125" stroke="#FF005E" stroke-width="2.2461" stroke-linecap="round"/>
</g>
</g>
<path d="M1 187.019C1 139.056 37.7233 103.084 87.0984 103.084C126.158 103.084 160.525 126.06 168.137 164.588H133.75C127.243 144.203 108.645 133.241 87.0984 133.241C71.5455 133.241 58.3969 138.844 49.1371 148.419C39.8787 157.993 34.5349 171.508 34.5349 187.286C34.5349 218.874 56.5059 241.332 86.8227 241.332C108.654 241.332 127.243 229.567 133.749 209.449H168.131C159.978 248.771 125.336 271.221 86.547 271.221C37.7242 270.953 1 234.981 1 187.019Z" fill="#161616" stroke="#161616" stroke-width="0.733332"/>
<path d="M352.288 166.18V267.217H318.949V172.841C318.949 160.391 316.033 150.735 309.879 144.191C303.717 137.641 294.387 134.288 281.733 134.288C267.124 134.288 255.794 138.921 248.124 147.53C240.461 156.132 236.506 168.641 236.506 184.295V267.217H203.166V43.0342H236.506V133.148V134.734L237.36 133.393C249.16 114.875 267.252 103.771 292.787 103.771C311.338 103.771 326.197 109.663 336.422 120.377C346.649 131.094 352.288 146.687 352.288 166.18Z" fill="#161616" stroke="#161616" stroke-width="0.733332"/>
<path d="M430.352 52.9627C430.352 64.759 421.302 73.4358 408.697 73.4358C396.639 73.4358 387.316 64.759 387.316 52.9627C387.316 41.4462 396.626 33.0264 408.697 33.0264C421.314 33.0264 430.352 41.4462 430.352 52.9627ZM392.503 106.03H425.438V267.217H392.503V106.03Z" fill="#161616" stroke="#161616" stroke-width="0.733332"/>
<path d="M465.379 43.0342H499.407V267.217H465.379V43.0342Z" fill="#161616" stroke="#161616" stroke-width="0.733332"/>
<path d="M574.889 193.352V267.217H541.441V43.0342H574.889V176.57V177.659L575.678 176.898L647.899 107.234H690.897L609.688 182.897L609.335 183.227L609.684 183.559L697.569 267.217H654.272L575.675 193.021L574.889 192.28V193.352Z" fill="#161616" stroke="#161616" stroke-width="0.733332"/>
<path d="M1116.97 71.0547L1150.43 64.0518V107.47V107.929H1150.9H1219.24V137.934H1150.9H1150.43V138.392V204.77C1150.43 216.564 1153.3 225.754 1158.95 231.999C1164.6 238.252 1173 241.482 1183.92 241.482C1194.41 241.482 1206.24 238.078 1219.09 233.63L1225 259.723C1215.8 264.98 1196.67 271.221 1177.81 271.221C1160.71 271.221 1145.51 266.053 1134.58 255.393C1123.66 244.734 1116.97 228.535 1116.97 206.369V138.392V137.934H1116.5H1085.89V107.662H1116.5H1116.97V107.204V71.0547Z" fill="#161616" stroke="#161616" stroke-width="0.733332"/>
<defs>
<clipPath id="clip0_601_2800">
<rect width="168.906" height="164.219" fill="white" transform="translate(902.039 105.79)"/>
</clipPath>
<clipPath id="clip1_601_2800">
<rect width="168.906" height="164.219" fill="white" transform="translate(708.875 105.79)"/>
</clipPath>
<clipPath id="clip2_601_2800">
<rect width="460" height="310" fill="white" transform="translate(637 1)"/>
</clipPath>
</defs>
</svg>
