<svg width="54" height="54" viewBox="0 0 54 54" fill="none" xmlns="http://www.w3.org/2000/svg">
<g id="Frame 205">
<g id="Group">
<path id="Vector" d="M52.5595 21.5702C48.9767 15.3798 43.2295 8 36.197 8H9.60328C4.3067 8 0 13.5847 0 20.4473V33.9658C0 40.8285 4.3067 46.4131 9.60328 46.4131H36.197C43.2222 46.4131 48.9767 39.0334 52.5595 32.843C54.4802 29.5261 54.4802 24.887 52.5595 21.5702ZM51.2815 32.0969C48.504 36.8911 42.8528 44.9357 36.197 44.9357H9.60328C5.11929 44.9357 1.47743 40.0159 1.47743 33.9658V20.4473C1.47743 14.3973 5.11929 9.47743 9.60328 9.47743H36.197C42.8528 9.47743 48.504 17.522 51.2815 22.3163C52.951 25.1973 52.951 29.2159 51.2815 32.0969Z" fill="#009482"/>
<path id="Vector_2" d="M45.4751 22.7305C43.0078 22.7305 40.9985 24.7398 40.9985 27.2071C40.9985 29.6744 43.0078 31.6837 45.4751 31.6837C47.9424 31.6837 49.9517 29.6744 49.9517 27.2071C49.9517 24.7398 47.9424 22.7305 45.4751 22.7305ZM45.4751 30.2063C43.8204 30.2063 42.476 28.8618 42.476 27.2071C42.476 25.5524 43.8204 24.2079 45.4751 24.2079C47.1299 24.2079 48.4743 25.5524 48.4743 27.2071C48.4743 28.8618 47.1299 30.2063 45.4751 30.2063Z" fill="#009482"/>
<path id="Vector_3" d="M12.2625 23.4766C11.3983 23.4766 10.6743 23.6908 10.1055 24.1119V23.8238C10.1055 23.7203 10.0242 23.6391 9.92082 23.6391H8.25133C8.14791 23.6391 8.06665 23.7203 8.06665 23.8238V31.4251C8.06665 31.5285 8.14791 31.6098 8.25133 31.6098H9.92082C10.0242 31.6098 10.1055 31.5285 10.1055 31.4251V26.5348C10.2532 26.1876 10.4822 25.9069 10.7703 25.7075C11.0732 25.5006 11.4056 25.3972 11.775 25.3972C12.3586 25.3972 12.7944 25.5376 13.0604 25.8183C13.3263 26.1064 13.4667 26.5865 13.4667 27.2588V31.4251C13.4667 31.5285 13.5479 31.6098 13.6513 31.6098H15.3208C15.4242 31.6098 15.5055 31.5285 15.5055 31.4251V27.1258C15.4981 24.7028 14.4122 23.4766 12.2625 23.4766Z" fill="#009482"/>
<path id="Vector_4" d="M20.3737 23.4609C19.0957 23.4609 18.0836 23.8525 17.3671 24.6281C16.6505 25.4038 16.2886 26.401 16.2886 27.6051C16.2886 28.8536 16.6875 29.8582 17.4631 30.6117C18.2388 31.3578 19.2804 31.7345 20.551 31.7345C21.8954 31.7345 22.9813 31.1879 23.7865 30.1094C23.8382 30.0355 23.8308 29.9321 23.7717 29.8656L22.7449 28.8535C22.708 28.8166 22.6489 28.7871 22.6046 28.8018C22.5529 28.8092 22.5012 28.8314 22.4716 28.8757C22.0062 29.5036 21.3931 29.8065 20.5879 29.8065C19.9748 29.8065 19.465 29.6587 19.0735 29.378C18.7337 29.1343 18.5269 28.8018 18.4382 28.366H23.8678C23.9638 28.366 24.0377 28.2995 24.0525 28.2035C24.1116 27.7381 24.1411 27.3761 24.1411 27.1102C24.1411 26.0169 23.7791 25.123 23.0774 24.4508C22.3608 23.8007 21.4522 23.4609 20.3737 23.4609ZM20.2998 25.3373C20.8021 25.3373 21.201 25.4629 21.4965 25.7066C21.7477 25.9135 21.9102 26.1942 21.9914 26.5635H18.4604C18.5712 26.2163 18.7633 25.9356 19.0366 25.7214C19.369 25.4629 19.7901 25.3373 20.2998 25.3373Z" fill="#009482"/>
<path id="Vector_5" d="M35.5545 23.6387H33.8554C33.7742 23.6387 33.7003 23.6904 33.6781 23.7716L32.3632 28.0783L30.738 23.7643C30.7085 23.6904 30.642 23.6461 30.5681 23.6461H29.3123C29.2385 23.6461 29.1646 23.6978 29.1424 23.7643L27.5394 28.0783L26.1285 23.7716C26.1063 23.6978 26.0324 23.6461 25.9512 23.6461H24.23C24.1709 23.6461 24.1118 23.6756 24.0822 23.7199C24.0453 23.7716 24.0379 23.8307 24.0601 23.8898L26.6013 31.4912C26.6234 31.5651 26.6973 31.6168 26.7785 31.6168H28.0787C28.1526 31.6168 28.2264 31.5725 28.2486 31.4986L29.9329 27.022L31.6023 31.4986C31.6319 31.5725 31.6984 31.6168 31.7722 31.6168H33.1019C33.1832 31.6168 33.2497 31.5651 33.2792 31.4912L35.7318 23.8898C35.7465 23.8307 35.7391 23.7716 35.7022 23.7273C35.6727 23.6608 35.6136 23.6387 35.5545 23.6387Z" fill="#009482"/>
</g>
</g>
</svg>
