<svg width="54" height="54" viewBox="0 0 54 54" fill="none" xmlns="http://www.w3.org/2000/svg">
<g id="Frame 206" clip-path="url(#clip0_391_25225)">
<g id="Group">
<path id="Vector" d="M37.8071 28.7958C37.8445 28.7459 37.8819 28.6836 37.9006 28.6213C37.9068 28.5963 37.9131 28.5714 37.9255 28.5465C38.7296 26.9196 39.1909 25.0995 39.1909 23.1735C39.1909 16.4542 33.7244 10.9814 26.9988 10.9814C22.9223 10.9814 19.3133 13.001 17.1006 16.0864C17.0756 16.1113 17.0569 16.1425 17.0382 16.1737C15.642 18.1558 14.813 20.568 14.813 23.1735C14.813 29.8928 20.2795 35.3655 27.005 35.3655C31.6924 35.3655 35.7689 32.6915 37.8071 28.7958ZM37.9255 23.5662C37.8507 23.4291 37.7759 23.2919 37.6824 23.161C36.093 20.9358 32.4154 20.6179 29.5419 20.5992L35.8998 17.0775C35.9496 17.0525 35.987 17.0151 36.0244 16.9777C37.2399 18.7417 37.9505 20.8672 37.9505 23.1673C37.9442 23.3044 37.9255 23.4353 37.9255 23.5662ZM26.9988 12.2281C30.2463 12.2281 33.1572 13.6555 35.1642 15.9119H18.8334C20.8404 13.6617 23.7513 12.2281 26.9988 12.2281ZM26.9988 34.1189C20.9651 34.1189 16.0534 29.2072 16.0534 23.1735C16.0534 20.9545 16.7203 18.8851 17.861 17.1585H33.1759L26.9115 20.6304C26.6124 20.6802 26.3755 20.9857 26.3755 21.2973C26.3755 21.5155 26.4939 21.7212 26.6809 21.8334C26.8554 21.9331 27.0611 21.9456 27.2419 21.8708C27.4663 21.8708 27.7032 21.8645 27.9587 21.8645C30.6452 21.8209 35.1331 21.7586 36.6664 23.8903C37.3583 24.8564 37.3895 26.2714 36.7662 28.0852C34.9585 31.6568 31.2685 34.1189 26.9988 34.1189Z" fill="#009482"/>
<path id="Vector_2" d="M53.814 41.293L43.8222 31.3012C43.8098 31.2327 43.8035 31.1703 43.7786 31.1018L42.7439 27.8481C42.6504 27.5426 42.7377 27.2123 42.9745 27.0003L45.499 24.7003C45.9291 24.3139 46.1721 23.7529 46.1721 23.1794C46.1721 22.606 45.9291 22.045 45.499 21.6523L42.9745 19.3523C42.7377 19.1403 42.6504 18.8037 42.7439 18.5046L43.7786 15.2508C43.9531 14.7023 43.8908 14.0977 43.5979 13.5928C43.3111 13.0942 42.8187 12.7326 42.2515 12.608L38.9105 11.8787C38.5989 11.8101 38.3558 11.567 38.2872 11.2554L37.5579 7.92065C37.4333 7.35344 37.078 6.86725 36.5731 6.57429C36.0744 6.28757 35.4698 6.219 34.9151 6.39353L31.6614 7.42824C31.3622 7.52173 31.0256 7.43447 30.8137 7.19761L28.5136 4.67318C28.1272 4.24309 27.5662 4 26.9865 4C26.4068 4 25.8521 4.24309 25.4594 4.67318L23.1593 7.19761C22.9474 7.43447 22.6108 7.52173 22.3116 7.42824L19.0579 6.39353C18.5094 6.219 17.9048 6.28133 17.3999 6.57429C16.9013 6.86102 16.5397 7.35344 16.4151 7.92065L15.6858 11.2554C15.6172 11.567 15.3741 11.8101 15.0625 11.8787L11.7277 12.608C11.1605 12.7326 10.6743 13.0879 10.3814 13.5928C10.0946 14.0915 10.0261 14.6961 10.2006 15.2508L11.2353 18.5046C11.3288 18.81 11.2415 19.1403 11.0047 19.3523L8.49896 21.6461C8.06887 22.0387 7.82578 22.5935 7.82578 23.1732C7.82578 23.7529 8.06887 24.3076 8.49896 24.6941L11.0234 26.9941C11.2602 27.206 11.3475 27.5426 11.254 27.8418L10.2193 31.0955C10.2006 31.1579 10.1944 31.2264 10.1757 31.295L0.183933 41.293C0.00940458 41.4675 -0.0466938 41.7293 0.0405703 41.9599C0.127834 42.1905 0.345995 42.3464 0.595321 42.3588L7.43309 42.6643L7.73852 49.502C7.75098 49.7514 7.90681 49.9633 8.13744 50.0568C8.21224 50.0879 8.28703 50.1004 8.36183 50.1004C8.52389 50.1004 8.68596 50.0381 8.80439 49.9196L18.6777 40.0463C18.8086 40.0339 18.9457 40.0027 19.0766 39.9653L22.3303 38.9306C22.6358 38.8371 22.9661 38.9244 23.178 39.1612L25.4781 41.6857C25.8645 42.1157 26.4255 42.3588 27.0052 42.3588C27.5849 42.3588 28.1396 42.1157 28.5323 41.6857L30.8324 39.1612C31.0443 38.9244 31.3809 38.8371 31.6801 38.9306L34.9338 39.9653C35.0647 40.0089 35.1956 40.0339 35.3327 40.0463L45.1998 49.9134C45.3182 50.0318 45.4803 50.0942 45.6423 50.0942C45.7171 50.0942 45.7919 50.0817 45.8667 50.0505C46.0973 49.9633 46.2532 49.7451 46.2656 49.4958L46.5711 42.658L53.4088 42.3526C53.6582 42.3401 53.8701 42.1843 53.9636 41.9537C54.0446 41.7293 53.9885 41.4675 53.814 41.293ZM8.91658 48.031L8.64856 42.0409C8.63609 41.7168 8.3743 41.4613 8.05641 41.4488L2.06635 41.1745L10.4312 32.8096C10.4562 32.8533 10.4936 32.8907 10.5185 32.9281C10.5684 32.9966 10.612 33.0652 10.6681 33.1213C10.7055 33.1649 10.7554 33.1961 10.799 33.2397C10.8551 33.2958 10.9112 33.3519 10.9798 33.3956C11.0483 33.4454 11.1231 33.4828 11.1979 33.5265C11.2478 33.5514 11.2852 33.5826 11.335 33.6075C11.4223 33.6449 11.5096 33.6698 11.6031 33.6947C11.6467 33.7072 11.6903 33.7321 11.7402 33.7384L15.0812 34.4677C15.1373 34.4801 15.1809 34.5051 15.2308 34.5238C15.4676 34.6297 15.6484 34.8354 15.7045 35.091L16.4338 38.4257C16.4649 38.5628 16.5086 38.6937 16.5647 38.8184C16.5834 38.862 16.6083 38.8932 16.627 38.9368C16.6706 39.0179 16.7143 39.0989 16.7641 39.1675C16.8015 39.2173 16.8389 39.261 16.8763 39.3046C16.92 39.3607 16.9698 39.4168 17.0197 39.4666C17.0695 39.5165 17.1256 39.5601 17.188 39.6038C17.2191 39.6287 17.2441 39.6536 17.2752 39.6723L8.91658 48.031ZM32.0541 37.7338C31.2874 37.4907 30.4459 37.7151 29.9036 38.3073L27.6036 40.8317C27.2919 41.1745 26.7122 41.1745 26.4006 40.8317L24.1005 38.3073C23.7016 37.871 23.1469 37.6341 22.5734 37.6341C22.3677 37.6341 22.1558 37.6653 21.9501 37.7338L18.6964 38.7685C18.6154 38.7935 18.5343 38.8059 18.4471 38.8059C18.4408 38.8059 18.4346 38.7997 18.4284 38.7997C18.2601 38.7935 18.1105 38.7374 17.9858 38.6501C17.936 38.6127 17.8923 38.5753 17.8549 38.5317C17.83 38.5005 17.7988 38.4756 17.7739 38.4444C17.7178 38.3634 17.6742 38.2699 17.6492 38.1702C17.6492 38.1702 17.6492 38.1702 17.6492 38.1639L16.92 34.8292C16.7517 34.0438 16.1346 33.4267 15.3492 33.2522L12.0145 32.5229C12.0082 32.5229 12.0082 32.5167 12.002 32.5167C11.9023 32.4917 11.8088 32.4481 11.7277 32.392C11.6966 32.3671 11.6716 32.3422 11.6467 32.311C11.5968 32.2674 11.5532 32.2175 11.5158 32.1614C11.4722 32.0928 11.4348 32.0243 11.4098 31.9495C11.4098 31.9432 11.4098 31.9432 11.4098 31.937C11.3849 31.8435 11.3724 31.75 11.3787 31.6503C11.3787 31.6503 11.3787 31.6503 11.3787 31.644C11.3849 31.5817 11.3974 31.5256 11.4161 31.4695L12.4508 28.2158C12.6939 27.4491 12.4695 26.6077 11.8773 26.0654L9.3529 23.7653C9.18461 23.6095 9.08488 23.3976 9.08488 23.1607C9.08488 22.9301 9.17838 22.7119 9.3529 22.5561L11.8773 20.2561C12.4695 19.7138 12.6939 18.8723 12.4508 18.1056L11.4161 14.8519C11.3475 14.6338 11.3724 14.3969 11.4846 14.1974C11.6031 13.998 11.7901 13.8609 12.0145 13.811L15.3492 13.0817C16.1346 12.9134 16.7517 12.2901 16.92 11.511L17.6492 8.18245C17.6991 7.95805 17.8362 7.76483 18.0357 7.65263C18.2351 7.5342 18.472 7.50927 18.6902 7.58406L21.9439 8.61877C22.7106 8.86186 23.552 8.63747 24.0943 8.04532L26.3943 5.52089C26.706 5.17807 27.2857 5.17807 27.5973 5.52089L29.8974 8.04532C30.4397 8.63747 31.2811 8.86186 32.0478 8.61877L35.3015 7.58406C35.5197 7.5155 35.7565 7.54043 35.956 7.65263C36.1555 7.77106 36.2926 7.95805 36.3425 8.18245L37.0717 11.5172C37.24 12.3026 37.8633 12.9196 38.6425 13.0879L41.9772 13.8172C42.2016 13.8671 42.3949 14.0042 42.507 14.2037C42.6255 14.4031 42.6504 14.64 42.5756 14.8582L41.5409 18.1119C41.2978 18.8785 41.5222 19.72 42.1144 20.2623L44.6388 22.5623C44.8133 22.7182 44.9068 22.9301 44.9068 23.167C44.9068 23.3976 44.8133 23.6157 44.6388 23.7716L42.1144 26.0716C41.5222 26.6139 41.2978 27.4554 41.5409 28.222L42.5756 31.4757C42.5943 31.5318 42.6068 31.5942 42.613 31.6503C42.613 31.6503 42.613 31.6503 42.613 31.6565C42.6193 31.7562 42.613 31.8497 42.5818 31.9432C42.5818 31.9495 42.5818 31.9495 42.5818 31.9557C42.5569 32.0305 42.5195 32.0991 42.4759 32.1676C42.4385 32.2237 42.3949 32.2736 42.345 32.3172C42.3138 32.3422 42.2951 32.3733 42.264 32.3983C42.1829 32.4544 42.0894 32.498 41.9897 32.5229C41.9835 32.5229 41.9835 32.5291 41.9772 32.5291L38.6425 33.2584C38.094 33.3769 37.6327 33.7197 37.3398 34.1809C37.265 34.2994 37.2026 34.4178 37.1528 34.5487C37.1154 34.6422 37.0904 34.7357 37.0655 34.8354L36.3487 38.1639C36.3238 38.2637 36.2801 38.3572 36.224 38.4382C36.1991 38.4693 36.1742 38.5005 36.143 38.5254C36.1056 38.5691 36.062 38.6065 36.0121 38.6439C35.9685 38.675 35.9311 38.7 35.8812 38.7187C35.8376 38.7374 35.8002 38.7498 35.7565 38.7623C35.7004 38.7748 35.6443 38.7935 35.582 38.7935C35.4885 38.7997 35.395 38.7935 35.3015 38.7623L32.0541 37.7338ZM45.9415 41.4426C45.6174 41.455 45.3618 41.7168 45.3494 42.0347L45.0813 48.0248L36.7289 39.6786C36.7601 39.6599 36.785 39.6287 36.8099 39.61C36.866 39.5664 36.9221 39.5227 36.9782 39.4729C37.0281 39.423 37.078 39.3669 37.1216 39.3171C37.159 39.2734 37.2026 39.2298 37.2338 39.1799C37.2837 39.1051 37.3273 39.0303 37.3709 38.9493C37.3896 38.9119 37.4146 38.8745 37.4333 38.8309C37.4894 38.7062 37.533 38.5753 37.5642 38.4382L38.2934 35.1034C38.3433 34.8728 38.4929 34.6734 38.6986 34.5612C38.7672 34.5238 38.842 34.4988 38.9168 34.4801L42.2515 33.7508C42.2951 33.7446 42.3325 33.7197 42.3762 33.7072C42.4697 33.6823 42.5694 33.6511 42.6566 33.6137C42.7003 33.595 42.7377 33.5639 42.7813 33.5389C42.8623 33.4953 42.9434 33.4517 43.0182 33.4018C43.0805 33.3582 43.1366 33.3021 43.1927 33.246C43.2363 33.2086 43.2862 33.1712 43.3236 33.1275C43.3797 33.0652 43.4233 32.9966 43.4732 32.9281C43.5044 32.8907 43.5355 32.8533 43.5605 32.8096L51.9316 41.1745L45.9415 41.4426Z" fill="#009482"/>
</g>
</g>
<defs>
<clipPath id="clip0_391_25225">
<rect width="54" height="54" fill="white"/>
</clipPath>
</defs>
</svg>
