<svg width="196" height="47" viewBox="0 0 196 47" fill="none" xmlns="http://www.w3.org/2000/svg">
<g clip-path="url(#clip0_601_3382)">
<path d="M59.7952 33.3564C58.9192 34.0592 57.818 34.4171 56.6979 34.3631C53.0058 34.3631 51.2941 32.3462 51.2941 29.3189V23.4279H49.6641V20.4576H51.2941V15.833H55.2594V20.4576H58.654V23.4279H55.2594V29.3474C55.2594 30.4644 55.8299 31.0086 56.6769 31.0086C56.9042 31.0238 57.1319 30.9876 57.3435 30.9027C57.5552 30.8175 57.745 30.6861 57.8993 30.5178L59.7952 33.3564Z" fill="#FED90B"/>
<path d="M21.0274 29.9232C20.3884 30.4359 19.5851 30.6969 18.768 30.6577C16.0744 30.6577 14.8258 29.1862 14.8258 26.9777V22.6802H13.6367V20.5133H14.8258V17.1396H17.7185V20.5133H20.195V22.6802H17.7185V26.9985C17.7185 27.8134 18.1347 28.2104 18.7525 28.2104C18.9184 28.2215 19.0846 28.1951 19.2389 28.1331C19.3933 28.0711 19.5318 27.9751 19.6443 27.8523L21.0274 29.9232Z" fill="#FED90B"/>
<path d="M73.6503 28.4188H64.4371C64.6568 30.2188 65.5531 31.3108 67.4277 31.3108C68.7565 31.3108 69.6248 30.8449 70.5779 29.429L73.3739 30.82C72.3709 33.0007 70.2237 34.3774 67.5093 34.3774C62.7539 34.3774 60.5 31.35 60.5 27.2875C60.5 23.225 63.0267 20.1729 67.3709 20.1729C71.3113 20.1729 73.7281 22.9547 73.7281 27.2626C73.7269 27.6493 73.7009 28.0355 73.6503 28.4188ZM64.522 25.7472H69.9828C69.7099 24.1642 68.8984 23.257 67.3216 23.257C65.7447 23.257 64.8481 24.246 64.522 25.7472Z" fill="#FED90B"/>
<path d="M87.1227 21.3585L85.4681 24.2755C84.8505 23.8307 84.1008 23.6099 83.3419 23.6494C81.7119 23.6494 80.135 25.0119 80.135 27.2744V34.0938H76.1875V20.4585H79.7309L79.9508 22.5573C80.872 21.113 82.2576 20.1846 83.8486 20.1846C85.4397 20.1846 86.308 20.5652 87.1227 21.3585Z" fill="#FED90B"/>
<path d="M99.1548 21.3585L97.5002 24.2755C96.8829 23.8301 96.1329 23.6093 95.3741 23.6494C93.744 23.6494 92.1671 25.0119 92.1671 27.2744V34.0938H88.209V20.4585H91.7524L91.9723 22.5573C92.8935 21.113 94.2791 20.1846 95.8701 20.1846C97.4612 20.1846 98.3398 20.5652 99.1548 21.3585Z" fill="#FED90B"/>
<path d="M112.114 25.4205V34.0933H108.786L108.598 32.7557C107.327 33.7829 105.748 34.3494 104.116 34.3637C101.533 34.3637 99.7148 32.7557 99.7148 30.1909C99.7148 27.6261 101.968 25.5842 106.341 26.2778L108.272 26.5802V25.4063C108.272 23.8233 106.94 23.1972 105.583 23.1972C104.939 23.1962 104.302 23.3432 103.723 23.6268C103.144 23.9104 102.637 24.3232 102.241 24.8336L99.8777 22.5711C101.369 20.9347 103.11 20.1983 105.962 20.1983C109.495 20.1841 112.114 21.8063 112.114 25.4205ZM105.487 31.4467C106.532 31.4019 107.521 30.9638 108.258 30.2194V28.8285L107.17 28.6115C104.534 28.0921 103.825 29.0455 103.825 29.9881C103.825 30.9309 104.509 31.4467 105.487 31.4467Z" fill="#FED90B"/>
<path d="M114.506 27.274C114.506 23.1546 117.114 20.1843 121.132 20.1843C122.295 20.1601 123.448 20.4035 124.502 20.8957V24.574C124.137 24.2238 123.707 23.9493 123.237 23.7661C122.766 23.583 122.264 23.4949 121.759 23.5068C119.693 23.5068 118.418 25.0898 118.418 27.2705C118.418 29.4511 119.693 31.0555 121.759 31.0555C122.264 31.0701 122.767 30.9834 123.238 30.8C123.709 30.6169 124.139 30.3408 124.502 29.9883V33.6167C123.524 34.2144 122.192 34.3779 121.132 34.3779C117.114 34.3637 114.506 31.4114 114.506 27.274Z" fill="#B1CB0E"/>
<path d="M21.9141 25.6482C21.9141 22.6026 23.8423 20.4065 26.8132 20.4065C27.6728 20.3886 28.5251 20.5686 29.3047 20.9325V23.652C29.035 23.3931 28.7171 23.1901 28.3691 23.0547C28.0211 22.9193 27.65 22.8542 27.2769 22.863C25.7495 22.863 24.8064 24.0334 24.8064 25.6456C24.8064 27.2578 25.7495 28.444 27.2769 28.444C27.6502 28.4549 28.022 28.3907 28.3702 28.2552C28.7185 28.1196 29.0362 27.9156 29.3047 27.655V30.3376C28.5816 30.7796 27.5966 30.9004 26.8132 30.9004C23.8423 30.89 21.9141 28.707 21.9141 25.6482Z" fill="#B1CB0E"/>
<path d="M138.031 21.3585L136.373 24.2755C135.756 23.8301 135.006 23.6093 134.247 23.6494C132.617 23.6494 131.04 25.0119 131.04 27.2744V34.0938H127.082V20.4585H130.626L130.845 22.5573C131.767 21.113 133.152 20.1846 134.743 20.1846C136.334 20.1846 137.217 20.5652 138.031 21.3585Z" fill="#B1CB0E"/>
<path d="M152.4 34.0934C152.4 38.2375 149.519 40.9625 145.036 40.9625C143.553 40.9943 142.08 40.7067 140.717 40.1194V36.3272C141.988 37.2499 143.525 37.7286 145.093 37.6897C146.967 37.6897 148.434 36.5195 148.434 34.0934V32.7024C147.927 33.2244 147.32 33.6399 146.651 33.9251C145.982 34.2103 145.264 34.3593 144.537 34.3637C143.82 34.3605 143.11 34.2142 142.451 33.9331C141.79 33.6524 141.193 33.2422 140.692 32.727C140.191 32.2118 139.798 31.602 139.535 30.9324C139.271 30.2633 139.143 29.548 139.157 28.8284V20.458H143.123V28.3375C143.12 28.6737 143.185 29.0069 143.313 29.3176C143.441 29.6283 143.629 29.9102 143.867 30.1466C144.106 30.383 144.388 30.5692 144.699 30.6941C145.01 30.8188 145.343 30.8802 145.678 30.874C147.198 30.874 148.449 29.7569 148.449 28.3375V20.458H152.371L152.4 34.0934Z" fill="#B1CB0E"/>
<path d="M169.595 27.2735C169.595 31.2541 166.99 34.3634 163.294 34.3634C162.608 34.3776 161.925 34.2548 161.287 34.0019C160.648 33.7491 160.066 33.3713 159.574 32.8905V40.9372L155.676 40.9088V20.4577H159.574V21.6565C160.066 21.1757 160.648 20.798 161.287 20.5451C161.925 20.2923 162.608 20.1695 163.294 20.1837C166.99 20.1837 169.595 23.2929 169.595 27.2735ZM165.697 27.2735C165.697 25.2565 164.418 23.6486 162.508 23.6486C161.851 23.6635 161.215 23.8841 160.689 24.2795C160.163 24.6749 159.773 25.2255 159.574 25.8541V28.7C159.774 29.326 160.165 29.8732 160.691 30.2644C161.217 30.6555 161.853 30.8713 162.508 30.8808C164.421 30.8736 165.686 29.2763 165.686 27.2735H165.697Z" fill="#B1CB0E"/>
<path d="M181.115 33.3564C180.239 34.0592 179.138 34.4171 178.018 34.3631C174.322 34.3631 172.611 32.3462 172.611 29.3189V23.4279H170.98V20.4576H172.611V15.833H176.579V20.4576H179.974V23.4279H176.579V29.3474C176.579 30.4644 177.15 31.0086 177.997 31.0086C178.224 31.0241 178.452 30.9879 178.664 30.903C178.875 30.8181 179.065 30.6863 179.219 30.5178L181.115 33.3564Z" fill="#B1CB0E"/>
<path d="M181.818 27.2725C181.818 23.2918 184.781 20.1827 188.905 20.1827C189.84 20.1599 190.77 20.3275 191.638 20.6754C192.507 21.0234 193.296 21.5443 193.959 22.2069C194.621 22.8696 195.143 23.66 195.492 24.5307C195.842 25.4013 196.012 26.334 195.992 27.2725C195.992 29.1594 195.246 30.969 193.917 32.3033C192.588 33.6376 190.785 34.3872 188.905 34.3872C187.026 34.3872 185.223 33.6376 183.894 32.3033C182.565 30.969 181.818 29.1594 181.818 27.2725ZM192.095 27.2725C192.095 25.2555 190.791 23.6476 188.905 23.6476C186.978 23.6476 185.716 25.2555 185.716 27.2725C185.716 29.2895 186.967 30.8725 188.905 30.8725C190.784 30.8725 192.088 29.2753 192.088 27.2725H192.095Z" fill="#B1CB0E"/>
<path d="M18.8232 0.817383V8.5617L6.63704 15.5697V32.0615L18.8232 39.1229V46.8174L0 35.9462V11.742L18.8232 0.817383Z" fill="#FED90B"/>
<path d="M23.0332 46.8174V39.0731L35.223 32.065V15.5732L23.0332 8.51191V0.817383L41.8566 11.6922V35.8928L23.0332 46.8174Z" fill="#B1CB0E"/>
</g>
<defs>
<clipPath id="clip0_601_3382">
<rect width="196" height="46" fill="white" transform="translate(0 0.817383)"/>
</clipPath>
</defs>
</svg>
