<svg width="25" height="25" viewBox="0 0 25 25" fill="none" xmlns="http://www.w3.org/2000/svg">
<g clip-path="url(#clip0_440_12414)">
<path d="M15.8008 2.50049V12.5005C15.8008 13.6005 14.9008 14.5005 13.8008 14.5005H2.80078V6.50049C2.80078 4.29049 4.59078 2.50049 6.80078 2.50049H15.8008Z" stroke="#161616" stroke-width="1.5" stroke-linecap="round" stroke-linejoin="round"/>
<path d="M22.8008 14.5005V17.5005C22.8008 19.1605 21.4608 20.5005 19.8008 20.5005H18.8008C18.8008 19.4005 17.9008 18.5005 16.8008 18.5005C15.7008 18.5005 14.8008 19.4005 14.8008 20.5005H10.8008C10.8008 19.4005 9.90078 18.5005 8.80078 18.5005C7.70078 18.5005 6.80078 19.4005 6.80078 20.5005H5.80078C4.14078 20.5005 2.80078 19.1605 2.80078 17.5005V14.5005H13.8008C14.9008 14.5005 15.8008 13.6005 15.8008 12.5005V5.50049H17.6408C18.3608 5.50049 19.0208 5.8905 19.3808 6.5105L21.0908 9.50049H19.8008C19.2508 9.50049 18.8008 9.95049 18.8008 10.5005V13.5005C18.8008 14.0505 19.2508 14.5005 19.8008 14.5005H22.8008Z" stroke="#161616" stroke-width="1.5" stroke-linecap="round" stroke-linejoin="round"/>
<path d="M8.80078 22.5005C9.90535 22.5005 10.8008 21.6051 10.8008 20.5005C10.8008 19.3959 9.90535 18.5005 8.80078 18.5005C7.69621 18.5005 6.80078 19.3959 6.80078 20.5005C6.80078 21.6051 7.69621 22.5005 8.80078 22.5005Z" stroke="#161616" stroke-width="1.5" stroke-linecap="round" stroke-linejoin="round"/>
<path d="M16.8008 22.5005C17.9054 22.5005 18.8008 21.6051 18.8008 20.5005C18.8008 19.3959 17.9054 18.5005 16.8008 18.5005C15.6962 18.5005 14.8008 19.3959 14.8008 20.5005C14.8008 21.6051 15.6962 22.5005 16.8008 22.5005Z" stroke="#161616" stroke-width="1.5" stroke-linecap="round" stroke-linejoin="round"/>
<path d="M22.8008 12.5005V14.5005H19.8008C19.2508 14.5005 18.8008 14.0505 18.8008 13.5005V10.5005C18.8008 9.95049 19.2508 9.50049 19.8008 9.50049H21.0908L22.8008 12.5005Z" stroke="#161616" stroke-width="1.5" stroke-linecap="round" stroke-linejoin="round"/>
</g>
<defs>
<clipPath id="clip0_440_12414">
<rect width="24" height="24" fill="white" transform="translate(0.800781 0.500488)"/>
</clipPath>
</defs>
</svg>
