<svg width="32" height="32" viewBox="0 0 32 32" fill="none" xmlns="http://www.w3.org/2000/svg">
<g clip-path="url(#clip0_223_2165)">
<mask id="mask0_223_2165" style="mask-type:luminance" maskUnits="userSpaceOnUse" x="0" y="0" width="32" height="32">
<path d="M31.6831 0H-6.10352e-05V31.6832H31.6831V0Z" fill="white"/>
</mask>
<g mask="url(#mask0_223_2165)">
<path d="M-6.10352e-05 15.2079C-6.10352e-05 8.03884 -6.10352e-05 4.4543 2.22709 2.22715C4.45424 0 8.03878 0 15.2079 0H16.4752C23.6443 0 27.2288 0 29.456 2.22715C31.6831 4.4543 31.6831 8.03884 31.6831 15.2079V16.4752C31.6831 23.6443 31.6831 27.2289 29.456 29.456C27.2288 31.6832 23.6443 31.6832 16.4752 31.6832H15.2079C8.03878 31.6832 4.45424 31.6832 2.22709 29.456C-6.10352e-05 27.2289 -6.10352e-05 23.6443 -6.10352e-05 16.4752V15.2079Z" fill="#0077FF"/>
<path d="M16.8582 22.8248C9.63703 22.8248 5.51825 17.8743 5.34662 9.63672H8.96379C9.0826 15.6829 11.7492 18.244 13.8614 18.772V9.63672H17.2675V14.8512C19.3533 14.6268 21.5444 12.2506 22.2837 9.63672H25.6897C25.1221 12.8579 22.7458 15.2341 21.0561 16.2109C22.7458 17.003 25.4523 19.0756 26.482 22.8248H22.7327C21.9274 20.3166 19.9209 18.376 17.2675 18.1119V22.8248H16.8582Z" fill="white"/>
</g>
</g>
<defs>
<clipPath id="clip0_223_2165">
<rect width="32" height="32" fill="white"/>
</clipPath>
</defs>
</svg>
