<?xml version="1.0" encoding="utf-8"?><svg width="226" height="120" fill="none" xmlns="http://www.w3.org/2000/svg" viewBox="0 0 226 120"><mask id="ara" style="mask-type:luminance" maskUnits="userSpaceOnUse" x="33" y="36" width="161" height="48"><path d="M193.199 36h-160v47.94h160V36z" fill="#fff"/></mask><g mask="url(#ara)"><path d="M193.199 78.408a1.996 1.996 0 01-1.99 2.018h-35.642a1.996 1.996 0 01-1.991-2.018V42.014c0-1.121.885-2.018 1.991-2.018h35.623c1.106 0 1.99.897 1.99 2.018l.019 36.394z" fill="#959BAD"/><path d="M158.83 51.77h8.404c1.824 0 3.207.43 4.11 1.307.903.878 1.363 2.111 1.363 3.718 0 1.644-.497 2.933-1.493 3.867-.995.935-2.506 1.402-4.552 1.402h-2.764v6.034h-5.068V51.77zm5.068 6.987h1.254c.976 0 1.676-.168 2.063-.505.388-.317.59-.784.59-1.289a1.73 1.73 0 00-.516-1.307c-.35-.355-.995-.542-1.935-.542h-1.456v3.643zm9.915-6.987h5.492l2.267 6.725 2.229-6.725h5.142l-5.363 12.61c-.332.785-.719 1.551-1.142 2.28a3.469 3.469 0 01-1.456 1.233c-.645.317-1.53.486-2.654.486-.59 0-1.622-.094-3.078-.262v-3.363c.867.093 1.475.13 1.88.13 1.161 0 1.88-.429 2.138-1.307l-5.455-11.807z" fill="#fff"/><path d="M137.028 76.653V64.117H123.98v3.625c0 3.306-.442 6.277-1.345 8.893h-1.604v7.305h3.87v-3.55h9.933v3.55h3.871v-7.305h-1.677v.018zm-4.811 0h-4.957c.738-3.288 1.088-6.072 1.088-8.314v-.205h3.869v8.52zM115.614 60.121c-.129.897-.59 1.7-1.29 2.26a4.212 4.212 0 01-5.087 0 3.449 3.449 0 01-1.29-2.241h1.825c.295.934.958 1.382 1.954 1.382 1.068 0 1.75-.467 2.045-1.382l1.843-.019zM119.134 64.117v16.291h-4.515V71.46l-5.787 8.949h-4.57V64.117h4.552v9.005l5.823-9.005h4.497zM88.522 64.117h12.881v3.475H93.35v2.597h7.464v3.326H93.35v3.194h8.293v3.7H88.522V64.117zM84.726 65.425c-.866-.86-2.174-1.308-3.925-1.308h-7.998v16.291h4.828v-6.034h2.635c1.935 0 3.391-.467 4.331-1.382.94-.916 1.42-2.205 1.42-3.868 0-1.606-.425-2.84-1.29-3.7zm-3.944 5.138c-.368.336-1.031.504-1.971.504h-1.18v-3.643h1.382c.903 0 1.53.187 1.843.542.332.355.516.822.498 1.308 0 .485-.203.971-.572 1.289zM56.014 64.117h14.65v4.017h-4.92v12.275h-4.81V68.133h-4.92v-4.017zM122.432 39.977h4.81v5.68h5.234v-5.68h4.828v16.235h-4.828v-6.576h-5.234v6.576h-4.81V39.977zM115.687 36a3.368 3.368 0 01-1.29 2.242 3.82 3.82 0 01-2.543.86 3.92 3.92 0 01-2.543-.86A3.346 3.346 0 01108.039 36h1.825c.295.916.939 1.383 1.953 1.383 1.069 0 1.751-.468 2.046-1.383h1.824zM119.207 39.977v16.235h-4.516V47.3l-5.768 8.912h-4.552V39.977h4.534v8.986l5.824-8.986h4.478zM97.018 39.977h-5.252l-5.842 16.235h4.902l.774-2.672h5.436l.774 2.672h5.032l-5.824-16.235zm-4.404 10.05l1.695-5.828 1.695 5.829h-3.39zM84.303 56.212h-4.791V43.975h-3.76v4.988c0 2.055-.11 3.568-.313 4.521a3.12 3.12 0 01-1.456 2.13c-.774.448-2.009.673-3.704.673a9.697 9.697 0 01-1.806-.169v-3.306h.718c.645 0 1.106-.15 1.364-.449.258-.299.405-.84.405-1.644V39.977h13.343v16.235zM51.996 39.977h4.792v5.68h5.252v-5.68h4.81v16.235h-4.81v-6.576h-5.252v6.576h-4.792V39.977zM47.297 41.886c-1.4-1.439-3.39-2.167-5.97-2.167-2.525 0-4.497.728-5.898 2.223-1.437 1.457-2.23 4.035-2.23 6.67 0 1.905.46 2.97 1.18 4.222A6.664 6.664 0 0037.16 55.6c1.143.58 2.599.878 4.35.878 1.75 0 3.17-.336 4.312-1.009a6.652 6.652 0 002.654-2.84c.608-1.214.921-2.764.921-4.67-.018-2.578-.7-4.615-2.1-6.072zm-3.556 9.79c-.572.691-1.364 1.046-2.396 1.046-1.032 0-1.806-.355-2.377-1.065-.572-.71-.867-1.887-.867-3.531 0-1.644.295-2.84.885-3.55a2.85 2.85 0 012.34-1.065c1.014 0 1.806.355 2.396 1.065.59.71.885 1.813.885 3.344-.019 1.794-.295 3.064-.866 3.756z" fill="#959BAD"/><path fill-rule="evenodd" clip-rule="evenodd" d="M145.431 57.504c1.437 0 2.617 1.196 2.617 2.653s-1.18 2.653-2.617 2.653-2.617-1.196-2.617-2.653 1.161-2.653 2.617-2.653zM145.431 54.662c.516 0 1.032.112 1.493.336v-14.18c0-.766-.608-.822-1.364-.822h-.277c-.755 0-1.363.056-1.363.822v14.18a3.563 3.563 0 011.511-.336zM145.432 65.743a3.426 3.426 0 01-1.493-.337V79.55c0 .766.608.86 1.364.86h.277c.755 0 1.363-.113 1.363-.86V65.406a3.563 3.563 0 01-1.511.337z" fill="#959BAD"/></g></svg>