<?xml version="1.0" encoding="utf-8"?><svg width="227" height="120" fill="none" xmlns="http://www.w3.org/2000/svg" viewBox="0 0 227 120"><path d="M108.772 70.043h3.171l4.432-16.468v16.468h3.568V48.277h-4.901l-4.433 15.964-4.432-15.964h-5.009v21.766h3.063V53.575l4.541 16.468zm26.09-10.775c0-3.855-1.91-5.297-5.874-5.297-2.487 0-4.433.757-5.586 1.442v3.063c.973-.757 3.171-1.55 5.117-1.55 1.838 0 2.595.685 2.595 2.306v.865h-.577c-5.693 0-8.288 1.91-8.288 5.117s1.91 5.01 4.829 5.01c2.198 0 3.171-.685 3.856-1.442h.18c0 .396.18.973.288 1.261h3.676a46.057 46.057 0 01-.18-3.856c-.036 0-.036-6.919-.036-6.919zm-3.748 7.027c-.469.685-1.333 1.262-2.703 1.262-1.549 0-2.306-.973-2.306-2.307 0-1.837 1.261-2.486 4.54-2.486h.577v3.567h-.108v-.036zm10.198-12.036h-3.459v20.325h3.747V68.24c.973 1.442 2.307 2.126 3.964 2.126 3.676 0 6.163-2.882 6.163-8.18 0-5.297-2.415-8.18-5.982-8.18-1.73 0-3.172.757-4.253 2.306.036-.036-.18-2.054-.18-2.054zm3.207 13.19c-1.91 0-2.991-1.622-2.991-5.19 0-3.675 1.045-5.297 3.171-5.297 2.019 0 3.064 1.622 3.064 5.19 0 3.675-1.045 5.296-3.244 5.296zm18.847 2.594h4.252l-5.982-8.468 5.298-7.316h-3.748l-5.297 7.316v-7.316h-3.748v15.784h3.748v-7.712l5.477 7.712zm16.757-1.045v-3.063c-1.153.757-3.063 1.441-4.901 1.441-2.703 0-3.748-1.26-3.964-3.964h8.937v-2.017c0-5.478-2.414-7.496-6.162-7.496-4.541 0-6.739 3.46-6.739 8.288 0 5.478 2.703 8.18 7.424 8.18 2.63-.036 4.36-.612 5.405-1.369zm-6.054-12.036c1.838 0 2.414 1.55 2.414 3.46v.288h-5.225c.108-2.487 1.081-3.748 2.811-3.748zm19.531.288v-2.99h-12.504v2.99h4.432v12.793h3.748V57.25h4.324zM78.933 73.9c8 0 14.45-6.45 14.45-14.45 0-8-6.45-14.45-14.45-14.45-8 0-14.45 6.45-14.45 14.45-.072 8 6.486 14.45 14.45 14.45zM48.05 73.9c7.98 0 14.45-6.469 14.45-14.45C62.5 51.47 56.03 45 48.05 45c-7.98 0-14.45 6.47-14.45 14.45 0 7.981 6.47 14.45 14.45 14.45z" fill="#959BAD"/><path d="M50.14 53.108h-1.442c-2.487 0-3.748 1.261-3.748 3.171 0 2.126.865 3.171 2.703 4.433l1.441 1.045-4.144 6.45h-3.388l3.965-5.874c-2.307-1.621-3.568-3.171-3.568-5.874 0-3.387 2.306-5.693 6.739-5.693h4.432v17.333h-2.883V53.072h-.108v.036z" fill="#fff"/><mask id="baa" style="mask-type:luminance" maskUnits="userSpaceOnUse" x="64" y="45" width="30" height="29"><path d="M78.933 73.9c8 0 14.45-6.45 14.45-14.45 0-8-6.45-14.45-14.45-14.45-8 0-14.45 6.45-14.45 14.45-.072 8 6.486 14.45 14.45 14.45z" fill="#fff"/></mask><g mask="url(#baa)"><path d="M71.834 52.927l-12.72 16.649 3.387 3.856 9.441-12.505-.973 6.847 5.297 1.838 6.45-10.307c-.287 1.91-.756 6.343 3.46 7.712 6.631 2.018 12.433-9.91 15.099-15.964l-3.855-2.018c-2.991 6.27-7.604 13.19-9.442 12.72-1.838-.468-.18-6.342.865-10.125v-.108l-5.874-2.018-7.027 11.46.973-6.271-5.081-1.766z" fill="#fff"/></g></svg>