<?xml version="1.0" encoding="utf-8"?><svg width="227" height="120" fill="none" xmlns="http://www.w3.org/2000/svg" viewBox="0 0 227 120"><g fill="#959BAD"><path d="M75.144 67.587c-.33.138-.395.355-.198.651l11.318 16.907a.366.366 0 01.022.387.388.388 0 01-.338.206l-12.68.03a1.043 1.043 0 01-.939-.495L55.906 60.624c-.434-.652-.256-.96.534-.928 2.923.132 6.057.2 9.401.207 10.784.01 10.992-14.418-.504-14.368-6.274.02-12.555.02-18.842 0-.382 0-.678-.162-.889-.484l-6.735-10.38a.435.435 0 01.365-.671c9.718.079 19.488.151 29.311.217 19.603.129 24.728 26.101 6.597 33.37zM109.096 66.074l.059 19.11a.542.542 0 01-.543.543l-5.274.039a.545.545 0 01-.543-.543l-.099-19.168a.542.542 0 00-.543-.544H95.26a.543.543 0 01-.543-.553l.06-4.503a.543.543 0 01.542-.533l21.163.05a.545.545 0 01.534.532l.039 4.415a.542.542 0 01-.543.543l-6.873.07a.544.544 0 00-.543.542zM137.439 74.943l-10.359-.02a.828.828 0 00-.83.82l-.059 3.684a.84.84 0 00.503.772.83.83 0 00.317.067l12.305.178a.828.828 0 01.819.869l-.207 3.693a.83.83 0 01-.82.79l-18.536.109a.832.832 0 01-.84-.83l.129-24.274a.828.828 0 01.819-.82l18.122-.098a.83.83 0 01.839.84l-.009 3.92a.832.832 0 01-.82.82l-11.752.059a.829.829 0 00-.82.81l-.039 2.231a.84.84 0 00.503.772c.1.044.208.067.317.068l10.754.01a.83.83 0 01.82.898l-.326 3.872a.83.83 0 01-.83.76zM164.487 82.224c-6.034 5.895-16.65 4.394-20.561-2.578-7.614-13.55 9.303-26.447 20.363-16.038a.9.9 0 01.069 1.245l-2.37 2.804c-.401.468-.852.527-1.353.178-.918-.642-1.925-1.462-3.061-1.817-5.135-1.57-9.441 1.856-9.125 7.258.375 6.45 7.219 9.254 12.127 4.583.533-.514 1.047-.497 1.541.049l2.419 2.666c.514.567.497 1.116-.049 1.65zM174.096 75.524l.079 9.658a.524.524 0 01-.327.502.53.53 0 01-.206.041l-5.195.04a.537.537 0 01-.501-.327.523.523 0 01-.042-.207l.04-24.797a.533.533 0 01.533-.533l4.958-.02a.534.534 0 01.533.533l-.02 8.661a.533.533 0 00.533.533l7.604-.01a.534.534 0 00.534-.533v-8.621a.533.533 0 01.533-.533l5.116-.04a.534.534 0 01.533.533v24.788a.53.53 0 01-.329.493.534.534 0 01-.204.04l-5.126.02a.534.534 0 01-.533-.533l.02-9.728a.534.534 0 00-.534-.533l-7.465.04a.534.534 0 00-.534.533zM41.162 85.382l.03-24.056a.375.375 0 01.691-.208l15.969 24.057a.376.376 0 01-.316.583H41.537a.375.375 0 01-.375-.376z"/><path d="M91.912 69.06l-8.058.057a.573.573 0 00-.569.577l.03 4.286c.002.316.26.57.577.569l8.058-.057a.573.573 0 00.569-.577l-.03-4.285a.573.573 0 00-.577-.57z"/></g></svg>