<?xml version="1.0" encoding="utf-8"?><svg width="227" height="120" fill="none" xmlns="http://www.w3.org/2000/svg" viewBox="0 0 227 120"><path d="M59.932 68.23c3.626-.457 6.555-3.371 7.017-6.982a8.075 8.075 0 00-.366-3.661 8.106 8.106 0 00-1.953-3.124 8.158 8.158 0 00-3.14-1.944 8.192 8.192 0 00-3.68-.364c-3.629.46-6.558 3.374-7.017 6.982a8.074 8.074 0 00.365 3.661 8.108 8.108 0 001.954 3.125 8.16 8.16 0 003.14 1.944c1.182.4 2.441.524 3.68.364zm.494-23.152c3.491.365 6.75 1.912 9.232 4.382a15.216 15.216 0 014.404 9.185c.957 9.609-7.093 17.618-16.752 16.666a15.356 15.356 0 01-9.23-4.383 15.217 15.217 0 01-4.403-9.185c-.957-9.608 7.092-17.618 16.75-16.665zm21.83.6h22.353c.85 0 1.33.968.818 1.64L89.961 67.622h12.118c2.209 0 3.946 2 3.49 4.278-.336 1.671-1.912 2.81-3.623 2.81H77.67c-.841 0-1.318-.958-.812-1.622l15.477-20.32H82.39c-1.712 0-3.287-1.142-3.623-2.81a3.554 3.554 0 013.49-4.278zm97.007.082c2.307-.484 4.337 1.254 4.337 3.463v24.462c0 .855-.992 1.33-1.663.8l-19.282-15.221V71.17c0 2.21-2.03 3.947-4.337 3.463-1.654-.345-2.787-1.878-2.787-3.558V46.7c0-.854.991-1.329 1.662-.8l19.285 15.222V49.318c0-1.68 1.137-3.21 2.788-3.558h-.003zM129.055 45c11.805 0 21.375 6.8 21.375 15.19 0 8.389-9.57 15.19-21.375 15.19s-21.376-6.801-21.376-15.19c0-8.39 9.571-15.19 21.376-15.19zm0 7.089c-8.157 0-14.251 4.278-14.251 8.1 0 3.824 6.094 8.102 14.251 8.102 8.156 0 14.251-4.275 14.251-8.101 0-3.826-6.095-8.101-14.251-8.101z" fill="#959BAD"/></svg>