<?xml version="1.0" encoding="utf-8"?><svg width="226" height="120" fill="none" xmlns="http://www.w3.org/2000/svg" viewBox="0 0 226 120"><mask id="ara" style="mask-type:luminance" maskUnits="userSpaceOnUse" x="33" y="36" width="160" height="48"><path d="M193 36H33v47.94h160V36z" fill="#fff"/></mask><g mask="url(#ara)"><path d="M192.999 78.408c0 1.12-.884 2.018-1.99 2.018h-35.641a1.996 1.996 0 01-1.991-2.018V42.014c0-1.121.885-2.018 1.991-2.018h35.623c1.105 0 1.99.897 1.99 2.018l.018 36.394z" fill="#F47524"/><path d="M158.631 51.77h8.404c1.824 0 3.206.43 4.109 1.307.903.878 1.364 2.111 1.364 3.718 0 1.644-.498 2.933-1.493 3.867-.995.935-2.506 1.402-4.552 1.402h-2.764v6.034h-5.068V51.77zm5.068 6.987h1.253c.977 0 1.677-.168 2.064-.505a1.64 1.64 0 00.59-1.289 1.733 1.733 0 00-.516-1.307c-.35-.355-.995-.542-1.935-.542h-1.456v3.643zm9.915-6.987h5.491l2.267 6.725 2.23-6.725h5.142l-5.363 12.61c-.332.785-.719 1.551-1.143 2.28a3.466 3.466 0 01-1.455 1.233c-.646.317-1.53.486-2.654.486-.59 0-1.622-.094-3.078-.262v-3.363c.866.093 1.475.13 1.88.13 1.161 0 1.88-.429 2.138-1.307l-5.455-11.807z" fill="#fff"/><path d="M136.828 76.653V64.117h-13.047v3.625c0 3.306-.442 6.277-1.345 8.893h-1.604v7.305h3.87v-3.55h9.933v3.55h3.871v-7.305h-1.678v.018zm-4.81 0h-4.957c.737-3.288 1.087-6.072 1.087-8.314v-.205h3.87v8.52zM115.415 60.121c-.13.897-.59 1.7-1.29 2.26a4.212 4.212 0 01-5.087 0 3.445 3.445 0 01-1.29-2.241h1.825c.295.934.958 1.382 1.953 1.382 1.069 0 1.751-.467 2.046-1.382l1.843-.019zM118.935 64.117v16.291h-4.516V71.46l-5.786 8.949h-4.571V64.117h4.552v9.005l5.824-9.005h4.497zM88.322 64.117h12.882v3.475h-8.053v2.597h7.463v3.326h-7.463v3.194h8.293v3.7H88.322V64.117zM84.527 65.425c-.866-.86-2.175-1.308-3.925-1.308h-7.999v16.291h4.829v-6.034h2.635c1.935 0 3.391-.467 4.331-1.382.94-.916 1.42-2.205 1.42-3.868 0-1.606-.425-2.84-1.29-3.7zm-3.944 5.138c-.368.336-1.032.504-1.972.504h-1.18v-3.643h1.383c.903 0 1.53.187 1.843.542.332.355.516.822.498 1.308 0 .485-.203.971-.572 1.289zM55.815 64.117h14.65v4.017h-4.92v12.275h-4.81V68.133h-4.92v-4.017zM122.232 39.977h4.811v5.68h5.233v-5.68h4.829v16.235h-4.829v-6.576h-5.233v6.576h-4.811V39.977zM115.488 36c-.111.897-.59 1.7-1.29 2.242a3.823 3.823 0 01-2.543.86 3.925 3.925 0 01-2.544-.86A3.35 3.35 0 01107.84 36h1.825c.294.916.939 1.383 1.953 1.383 1.069 0 1.751-.468 2.045-1.383h1.825zM119.008 39.977v16.235h-4.516V47.3l-5.768 8.912h-4.552V39.977h4.534v8.986l5.823-8.986h4.479zM96.819 39.977h-5.252l-5.842 16.235h4.902l.774-2.672h5.436l.774 2.672h5.032l-5.824-16.235zm-4.405 10.05L94.11 44.2l1.695 5.829h-3.39zM84.104 56.212h-4.792V43.975h-3.76v4.988c0 2.055-.11 3.568-.312 4.521a3.12 3.12 0 01-1.456 2.13c-.774.448-2.01.673-3.705.673a9.7 9.7 0 01-1.806-.169v-3.306h.72c.644 0 1.105-.15 1.363-.449.258-.299.405-.84.405-1.644V39.977h13.343v16.235zM51.797 39.977h4.791v5.68h5.253v-5.68h4.81v16.235h-4.81v-6.576h-5.253v6.576h-4.791V39.977zM47.098 41.886c-1.4-1.439-3.39-2.167-5.97-2.167-2.526 0-4.498.728-5.898 2.223-1.438 1.457-2.23 4.035-2.23 6.67 0 1.905.46 2.97 1.18 4.222a6.663 6.663 0 002.782 2.765c1.143.58 2.599.878 4.35.878 1.75 0 3.17-.336 4.312-1.009a6.652 6.652 0 002.654-2.84c.608-1.214.921-2.764.921-4.67-.018-2.578-.7-4.615-2.1-6.072zm-3.557 9.79c-.571.691-1.363 1.046-2.395 1.046s-1.806-.355-2.378-1.065c-.571-.71-.866-1.887-.866-3.531 0-1.644.295-2.84.885-3.55a2.849 2.849 0 012.34-1.065c1.014 0 1.806.355 2.396 1.065.59.71.884 1.813.884 3.344-.018 1.794-.294 3.064-.866 3.756z" fill="#0F87C9"/><path fill-rule="evenodd" clip-rule="evenodd" d="M145.232 57.504c1.437 0 2.616 1.196 2.616 2.653s-1.179 2.653-2.616 2.653-2.617-1.196-2.617-2.653 1.161-2.653 2.617-2.653zM145.232 54.662c.516 0 1.032.112 1.493.336v-14.18c0-.766-.608-.822-1.364-.822h-.277c-.755 0-1.363.056-1.363.822v14.18a3.56 3.56 0 011.511-.336zM145.233 65.743a3.42 3.42 0 01-1.493-.337V79.55c0 .766.608.86 1.364.86h.276c.755 0 1.364-.113 1.364-.86V65.406a3.563 3.563 0 01-1.511.337z" fill="#0F87C9"/></g></svg>