<?xml version="1.0" encoding="utf-8"?><svg width="226" height="120" fill="none" xmlns="http://www.w3.org/2000/svg" viewBox="0 0 226 120"><path d="M41.178 59.912l2.648 3.836c.243.353.374.77.374 1.197l.026 9.323c.002.222-.109.334-.333.336l-6.613.03c-.183 0-.274-.092-.274-.275.065-9.256.063-18.627-.006-28.113 0-.133.066-.2.197-.197l6.552.018c.312.002.468.159.466.471-.008 2.742-.013 5.387-.015 7.934 0 .84-.548 1.693-1.059 2.36-.676.886-1.33 1.771-1.96 2.656a.34.34 0 00-.003.424z" fill="#040108"/><path d="M59.924 72.926a.33.33 0 00.23-.362c-.112-.708-.227-1.41-.224-2.126.037-6.835.02-13.377-.05-19.628a79.026 79.026 0 00-.042-1.621c-.027-.785.214-.878.723-.28.374.439.61 1.111.928 1.63a1060.28 1060.28 0 003.916 6.333c.46.743.717 1.426.772 2.05.095 1.08.136 2.154.124 3.219-.047 4.43-.046 8.459.003 12.086.004.237-.113.357-.35.36l-13.094.037a1.17 1.17 0 01-.994-.542 276.8 276.8 0 00-4.34-6.61c-1.575-2.32-2.999-4.836-4.738-7.094-.352-.458-.354-.9-.006-1.324 1.648-2.002 2.792-4.11 4.234-6.174a275.487 275.487 0 014.337-6.074c.348-.468.95-.678 1.512-.713a52.792 52.792 0 016.062-.012.277.277 0 01.21.436l-8.822 12.171c-.077.107-.076.212.003.316.318.41.663.805.955 1.244 2.347 3.52 4.674 7.05 6.982 10.588.393.6.778 1.216 1.156 1.849.136.224.306.304.513.241z" fill="#7DA5C9"/><path d="M103.755 53.839l-2.796-.133c-.008-1.08.378-2.533-1.282-2.553a534.11 534.11 0 00-7.807-.039c-.702 0-1.29.034-1.767.1-.7.095-1.077.628-1.132 1.601-.067 1.201-.06 2.443.018 3.724.059.944.699 1.26 1.53 1.277 2.483.055 4.813.06 6.99.017a44.778 44.778 0 012.507.024c3.886.142 5.944 2.456 5.947 6.336.002 1.767-.001 3.481-.009 5.142-.006 1.984-1.162 4.205-2.981 4.927-.656.261-1.78.387-3.37.377-7.331-.039-14.507-.036-21.526.01a5.235 5.235 0 01-1.227-.14.393.393 0 01-.238-.156 15.031 15.031 0 01-1.062-1.648 5073.124 5073.124 0 00-7.25-12.931c-.654-1.162-1.209-2.36-1.913-3.512a413.215 413.215 0 00-6.139-9.765.274.274 0 01.224-.422c2.445-.033 4.955-.026 7.527.021.48.01.849.229 1.106.658a205.138 205.138 0 012.615 4.478c3.42 6.023 6.802 11.934 10.146 17.735a1.138 1.138 0 00.99.569c5.076-.006 10.272-.034 15.589-.083.822-.006 2.565-.215 2.624-1.318.055-1.063.06-2.172.014-3.326a4.23 4.23 0 00-.253-1.294.333.333 0 00-.186-.197 4.225 4.225 0 00-1.63-.369 412.2 412.2 0 00-11.154-.032c-.755.007-1.408-.074-1.958-.245-1.651-.513-2.079-2.332-2.143-3.921-.14-3.552-.112-6.541.082-8.967.138-1.721.836-2.839 2.094-3.352.59-.24 1.406-.363 2.45-.368 5.303-.028 9.489-.025 12.557.008 1.07.012 2.527.233 3.326 1.003.872.841 1.386 1.903 1.542 3.184.125 1.044.212 2.132.259 3.264a.27.27 0 01-.076.203.27.27 0 01-.198.086l-2.04.027z" fill="#040108"/><path d="M80.902 65.03c-1.289-2.082-2.38-4.25-3.633-6.34-.82-1.368-.914-2.718-.917-4.272-.008-2.724-.01-5.413-.009-8.066a.262.262 0 01.263-.263l5.687-.032a.413.413 0 01.413.445c-.127 1.533-.345 3.075-.342 4.632.003 3.278-.083 6.563.2 9.865.132 1.535.19 3.116.174 4.744-.008.657.139 1.294.245 1.94a.223.223 0 01-.21.261.224.224 0 01-.12-.028 1.085 1.085 0 01-.428-.43c-.46-.811-.831-1.663-1.323-2.457z" fill="#7DA5C9"/><path d="M125.743 46.271l-1.846-.01a.362.362 0 00-.364.361l-.007 1.386c-.002.2.16.364.36.365l1.846.01c.2 0 .363-.161.364-.361l.008-1.386a.363.363 0 00-.361-.365zM141.223 46.291h-1.522a.536.536 0 00-.536.537v1.002c0 .296.24.537.536.537h1.522c.296 0 .536-.24.536-.537v-1.002a.536.536 0 00-.536-.537zM118.954 50.299l-.186-3.494c-.02-.346.144-.518.492-.516l1.551.009c.358.002.523.18.495.536a24.49 24.49 0 00-.088 1.542c-.004 3.289.002 6.695.018 10.22a.163.163 0 01-.048.115.164.164 0 01-.114.05l-1.649.02c-.12.002-.195-.056-.227-.174l-.106-.383a.404.404 0 00-.285-.287.412.412 0 00-.393.099c-1.069 1.012-2.222 1.27-3.458.772-2.288-.92-2.851-3.164-2.63-5.446.216-2.205 1.412-3.515 3.588-3.93.917-.177 1.987.663 2.801 1.029.167.075.247.02.239-.162zm-2.148 6.876c.279-.001.554-.077.811-.225a2.22 2.22 0 00.687-.637 3.19 3.19 0 00.458-.951 3.91 3.91 0 00.159-1.122c0-.385-.056-.766-.163-1.121a3.184 3.184 0 00-.461-.95 2.238 2.238 0 00-.689-.634 1.627 1.627 0 00-.812-.222c-.278 0-.554.077-.811.225a2.22 2.22 0 00-.686.636 3.167 3.167 0 00-.458.952 3.945 3.945 0 00.004 2.243c.107.355.264.678.461.95.197.271.431.487.689.634.257.147.533.222.811.221zM161.955 46.318h-1.91a.254.254 0 00-.254.254v11.917c0 .14.114.254.254.254h1.91c.14 0 .254-.114.254-.254V46.572a.254.254 0 00-.254-.254zM144.098 49.565c.186-.05.253-.167.2-.354-.208-.741-.08-1.28.386-1.616a6.855 6.855 0 011.699-.905.325.325 0 01.425.211.325.325 0 01.005.175 7.302 7.302 0 00-.203 2.27c.009.144.086.22.23.228.713.035 1.668.103 1.665 1.076 0 1.064-.937.931-1.668.97a.302.302 0 00-.286.339c.177 1.572.186 3.078.029 4.517a.394.394 0 00.339.433l1.141.148a.371.371 0 01.298.209c.189.37.254.748.195 1.135a.375.375 0 01-.213.286 3.505 3.505 0 01-2.665.183c-1.474-.475-1.392-1.522-1.403-3.031-.008-1.384 0-2.688.023-3.913a.224.224 0 00-.15-.233c-.846-.344-1.415-.439-1.023-1.66a.408.408 0 01.303-.288l.673-.18zM134.739 50.265l.127-.307a.356.356 0 01.197-.189 2.66 2.66 0 011.604-.059.253.253 0 01.189.245c.008 3.102 0 6.054-.024 8.857-.008 1.412-.459 2.707-1.931 3.205-2.403.814-5.911.896-6.743-2.1a.416.416 0 01.448-.524c.696.075 1.377.211 2.044.41.507.153.704.648 1.217.799.823.238 2.073.073 2.439-.85a5.04 5.04 0 00.356-1.978.19.19 0 00-.103-.168.194.194 0 00-.197.009c-.74.477-1.374 1.088-2.309 1.111-1.971.05-3.261-.863-3.868-2.739-.811-2.494-.041-5.546 2.777-6.421 1.2-.375 2.167.165 3.158.872.281.203.487.145.619-.173zm-2.298 6.613c.56.004 1.099-.285 1.498-.802.4-.517.627-1.22.632-1.955a3.547 3.547 0 00-.153-1.062 2.938 2.938 0 00-.452-.902 2.175 2.175 0 00-.68-.605 1.684 1.684 0 00-.807-.217c-.559-.004-1.098.284-1.498.801-.399.517-.627 1.22-.632 1.956-.002.364.05.724.153 1.061.104.337.257.644.452.903.194.258.425.464.68.605.255.141.529.215.807.217zM155.434 58.304a.388.388 0 00-.525-.15c-.294.163-.583.324-.866.484-3.695 2.075-7.121-3.506-2.577-4.827a38.093 38.093 0 013.538-.849.317.317 0 00.259-.324c-.056-1.268-1.937-1.687-2.786-.997-.492.401-1.005.876-1.701.723a14.85 14.85 0 01-.923-.227.37.37 0 01-.25-.228.374.374 0 01.035-.336c.625-.979 1.389-1.606 2.294-1.884 1.683-.519 5.372-.342 5.46 2.173a54.33 54.33 0 01-.021 4.429c-.038.778.198 1.498.387 2.24.009.038.01.078.002.116a.254.254 0 01-.142.174.25.25 0 01-.114.02l-1.604-.083a.37.37 0 01-.321-.2l-.145-.254zm-1.043-3.818l-2.51.97a.512.512 0 00-.291.658l.011.032c.171.44.511.794.945.983.435.19.928.2 1.373.029l.106-.039c.445-.172.803-.512.997-.945.194-.432.208-.923.038-1.363l-.012-.033a.51.51 0 00-.657-.292zM125.86 49.726l-2.082.004a.22.22 0 00-.22.222l.015 8.603c0 .122.099.22.221.22l2.082-.003a.22.22 0 00.22-.221l-.015-8.604a.22.22 0 00-.221-.22zM141.397 49.76h-1.905a.265.265 0 00-.265.265v8.462c0 .146.118.265.265.265h1.905a.265.265 0 00.265-.265v-8.462a.265.265 0 00-.265-.265zM156.958 62l-1.686.01a.38.38 0 00-.378.382l.007 1.356a.38.38 0 00.382.379l1.686-.01a.38.38 0 00.379-.382l-.007-1.356a.38.38 0 00-.383-.378zM149.004 67.412a1.884 1.884 0 01-.77-.198.443.443 0 01-.218-.242c-.141-.399-.144-.827-.009-1.285a.306.306 0 01.272-.233l.613-.083a.435.435 0 00.314-.201.445.445 0 00.045-.37 2.844 2.844 0 01-.144-.965.315.315 0 01.127-.248 11.212 11.212 0 012.005-1.217.304.304 0 01.433.306l-.251 2.244a.447.447 0 00.256.45.44.44 0 00.178.04l1.117.017a.222.222 0 01.213.171c.129.558.114 1.077-.048 1.557a.22.22 0 01-.082.113.232.232 0 01-.136.043l-1.108.01a.289.289 0 00-.263.179.278.278 0 00-.02.11c.021 1.652.026 3.131.014 4.436-.007.663.408.887 1.248.673.257-.065.403.034.439.297l.141 1.085c.034.256-.075.41-.327.46-1.011.21-2.642.257-3.417-.43-.36-.322-.407-1.103-.436-1.557a33.868 33.868 0 01.032-4.915.237.237 0 00-.057-.17.221.221 0 00-.161-.078zM135.809 63.058l.021 11.537c0 .026-.01.05-.029.069a.096.096 0 01-.068.028l-2.303-.002a.097.097 0 01-.097-.098l-.018-10.985c0-.022.007-.043.021-.06a.096.096 0 01.053-.035l2.299-.548a.1.1 0 01.084.017.098.098 0 01.037.077zM118.184 71.9c-.108-.26-.317-.428-.625-.507a43.288 43.288 0 01-3.438-1.014c-2.029-.696-2.489-2.837-.87-4.314 1.185-1.079 3.482-1.02 4.829-.593.899.284 1.555.792 1.97 1.525.242.43.124.707-.354.828-1 .256-1.806.053-2.418-.607a.52.52 0 00-.265-.156 3.848 3.848 0 00-2.173.07.549.549 0 00-.361.402.54.54 0 00.161.515c.21.197.461.328.752.392 1.204.276 2.363.613 3.476 1.012 2.78.996 1.819 4.272-.493 4.989-.829.257-1.777.336-2.842.235-1.319-.124-2.435-.717-3.349-1.78a.624.624 0 01-.122-.582.605.605 0 01.422-.415c.997-.281 1.755-.146 2.274.407.878.932 2.14.946 3.216.265a.543.543 0 00.21-.672zM131.578 69.986a4.794 4.794 0 11-9.588 0 4.794 4.794 0 019.588 0zm-4.748 2.85c.301-.002.599-.078.876-.223a2.32 2.32 0 00.738-.621c.211-.266.377-.58.49-.925.112-.345.168-.714.165-1.087-.007-.752-.255-1.471-.69-2-.434-.528-1.02-.821-1.629-.816a1.921 1.921 0 00-.876.224 2.32 2.32 0 00-.738.62c-.211.266-.377.58-.49.925a3.442 3.442 0 00-.165 1.087c.007.752.255 1.472.69 2 .434.528 1.02.822 1.629.817zM168.71 69.984a4.8 4.8 0 01-1.402 3.385 4.792 4.792 0 01-5.218 1.038 4.792 4.792 0 01-2.592-2.591 4.788 4.788 0 119.212-1.832zm-4.754 2.871c.605-.002 1.184-.305 1.61-.843.426-.538.664-1.266.662-2.025a3.516 3.516 0 00-.178-1.093 2.99 2.99 0 00-.498-.927 2.33 2.33 0 00-.742-.617 1.893 1.893 0 00-.874-.215c-.606.002-1.185.306-1.611.844-.426.537-.664 1.266-.661 2.024.001.376.061.748.177 1.094.116.347.285.661.498.926.213.265.465.475.742.618.278.142.575.215.875.214zM186.69 72.04c-.042-.314-.216-.514-.525-.598a118.627 118.627 0 01-3.411-.988c-2.604-.796-2.666-4.018-.16-4.918 1.94-.698 4.827-.465 5.962 1.554a.462.462 0 01.027.403.472.472 0 01-.298.272c-1.003.301-1.782.176-2.338-.374-.637-.631-1.914-.519-2.666-.265a.552.552 0 00-.364.613c.015.086.05.166.102.236.142.188.335.318.581.389 1.45.416 3.081.678 4.355 1.43 1.141.678 1.32 2.11.672 3.199-.953 1.586-2.778 1.837-4.511 1.695-1.362-.11-2.468-.66-3.317-1.648-.246-.287-.318-.62-.215-.997a.184.184 0 01.165-.144c.675-.103 1.748-.342 2.282.254.812.908 1.803 1.127 2.975.657.327-.13.74-.348.684-.77zM172.921 66.433a.113.113 0 00.144.062.118.118 0 00.047-.032c.954-1.091 2.176-1.466 3.668-1.124 1.395.319 2.117 1.592 2.087 2.954a85.03 85.03 0 00.068 5.87c.006.154-.067.246-.218.278a6.199 6.199 0 01-2.008.035c-.22-.03-.326-.155-.318-.377a79.36 79.36 0 00.032-5.558c-.035-1.108-1.008-1.748-2.046-1.388-.93.324-1.415.972-1.456 1.945a42.633 42.633 0 00.067 4.995c.022.283-.11.426-.395.427l-1.627.01c-.299.001-.448-.147-.448-.446l-.009-8.329a.33.33 0 01.277-.327c.566-.095 1.085-.063 1.557.094a.455.455 0 01.283.254l.295.657zM144.044 73.61c-.549.28-.95.756-1.551.918-.989.265-1.921.212-2.795-.16-1.2-.51-1.472-1.934-1.442-3.084a76.838 76.838 0 00-.062-5.519c-.01-.212.092-.32.307-.324l1.872-.044c.259-.006.383.12.371.38a70.162 70.162 0 00-.02 5.711c.035.985.503 1.463 1.403 1.436 1.144-.039 1.928-.752 1.961-1.887.061-2.088.059-3.832-.006-5.234-.014-.255.107-.385.363-.389l1.727-.023c.258-.004.387.123.387.38l.041 8.47a.274.274 0 01-.236.268c-.529.072-1.06.048-1.595-.07a.301.301 0 01-.209-.168l-.266-.575c-.055-.116-.138-.144-.25-.085zM157.1 65.482h-1.899a.244.244 0 00-.244.245v8.55c0 .136.109.245.244.245h1.899c.135 0 .245-.11.245-.245v-8.55a.245.245 0 00-.245-.245z" fill="#090909"/></svg>