<?xml version="1.0" encoding="utf-8"?><svg width="226" height="120" fill="none" xmlns="http://www.w3.org/2000/svg" viewBox="0 0 226 120"><g fill="#A01514"><path d="M74.343 67.587c-.33.138-.395.355-.198.651l11.318 16.907a.365.365 0 01.022.387.388.388 0 01-.338.206l-12.68.03a1.044 1.044 0 01-.939-.495L55.106 60.624c-.435-.652-.257-.96.533-.928 2.923.132 6.057.2 9.401.207 10.784.01 10.992-14.418-.503-14.368-6.275.02-12.555.02-18.843 0-.382 0-.678-.162-.889-.484L38.07 34.67a.435.435 0 01.366-.671c9.717.079 19.487.151 29.31.217 19.603.129 24.728 26.101 6.597 33.37zM108.295 66.074l.059 19.11a.542.542 0 01-.543.543l-5.274.039a.537.537 0 01-.384-.16.543.543 0 01-.159-.383l-.098-19.168a.543.543 0 00-.544-.544h-6.893a.543.543 0 01-.543-.553l.06-4.503a.542.542 0 01.543-.533l21.163.05a.544.544 0 01.533.532l.039 4.415a.542.542 0 01-.543.543l-6.873.07a.544.544 0 00-.543.542zM136.638 74.943l-10.359-.02a.83.83 0 00-.83.82l-.059 3.684a.827.827 0 00.236.589.83.83 0 00.584.25l12.305.178a.836.836 0 01.594.26.829.829 0 01.225.609l-.207 3.693a.83.83 0 01-.82.79l-18.536.109a.824.824 0 01-.593-.24.824.824 0 01-.246-.59l.128-24.274a.832.832 0 01.82-.82l18.121-.098a.827.827 0 01.778.517.83.83 0 01.062.322l-.01 3.92a.832.832 0 01-.82.82l-11.752.06a.829.829 0 00-.819.81l-.04 2.231a.84.84 0 00.503.772c.1.044.208.067.317.068l10.754.01a.83.83 0 01.82.898l-.326 3.872a.827.827 0 01-.83.76zM163.686 82.224c-6.034 5.895-16.65 4.394-20.561-2.578-7.614-13.55 9.303-26.447 20.364-16.038a.9.9 0 01.069 1.245l-2.37 2.804c-.402.468-.853.527-1.353.178-.919-.642-1.926-1.462-3.062-1.817-5.135-1.57-9.441 1.856-9.125 7.258.376 6.45 7.219 9.254 12.127 4.583.534-.514 1.047-.497 1.541.049l2.419 2.666c.514.567.497 1.116-.049 1.65zM173.295 75.524l.079 9.658a.524.524 0 01-.152.383.54.54 0 01-.381.16l-5.194.04a.53.53 0 01-.502-.327.54.54 0 01-.041-.207l.039-24.797a.533.533 0 01.533-.533l4.958-.02a.534.534 0 01.533.533l-.02 8.661a.534.534 0 00.534.533l7.604-.01a.534.534 0 00.533-.533v-8.621a.533.533 0 01.533-.533l5.116-.04a.534.534 0 01.533.533v24.788a.53.53 0 01-.329.493.534.534 0 01-.204.04l-5.126.02a.534.534 0 01-.533-.533l.02-9.728a.533.533 0 00-.533-.533l-7.466.04a.532.532 0 00-.534.533zM40.361 85.382l.03-24.056a.376.376 0 01.691-.208l15.969 24.057a.376.376 0 01-.316.583H40.737a.375.375 0 01-.376-.376z"/><path d="M91.111 69.06l-8.058.057a.573.573 0 00-.569.577l.03 4.286c.003.316.26.57.577.569l8.058-.057a.573.573 0 00.57-.577l-.03-4.285a.573.573 0 00-.578-.57z"/></g></svg>