<?xml version="1.0" encoding="utf-8"?><svg width="226" height="120" fill="none" xmlns="http://www.w3.org/2000/svg" viewBox="0 0 226 120"><path d="M108.172 70.043h3.171l4.433-16.468v16.468h3.567V48.277h-4.901l-4.432 15.964-4.433-15.964h-5.009v21.766h3.063V53.575l4.541 16.468zm26.09-10.775c0-3.855-1.91-5.297-5.874-5.297-2.486 0-4.432.757-5.585 1.442v3.063c.973-.757 3.171-1.55 5.117-1.55 1.838 0 2.594.685 2.594 2.306v.865h-.576c-5.694 0-8.289 1.91-8.289 5.117s1.91 5.01 4.829 5.01c2.198 0 3.171-.685 3.856-1.442h.18c0 .396.18.973.289 1.261h3.675a46.057 46.057 0 01-.18-3.856c-.036 0-.036-6.919-.036-6.919zm-3.748 7.027c-.468.685-1.333 1.262-2.702 1.262-1.55 0-2.307-.973-2.307-2.307 0-1.837 1.262-2.486 4.541-2.486h.576v3.567h-.108v-.036zm10.199-12.036h-3.46v20.325h3.748V68.24c.973 1.442 2.306 2.126 3.964 2.126 3.675 0 6.162-2.882 6.162-8.18 0-5.297-2.414-8.18-5.982-8.18-1.73 0-3.171.757-4.252 2.306.036-.036-.18-2.054-.18-2.054zm3.207 13.19c-1.91 0-2.991-1.622-2.991-5.19 0-3.675 1.045-5.297 3.171-5.297 2.018 0 3.063 1.622 3.063 5.19 0 3.675-1.045 5.296-3.243 5.296zm18.847 2.594h4.252l-5.982-8.468 5.297-7.316h-3.748l-5.297 7.316v-7.316h-3.748v15.784h3.748v-7.712l5.478 7.712zm16.756-1.045v-3.063c-1.153.757-3.063 1.441-4.901 1.441-2.702 0-3.747-1.26-3.964-3.964h8.937v-2.017c0-5.478-2.414-7.496-6.162-7.496-4.54 0-6.739 3.46-6.739 8.288 0 5.478 2.703 8.18 7.424 8.18 2.631-.036 4.36-.612 5.405-1.369zm-6.054-12.036c1.838 0 2.415 1.55 2.415 3.46v.288h-5.226c.109-2.487 1.082-3.748 2.811-3.748zm19.532.288v-2.99h-12.505v2.99h4.433v12.793h3.747V57.25h4.325z" fill="#000"/><path d="M78.334 73.9c8 0 14.45-6.45 14.45-14.45 0-8-6.45-14.45-14.45-14.45-8 0-14.45 6.45-14.45 14.45-.073 8 6.486 14.45 14.45 14.45z" fill="#FED42B"/><path d="M47.45 73.9c7.981 0 14.45-6.469 14.45-14.45C61.9 51.47 55.432 45 47.45 45 39.47 45 33 51.47 33 59.45c0 7.981 6.47 14.45 14.45 14.45z" fill="#FC3F1D"/><path d="M49.54 53.108h-1.442c-2.486 0-3.748 1.261-3.748 3.171 0 2.126.865 3.171 2.703 4.433l1.441 1.045-4.144 6.45h-3.387l3.964-5.874c-2.306-1.621-3.568-3.171-3.568-5.874 0-3.387 2.307-5.693 6.739-5.693h4.433v17.333h-2.883V53.072h-.109v.036z" fill="#fff"/><mask id="apa" style="mask-type:luminance" maskUnits="userSpaceOnUse" x="63" y="45" width="30" height="29"><path d="M78.334 73.9c8 0 14.45-6.45 14.45-14.45 0-8-6.45-14.45-14.45-14.45-8 0-14.45 6.45-14.45 14.45-.073 8 6.486 14.45 14.45 14.45z" fill="#fff"/></mask><g mask="url(#apa)"><path d="M71.234 52.927l-12.72 16.649 3.387 3.856 9.441-12.505-.972 6.847 5.297 1.838 6.45-10.307c-.288 1.91-.757 6.343 3.46 7.712 6.63 2.018 12.432-9.91 15.099-15.964l-3.856-2.018c-2.991 6.27-7.604 13.19-9.441 12.72-1.838-.468-.18-6.342.864-10.125v-.108l-5.873-2.018-7.028 11.46.974-6.271-5.082-1.766z" fill="#000"/></g></svg>