<?xml version="1.0" encoding="utf-8"?><svg width="226" height="120" fill="none" xmlns="http://www.w3.org/2000/svg" viewBox="0 0 226 120"><path d="M49.96 79.31L38.92 72.8l3.963-2.337 9.06 5.342c.334.197.746.197 1.08 0L62.19 70.4l3.963 2.337-11.148 6.573c-1.561.92-3.484.92-5.045 0zM61.724 65.43l-9.15-5.394-9.15 5.395v4.637l9.213-5.432 9.087 5.357V65.43zM71.144 51.034v13.02l-3.964-2.337V51.034c0-.394-.206-.758-.54-.956l-9.167-5.404V40l11.149 6.573c1.56.92 2.522 2.62 2.522 4.461zM53.492 47.57v10.79l9.15 5.395 3.933-2.319-9.214-5.432V45.289l-3.87 2.282zM34 51.034v13.02l3.964-2.337V51.034c0-.394.206-.758.54-.956l9.167-5.404V40l-11.149 6.573c-1.56.92-2.522 2.62-2.522 4.461zM51.652 47.57v10.79l-9.15 5.395-3.933-2.319 9.214-5.432V45.289l3.87 2.282zM102.323 58.025c0 .88-.124 1.59-.37 2.13-.247.52-.704.925-1.373 1.213-.669.27-1.602.45-2.799.54-1.18.09-3.172.134-5.073.134h-1.963c-1.672 0-3.019-.054-4.04-.162-1.02-.108-1.813-.332-2.376-.674a2.514 2.514 0 01-1.135-1.456c-.176-.629-.264-1.456-.264-2.48v-.702h4.145v.594c0 .377.035.674.106.89.07.215.237.377.502.485.263.09.642.153 1.135.189.51.017 1.197.026 2.06.026h1.725c1.091 0 2.414-.009 3.066-.026.651-.036 1.144-.1 1.478-.19.352-.09.581-.224.687-.404.105-.197.158-.449.158-.755v-.27c0-.287-.044-.512-.132-.673a.736.736 0 00-.396-.405c-.194-.09-.457-.144-.792-.162a22.203 22.203 0 00-1.215-.027H91.63v-3.127h3.855c.845 0 1.417-.09 1.716-.27.3-.18.449-.54.449-1.079v-.296c0-.27-.062-.494-.185-.674-.105-.18-.326-.315-.66-.405-.317-.09-.783-.152-1.4-.188-.598-.036-1.833-.054-2.801-.054h-1.726c-.862 0-1.549.009-2.06.027-.492.018-.87.08-1.134.188-.265.108-.432.27-.502.486-.07.215-.106.512-.106.89v.485H83.01v-.593c0-1.025.088-1.852.264-2.481a2.432 2.432 0 011.083-1.456c.563-.342 1.346-.566 2.35-.674 1.02-.108 2.367-.162 4.04-.162h1.962c1.849 0 3.797.045 4.941.135 1.162.09 2.06.279 2.693.566.652.27 1.083.665 1.294 1.186.229.504.343 1.169.343 1.996v.35c0 .648-.044 1.178-.132 1.591-.07.396-.211.72-.422.97-.194.235-.467.423-.819.567a8.877 8.877 0 01-1.267.35v.082c.528.09.977.197 1.347.323.369.108.677.279.924.512.246.234.422.54.528.917.123.378.185.854.185 1.43v.593zM119.54 61.786h-14.72V46.578h4.436v11.675h10.284v3.533zM130.817 62.042a41.17 41.17 0 01-3.245-.108c-1.021-.054-1.892-.17-2.614-.35-.722-.198-1.311-.468-1.769-.81a3.426 3.426 0 01-1.03-1.347c-.246-.558-.414-1.24-.502-2.05a27.451 27.451 0 01-.132-2.912v-.431c0-1.133.044-2.103.132-2.912.088-.81.256-1.492.502-2.05.247-.575.59-1.033 1.03-1.375.458-.341 1.047-.602 1.769-.782.722-.18 1.593-.296 2.614-.35a41.165 41.165 0 013.245-.108h.654c1.425 0 2.197.036 3.218.108 1.038.054 1.919.17 2.64.35.722.18 1.303.44 1.743.782.458.342.81.8 1.056 1.375.247.558.414 1.24.502 2.05.088.809.132 1.78.132 2.912v.431c0 1.133-.044 2.103-.132 2.912-.088.81-.255 1.501-.502 2.077a3.316 3.316 0 01-1.056 1.348c-.44.341-1.021.602-1.743.782-.721.18-1.602.296-2.64.35a40.134 40.134 0 01-3.218.108h-.654zm.495-3.532c1.285 0 1.837-.036 2.558-.108.74-.072 1.285-.243 1.637-.512.37-.288.59-.71.661-1.268.088-.557.132-1.312.132-2.265v-.242c0-.97-.044-1.735-.132-2.292-.071-.575-.291-.998-.661-1.267-.352-.288-.897-.468-1.637-.54-.721-.072-1.273-.108-2.558-.108h-.337c-1.302 0-1.863.036-2.584.108-.722.072-1.268.252-1.638.54-.352.27-.572.692-.66 1.267-.07.557-.105 1.321-.105 2.292v.242c0 .953.035 1.708.105 2.265.088.558.308.98.66 1.268.37.27.916.44 1.638.512.721.072 1.282.108 2.584.108h.337zM153.011 62.042c-2.113 0-3.803-.08-5.07-.243-1.267-.18-2.244-.539-2.931-1.078-.669-.54-1.109-1.303-1.32-2.292-.211-1.007-.317-2.328-.317-3.964v-.431c0-1.097.044-2.05.132-2.858.088-.81.255-1.492.502-2.05a3.648 3.648 0 011.056-1.348c.44-.36 1.012-.638 1.716-.836.722-.197 1.593-.323 2.614-.377a52.392 52.392 0 013.618-.108h1.122c1.76 0 3.186.063 4.277.189 1.109.126 1.972.368 2.588.728.634.341 1.065.836 1.294 1.483.229.629.343 1.447.343 2.453v.132h-4.304c0-.517-.323-.97-.792-1.156-.317-.144-.766-.243-1.347-.297-.563-.072-1.302-.108-2.218-.108h-.805c-1.267 0-2.262.036-2.984.108-.721.072-1.258.252-1.61.54-.352.287-.572.719-.66 1.294-.088.557-.132 1.321-.132 2.292v.27c0 .952.044 1.707.132 2.264.088.54.308.953.66 1.24.352.288.889.468 1.61.54.722.072 1.717.108 2.984.108h.805c1.021 0 1.831-.027 2.429-.081.617-.054 1.083-.153 1.4-.297.317-.161.519-.368.607-.62.088-.252.132-.584.132-.998v-.404h-3.631l.026-2.966h7.856v3.398c0 1.114-.114 2.022-.343 2.723a3.095 3.095 0 01-1.294 1.672c-.633.413-1.514.7-2.64.862-1.127.144-2.588.216-4.383.216h-1.122zM170.621 61.786h-4.463V46.578h4.463v15.208zM183.197 62.042c-2.059 0-3.723-.08-4.99-.243-1.268-.161-2.253-.503-2.958-1.024-.686-.54-1.144-1.303-1.373-2.292-.228-1.007-.343-2.346-.343-4.018v-.431c0-1.654.106-2.975.317-3.964.229-1.007.687-1.77 1.373-2.292.687-.539 1.664-.89 2.931-1.051 1.267-.18 2.948-.27 5.043-.27h1.122c1.831 0 3.301.072 4.41.216 1.126.143 1.989.404 2.587.782.599.377.995.898 1.189 1.564.193.647.29 1.483.29 2.507v.378h-4.304c0-.36-.035-.665-.105-.917-.071-.252-.256-.458-.555-.62-.282-.162-.713-.279-1.294-.35-.563-.073-1.355-.109-2.376-.109h-.805c-1.25 0-2.236.036-2.958.108-.704.072-1.241.252-1.61.54-.352.27-.572.683-.66 1.24-.088.557-.132 1.33-.132 2.319v.27c0 .97.044 1.734.132 2.291.088.54.308.944.66 1.214.369.27.906.44 1.61.512.722.072 1.708.108 2.958.108h.646c1.057 0 1.884-.027 2.482-.081.599-.072 1.048-.189 1.347-.35.428-.232.687-.743.687-1.227l-.001-.354h4.278v.448c0 .97-.097 1.788-.29 2.454-.194.647-.599 1.168-1.215 1.564-.616.395-1.496.674-2.64.835-1.127.162-2.623.243-4.489.243h-.964zM92.838 71.741c0 .8-.048 1.444-.145 1.93-.097.485-.313.858-.647 1.12-.326.26-.806.436-1.44.526-.626.08-1.467.12-2.524.12H82.93V67.83h5.152c1.04 0 1.872.04 2.497.121.625.072 1.105.239 1.44.5.335.251.555.624.66 1.12.106.485.16 1.137.16 1.955v.216zm-4.94 1.93c.633 0 1.131-.018 1.492-.054.37-.045.647-.135.832-.27a.933.933 0 00.344-.607c.053-.27.08-.625.08-1.066v-.135c0-.45-.027-.805-.08-1.066-.044-.27-.159-.472-.344-.607-.185-.135-.462-.22-.832-.256a12.767 12.767 0 00-1.493-.068H85.15v4.129h2.748zM96.954 75.438h-2.233v-7.61h2.233v7.61zM108.107 73.13c0 .478-.049.869-.146 1.175-.088.305-.282.553-.581.742-.299.18-.727.306-1.282.377-.546.072-1.272.108-2.179.108h-.344c-1.057 0-1.894-.031-2.51-.094-.617-.054-1.083-.166-1.4-.337-.309-.171-.507-.405-.595-.702-.08-.306-.119-.697-.119-1.174v-.283h2.193v.202c0 .162.027.293.079.392.053.09.159.162.318.215.158.054.383.09.673.108.3.018.696.027 1.189.027h.278c.528 0 .942-.009 1.242-.027.308-.018.537-.053.687-.108.149-.053.242-.125.277-.215a.98.98 0 00.053-.351v-.04a.839.839 0 00-.066-.365c-.035-.099-.132-.17-.291-.216-.158-.054-.401-.09-.726-.108a24.805 24.805 0 00-1.322-.027c-.687 0-1.277-.009-1.77-.027a10.182 10.182 0 01-1.242-.135 3.153 3.153 0 01-.806-.27 1.315 1.315 0 01-.462-.418 1.592 1.592 0 01-.211-.607 7.946 7.946 0 01-.04-.85v-.054c0-.476.048-.863.145-1.16.097-.306.287-.544.568-.715.291-.18.696-.301 1.216-.364.528-.063 1.215-.095 2.061-.095h.449c1.022 0 1.828.04 2.418.122.59.072 1.035.198 1.334.378.308.17.502.4.581.688.08.287.119.643.119 1.065v.23h-2.193v-.122c0-.135-.017-.251-.053-.35-.035-.1-.119-.176-.251-.23-.123-.063-.312-.108-.568-.135-.255-.027-.608-.04-1.057-.04h-.33c-.528 0-.942.009-1.242.027-.299.018-.524.054-.674.108-.149.045-.246.117-.29.216-.036.09-.053.215-.053.377v.04c0 .136.017.248.053.338.044.081.149.144.317.189.167.036.423.063.766.081.352.009.832.013 1.44.013.951 0 1.713.027 2.286.081.572.054 1.008.167 1.308.338.308.162.51.4.607.715.097.305.146.71.146 1.214v.054zM114.897 75.438h-2.206v-5.896h-3.211V67.83h8.64v1.713h-3.223v5.896zM124.575 71.66c.378 0 .682-.009.911-.027.229-.027.401-.076.515-.148a.488.488 0 00.238-.31c.035-.135.053-.31.053-.526v-.135c0-.216-.018-.387-.053-.513a.488.488 0 00-.238-.31c-.114-.081-.286-.13-.515-.149a8.137 8.137 0 00-.911-.04h-2.762v2.158h2.762zm3.95 3.778h-2.193v-.62c0-.334-.027-.599-.08-.797a.67.67 0 00-.304-.445c-.158-.108-.391-.175-.7-.202a10.72 10.72 0 00-1.215-.054h-2.22v2.118h-2.193v-7.61h5.84c.616 0 1.123.041 1.519.122.396.072.709.198.938.378.229.18.388.418.476.715.088.288.132.652.132 1.093v.27c0 .593-.102 1.047-.304 1.362-.194.315-.529.53-1.004.648v.04a2.9 2.9 0 01.647.176.835.835 0 01.41.296c.097.135.163.31.198.527.035.216.053.49.053.823v1.16zM132.742 75.438h-2.233v-7.61h2.233v7.61zM134.805 75.438v-7.61h6.064a8.92 8.92 0 011.426.095c.388.063.696.171.925.324.229.144.392.337.489.58.097.243.145.544.145.904 0 .53-.092.927-.277 1.187-.185.261-.44.441-.766.54v.027c.414.072.731.247.951.526.22.279.33.688.33 1.228 0 .431-.053.791-.158 1.08a1.515 1.515 0 01-.489.674c-.22.162-.498.279-.832.35a6.536 6.536 0 01-1.19.095h-6.618zm6.235-1.619c.335 0 .564-.063.687-.189.132-.135.199-.333.199-.593 0-.27-.067-.464-.199-.58-.123-.118-.352-.176-.687-.176h-4.042v1.538h4.042zm-.052-2.995c.228 0 .405-.05.528-.148.132-.1.198-.284.198-.554 0-.287-.066-.48-.198-.58-.123-.099-.3-.148-.528-.148h-3.99v1.43h3.99zM150.353 75.532c-.916 0-1.669-.036-2.259-.108-.582-.08-1.04-.224-1.374-.431a1.712 1.712 0 01-.701-.864c-.123-.36-.185-.823-.185-1.39v-4.91h2.22v4.182c0 .387.022.697.066.931a.924.924 0 00.317.54c.159.117.388.193.687.229.308.036.722.054 1.242.054h.185c.52 0 .934-.018 1.242-.054.308-.045.541-.126.7-.243a.853.853 0 00.304-.526 5.24 5.24 0 00.066-.93v-4.183h2.219v4.91c0 .567-.061 1.03-.185 1.39-.123.36-.352.648-.687.864-.325.207-.783.35-1.374.431-.581.072-1.334.108-2.259.108h-.224zM162.011 75.438h-2.206v-5.896h-3.21V67.83h8.64v1.713h-3.224v5.896zM168.968 75.438h-2.233v-7.61h2.233v7.61zM175.734 75.532c-.714 0-1.33-.018-1.85-.054a7.027 7.027 0 01-1.308-.175 2.635 2.635 0 01-.885-.405 1.71 1.71 0 01-.515-.674 3.483 3.483 0 01-.251-1.026c-.044-.404-.066-.89-.066-1.457v-.216c0-.566.022-1.052.066-1.457.044-.404.128-.746.251-1.025.123-.288.295-.517.515-.688.229-.17.524-.301.885-.391.361-.09.797-.149 1.308-.176a27.33 27.33 0 011.85-.054h.343c.714 0 1.326.018 1.837.054.519.027.96.086 1.321.176s.652.22.872.391c.229.17.405.4.528.688.124.279.207.62.251 1.025.044.405.066.89.066 1.457v.216c0 .567-.022 1.053-.066 1.457a3.622 3.622 0 01-.251 1.04 1.658 1.658 0 01-.528.674c-.22.17-.511.301-.872.391-.361.09-.802.148-1.321.175a26.67 26.67 0 01-1.837.054h-.343zm.264-1.767c.643 0 1.145-.018 1.506-.054.37-.036.643-.121.819-.256.185-.144.295-.356.331-.634.044-.28.066-.657.066-1.134v-.121c0-.486-.022-.868-.066-1.147-.036-.288-.146-.499-.331-.634-.176-.144-.449-.234-.819-.27a16.157 16.157 0 00-1.506-.054h-.185c-.652 0-1.158.018-1.519.054-.361.036-.634.126-.819.27-.176.135-.286.346-.331.634a9.74 9.74 0 00-.052 1.147v.121c0 .477.017.855.052 1.134.045.278.155.49.331.634.185.135.458.22.819.256.361.036.867.054 1.519.054h.185zM192.731 75.438h-3.316l-4.36-5.693h-.053v5.693h-2.167v-7.61h3.369l4.307 5.694h.04V67.83h2.18v7.609z" fill="#242C37"/></svg>