<?xml version="1.0" encoding="utf-8"?><svg width="226" height="120" fill="none" xmlns="http://www.w3.org/2000/svg" viewBox="0 0 226 120"><path d="M168.039 51.011h-5.136a3.868 3.868 0 00-4.005 3.498l-2.241 11.626c-.401 2.113.212 3.508 2.674 3.508h5.168a3.803 3.803 0 004.026-3.508l2.315-11.626c.37-2.06-.254-3.498-2.759-3.498m-1.342 4.28l-1.987 10.114a.624.624 0 01-.381.592.636.636 0 01-.242.053h-2.949c-.412 0-.507-.159-.454-.634l1.966-10.114c.137-.454.348-.666.729-.666h2.874c.37 0 .561.212.487.666M152.367 66.04l2.937-15.028h-8.031a3.836 3.836 0 00-4.101 3.498l-3.244 11.53h-1.681l-.739 3.646h15.324l.729-3.646h-1.194zm-1.755-11.413l-2.283 11.413h-4.227l2.917-10.748a.665.665 0 01.666-.665H150.612zm-14.795 15.06l.496-18.558h-5.41l-8.941 18.62h4.312l1.49-3.444h3.868l-.286 3.445 4.471-.064zm-3.35-13.74l-.582 7.282h-2.811l3.171-7.281h.222zm-8.17-1.436c.423-2.061-.211-3.499-2.705-3.499h-8.455l-3.667 18.674h3.879l1.057-5.41h4.65c2.483 0 3.508-1.501 3.973-3.562l1.268-6.203zm-4.047.782l-.951 4.66c-.117.507-.349.666-.761.666h-3.424l1.236-5.992h3.445c.413 0 .56.211.508.666m-11.435-.782c.401-2.061-.222-3.499-2.727-3.499h-5.083a3.953 3.953 0 00-4.227 3.498l-2.22 11.626c-.37 2.113.233 3.508 2.685 3.508h5.136a3.806 3.806 0 004.058-3.508l2.378-11.626zm-4.069.782l-1.913 10.113a.762.762 0 01-.782.634H99.23c-.38 0-.508-.158-.455-.634l1.998-10.114c0-.454.264-.665.718-.665h2.833c.348 0 .57.211.454.666M90.87 66.038l2.928-15.028h-8.011a3.847 3.847 0 00-4.037 3.498l-3.308 11.53h-1.66l-.76 3.646h15.345l.718-3.646H90.87zm-1.722-11.413l-2.262 11.413h-4.227l2.916-10.748a.646.646 0 01.645-.665h2.928zm-13.242 5.907c.39-2.113-.254-3.593-2.738-3.593h-4.576l1.184-5.929h-3.984l-3.657 18.674h8.571a3.815 3.815 0 004.069-3.508l1.13-5.644zm-4.08.476l-.824 4.555a.814.814 0 01-.814.729h-3.36l1.183-5.96h3.382c.391 0 .539.19.433.665m-13.538 8.687l3.636-18.557h-8.455a3.847 3.847 0 00-4.09 3.498l-4.343 15.112h4.227l3.91-14.394a.654.654 0 01.645-.665h3.477l-3.023 15.006h4.016zM45.67 54.51c.391-2.061-.211-3.499-2.663-3.499h-7.63l-.719 3.615h6.5c.39 0 .507.211.454.666l-.825 4.29H36.74l.623-2.97L28 61.093h6.954l-.602 2.96 6.182-2.938-.824 4.227a.73.73 0 01-.793.634h-6.489l-.687 3.646h7.651a3.73 3.73 0 003.985-3.445v-.064L45.67 54.51zm125.096 10.874l-.835 4.301h3.931l.846-4.3h-3.942zM198 56.612h-2.864l-1.945 9.988a.31.31 0 01-.083.257.305.305 0 01-.255.091h-2.113c-.191 0-.254-.084-.201-.348l1.902-9.987h-2.896l-2.018 10.42c-.307 1.564.106 2.652 1.997 2.652h3.287a2.863 2.863 0 003.075-2.652L198 56.613zm-13.305 0h-5.908l-2.484 13.073h2.674l.772-3.72h1.342l.581 3.72h2.991l-.793-3.889a2.813 2.813 0 001.892-2.388l.856-4.344c.296-1.437-.148-2.483-1.892-2.483m-.972 3.001l-.666 3.17c-.074.36-.232.466-.518.466h-2.377l.856-4.228h2.367c.275 0 .38.159.349.476" fill="#C10230"/></svg>