<?xml version="1.0" encoding="utf-8"?><svg width="226" height="120" fill="none" xmlns="http://www.w3.org/2000/svg" viewBox="0 0 226 120"><path d="M86.345 77.323a2.612 2.612 0 01-2.607 2.619 2.615 2.615 0 01-2.605-2.619 2.616 2.616 0 012.605-2.62 2.613 2.613 0 012.607 2.62zm91.623 2.637c-3.363-.021-4.923-2.83-5.307-3.736-3.84-9.58 7.417-18.484 7.417-18.484h6.521s-9.927 7.979-8.555 15.048c.927 3.433 3.887 2.532 5.82-.173 2.349-3.284 4.467-9.764 2.871-9.94-1.482-.163-3.45 3.056-3.45 3.056l-.011-.01-1.379-2.112c1.072-1.395 4.121-5.038 7.513-6.178.514-.16 3.592-.971 3.592 3.593 0 4.884-5.416 18.997-15.032 18.936zm-50.304-4.866c.781-.49 1.848-1.34 1.848-1.34l.659 2.024c-.391.417-3.57 2.947-5.543 3.873-2.131 1-4.095-.317-4.363-1.928-.307-1.845.642-4.257.642-4.257s-3.399 3.889-6.86 5.783c-.961.526-1.695.738-2.282.723-2.331-.056-3.061-2.324-2.806-3.537.304-1.448 3.458-11.204 3.856-12.807.039-.158-.118-.345-.33-.286-.955.266-3.462 1.906-3.462 1.906v-2.71s6.893-4.702 8.713-5.22c1.683-.48 3.121.486 2.698 2.408-.194 1.333-4.298 12.61-4.555 13.974-.051.272.231.294.309.27 1.338-.41 3.806-2.513 5.694-5.51 1.764-2.798 2.973-6.353 4.437-10.738h6.286s-4.753 14.642-5.289 17.07c-.058.266.213.387.348.302zm-24.835-13.86c-2.206 1.695-3.915 2.54-3.915 2.54s.61-1.44 1.101-2.271c1.27-2.151 7.421-10.443 12.551-11.982.199-.06.346.085.341.29-.048 1.808-6.559 8.72-10.078 11.424zm14.782-16.26c-4.668-1.635-21.204 3.63-26.618 21.998-.664.184-3.844 1.006-3.844 1.006l-1.385 3.761 4.919-1.51s-.539 9.437 7.718 9.713c6.492-.242 9.969-9.771 7.947-15.895-.411.202-5.708 2.459-5.708 2.459s1.059 6.192-1.252 7.628c-.357.222-.826.192-1.127-.23-.671-.938-1.1-3.368-.348-6.603 11.889-6.21 20.003-17.139 20.498-20.9a1.318 1.318 0 00-.8-1.428zm24.175 29.192c-.863.617-2.388.933-2.68-1.796-.421-3.923 2.281-8.654 3.119-9.753 1.432-1.878 3.43-2.02 3.471.825.047 3.274-1.755 9.181-3.91 10.724zm3.36-26.988c-4.318.057-6.519 2.318-6.519 2.318l.112 2.657s2.749-2.752 5.877-1.592c2.125.79 4.236 3.507 2.791 9.53-1.299-3.347-6.331-4.086-10.378.286-3.231 3.49-7.595 15.136-1.152 18.721 8.011 4.457 15.04-8.596 16.661-17.499 1.022-5.61 1.631-14.54-7.392-14.42zM51.107 78.642c-2.81-2.944-.156-12.897.393-15.04a.315.315 0 00-.586-.22c-1.184 2.399-7.602 16.56-13.284 16.56-.105 0-.216 0-.324-.008-5.49-.515-4.772-8.135-3.065-12.752h8.85c-.721 1.994-.97 3.25-.945 3.904.018.474.41.715.791.514.916-.48 2.428-2.471 3.742-4.764 2.396-4.184 5.472-10.483 10.785-26.387h9.72c-2.882 8.86-5.225 16.873-6.502 26.036-.065.457.458.84.873.448 2.773-2.62 12.876-24.576 13.511-26.484h9.73s-9.647 26.845-8.839 31.313c.11.607.735.768 1.244.185.591-.678 1.51-1.882 2.053-2.515l1.504 1.508c-2.767 3.432-7.261 9.641-11.75 8.894-.696-.116-1.37-.514-1.873-1.03C62.463 74.726 68.98 61.1 70.124 57.9c.253-.709.501-1.356.66-1.76a.316.316 0 00-.58-.25c-.224.48-.83 1.778-1.037 2.215-2.893 5.988-9.532 21.838-14.986 21.838-.855 0-2.133-.321-3.074-1.3zM161.598 65.41c1.669-2.978 4.392-5.304 5.711-4.374 1.325.923-1.356 5.632-7.651 10.643-.252-.44.259-3.282 1.94-6.269zm-1.553 8.964c11.681-6.177 14.486-14.003 10.887-16.192-5.31-2.99-19.869 2.357-18.218 16.985-.722.434-2.157 1.216-2.157 1.216l.97 2.958s2.029-1.22 2.578-1.6c1.715 1.389 2.597 2.153 5.245 2.204 5.625.118 10.481-6.152 10.481-6.152l-1.431-2.206s-6.182 5.963-8.355 2.787z" fill="#959BAD"/></svg>