<?xml version="1.0" encoding="utf-8"?><svg width="226" height="120" fill="none" xmlns="http://www.w3.org/2000/svg" viewBox="0 0 226 120"><path d="M59.332 68.23c3.626-.457 6.555-3.371 7.018-6.982a8.075 8.075 0 00-.366-3.661 8.106 8.106 0 00-1.954-3.124 8.158 8.158 0 00-3.14-1.944 8.192 8.192 0 00-3.68-.364c-3.628.46-6.557 3.374-7.017 6.982a8.073 8.073 0 00.366 3.661 8.106 8.106 0 001.954 3.125 8.16 8.16 0 003.14 1.944c1.182.4 2.44.524 3.68.364zm.495-23.152c3.49.365 6.75 1.912 9.231 4.382a15.216 15.216 0 014.404 9.185c.957 9.609-7.092 17.618-16.752 16.666a15.356 15.356 0 01-9.23-4.383 15.217 15.217 0 01-4.403-9.185c-.957-9.608 7.093-17.618 16.75-16.665zm21.83.6h22.352c.85 0 1.33.968.818 1.64L89.362 67.622h12.117c2.209 0 3.947 2 3.49 4.278-.335 1.671-1.911 2.81-3.623 2.81H77.071c-.842 0-1.319-.958-.813-1.622l15.478-20.32h-9.947c-1.711 0-3.287-1.142-3.623-2.81a3.554 3.554 0 013.49-4.278zm97.006.082c2.307-.484 4.337 1.254 4.337 3.463v24.462c0 .855-.992 1.33-1.663.8l-19.282-15.221V71.17c0 2.21-2.029 3.947-4.337 3.463-1.654-.345-2.787-1.878-2.787-3.558V46.7c0-.854.992-1.329 1.663-.8l19.285 15.222V49.318c0-1.68 1.136-3.21 2.787-3.558h-.003zM128.455 45c11.805 0 21.376 6.8 21.376 15.19 0 8.389-9.571 15.19-21.376 15.19-11.805 0-21.375-6.801-21.375-15.19 0-8.39 9.57-15.19 21.375-15.19zm0 7.089c-8.156 0-14.251 4.278-14.251 8.1 0 3.824 6.095 8.102 14.251 8.102 8.157 0 14.252-4.275 14.252-8.101 0-3.826-6.095-8.101-14.252-8.101z" fill="#005BFF"/></svg>