<?xml version="1.0" encoding="utf-8"?><svg width="226" height="120" fill="none" xmlns="http://www.w3.org/2000/svg" viewBox="0 0 226 120"><g fill="#6833B0"><path d="M51.244 61.984c.054 2.715 1.92 4.484 4.47 4.233 1.572-.155 2.535-1.037 2.888-2.645.01-.043.035-.065.076-.065h4.739a.033.033 0 01.024.012.037.037 0 01.01.027c-.16 5.73-5.492 8.07-10.126 7.127-5.648-1.15-7.92-7.327-6.54-12.77 1.005-3.961 4.042-6.513 7.887-6.75 3.608-.221 6.98 1.328 8.203 5.194.572 1.808.6 3.637.455 5.52-.002.032-.02.048-.05.048H51.308c-.043 0-.064.023-.063.07zm3.682-6.477c-1.7.138-2.844 1.045-3.43 2.722a.044.044 0 00.018.053.038.038 0 00.018.005h7.12c.046 0 .065-.024.057-.07-.33-2.107-1.946-2.86-3.783-2.71zM88.01 67.724c-.104.199-.209.395-.317.59-.909 1.648-2.374 2.33-4.162 2.502-3.186.305-6.055-1.438-6.348-5.078-.294-3.634 2.32-5.23 5.133-6.073A640.76 640.76 0 0186.8 58.34c.546-.16 1.143-.331 1.178-1.06.1-2.066-3.336-1.971-4.356-1.196-.722.548-.97 1.416-.977 2.324 0 .04-.019.06-.056.06h-4.953c-.029 0-.044-.016-.045-.047-.206-5.996 4.977-7.765 9.57-7.18 3.669.47 5.618 2.934 5.576 6.869-.043 4.08 0 8.168-.005 12.25 0 .04-.02.062-.058.062H88.11a.051.051 0 01-.037-.016.056.056 0 01-.015-.039l.002-2.63c0-.074-.017-.078-.05-.014zm-4.064-1.229c2.427-.102 4.208-2.059 4.076-4.64-.002-.044-.023-.06-.062-.048-1.443.429-2.884.862-4.324 1.3-.78.239-1.52.66-1.587 1.63-.089 1.277.837 1.803 1.897 1.758zM129.208 67.71a.03.03 0 00-.006-.02.027.027 0 00-.017-.012.03.03 0 00-.021.003.028.028 0 00-.013.016c-.989 2.444-3.252 3.314-5.64 3.128-3.109-.242-5.352-2.42-5.203-5.882.166-3.897 3.81-4.897 6.66-5.734 1.044-.305 2.088-.612 3.132-.919.472-.139 1-.356 1.025-.969.082-1.986-2.821-1.963-3.938-1.476-1.026.449-1.347 1.424-1.396 2.56-.002.042-.022.062-.06.062h-4.932c-.042 0-.064-.022-.066-.067-.149-4.178 2.516-6.647 6.175-7.144 4.594-.626 8.982.89 8.98 6.706l-.003 12.386c0 .048-.023.073-.069.073h-4.544c-.04 0-.06-.021-.06-.063l-.004-2.648zm-4.662-4.48c-.961.306-1.471.9-1.305 2.013.281 1.896 3.044 1.223 4.009.614 1.33-.84 1.977-2.286 1.934-3.982-.001-.043-.021-.059-.061-.047-1.531.453-3.056.92-4.577 1.403zM141.049 67.772v7.72c0 .045-.02.067-.062.067h-4.753c-.043 0-.064-.022-.064-.068V51.656c0-.046.021-.069.064-.069l4.753.002c.042 0 .062.022.062.066v2.63c0 .109.019.113.056.01.72-2.014 2.56-3.122 4.57-3.175 4.646-.124 6.606 4.161 6.86 8.435.138 2.304 0 4.617-.747 6.758-1.061 3.043-3.476 4.798-6.582 4.493-1.95-.19-3.327-1.204-4.131-3.04-.017-.038-.026-.036-.026.006zm-.017-7.94c-.234 2.163.045 5.444 2.484 6.077 1.991.515 3.649-.441 4.099-2.615.367-1.777.38-4.317-.546-5.922-.475-.823-1.189-1.28-2.143-1.372-1.755-.169-2.936.598-3.544 2.3a6.675 6.675 0 00-.35 1.533zM174.737 61.976c.043 1.96 1.104 3.704 2.971 4.13 1.966.449 3.952-.273 4.376-2.534.008-.044.033-.066.075-.066h4.74c.03 0 .045.017.044.049-.111 5.236-4.597 7.59-8.938 7.289-6.02-.417-8.956-6.303-7.898-12.143.74-4.082 3.574-7.044 7.508-7.497 2.103-.241 4.408.104 6.179 1.42 2.884 2.145 3.309 5.786 3.032 9.255-.002.023-.014.035-.037.035h-11.995c-.039 0-.058.02-.057.062zm5.204-6.366c-2.104-.506-4.254.378-4.946 2.644a.022.022 0 000 .012.02.02 0 00.004.01.025.025 0 00.008.007.023.023 0 00.011.003h7.148a.052.052 0 00.025-.006.05.05 0 00.021-.018.061.061 0 00.012-.025.069.069 0 000-.029c-.294-1.438-1.055-2.304-2.283-2.598zM34.493 63.027l3.312-11.37a.103.103 0 01.035-.051.093.093 0 01.057-.02h5.176c.041 0 .065.022.072.066l2.792 18.716a.044.044 0 01-.023.046.038.038 0 01-.017.003h-4.45c-.036 0-.057-.019-.062-.056l-1.61-11.689c-.016-.124-.042-.126-.077-.006L36.35 70.342c-.014.05-.046.075-.095.075h-3.722c-.032 0-.052-.016-.062-.05l-3.237-11.48c-.035-.127-.063-.125-.082.007l-1.675 11.484a.046.046 0 01-.014.028.043.043 0 01-.029.011h-4.412c-.003 0-.006 0-.009-.002a.023.023 0 01-.012-.015.028.028 0 010-.011l2.8-18.78c.003-.015.012-.023.026-.023h5.308c.016 0 .031.006.044.016.013.01.022.024.027.04l3.227 11.385c.02.07.04.07.06 0zM70.21 56.442v13.934c0 .01-.004.021-.012.029a.038.038 0 01-.027.012h-4.802a.038.038 0 01-.028-.012.042.042 0 01-.01-.03v-18.74c0-.005 0-.01.002-.016a.04.04 0 01.021-.022.037.037 0 01.015-.003h11.256c.005 0 .01 0 .015.003a.04.04 0 01.024.038v4.725l-.003.015a.04.04 0 01-.021.022.037.037 0 01-.015.004h-6.377c-.01 0-.02.004-.027.012a.042.042 0 00-.011.03zM105.672 63.027c.02.07.04.07.06 0l3.319-11.393c.01-.032.03-.048.061-.048h5.232c.008 0 .017.003.023.009a.034.034 0 01.012.023l2.8 18.773-.001.01c0 .003-.002.006-.004.009a.019.019 0 01-.007.005.014.014 0 01-.008.002h-4.476c-.034 0-.054-.017-.059-.053l-1.617-11.753c-.012-.083-.029-.084-.052-.003l-3.377 11.773a.048.048 0 01-.018.026.044.044 0 01-.028.01h-3.749a.078.078 0 01-.047-.016.088.088 0 01-.028-.044l-3.255-11.542c-.022-.08-.039-.078-.051.003l-1.684 11.544c-.005.037-.026.055-.061.055h-4.371a.042.042 0 01-.018-.004.046.046 0 01-.024-.03.048.048 0 01-.001-.02l2.795-18.735c.003-.028.019-.042.045-.042h5.31c.024 0 .04.013.047.039l3.232 11.402z"/><path d="M159.269 63.244v7.134l-.002.015a.052.052 0 01-.008.013.055.055 0 01-.012.008.037.037 0 01-.014.003h-4.808a.037.037 0 01-.014-.003.055.055 0 01-.012-.008.052.052 0 01-.008-.013.072.072 0 01-.002-.015V51.625l.002-.015a.052.052 0 01.008-.013.055.055 0 01.012-.008.035.035 0 01.014-.003h4.808c.005 0 .009 0 .014.003a.055.055 0 01.012.008.052.052 0 01.008.013l.002.015v6.918c0 .01.004.02.011.027a.036.036 0 00.026.012h1.894a.04.04 0 00.019-.006.041.041 0 00.013-.014l3.776-6.956a.04.04 0 01.013-.015.036.036 0 01.019-.005l5.303.001a.04.04 0 01.018.006.04.04 0 01.013.014.04.04 0 01.004.019.032.032 0 01-.004.019l-4.968 9.15a.036.036 0 000 .04l5.344 9.523a.043.043 0 01.005.02.044.044 0 01-.005.02.04.04 0 01-.013.014.036.036 0 01-.018.005h-5.429a.035.035 0 01-.018-.005.042.042 0 01-.014-.014l-4.058-7.174a.035.035 0 00-.014-.014.033.033 0 00-.018-.005h-1.862a.036.036 0 00-.026.011.04.04 0 00-.011.028zM193.015 56.4h-4.979a.037.037 0 01-.028-.012.042.042 0 01-.012-.03v-4.722l.003-.016a.039.039 0 01.009-.014.032.032 0 01.013-.009.037.037 0 01.015-.003h14.923a.038.038 0 01.037.026c.002.005.003.01.003.016l.002 4.722a.046.046 0 01-.012.03.04.04 0 01-.028.013h-4.985a.037.037 0 00-.028.012.042.042 0 00-.012.03v13.931a.045.045 0 01-.003.017.043.043 0 01-.022.023.039.039 0 01-.015.003h-4.801a.039.039 0 01-.028-.013.04.04 0 01-.009-.013.045.045 0 01-.003-.017v-13.93a.045.045 0 00-.011-.03.04.04 0 00-.029-.013z"/></g></svg>