<?xml version="1.0" encoding="utf-8"?><svg width="226" height="120" fill="none" xmlns="http://www.w3.org/2000/svg" viewBox="0 0 226 120"><g fill="#F1521B"><path d="M168.999 41h29.382c2.705.245 4.291 1.898 4.618 4.572v4.498c-.144.677-.55 1.099-1.219 1.264-.382.095-.551.086-.899-.036-.458-.16-.791-.463-.957-.925-.084-.23-.121-.618-.12-.86.001-1.18.001-2.359-.001-3.538-.001-.305-.029-.545-.085-.72-.178-.562-.543-.927-1.094-1.096-.196-.06-.498-.09-.907-.09h-28.409c-.591 0-1.187.216-1.522.726-.261.398-.313.747-.313 1.263v15.498c0 .497.032.846.098 1.047.453 1.396 2.024 1.221 3.158 1.202a.037.037 0 00.019-.006.034.034 0 00.013-.015.033.033 0 00.004-.019.032.032 0 00-.007-.019c-.107-.153-.016-.312-.007-.442.084-1.169.664-2.184 1.647-2.812.924-.59 1.956-.709 3.097-.358.565.174 1.044.479 1.522.808.008.006.018.01.029.01a.057.057 0 00.051-.028.051.051 0 00.007-.03 8.208 8.208 0 01-.007-.297l-.01-9.427c-.001-1.445.75-2.632 2.06-3.23.688-.313 1.521-.336 2.275-.183 1.212.245 2.197 1.293 2.504 2.458.147.554.134 1.2.133 1.825a778.608 778.608 0 01-.01 3.43c0 .006.001.012.004.018a.047.047 0 00.01.015c.005.005.01.008.016.01a.046.046 0 00.018.003 3.69 3.69 0 012.184.639c.092.062.275.21.551.446a.255.255 0 00.241.06 3.53 3.53 0 013.101.643c.077.062.237.22.48.472.068.071.112.162.172.245a.064.064 0 00.051.03c.141.01.238.009.292-.005.275-.066.538-.08.79-.04.227.036.442.054.636.113 1.561.47 2.544 1.695 2.583 3.333.018.765.019 1.533.003 2.305 0 .007.002.014.004.02a.041.041 0 00.011.016c.004.005.01.009.016.011a.05.05 0 00.019.004c.792.002 1.589 0 2.391-.004.753-.005 1.395-.122 1.868-.748.183-.243.314-.65.314-.953l.001-3.79c0-.182.034-.357.057-.537.084-.636.468-1.091 1.086-1.26.214-.059.634-.08.821-.033.711.178 1.122.633 1.23 1.366v4.385c-.126 1.051-.447 2.058-1.107 2.897-1.062 1.352-2.736 1.72-4.351 1.716-.77-.002-1.533-.002-2.287 0-.048 0-.072.025-.071.073.044 1.945-.092 3.933-.683 5.76-.344 1.063-.805 2.26-1.2 3.417-.174.508-.306.85-.398 1.026-.657 1.264-1.707 1.961-3.15 2.091h-6.146c-1.292-.083-2.35-.612-3.172-1.586-.21-.25-.415-.504-.614-.763a4678.07 4678.07 0 01-7.558-9.872.325.325 0 00-.264-.142c-1.385.003-2.289-.001-2.713-.011a7.356 7.356 0 01-1.054-.112c-2.141-.37-3.554-1.888-3.865-4.03-.038-.256-.056-.677-.055-1.263V46.236c0-.55.024-.97.074-1.261a4.87 4.87 0 01.589-1.666c.876-1.492 2.328-2.198 4.025-2.309zm21.982 21.303c-.172.949-1.271 1.348-1.949.67a1.228 1.228 0 01-.363-.904 151.95 151.95 0 00-.012-2.135c-.005-.373-.28-.543-.607-.607-.084-.016-.192.005-.325.062-.294.127-.441.34-.442.639-.001.485-.005.97-.013 1.455-.015.952-.958 1.404-1.762.944-.436-.249-.508-.605-.508-1.118l-.001-2.04c0-.238-.027-.413-.079-.525-.236-.5-.902-.59-1.226-.112-.107.16-.152.502-.151.669.005.725.007 1.451.005 2.178-.001.41-.137.707-.456.936a1.144 1.144 0 01-.747.198c-.492-.025-.825-.271-.999-.739a1.679 1.679 0 01-.08-.57l.001-10.147c0-.174-.028-.307-.083-.4-.135-.227-.366-.327-.693-.298-.44.039-.616.275-.616.703v13.279c0 .304-.029.532-.087.685-.172.452-.687.846-1.208.742-.504-.1-.758-.397-1.123-.733l-2.038-1.87c-.377-.347-.858-.663-1.395-.482-.35.118-.588.592-.531.938.037.217.117.415.241.596.094.137.318.437.672.898 2.597 3.389 5.192 6.778 7.787 10.17.309.403.784.968 1.288 1.004.272.02.54.074.803.074 1.593 0 3.189-.018 4.782.004.767.011 1.167-.086 1.439-.827.362-.99.72-1.983 1.073-2.976.525-1.48.824-2.848.824-4.384v-6.67c0-.377-.141-.632-.423-.765-.432-.204-.97.128-.969.614.001.277.018.58-.029.844zM23 57.228v-7.471c.063-.493.217-.958.463-1.394.637-1.13 1.844-1.699 3.112-1.699h9.332c.29 0 .604.047.94.14 1.139.316 1.963 1.13 2.23 2.287.117.512.092 1.171.088 1.765a1.81 1.81 0 01-.09.615c-.16.425-.461.717-.903.876-.25.09-.525.085-.794.074-.587-.026-1.068-.572-1.227-1.072-.126-.398-.095-.949-.084-1.402a.24.24 0 00-.24-.246h-9.222c-.309 0-.473.106-.471.426.01 1.457.009 3.646-.002 6.568 0 .135.035.237.098.346.025.041.06.062.107.062h9.522c.132 0 .199-.067.2-.199.012-.828-.085-1.568.57-2.148.816-.722 2.203-.35 2.486.742.032.124.048.31.049.557 0 .479.033 1.029-.037 1.457-.208 1.276-1.173 2.325-2.468 2.57-.2.039-.535.058-1.003.058h-9.09c-.494 0-.865-.03-1.113-.09-1.406-.335-2.242-1.417-2.453-2.822zM44.322 55.337c.01 0 .02-.004.034-.01.01-.003.02-.01.028-.02.162-.168.37-.327.515-.45 2.788-2.373 5.577-4.743 8.367-7.112.53-.45 1.007-.984 1.732-1.071.76-.092 1.578.475 1.702 1.252.025.157.053.306.053.466.002 3.26.002 6.52 0 9.779 0 .423-.032.729-.095.918-.474 1.44-2.634 1.418-3.017-.106-.034-.133-.05-.345-.05-.637v-6.78a.041.041 0 00-.022-.037.042.042 0 00-.043.002c-.265.176-.472.401-.712.604-3.02 2.551-6.04 5.104-9.057 7.659a1.384 1.384 0 01-.731.342c-.305.037-.718.004-.994-.15-.344-.19-.652-.498-.78-.879-.042-.12-.062-.31-.062-.57V48.34c0-.283.028-.502.085-.656a1.49 1.49 0 01.675-.796c.844-.489 1.96-.117 2.263.834.053.165.079.43.079.798 0 2.26 0 4.523-.002 6.789 0 .004 0 .008.002.011a.028.028 0 00.018.016.028.028 0 00.012.001zM64.205 49.704a530.663 530.663 0 00-4.242-.002c-.369.002-.638-.027-.808-.087-.427-.151-.984-.656-.946-1.18a.372.372 0 00-.043-.143.094.094 0 01-.005-.06c.07-.313.063-.565.27-.856.346-.484.82-.725 1.423-.724 3.817.009 7.633.013 11.45.012.405 0 .699.031.88.093.478.164.863.556.999 1.059.043.161.097.301.076.47-.085.674-.43 1.12-1.037 1.337a1.654 1.654 0 01-.548.078h-4.243a.05.05 0 00-.034.014.046.046 0 00-.01.016.046.046 0 00-.004.018v8.592c0 .335-.026.582-.077.743-.447 1.406-2.496 1.424-3.004.041a1.814 1.814 0 01-.081-.606V49.72a.016.016 0 00-.005-.01.016.016 0 00-.011-.006zM86.915 51.532a.021.021 0 00-.015-.013.02.02 0 00-.01 0 15513.104 15513.104 0 00-9.561 8.108c-.332.282-.663.503-1.103.513-.338.008-.541.02-.809-.124a1.638 1.638 0 01-.8-.91c-.056-.153-.084-.365-.084-.634V48.087c0-.097.034-.234.101-.414.2-.533.674-.885 1.224-.983.38-.067.909.067 1.215.315.473.384.609.876.611 1.493.01 2.246.015 4.49.016 6.73a.037.037 0 00.02.034.039.039 0 00.04-.003c.26-.188.518-.422.733-.604 4.204-3.568 6.958-5.907 8.261-7.017.386-.329.784-.721 1.218-.876.574-.205 1.11-.101 1.606.31.212.176.36.397.445.665.05.158.075.415.075.771v9.946c0 .269-.026.482-.08.64-.173.504-.522.837-1.05.998-.224.069-.638.082-.87.01-.8-.25-1.164-.851-1.164-1.669.001-2.273 0-4.546-.004-6.82a.226.226 0 00-.015-.081zM99.267 51.22a.036.036 0 00-.023.001.037.037 0 00-.018.015 44556.16 44556.16 0 00-4.74 7.901c-.172.287-.322.487-.45.6-.659.575-1.686.58-2.25-.137a1.442 1.442 0 01-.282-1.29c.041-.17.145-.39.31-.659.497-.805 1.01-1.704 1.452-2.439 1.45-2.416 2.901-4.832 4.35-7.249.097-.161.248-.483.42-.683.5-.58 1.113-.75 1.837-.51.304.1.549.304.735.61 2.004 3.305 4.004 6.613 6 9.924.27.448.428.774.474.978.132.591-.089 1.252-.601 1.604-.746.513-1.805.268-2.289-.54-1.597-2.669-3.189-5.34-4.784-8.011a.247.247 0 00-.14-.115zM111.408 55.266a.248.248 0 00.105-.06c3.121-2.665 6.263-5.304 9.374-7.98.776-.667 1.732-.822 2.486.012.349.385.384.761.384 1.325l.001 10.105c0 .708-.591 1.319-1.239 1.445-.802.156-1.576-.225-1.841-1.017-.056-.17-.085-.417-.086-.74V51.57a.038.038 0 00-.018-.032.038.038 0 00-.018-.005.038.038 0 00-.018.004 1.126 1.126 0 00-.211.145 57707.75 57707.75 0 01-9.382 7.982 2.216 2.216 0 01-.734.425c-.37.125-.944.08-1.291-.155a1.634 1.634 0 01-.645-.81c-.056-.153-.083-.365-.083-.637V48.482c0-.281.018-.497.053-.646.214-.901 1.17-1.368 2.026-1.078.443.15.921.593.999 1.092.061.393.091.788.09 1.186-.004 2.055-.005 4.117-.005 6.185 0 .036.017.051.053.045zM138.371 51.919c.002-1.203.002-2.416.001-3.641-.001-1.077 1.073-1.882 2.095-1.517.539.193.968.699 1.038 1.28.069.58.035 1.485.035 2.018 0 2.807-.002 5.614-.006 8.421-.001.779-.434 1.466-1.209 1.636-.816.18-1.614-.263-1.868-1.035-.058-.175-.087-.43-.087-.767l.002-3.328a.033.033 0 00-.032-.033h-9.03c-.032 0-.048.017-.048.05 0 1.245-.005 2.49-.014 3.73-.004.664-.545 1.186-1.12 1.36-.568.171-1.229-.026-1.622-.44-.343-.364-.407-.78-.408-1.317v-9.77c0-.37.03-.643.091-.82a1.615 1.615 0 011.171-1.04c.915-.197 1.877.521 1.885 1.478.012 1.25.017 2.5.017 3.749a.048.048 0 00.048.048l9-.001c.041 0 .061-.02.061-.061zM145.564 46.68h-.076c-.852 0-1.543.69-1.543 1.543v10.375c0 .852.691 1.543 1.543 1.543h.076c.853 0 1.543-.691 1.543-1.543V48.223c0-.852-.69-1.543-1.543-1.543zM152.314 53.468c2.014 1.298 4.029 2.605 6.047 3.921 1.021.667.869 2.37-.383 2.723-.095.026-.38.08-.491.058a2.161 2.161 0 00-.314-.038c-.242-.012-.685-.31-.919-.461a5265.307 5265.307 0 00-7.574-4.907c-.348-.225-.685-.645-.693-1.063-.009-.505-.013-.865.298-1.273.147-.194.38-.324.591-.461 2.368-1.542 4.746-3.069 7.113-4.612.563-.368 1.228-.846 1.981-.628.442.128.76.41.956.848.057.128.138.507.111.657-.103.567-.189.92-.691 1.246a8498.914 8498.914 0 01-5.055 3.28c-.321.209-.647.425-.978.65a.04.04 0 00-.012.013.05.05 0 00-.004.017c0 .006.002.012.005.017.003.006.007.01.012.013z"/></g></svg>