<?xml version="1.0" encoding="utf-8"?><svg width="226" height="120" fill="none" xmlns="http://www.w3.org/2000/svg" viewBox="0 0 226 120"><g fill="#959BAD"><path d="M51.443 61.984c.055 2.715 1.92 4.484 4.47 4.233 1.573-.155 2.535-1.037 2.888-2.645.01-.043.035-.065.076-.065h4.74a.033.033 0 01.024.012.037.037 0 01.01.027c-.16 5.73-5.493 8.07-10.127 7.127-5.648-1.15-7.919-7.327-6.54-12.77 1.005-3.961 4.042-6.513 7.887-6.75 3.608-.221 6.98 1.328 8.203 5.194.572 1.808.6 3.637.456 5.52-.003.032-.02.048-.05.048H51.506c-.042 0-.063.023-.063.07zm3.682-6.477c-1.7.138-2.844 1.045-3.43 2.722a.044.044 0 00.004.039.04.04 0 00.014.014.037.037 0 00.018.005h7.12c.046 0 .065-.024.057-.07-.329-2.107-1.946-2.86-3.783-2.71zM88.208 67.724c-.102.199-.208.395-.316.59-.908 1.648-2.373 2.33-4.162 2.502-3.186.305-6.054-1.438-6.348-5.078-.294-3.634 2.32-5.23 5.133-6.073 1.493-.447 2.988-.889 4.484-1.324.547-.16 1.143-.331 1.178-1.06.101-2.066-3.336-1.971-4.356-1.196-.722.548-.97 1.416-.977 2.324 0 .04-.018.06-.056.06h-4.953c-.029 0-.044-.016-.045-.047-.206-5.996 4.977-7.765 9.57-7.18 3.669.47 5.618 2.934 5.576 6.869-.043 4.08 0 8.168-.004 12.25 0 .04-.02.062-.06.062H88.31a.05.05 0 01-.037-.016.055.055 0 01-.015-.039l.002-2.63c0-.074-.017-.078-.05-.014zm-4.063-1.229c2.428-.102 4.209-2.059 4.077-4.64-.003-.044-.023-.06-.062-.048-1.443.429-2.885.862-4.325 1.3-.78.239-1.52.66-1.587 1.63-.088 1.277.837 1.803 1.897 1.758zM129.408 67.71a.03.03 0 00-.007-.02.027.027 0 00-.017-.012.027.027 0 00-.02.003.03.03 0 00-.014.016c-.989 2.444-3.252 3.314-5.64 3.128-3.108-.242-5.352-2.42-5.203-5.882.166-3.897 3.81-4.897 6.66-5.734 1.044-.305 2.088-.612 3.132-.919.472-.139 1-.356 1.025-.969.082-1.986-2.821-1.963-3.938-1.476-1.025.449-1.347 1.424-1.395 2.56-.003.042-.023.062-.06.062h-4.933c-.042 0-.064-.022-.065-.067-.15-4.178 2.515-6.647 6.175-7.144 4.593-.626 8.981.89 8.98 6.706l-.004 12.386c0 .048-.023.073-.068.073h-4.545c-.04 0-.06-.021-.06-.063l-.003-2.648zm-4.663-4.48c-.961.306-1.47.9-1.305 2.013.281 1.896 3.044 1.223 4.009.614 1.33-.84 1.977-2.286 1.934-3.982-.001-.043-.021-.059-.061-.047-1.531.453-3.056.92-4.577 1.403zM141.249 67.772v7.72c0 .045-.021.067-.062.067h-4.754c-.042 0-.064-.022-.064-.068V51.656c0-.046.022-.069.064-.069l4.754.002c.041 0 .062.022.062.066v2.63c0 .109.018.113.055.01.72-2.014 2.56-3.122 4.57-3.175 4.646-.124 6.607 4.161 6.86 8.435.138 2.304 0 4.617-.746 6.758-1.062 3.043-3.477 4.798-6.582 4.493-1.951-.19-3.328-1.204-4.132-3.04-.017-.038-.025-.036-.025.006zm-.018-7.94c-.234 2.163.045 5.444 2.485 6.077 1.99.515 3.648-.441 4.098-2.615.367-1.777.38-4.317-.545-5.922-.475-.823-1.19-1.28-2.144-1.372-1.754-.169-2.936.598-3.544 2.3a6.728 6.728 0 00-.35 1.533zM174.936 61.976c.044 1.96 1.104 3.704 2.972 4.13 1.966.449 3.952-.273 4.375-2.534.008-.044.033-.066.075-.066h4.74c.03 0 .045.017.045.049-.111 5.236-4.597 7.59-8.938 7.289-6.02-.417-8.957-6.303-7.899-12.143.74-4.082 3.574-7.044 7.508-7.497 2.103-.241 4.408.104 6.179 1.42 2.885 2.145 3.309 5.786 3.032 9.255-.001.023-.014.035-.037.035h-11.995c-.039 0-.058.02-.057.062zm5.205-6.366c-2.105-.506-4.255.378-4.946 2.644-.001.004-.002.008-.001.012a.034.034 0 00.004.01.025.025 0 00.008.007.026.026 0 00.011.003h7.148a.056.056 0 00.046-.024.061.061 0 00.012-.025.092.092 0 00.001-.029c-.294-1.438-1.055-2.304-2.283-2.598zM34.692 63.027l3.312-11.37a.103.103 0 01.035-.051.093.093 0 01.057-.02h5.176c.041 0 .065.022.072.066l2.793 18.716a.044.044 0 01-.023.046.038.038 0 01-.017.003h-4.45c-.037 0-.058-.019-.063-.056l-1.61-11.689c-.016-.124-.042-.126-.077-.006L36.55 70.342c-.014.05-.045.075-.095.075h-3.721c-.032 0-.053-.016-.063-.05l-3.237-11.48c-.035-.127-.063-.125-.082.007l-1.674 11.484a.045.045 0 01-.015.028.043.043 0 01-.028.011h-4.412c-.004 0-.007 0-.01-.002a.024.024 0 01-.007-.006.028.028 0 01-.005-.02L26 51.609c.002-.015.01-.023.026-.023h5.307c.016 0 .031.006.044.016a.08.08 0 01.027.04l3.227 11.385c.02.07.04.07.06 0zM70.409 56.442v13.934c0 .01-.004.021-.012.029a.038.038 0 01-.027.012h-4.802a.038.038 0 01-.027-.012.042.042 0 01-.012-.03v-18.74l.003-.016a.044.044 0 01.009-.013.037.037 0 01.027-.012h11.256c.005 0 .01 0 .015.003a.04.04 0 01.021.022c.002.005.003.01.003.016v4.725c0 .005 0 .01-.003.015a.04.04 0 01-.021.022.037.037 0 01-.015.004h-6.376c-.01 0-.02.004-.028.012a.042.042 0 00-.011.03zM105.871 63.027c.02.07.04.07.06 0l3.319-11.393c.01-.032.03-.048.061-.048h5.232c.009 0 .017.003.023.009a.04.04 0 01.013.023l2.799 18.773v.01a.027.027 0 01-.005.009l-.006.005a.02.02 0 01-.009.002h-4.476c-.034 0-.054-.017-.059-.053l-1.617-11.753c-.012-.083-.029-.084-.052-.003l-3.377 11.773a.048.048 0 01-.018.026.044.044 0 01-.028.01h-3.748a.074.074 0 01-.047-.016.084.084 0 01-.029-.044l-3.255-11.542c-.022-.08-.039-.078-.051.003l-1.684 11.544c-.005.037-.026.055-.061.055h-4.37a.042.042 0 01-.02-.004.046.046 0 01-.023-.03.052.052 0 01-.001-.02l2.795-18.735c.004-.028.019-.042.045-.042h5.31c.024 0 .04.013.048.039l3.231 11.402z"/><path d="M159.469 63.244v7.134l-.003.015a.052.052 0 01-.008.013.055.055 0 01-.012.008.033.033 0 01-.014.003h-4.808a.041.041 0 01-.014-.003.035.035 0 01-.011-.008.033.033 0 01-.008-.013.038.038 0 01-.003-.015V51.625l.003-.015a.033.033 0 01.008-.013.034.034 0 01.011-.008.04.04 0 01.014-.003h4.808c.005 0 .01 0 .014.003a.055.055 0 01.012.008.052.052 0 01.008.013l.003.015v6.918c0 .01.003.02.01.027a.036.036 0 00.026.012h1.894a.036.036 0 00.019-.006.041.041 0 00.013-.014l3.776-6.956a.035.035 0 01.014-.015.033.033 0 01.018-.005l5.303.001a.04.04 0 01.018.006.04.04 0 01.018.033.042.042 0 01-.005.019l-4.968 9.15a.035.035 0 00-.005.02c0 .007.001.014.005.02l5.344 9.523a.043.043 0 01.005.02.044.044 0 01-.005.02.033.033 0 01-.013.014.033.033 0 01-.018.005h-5.428a.036.036 0 01-.019-.005.053.053 0 01-.014-.014l-4.058-7.174a.035.035 0 00-.014-.014.033.033 0 00-.018-.005h-1.862a.036.036 0 00-.026.011.039.039 0 00-.01.028zM193.215 56.4h-4.98a.038.038 0 01-.028-.012.046.046 0 01-.012-.03v-4.722l.003-.016a.039.039 0 01.009-.014.04.04 0 01.013-.009.037.037 0 01.015-.003h14.924c.005 0 .01 0 .015.003a.04.04 0 01.013.01.039.039 0 01.009.013c.002.005.003.01.003.016l.001 4.722a.042.042 0 01-.012.03.038.038 0 01-.028.013h-4.985a.037.037 0 00-.028.012.042.042 0 00-.012.03v13.931a.045.045 0 01-.003.017.04.04 0 01-.009.013.034.034 0 01-.013.01.035.035 0 01-.015.003h-4.801a.039.039 0 01-.028-.013.04.04 0 01-.009-.013.045.045 0 01-.003-.017v-13.93a.045.045 0 00-.011-.03.04.04 0 00-.028-.013z"/></g></svg>