<?xml version="1.0" encoding="utf-8"?><svg width="226" height="120" fill="none" xmlns="http://www.w3.org/2000/svg" viewBox="0 0 226 120"><path d="M66.495 63.433a9.52 9.52 0 01-9.503 9.536l-1.442.003a9.52 9.52 0 01-9.536-9.503L46 55.539a9.52 9.52 0 019.503-9.536L56.945 46a9.52 9.52 0 019.536 9.503l.014 7.93zm-6.786-8.203a3.295 3.295 0 00-3.312-3.277l-.35.001a3.294 3.294 0 00-3.278 3.312l.044 8.513a3.293 3.293 0 003.312 3.277l.351-.002a3.295 3.295 0 003.278-3.312l-.045-8.512zM77.49 66.949l10.458.05a.434.434 0 01.43.435l-.023 4.982a.435.435 0 01-.439.434l-17.066-.005a.434.434 0 01-.434-.434l-.005-25.818a.435.435 0 01.44-.435l5.78.028a.433.433 0 01.435.439l-.01 19.89a.434.434 0 00.435.434zM91.188 46.755a.486.486 0 01.485-.49l10.162-.032c2.519-.01 4.939.937 6.727 2.631 1.788 1.695 2.797 3.998 2.807 6.403l.027 8.466a8.7 8.7 0 01-.71 3.475 9.052 9.052 0 01-2.048 2.951 9.552 9.552 0 01-3.076 1.978c-1.152.46-2.386.7-3.634.704l-10.162.032a.485.485 0 01-.486-.48l-.092-25.638zm6.867 5.873l-.028 13.845a.49.49 0 00.49.49l2.546.005c.466 0 .928-.092 1.359-.275.43-.182.822-.45 1.152-.787.33-.338.592-.74.771-1.181.179-.442.271-.916.272-1.394l.009-7.542a3.688 3.688 0 00-1.033-2.575 3.498 3.498 0 00-2.502-1.071l-2.546-.005a.49.49 0 00-.49.49zM121.581 46.242h-6.053a.337.337 0 00-.338.338v25.924c0 .186.151.337.338.337h6.053a.337.337 0 00.338-.337V46.58a.337.337 0 00-.338-.337z" fill="#2C6BB0"/><path d="M153.301 62.203l5.374 10.222a.303.303 0 01-.012.304.314.314 0 01-.27.149l-6.594-.055a1.216 1.216 0 01-1.109-.735 120.253 120.253 0 00-4.067-8.462c-.346-.651-.928-.868-1.663-.813-.499.037-.747.305-.744.804l.055 8.873a.346.346 0 01-.346.346l-6.003.005c-.284 0-.425-.143-.425-.43l.037-25.915a.227.227 0 01.221-.227c3.827-.052 7.608-.038 11.345.042 1.396.028 2.852.457 4.367 1.29 2.681 1.469 4.219 4.907 3.933 7.878-.194 2.006-1.326 4.372-3.129 5.532-.339.218-.645.479-.919.78-.114.127-.131.264-.051.412zm-9.076-9.524l.028 4.353a.472.472 0 00.145.342.484.484 0 00.345.139l3.073-.019c.387-.003.77-.071 1.127-.201s.681-.319.953-.556c.272-.238.487-.519.633-.827.146-.309.219-.639.216-.971v-.26c-.005-.67-.321-1.312-.877-1.782-.556-.471-1.308-.732-2.089-.727l-3.073.019a.49.49 0 00-.446.304.475.475 0 00-.035.186zM170.145 67.075c3.203.407 4.349-1.553 4.33-4.279-.034-5.185-.041-10.562-.023-16.132a.38.38 0 01.379-.38l5.495-.046c.431-.006.646.207.646.638.013 5.74.022 11.188.028 16.345.006 4.483-1.947 7.486-5.859 9.011-5.195 2.03-12.293.12-14.003-5.665-.363-1.226-.531-3.055-.503-5.485.055-4.939.06-9.73.014-14.372a.449.449 0 01.453-.458l5.707-.009a.498.498 0 01.503.5c.034 5.366.028 10.634-.018 15.803-.019 2.085.457 4.224 2.851 4.53zM132.187 67.05h-4.982a.467.467 0 00-.467.468v4.852c0 .257.209.466.467.466h4.982a.467.467 0 00.466-.466v-4.853a.467.467 0 00-.466-.466z" fill="#E17639"/></svg>