<?xml version="1.0" encoding="utf-8"?><svg width="226" height="120" fill="none" xmlns="http://www.w3.org/2000/svg" viewBox="0 0 226 120"><g clip-path="url(#alclip0_533_26888)"><path d="M79.5 28H73v50.81h6.5V28zM98.054 28h-6.5v50.81h6.5V28zM110.462 28h-6.499v50.81h6.499V28zM128.186 28h-6.5v50.81h6.5V28zM140.593 28h-6.499v50.81h6.499V28zM153.001 28h-6.499v50.81h6.499V28z" fill="#959BAD"/><mask id="ala" style="mask-type:luminance" maskUnits="userSpaceOnUse" x="73" y="28" width="81" height="65"><path d="M153.001 28H73v64.829h80.001V28z" fill="#fff"/></mask><g mask="url(#ala)"><path d="M73 84.617h1.813l.797 3.234c.17.674.29 1.375.435 2.184h.027c.118-.767.266-1.497.424-2.184l.769-3.234h2.382l.783 3.234c.158.66.29 1.362.436 2.184h.027c.159-.834.278-1.509.435-2.184l.784-3.234h1.707l-1.707 6.57h-2.465l-.806-3.23c-.16-.69-.278-1.404-.425-2.189h-.013a28.318 28.318 0 01-.396 2.174l-.811 3.244h-2.42L73 84.617z" fill="#959BAD"/></g><mask id="alb" style="mask-type:luminance" maskUnits="userSpaceOnUse" x="73" y="28" width="81" height="65"><path d="M153.001 28H73v64.829h80.001V28z" fill="#fff"/></mask><g mask="url(#alb)"><path d="M85.98 84.617h1.813l.799 3.234c.169.674.288 1.375.435 2.184h.026c.12-.767.266-1.497.424-2.184l.768-3.234h2.382l.784 3.234c.158.66.291 1.362.437 2.184h.027c.158-.834.278-1.509.435-2.184l.783-3.234h1.708l-1.708 6.57h-2.466l-.804-3.23c-.161-.69-.28-1.403-.427-2.188h-.013a28.393 28.393 0 01-.395 2.174l-.81 3.244h-2.42l-1.777-6.57z" fill="#959BAD"/></g><mask id="alc" style="mask-type:luminance" maskUnits="userSpaceOnUse" x="73" y="28" width="81" height="65"><path d="M153.001 28H73v64.829h80.001V28z" fill="#fff"/></mask><g mask="url(#alc)"><path d="M98.965 84.617h1.814l.797 3.234c.169.674.289 1.375.435 2.184h.026c.119-.767.266-1.497.424-2.184l.77-3.234h2.381l.783 3.234c.158.66.292 1.362.437 2.184h.026c.16-.834.279-1.509.435-2.184l.784-3.234h1.708l-1.708 6.57h-2.465l-.805-3.23c-.161-.69-.279-1.403-.427-2.188h-.014a28.079 28.079 0 01-.393 2.174l-.812 3.244h-2.42l-1.776-6.57z" fill="#959BAD"/></g><mask id="ald" style="mask-type:luminance" maskUnits="userSpaceOnUse" x="73" y="28" width="81" height="65"><path d="M153.001 28H73v64.829h80.001V28z" fill="#fff"/></mask><g mask="url(#ald)"><path d="M111.563 91.291c-.794 0-1.006-.211-1.006-.966 0-.756.212-.981 1.006-.981.811 0 1.021.225 1.021.98 0 .756-.21.967-1.021.967z" fill="#959BAD"/></g><mask id="ale" style="mask-type:luminance" maskUnits="userSpaceOnUse" x="73" y="28" width="81" height="65"><path d="M153.001 28H73v64.829h80.001V28z" fill="#fff"/></mask><g mask="url(#ale)"><path d="M114.775 89.808h2.027v-4.053l-1.669.638-.399-1.1 2.413-1.191h1.338v5.706h1.694v1.377h-5.404v-1.377z" fill="#959BAD"/></g><mask id="alf" style="mask-type:luminance" maskUnits="userSpaceOnUse" x="73" y="28" width="81" height="65"><path d="M153.001 28H73v64.829h80.001V28z" fill="#fff"/></mask><g mask="url(#alf)"><path d="M122.24 89.967l2.094-1.854c1.034-.9 1.539-1.429 1.539-1.986 0-.558-.4-.836-1.273-.836-.688 0-1.366.12-1.989.306l-.199-1.31a9.341 9.341 0 012.584-.346c1.882 0 2.706.718 2.706 1.882s-.68 1.869-1.883 2.81l-1.286 1.083h3.242v1.471h-5.535v-1.22z" fill="#959BAD"/></g><mask id="alg" style="mask-type:luminance" maskUnits="userSpaceOnUse" x="73" y="28" width="81" height="65"><path d="M153.001 28H73v64.829h80.001V28z" fill="#fff"/></mask><g mask="url(#alg)"><path d="M129.928 91.267c.61.131 1.269.213 1.945.213 1.191 0 1.841-.531 1.841-1.364 0-.874-.437-1.26-2.768-1.26v-1.3c2.013 0 2.585-.7 2.585-1.335 0-.662-.506-.927-1.458-.927-.621 0-1.247.11-1.842.277l-.199-1.31a10.17 10.17 0 012.507-.316c1.81 0 2.714.66 2.714 1.85 0 1.128-.597 1.854-1.539 2.267.994.186 1.736.807 1.736 1.945 0 1.63-1.087 2.822-3.454 2.822-.852 0-1.604-.077-2.24-.223l.172-1.34z" fill="#959BAD"/></g><mask id="alh" style="mask-type:luminance" maskUnits="userSpaceOnUse" x="73" y="28" width="81" height="65"><path d="M153.001 28H73v64.829h80.001V28z" fill="#fff"/></mask><g mask="url(#alh)"><path d="M138.462 91.291c-.794 0-1.007-.211-1.007-.966 0-.756.213-.981 1.007-.981.808 0 1.018.225 1.018.98.002.756-.21.967-1.018.967z" fill="#959BAD"/></g><mask id="ali" style="mask-type:luminance" maskUnits="userSpaceOnUse" x="73" y="28" width="81" height="65"><path d="M153.001 28H73v64.829h80.001V28z" fill="#fff"/></mask><g mask="url(#ali)"><path d="M141.697 84.617h1.447l.102.69c.583-.475 1.127-.889 1.695-.889.239 0 .398.042.558.135l-.213 1.548a1.21 1.21 0 00-.557-.118c-.343 0-.742.198-1.272.525v4.677h-1.759l-.001-6.569z" fill="#959BAD"/></g><mask id="alj" style="mask-type:luminance" maskUnits="userSpaceOnUse" x="73" y="28" width="81" height="65"><path d="M153.001 28H73v64.829h80.001V28z" fill="#fff"/></mask><g mask="url(#alj)"><path d="M148.737 84.617v4.176c0 .858.262 1.095.831 1.095.439 0 .914-.198 1.523-.608v-4.663h1.763v6.57h-1.456l-.095-.663c-.792.49-1.498.781-2.342.781-1.376 0-1.988-.648-1.988-2.159v-4.529h1.764z" fill="#959BAD"/></g></g><defs><clipPath id="alclip0_533_26888"><path fill="#fff" transform="translate(73 28)" d="M0 0h80v64.829H0z"/></clipPath></defs></svg>