<?xml version="1.0" encoding="utf-8"?><svg width="55" height="54" fill="none" xmlns="http://www.w3.org/2000/svg" viewBox="0 0 55 54"><g fill="#009482"><path d="M53.568 22.91h-1.856a5.658 5.658 0 01-5.24-3.507l-.039-.091a5.637 5.637 0 011.23-6.173l1.314-1.314a.76.76 0 000-1.077l-5.401-5.4a.76.76 0 00-1.077 0L41.185 6.66a5.626 5.626 0 01-6.172 1.23l-.077-.03a5.65 5.65 0 01-3.514-5.24V.763A.766.766 0 0030.658 0H23.02a.766.766 0 00-.763.764V2.62a5.653 5.653 0 01-3.515 5.24s-.076.031-.084.031a5.626 5.626 0 01-6.172-1.23l-1.314-1.314a.775.775 0 00-1.077 0L7.39 8.052a.76.76 0 000 1.077l9.45 9.45 18.906 18.906 9.45 9.45a.75.75 0 00.542.22c.199 0 .39-.076.542-.22l2.704-2.705a.756.756 0 00.222-.542.79.79 0 00-.222-.543l-1.314-1.314c-1.634-1.634-2.116-4.056-1.237-6.157l.038-.091a5.65 5.65 0 015.24-3.514h1.857c.42 0 .764-.344.764-.764v-7.64a.76.76 0 00-.764-.756zM18.474 18.05c4.943-4.385 12.536-4.21 17.272.527 4.736 4.736 4.904 12.322.527 17.272L18.474 18.05zm34.33 12.498h-1.092a7.172 7.172 0 00-6.654 4.46l.703.29-.734-.213a7.17 7.17 0 001.559 7.845l.771.772-1.62 1.62-8.402-8.404c4.973-5.545 4.813-14.094-.512-19.418-5.332-5.324-13.88-5.485-19.418-.512L9.002 8.586l1.62-1.62.77.772a7.161 7.161 0 007.83 1.566l.085-.038a7.172 7.172 0 004.461-6.653V1.52h6.111v1.093a7.163 7.163 0 004.446 6.645l.092.039a7.167 7.167 0 007.845-1.559l.772-.771 4.323 4.324-.771.771a7.164 7.164 0 00-1.559 7.845l.703-.29-.672.367a7.172 7.172 0 006.654 4.46h1.092v6.105zM32.645 40.287l-.459-.313c-.527-.366-1.1-.634-1.589-.848-1.902-.817-3.644-.542-5.05.802a45.832 45.832 0 00-1.901 1.979l-.313.336c-.558.603-1.184.825-1.964.695-1.084-.175-2.016-.764-2.872-1.375-1.474-1.054-2.887-2.368-4.583-4.255-1.009-1.123-2.025-2.368-2.636-3.827-.619-1.482-.42-2.406.703-3.3.71-.565 1.344-1.207 1.963-1.826l.069-.069c1.383-1.405 1.688-3.177.87-5.133-.64-1.543-1.634-2.826-2.596-4.072l-.176-.221a14.764 14.764 0 00-1.895-2.032c-1.428-1.283-3.147-1.276-4.59.03-.283.253-.55.512-.818.78-.245.244-.497.489-.756.718a12.06 12.06 0 00-2.842 3.812c-1.222 2.574-1.52 5.454-.886 8.555.473 2.323 1.467 4.645 3.025 7.105 1.68 2.65 3.781 5.164 6.615 7.898 2.804 2.705 5.37 4.63 8.098 6.058 2.154 1.13 4.201 1.803 6.264 2.055.359.046.725.076 1.084.115l.49.045h.122l1.91-.122a.649.649 0 00.167-.03l.122-.038c.031-.008.07-.023.1-.031 1.673-.275 3.285-.91 4.805-1.887 1.192-.771 2.131-1.764 3.048-2.735.198-.206.39-.412.588-.618 1.398-1.444 1.436-3.17.115-4.737-1.223-1.443-2.758-2.498-4.233-3.514zm3.025 7.196c-.199.207-.398.42-.604.627-.894.94-1.734 1.825-2.765 2.498-1.36.878-2.735 1.42-4.217 1.657-.114.016-.221.054-.328.084l-1.757.115-.444-.038c-.343-.03-.695-.061-1.038-.107-1.88-.237-3.759-.856-5.745-1.895-2.59-1.36-5.05-3.2-7.746-5.805-2.742-2.651-4.774-5.073-6.386-7.616-1.46-2.307-2.384-4.462-2.819-6.6-.573-2.812-.32-5.294.772-7.594a10.477 10.477 0 012.482-3.33c.275-.245.543-.505.802-.764.252-.245.505-.497.764-.733.436-.39.871-.581 1.299-.581.42 0 .84.183 1.253.558a14.123 14.123 0 011.703 1.825l.176.222c.94 1.214 1.833 2.368 2.39 3.72.582 1.398.406 2.506-.55 3.476l-.068.068c-.58.589-1.184 1.2-1.818 1.704-1.665 1.314-2.047 2.98-1.169 5.088.696 1.672 1.81 3.032 2.91 4.255 1.773 1.978 3.263 3.36 4.836 4.476 1.001.718 2.124 1.413 3.514 1.642 1.291.214 2.414-.175 3.33-1.16l.314-.337c.596-.642 1.207-1.306 1.841-1.917.947-.91 2.055-1.077 3.384-.504.42.183.91.404 1.33.695l.458.32c1.459 1.009 2.841 1.956 3.934 3.255.825.985.817 1.818-.038 2.696z"/></g></svg>