<?xml version="1.0" encoding="utf-8"?><svg width="24" height="24" fill="none" xmlns="http://www.w3.org/2000/svg" viewBox="0 0 24 24"><path d="M15.508 2.415h-7.02c-2.49 0-3.04 1.24-3.36 2.76l-1.13 5.41h16l-1.13-5.41c-.32-1.52-.87-2.76-3.36-2.76zM21.989 19.405c.11 1.17-.83 2.18-2.03 2.18h-1.88c-1.08 0-1.23-.46-1.42-1.03l-.2-.6c-.28-.82-.46-1.37-1.9-1.37h-5.12c-1.44 0-1.65.62-1.9 1.37l-.2.6c-.19.57-.34 1.03-1.42 1.03h-1.88c-1.2 0-2.14-1.01-2.03-2.18l.56-6.09c.14-1.5.43-2.73 3.05-2.73h12.76c2.62 0 2.91 1.23 3.05 2.73l.56 6.09zM3.998 7.585h-1M20.998 7.585h-1M11.998 2.585v2M10.498 4.585h3M5.998 14.585h3M14.998 14.585h3" stroke="#161616" stroke-width="1.5" stroke-linecap="round" stroke-linejoin="round"/></svg>