<?xml version="1.0" encoding="utf-8"?><svg width="16" height="16" fill="none" xmlns="http://www.w3.org/2000/svg" viewBox="0 0 16 16"><path d="M14.524 5.315V2.64c0-.83-.376-1.166-1.311-1.166h-2.377c-.935 0-1.312.336-1.312 1.166v2.668c0 .836.377 1.166 1.312 1.166h2.377c.935.006 1.311-.33 1.311-1.16zM14.524 13.213v-2.377c0-.935-.376-1.311-1.311-1.311h-2.377c-.935 0-1.312.376-1.312 1.311v2.377c0 .935.377 1.312 1.312 1.312h2.377c.935 0 1.311-.377 1.311-1.312zM6.475 5.315V2.64c0-.83-.377-1.166-1.312-1.166H2.786c-.935 0-1.311.336-1.311 1.166v2.668c0 .836.376 1.166 1.311 1.166h2.377c.935.006 1.312-.33 1.312-1.16zM6.475 13.163v-2.376c0-.936-.377-1.312-1.312-1.312H2.786c-.935 0-1.311.376-1.311 1.312v2.376c0 .935.376 1.312 1.311 1.312h2.377c.935 0 1.312-.377 1.312-1.312z"/></svg>