<?xml version="1.0" encoding="utf-8"?><svg width="46" height="46" fill="none" xmlns="http://www.w3.org/2000/svg" viewBox="0 0 46 46"><g fill="#009482" clip-path="url(#bjclip0_391_25288)"><path d="M23 0C10.315 0 0 10.315 0 23s10.315 23 23 23 23-10.315 23-23S35.685 0 23 0zm0 44.23C11.296 44.23 1.77 34.705 1.77 23S11.296 1.77 23 1.77c11.703 0 21.23 9.527 21.23 21.23 0 11.703-9.526 21.23-21.23 21.23z"/><path d="M22.558 26.087l-2.68-4.644H16.41l4.414 7.643h3.468l5.298-9.173-1.733-2.999-5.3 9.173z"/></g><defs><clipPath id="bjclip0_391_25288"><path fill="#fff" d="M0 0h46v46H0z"/></clipPath></defs></svg>