<?xml version="1.0" encoding="utf-8"?><svg width="20" height="21" fill="none" xmlns="http://www.w3.org/2000/svg" viewBox="0 0 20 21"><path d="M5.966 11.106a.857.857 0 111.212-1.213l1.966 1.966V1.357a.857.857 0 011.714 0V11.86l1.966-1.966a.857.857 0 011.213 1.213l-3.429 3.428a.855.855 0 01-1.211 0l-3.429-3.428h-.002zm13.177 1.965a.857.857 0 00-.857.858v3.428a1.43 1.43 0 01-1.429 1.429H3.143a1.43 1.43 0 01-1.429-1.429V13.93a.857.857 0 00-1.714 0v3.428A3.145 3.145 0 003.143 20.5h13.714A3.145 3.145 0 0020 17.357V13.93a.857.857 0 00-.857-.858z" fill="#7DAA30"/></svg>