<?xml version="1.0" encoding="utf-8"?><svg width="224" height="50" fill="none" xmlns="http://www.w3.org/2000/svg" viewBox="0 0 224 50"><g clip-path="url(#bqclip0_490_11562)"><path d="M62.931 15.328h17.686c1.123 0 2.06.133 2.8.405.738.272 1.322.646 1.752 1.133.43.487.733 1.07.912 1.753a9.4 9.4 0 01.264 2.303v1.196c0 .627-.045 1.19-.135 1.69a3.74 3.74 0 01-.488 1.329 3.05 3.05 0 01-1.002.974c-.43.272-.983.48-1.65.64v.05c.443.088.854.202 1.239.354.385.146.725.38 1.014.69.29.31.52.715.688 1.209.167.493.25 1.132.25 1.91v3.203h-5.863V31.9c0-.987-.173-1.67-.514-2.056-.34-.38-.97-.57-1.888-.57h-9.208v4.892h-5.863V15.328h.006zm5.857 9.258h9.69c.79 0 1.348-.158 1.676-.48.328-.324.488-.817.488-1.494v-.627c0-.835-.218-1.367-.648-1.613-.43-.24-1.112-.367-2.05-.367h-9.156v4.581zM98.776 15.328h7.629l10.506 18.832h-6.518l-1.824-3.328h-11.88l-1.714 3.328h-6.55l10.351-18.832zm.11 11.447h7.5l-3.801-7.074-3.7 7.074zM118.657 27.996h5.863c0 .506.052.899.161 1.184.103.284.263.506.475.651.212.146.475.24.789.272.316.038.688.051 1.111.051h7.18c.316 0 .623-.013.926-.038.3-.025.565-.095.802-.209.238-.114.424-.272.566-.48.14-.21.21-.494.21-.861 0-.418-.075-.735-.224-.962-.148-.228-.501-.399-1.054-.52-.551-.12-1.38-.195-2.479-.22a205.996 205.996 0 00-4.475-.039c-2.203 0-3.95-.075-5.253-.234-1.303-.158-2.292-.443-2.973-.86-.681-.418-1.111-.994-1.304-1.728-.192-.734-.288-1.683-.288-2.848 0-.847.05-1.645.16-2.379a3.457 3.457 0 01.911-1.91c.502-.539 1.273-.963 2.313-1.273 1.041-.31 2.478-.468 4.328-.468h8.182c1.687 0 3.023.133 4 .405.977.272 1.714.652 2.215 1.145.5.494.823 1.082.963 1.753.142.677.212 1.43.212 2.265v.602h-5.862c0-.348-.02-.64-.065-.886a1.036 1.036 0 00-.34-.601c-.186-.159-.469-.272-.861-.355-.385-.076-.918-.114-1.586-.114h-6.492c-.668 0-1.207.114-1.612.349-.404.234-.61.6-.61 1.107 0 .417.072.734.212.962.142.227.455.392.937.493.483.102 1.188.165 2.113.184.925.019 2.171.025 3.738.025 2.272 0 4.135.05 5.599.158 1.458.102 2.608.367 3.429.779.829.417 1.4 1.025 1.715 1.822.315.797.476 1.88.476 3.253 0 1.265-.136 2.284-.399 3.056a3.261 3.261 0 01-1.452 1.797c-.706.424-1.669.71-2.902.848-1.232.14-2.826.209-4.778.209h-7.101c-1.337 0-2.48-.076-3.417-.221-.945-.146-1.714-.405-2.312-.779a3.317 3.317 0 01-1.323-1.55c-.283-.658-.424-1.5-.424-2.525v-1.31zM146.379 15.328h5.863v6.923h2.748l7.391-6.923h7.975l-10.35 9.207 11.565 9.625h-8.29l-8.45-7.233h-2.589v7.233h-5.863V15.328zM182.232 15.328h7.628l10.506 18.832h-6.517l-1.824-3.328h-11.88l-1.714 3.328h-6.551l10.352-18.832zm.102 11.447h7.5l-3.8-7.074-3.7 7.074zM201.054 15.328h22.333v4.683h-8.238v14.15h-5.865V20.01h-8.237v-4.683h.007z" fill="#fff"/><path d="M24.402 44.255c-.43.244-.956.244-1.384 0l-11.626-6.678-5.082 2.92 14.16 8.139a6.49 6.49 0 006.473 0l14.303-8.216-5.082-2.92-11.762 6.755z" fill="url(#bqpaint0_linear_490_11562)"/><path d="M44.41 7.716L30.107-.5v5.84l11.755 6.756c.43.243.695.704.695 1.197v13.352l5.082 2.92V13.294a6.422 6.422 0 00-3.23-5.578z" fill="url(#bqpaint1_linear_490_11562)"/><path d="M17.54-.5L3.235 7.716A6.442 6.442 0 000 13.293v16.272l5.082-2.92V13.294c0-.494.266-.948.695-1.198L17.54 5.34V-.5z" fill="url(#bqpaint2_linear_490_11562)"/><path d="M14.861 17.27l5.953-3.42v-3.08l-5.953 3.08v3.42z" fill="url(#bqpaint3_linear_490_11562)"/><path d="M20.814 16.661l-5.953 3.08v3.42l5.953-3.42v-3.08z" fill="url(#bqpaint4_linear_490_11562)"/><path d="M14.861 28.77l5.953-3.419v-3.074l-5.953 3.074v3.42z" fill="url(#bqpaint5_linear_490_11562)"/><path d="M15.447 31.364l4.952 3.125 16.012-9.086v-6.378l-14.024-7.646v5.641l8.65 5.162-15.59 9.182z" fill="url(#bqpaint6_linear_490_11562)"/></g><defs><linearGradient id="bqpaint0_linear_490_11562" x1="26" y1="-.511" x2="26" y2="49.511" gradientUnits="userSpaceOnUse"><stop stop-color="#00D344"/><stop offset="1" stop-color="#009482"/></linearGradient><linearGradient id="bqpaint1_linear_490_11562" x1="26" y1="-.511" x2="26" y2="49.511" gradientUnits="userSpaceOnUse"><stop stop-color="#00D344"/><stop offset="1" stop-color="#009482"/></linearGradient><linearGradient id="bqpaint2_linear_490_11562" x1="26" y1="-.511" x2="26" y2="49.511" gradientUnits="userSpaceOnUse"><stop stop-color="#00D344"/><stop offset="1" stop-color="#009482"/></linearGradient><linearGradient id="bqpaint3_linear_490_11562" x1="26" y1="-.511" x2="26" y2="49.511" gradientUnits="userSpaceOnUse"><stop stop-color="#00D344"/><stop offset="1" stop-color="#009482"/></linearGradient><linearGradient id="bqpaint4_linear_490_11562" x1="26" y1="-.511" x2="26" y2="49.511" gradientUnits="userSpaceOnUse"><stop stop-color="#00D344"/><stop offset="1" stop-color="#009482"/></linearGradient><linearGradient id="bqpaint5_linear_490_11562" x1="26" y1="-.511" x2="26" y2="49.511" gradientUnits="userSpaceOnUse"><stop stop-color="#00D344"/><stop offset="1" stop-color="#009482"/></linearGradient><linearGradient id="bqpaint6_linear_490_11562" x1="26" y1="-.511" x2="26" y2="49.511" gradientUnits="userSpaceOnUse"><stop stop-color="#00D344"/><stop offset="1" stop-color="#009482"/></linearGradient><clipPath id="bqclip0_490_11562"><path fill="#fff" d="M0 0h223.387v50H0z"/></clipPath></defs></svg>