<?xml version="1.0" encoding="utf-8"?><svg width="568" height="132" fill="none" xmlns="http://www.w3.org/2000/svg" viewBox="0 0 568 132"><path d="M160.23 44.08h44.89c2.85 0 5.23.34 7.11 1.03 1.87.69 3.36 1.64 4.45 2.88 1.09 1.24 1.86 2.71 2.32 4.45.44 1.73.67 3.69.67 5.85v3.04c0 1.59-.109 3.02-.339 4.29-.23 1.29-.64 2.39-1.24 3.37-.6.96-1.451 1.8-2.541 2.47-1.09.69-2.49 1.22-4.19 1.62v.13c1.13.22 2.17.51 3.15.9.98.37 1.841.96 2.581 1.75.73.79 1.32 1.82 1.74 3.07.42 1.25.639 2.87.639 4.85v8.13h-14.879v-5.75c0-2.51-.441-4.24-1.301-5.22-.86-.96-2.46-1.45-4.79-1.45h-23.37v12.42h-14.88V44.09h.021l-.041-.01zm14.87 23.5h24.601c2 0 3.42-.4 4.25-1.22.83-.82 1.239-2.07 1.239-3.79v-1.59c0-2.12-.55-3.47-1.65-4.1-1.09-.61-2.819-.93-5.199-.93H175.1v11.63zM251.211 44.08h19.36l26.67 47.8h-16.54l-4.63-8.45h-30.15l-4.35 8.45h-16.63l26.27-47.8zm.28 29.06h19.04l-9.65-17.96-9.39 17.96zM301.68 76.23h14.88c0 1.29.13 2.28.41 3 .26.72.67 1.28 1.21 1.65.54.37 1.21.61 2 .69.8.1 1.75.13 2.82.13h18.22c.8 0 1.58-.03 2.35-.1.76-.06 1.43-.24 2.03-.53.6-.29 1.08-.69 1.44-1.22.36-.53.53-1.25.53-2.18 0-1.06-.19-1.86-.57-2.44-.38-.58-1.27-1.01-2.68-1.32-1.4-.31-3.5-.5-6.29-.56-2.79-.06-6.58-.1-11.36-.1-5.59 0-10.03-.19-13.33-.59-3.31-.4-5.82-1.12-7.55-2.18-1.73-1.06-2.82-2.52-3.31-4.38-.49-1.86-.73-4.27-.73-7.23 0-2.15.13-4.18.4-6.04a8.748 8.748 0 012.31-4.85c1.27-1.37 3.23-2.44 5.87-3.23s6.29-1.19 10.99-1.19h20.77c4.28 0 7.67.34 10.15 1.03 2.48.69 4.35 1.65 5.62 2.91 1.27 1.25 2.09 2.75 2.44 4.45.36 1.72.54 3.63.54 5.75v1.53h-14.88c0-.88-.05-1.62-.17-2.25-.11-.61-.4-1.12-.86-1.53-.47-.4-1.19-.69-2.18-.9-.98-.19-2.33-.29-4.02-.29h-16.48c-1.69 0-3.06.29-4.09.88-1.03.59-1.55 1.53-1.55 2.81 0 1.06.18 1.86.54 2.44.36.58 1.16 1 2.38 1.25 1.23.26 3.02.42 5.36.47 2.35.05 5.51.06 9.49.06 5.77 0 10.5.13 14.21.4 3.7.26 6.62.93 8.7 1.98 2.11 1.06 3.55 2.6 4.36 4.63.8 2.02 1.21 4.77 1.21 8.26 0 3.21-.34 5.8-1.01 7.76-.67 1.96-1.89 3.49-3.69 4.56-1.79 1.08-4.23 1.8-7.36 2.15-3.13.35-7.17.53-12.13.53h-18.03c-3.39 0-6.29-.19-8.67-.56-2.4-.37-4.35-1.03-5.87-1.98a8.493 8.493 0 01-3.36-3.93c-.72-1.67-1.08-3.81-1.08-6.41v-3.33h.02zM372.039 44.08h14.88v17.57h6.98l18.76-17.57h20.24l-26.27 23.37 29.35 24.43h-21.04l-21.45-18.36h-6.57v18.36h-14.88v-47.8zM463.04 44.08h19.36l26.669 47.8H492.53l-4.63-8.45h-30.15l-4.35 8.45h-16.63l26.27-47.8zm.26 29.06h19.039l-9.65-17.96-9.389 17.96zM510.821 44.08h56.68v11.88h-20.91v35.92h-14.88V55.96h-20.91V44.08h.02z" fill="#fff"/><path d="M70.367 16.12l34.59 19.97c1.59.92 2.57 2.63 2.57 4.46v39.94l13.83 7.98V40.55c0-6.78-3.62-13.05-9.49-16.44L70.367.15v15.97z" fill="url(#bqpaint0_linear_413_21746)"/><path d="M98.029 96.941l-34.59 19.97c-.78.45-1.67.69-2.57.69-.9 0-1.79-.24-2.57-.69l-34.59-19.97-13.83 7.98 41.5 23.96c2.94 1.7 6.21 2.54 9.49 2.54 3.28 0 6.55-.85 9.49-2.54l41.5-23.96-13.83-7.98z" fill="url(#bqpaint1_linear_413_21746)"/><path d="M14.209 80.48V40.54c0-1.83.99-3.54 2.57-4.46l34.59-19.97V.14L9.869 24.1a18.99 18.99 0 00-9.49 16.44v47.92l13.83-7.98z" fill="url(#bqpaint2_linear_413_21746)"/><path d="M51.37 32.09l-13.83 7.98v8.15l13.83-7.99v-8.14z" fill="url(#bqpaint3_linear_413_21746)"/><path d="M51.37 48.379l-13.83 7.99v8.14l13.83-7.98v-8.15z" fill="url(#bqpaint4_linear_413_21746)"/><path d="M51.37 64.68l-13.83 7.98v8.15l13.83-7.98v-8.15z" fill="url(#bqpaint5_linear_413_21746)"/><path d="M58.42 36.16v15.97l21.46 12.38-42.34 24.45 13.83 7.98L93.71 72.5V56.53L58.42 36.16z" fill="url(#bqpaint6_linear_413_21746)"/><defs><linearGradient id="bqpaint0_linear_413_21746" x1="95.867" y1="131.21" x2="95.867" y2="-1.13" gradientUnits="userSpaceOnUse"><stop stop-color="#009482"/><stop offset=".22" stop-color="#009A7B"/><stop offset=".55" stop-color="#00AE68"/><stop offset=".93" stop-color="#00CD49"/><stop offset="1" stop-color="#00D443"/></linearGradient><linearGradient id="bqpaint1_linear_413_21746" x1="60.869" y1="131.211" x2="60.869" y2="-1.129" gradientUnits="userSpaceOnUse"><stop stop-color="#009482"/><stop offset=".22" stop-color="#009A7B"/><stop offset=".55" stop-color="#00AE68"/><stop offset=".93" stop-color="#00CD49"/><stop offset="1" stop-color="#00D443"/></linearGradient><linearGradient id="bqpaint2_linear_413_21746" x1="25.869" y1="131.211" x2="25.869" y2="-1.129" gradientUnits="userSpaceOnUse"><stop stop-color="#009482"/><stop offset=".22" stop-color="#009A7B"/><stop offset=".55" stop-color="#00AE68"/><stop offset=".93" stop-color="#00CD49"/><stop offset="1" stop-color="#00D443"/></linearGradient><linearGradient id="bqpaint3_linear_413_21746" x1="44.449" y1="131.21" x2="44.449" y2="-1.13" gradientUnits="userSpaceOnUse"><stop stop-color="#009482"/><stop offset=".22" stop-color="#009A7B"/><stop offset=".55" stop-color="#00AE68"/><stop offset=".93" stop-color="#00CD49"/><stop offset="1" stop-color="#00D443"/></linearGradient><linearGradient id="bqpaint4_linear_413_21746" x1="44.449" y1="-472.001" x2="44.449" y2="-1.131" gradientUnits="userSpaceOnUse"><stop stop-color="#009482"/><stop offset=".22" stop-color="#009A7B"/><stop offset=".55" stop-color="#00AE68"/><stop offset=".93" stop-color="#00CD49"/><stop offset="1" stop-color="#00D443"/></linearGradient><linearGradient id="bqpaint5_linear_413_21746" x1="44.449" y1="131.21" x2="44.449" y2="-1.13" gradientUnits="userSpaceOnUse"><stop stop-color="#009482"/><stop offset=".22" stop-color="#009A7B"/><stop offset=".55" stop-color="#00AE68"/><stop offset=".93" stop-color="#00CD49"/><stop offset="1" stop-color="#00D443"/></linearGradient><linearGradient id="bqpaint6_linear_413_21746" x1="65.619" y1="131.21" x2="65.619" y2="-1.13" gradientUnits="userSpaceOnUse"><stop stop-color="#009482"/><stop offset=".22" stop-color="#009A7B"/><stop offset=".55" stop-color="#00AE68"/><stop offset=".93" stop-color="#00CD49"/><stop offset="1" stop-color="#00D443"/></linearGradient></defs></svg>