<?xml version="1.0" encoding="utf-8"?><svg width="46" height="46" fill="none" xmlns="http://www.w3.org/2000/svg" viewBox="0 0 46 46"><g fill="#009482"><path d="M31.617 15.38c0-4.546-3.7-8.247-8.246-8.247-4.545 0-8.246 3.701-8.246 8.246s3.701 8.246 8.246 8.246 8.247-3.7 8.247-8.246zm-8.246 6.967a6.976 6.976 0 01-6.967-6.968 6.976 6.976 0 016.967-6.968 6.976 6.976 0 016.968 6.968 6.976 6.976 0 01-6.968 6.968z"/><path d="M39.045 45.169L35.69 34.5a.637.637 0 00-.607-.447H28.74c4.353-5.134 10.036-12.856 10.036-18.244C38.777 7.089 31.879 0 23.397 0c-8.483 0-15.38 7.096-15.38 15.809 0 5.382 5.682 13.11 10.042 18.244h-6.393a.631.631 0 00-.607.447L7.697 45.169a.628.628 0 00.095.569.639.639 0 00.518.262h30.121a.639.639 0 00.614-.831zM23.396 1.279c7.774 0 14.102 6.52 14.102 14.53 0 7.21-11.64 19.682-14.102 22.239-2.46-2.557-14.101-15.035-14.101-22.24 0-8.01 6.328-14.53 14.101-14.53zM9.18 44.72l2.953-9.39h7.025c1.1 1.253 2.052 2.276 2.73 2.998h-7.85a.641.641 0 00-.64.64c0 .35.288.639.64.639h18.666c.351 0 .64-.288.64-.64a.641.641 0 00-.64-.639h-7.799c.678-.716 1.63-1.745 2.73-2.998h6.974l2.953 9.39H9.18z"/></g></svg>