<?xml version="1.0" encoding="utf-8"?><svg width="170" height="38" fill="none" xmlns="http://www.w3.org/2000/svg" viewBox="0 0 170 38"><g clip-path="url(#bvclip0_302_16703)"><path d="M18.538 34a1.066 1.066 0 01-1.052 0l-8.832-5.074-3.86 2.218 10.757 6.183a4.93 4.93 0 004.917 0l10.865-6.241-3.86-2.219L18.538 34zM33.737 6.241L22.87 0v4.437l8.93 5.132c.326.185.529.535.529.91V20.62l3.86 2.219V10.479a4.878 4.878 0 00-2.453-4.238zM13.324 0L2.458 6.241A4.894 4.894 0 000 10.48v12.36l3.86-2.218V10.48c0-.375.203-.72.529-.91l8.935-5.132V0zM11.29 13.5l4.522-2.598v-2.34l-4.522 2.34V13.5zM15.812 13.035l-4.522 2.34v2.598l4.522-2.598v-2.34zM11.29 22.238l4.522-2.598v-2.335L11.29 19.64v2.598z" fill="#7DAA30"/><path d="M11.734 24.206l3.762 2.374 12.164-6.903v-4.845L17.007 9.023v4.286l6.57 3.921-11.843 6.976z" fill="#7DAA30"/><path d="M47.828 11.652h13.44c.854 0 1.567.101 2.128.308.562.207 1.005.49 1.332.861.328.37.557.813.694 1.332.131.52.2 1.106.2 1.75v.91c0 .476-.034.904-.103 1.284a2.84 2.84 0 01-.37 1.01c-.181.288-.435.538-.762.74-.327.207-.747.366-1.254.486v.039c.336.067.649.153.942.269.293.11.551.288.77.524.22.236.396.544.523.919s.19.86.19 1.452v2.433h-4.456v-1.721c0-.75-.131-1.27-.39-1.563-.259-.289-.737-.433-1.435-.433H52.28v3.718h-4.456V11.652h.005zm4.45 7.036h7.365c.6 0 1.025-.12 1.274-.365.249-.245.37-.62.37-1.135v-.476c0-.635-.165-1.04-.492-1.227-.327-.182-.844-.279-1.557-.279h-6.96v3.482zM75.07 11.648h5.798l7.984 14.313H83.9l-1.386-2.53h-9.03l-1.302 2.53h-4.978l7.867-14.313zm.083 8.7h5.7l-2.889-5.376-2.811 5.376zM90.18 21.278h4.455c0 .385.04.683.122.9.079.216.2.384.362.495.161.11.36.183.6.207.24.029.522.038.844.038h5.457c.239 0 .473-.01.703-.029.228-.019.429-.072.61-.159.18-.086.322-.206.43-.365.106-.159.16-.375.16-.654 0-.317-.058-.558-.171-.731-.112-.173-.381-.303-.801-.394-.418-.092-1.049-.15-1.883-.169-.835-.019-1.972-.029-3.402-.029-1.674 0-3.002-.057-3.992-.178-.99-.12-1.742-.336-2.26-.654-.517-.317-.844-.755-.99-1.313-.147-.557-.22-1.279-.22-2.164 0-.644.039-1.25.122-1.808a2.625 2.625 0 01.693-1.452c.381-.41.967-.731 1.757-.967.791-.236 1.884-.356 3.29-.356h6.218c1.282 0 2.298.101 3.04.308s1.303.495 1.683.87c.381.376.626.823.733 1.333.107.514.16 1.086.16 1.721v.457h-4.455a3.83 3.83 0 00-.049-.673.786.786 0 00-.259-.457c-.141-.12-.356-.207-.654-.27-.293-.057-.698-.086-1.205-.086h-4.934c-.507 0-.917.087-1.225.265-.308.177-.464.456-.464.841 0 .317.055.558.161.731.108.173.346.298.712.375.367.077.904.125 1.606.14.703.014 1.65.019 2.841.019 1.727 0 3.143.038 4.256.12 1.107.077 1.982.28 2.605.592.631.317 1.064.779 1.304 1.385.239.606.361 1.428.361 2.472 0 .962-.103 1.736-.303 2.323a2.474 2.474 0 01-1.103 1.366c-.536.322-1.269.538-2.205.644-.937.106-2.148.159-3.632.159h-5.397c-1.016 0-1.885-.058-2.597-.169-.718-.11-1.302-.308-1.757-.591a2.517 2.517 0 01-1.005-1.178c-.215-.5-.322-1.14-.322-1.92v-.995zM111.248 11.648h4.456v5.262h2.088l5.618-5.262h6.061l-7.867 6.998 8.79 7.315h-6.301l-6.422-5.497h-1.967v5.497h-4.456V11.648zM138.496 11.648h5.797l7.986 14.313h-4.953l-1.387-2.53h-9.028l-1.303 2.53h-4.979l7.867-14.313zm.078 8.7h5.7l-2.888-5.376-2.812 5.376zM152.801 11.648h16.973v3.56h-6.261V25.96h-4.457V15.207h-6.261v-3.559h.006z" fill="#000"/></g><defs><clipPath id="bvclip0_302_16703"><path fill="#fff" d="M0 0h169.774v38H0z"/></clipPath></defs></svg>