<?xml version="1.0" encoding="utf-8"?><svg width="1226" height="312" fill="none" xmlns="http://www.w3.org/2000/svg" viewBox="0 0 1226 312"><g clip-path="url(#bwclip0_601_2800)"><path d="M1057.89 199.534c-23.02 5.357-41.85-1.758-49.55-5.524.58-1.925.83-4.018.83-6.11 0-1.172-.08-2.344-.25-3.516 60.1 16.489 47.04-31.471 44.7-39.674-2.34-8.202-13.48-38.836-21.34-12.889-6.87 22.599-22.44 35.321-29.55 40.176-2.26-2.344-5.023-4.102-8.036-5.357 44.356-43.859-3.683-56.498-11.969-58.59-8.286-2.093-40.343-7.701-21.846 12.053 16.071 17.242 19.419 37.079 20.005 45.7a23.315 23.315 0 00-8.622 4.352c-15.819-60.264-50.805-24.942-56.748-18.832-5.943 6.11-26.868 31.052-.502 24.942 23.017-5.357 41.85 1.758 49.55 5.524-.586 1.926-.837 4.018-.837 6.111 0 1.171.084 2.343.251 3.515-60.096-16.489-47.039 31.471-44.696 39.674 2.344 8.202 13.476 38.837 21.344 12.89 6.863-22.599 22.431-35.322 29.546-40.176 2.26 2.343 5.022 4.101 8.035 5.356-44.361 43.859 3.683 56.498 11.969 58.59 8.287 2.093 40.346 7.701 21.846-12.052-16.07-17.243-19.418-37.08-20.004-45.701a23.354 23.354 0 008.624-4.352c15.73 60.348 50.8 25.026 56.66 18.916 6.11-6.194 27.04-31.136.59-25.026z" fill="#161616"/></g><g clip-path="url(#bwclip1_601_2800)"><path d="M864.723 199.534c-23.017 5.357-41.85-1.758-49.55-5.524.586-1.925.837-4.018.837-6.11 0-1.172-.084-2.344-.251-3.516 60.096 16.489 47.039-31.471 44.696-39.674-2.344-8.202-13.476-38.836-21.344-12.889-6.863 22.599-22.431 35.321-29.546 40.176-2.26-2.344-5.022-4.102-8.035-5.357 44.361-43.859-3.683-56.498-11.969-58.59-8.286-2.093-40.343-7.701-21.846 12.053 16.071 17.242 19.419 37.079 20.004 45.7a23.318 23.318 0 00-8.621 4.352c-15.819-60.264-50.805-24.942-56.748-18.832-5.943 6.11-26.868 31.052-.502 24.942 23.017-5.357 41.85 1.758 49.55 5.524-.586 1.926-.837 4.018-.837 6.111 0 1.171.084 2.343.251 3.515-60.096-16.489-47.039 31.471-44.696 39.674 2.344 8.202 13.476 38.837 21.344 12.89 6.863-22.599 22.431-35.322 29.546-40.176 2.26 2.343 5.022 4.101 8.035 5.356-44.361 43.859 3.683 56.498 11.969 58.59 8.286 2.093 40.343 7.701 21.846-12.052-16.071-17.243-19.419-37.08-20.004-45.701a23.318 23.318 0 008.621-4.352c15.735 60.348 50.805 25.026 56.664 18.916 6.11-6.194 27.035-31.136.586-25.026z" fill="#161616"/></g><g clip-path="url(#bwclip2_601_2800)"><path fill-rule="evenodd" clip-rule="evenodd" d="M685.973 4.292v41.44h-1.043v-6.228h-4.086v4.412h-1.652c-.869 0-1.565.692-1.565 1.557v5.537c0 .865.696 1.557 1.565 1.557h1.652v13.929c0 1.557-1.304 2.855-2.869 2.855h-29.036v4.066h2v5.364h-1.131v-2.768h-9.215v3.806h-2.695v7.267h2.695V287.54h-2.695v7.266h2.695v3.807h9.215v-2.768h437.362v1.903h9.31v-9.43h-1.83V86.568h1.83v-9.43h-9.31v1.816H665.196V73.59h13.04c3.738 0 6.694-3.028 6.694-6.661V50.837h1.043v21.715c0 1.038.869 1.903 1.913 1.903h374.944c1.05 0 1.91-.865 1.91-1.903V4.38c0-1.038-.86-1.903-1.91-1.903H687.886c-1.044-.087-1.913.778-1.913 1.816zm203.488 183.256c0 53.092-42.839 96.133-95.684 96.133-52.844 0-95.683-43.041-95.683-96.133s42.839-96.133 95.683-96.133c52.845 0 95.684 43.041 95.684 96.133zm97.48 96.133c52.849 0 95.679-43.041 95.679-96.133s-42.83-96.133-95.679-96.133c-52.844 0-95.683 43.041-95.683 96.133s42.839 96.133 95.683 96.133z" fill="#F1F1F1"/><path d="M889.485 187.355V99.283l-7.389-7.353h-88.498c52.942 0 95.887 42.738 95.887 95.425z" fill="#161616" stroke="#161616" stroke-width=".898" stroke-miterlimit="10"/><path d="M793.598 282.779h88.498l7.39-7.353v-88.072c0 52.688-42.946 95.425-95.888 95.425zM697.621 99.284v88.072c0-52.688 42.945-95.425 95.888-95.425H705.01l-7.389 7.353z" fill="#161616" stroke="#161616" stroke-width=".898" stroke-miterlimit="10"/><path d="M705.01 282.779h88.499c-52.943 0-95.888-42.737-95.888-95.425v88.072l7.389 7.353z" fill="#161616" stroke="#161616" stroke-width=".898" stroke-miterlimit="10"/><path d="M701.795 249.906v21.715l7.042 7.007h21.82c-11.301-7.699-21.038-17.475-28.862-28.722zM730.656 96.083h-21.733l-7.042 7.008v21.715c7.737-11.247 17.474-21.022 28.775-28.723zM856.451 278.626h21.821l7.041-7.007v-21.715a110.824 110.824 0 01-28.862 28.722zM885.312 124.806v-21.715l-7.042-7.008h-21.821a110.877 110.877 0 0128.863 28.723z" stroke="#F1F1F1" stroke-width=".898" stroke-miterlimit="10" stroke-linejoin="round"/><path d="M1083 187.356V99.284l-7.39-7.353h-88.585c53.025 0 95.975 42.737 95.975 95.425zM987.025 282.779h88.495l7.39-7.353v-88.072c.09 52.688-42.86 95.425-95.885 95.425zM891.137 99.283v88.072c0-52.687 42.945-95.425 95.888-95.425h-88.5l-7.388 7.353z" fill="#161616" stroke="#161616" stroke-width=".898" stroke-miterlimit="10"/><path d="M898.525 282.779h88.5c-52.943 0-95.888-42.737-95.888-95.425v88.072l7.388 7.353z" fill="#161616" stroke="#161616" stroke-width=".898" stroke-miterlimit="10"/><path d="M808.723 187.354c0 8.306-6.78 15.141-15.213 15.141-8.345 0-15.213-6.748-15.213-15.141 0-8.391 6.78-15.139 15.213-15.139s15.213 6.834 15.213 15.139zm-26.689 0c0 6.316 5.217 11.507 11.563 11.507 6.346 0 11.562-5.191 11.562-11.507 0-6.315-5.216-11.506-11.562-11.506-6.346 0-11.563 5.191-11.563 11.506z" fill="#F1F1F1" stroke="#161616" stroke-width=".898" stroke-miterlimit="10"/><path d="M820.373 187.355c0 14.708-11.997 26.733-26.862 26.733-14.866 0-26.863-11.939-26.863-26.733s11.997-26.733 26.863-26.733c14.865 0 26.862 12.026 26.862 26.733zm-49.987 0c0 12.717 10.433 23.1 23.212 23.1s23.211-10.383 23.211-23.1c0-12.717-10.432-23.099-23.211-23.099-12.779 0-23.212 10.382-23.212 23.099z" fill="#F1F1F1" stroke="#161616" stroke-width=".898" stroke-miterlimit="10"/><path d="M831.326 187.355c0 20.678-16.952 37.548-37.729 37.548-20.777 0-37.73-16.87-37.73-37.548 0-20.676 16.953-37.546 37.73-37.546 20.777 0 37.729 16.87 37.729 37.546zm-71.895 0c0 18.688 15.301 33.915 34.079 33.915 18.777 0 34.078-15.227 34.078-33.915 0-18.686-15.301-33.913-34.078-33.913-18.778 0-34.079 15.227-34.079 33.913z" fill="#F1F1F1" stroke="#161616" stroke-width=".898" stroke-miterlimit="10"/><path d="M843.757 187.355c0 27.598-22.515 50.005-50.247 50.005-27.733 0-50.248-22.407-50.248-50.005 0-27.597 22.515-50.004 50.248-50.004 27.732 0 50.247 22.407 50.247 50.004zm-96.757 0c0 25.608 20.864 46.372 46.597 46.372 25.732 0 46.596-20.764 46.596-46.372s-20.864-46.371-46.596-46.371c-25.733 0-46.597 20.763-46.597 46.371z" fill="#F1F1F1" stroke="#161616" stroke-width=".898" stroke-miterlimit="10"/><path d="M854.364 187.355c0 33.395-27.297 60.474-60.766 60.474-33.557 0-60.768-27.166-60.768-60.474 0-33.394 27.297-60.473 60.768-60.473 33.469 0 60.766 27.079 60.766 60.473zm-117.969 0c0 31.405 25.645 56.84 57.116 56.84 31.469 0 57.115-25.521 57.115-56.84 0-31.318-25.646-56.84-57.115-56.84-31.471 0-57.116 25.436-57.116 56.84z" fill="#F1F1F1" stroke="#161616" stroke-width=".898" stroke-miterlimit="10"/><path d="M865.578 187.355c0 39.538-32.253 71.634-71.981 71.634-39.729 0-71.982-32.096-71.982-71.634 0-39.537 32.253-71.633 71.982-71.633 39.642 0 71.981 32.096 71.981 71.633zm-140.398 0c0 37.461 30.687 68 68.33 68 37.642 0 68.33-30.539 68.33-68 0-37.46-30.688-68-68.33-68-37.643 0-68.33 30.453-68.33 68z" fill="#F1F1F1" stroke="#161616" stroke-width=".898" stroke-miterlimit="10"/><rect x="786.141" y="180.36" width="14.375" height="14.375" rx="7.188" fill="#A0F200"/><path d="M876.183 187.355c0 45.334-37.035 82.189-82.587 82.189-45.554 0-82.588-36.855-82.588-82.189 0-45.333 37.034-82.188 82.588-82.188 45.552 0 82.587 36.855 82.587 82.188zm-161.611 0c0 43.344 35.469 78.555 78.936 78.555 43.554 0 78.936-35.298 78.936-78.555 0-43.257-35.469-78.554-78.936-78.554-43.467 0-78.936 35.211-78.936 78.554z" fill="#F1F1F1" stroke="#161616" stroke-width=".898" stroke-miterlimit="10"/><path d="M886.443 187.355c0 50.957-41.641 92.398-92.845 92.398-51.205 0-92.846-41.441-92.846-92.398 0-50.956 41.641-92.396 92.846-92.396 51.204 0 92.845 41.44 92.845 92.396zm-182.127 0c0 48.968 40.077 88.764 89.282 88.764s89.194-39.796 89.194-88.764c0-48.966-39.989-88.763-89.194-88.763-49.205 0-89.282 39.797-89.282 88.763z" fill="#F1F1F1" stroke="#161616" stroke-width=".898" stroke-miterlimit="10"/><path d="M895.309 249.906v21.715l7.042 7.007h21.82a110.824 110.824 0 01-28.862-28.722zM924.171 96.083h-21.82l-7.042 7.008v21.715a110.858 110.858 0 0128.862-28.723zM1049.88 278.628h21.82l7.04-7.007v-21.715c-7.74 11.247-17.47 21.023-28.86 28.722zM1078.83 124.806v-21.715l-7.04-7.008h-21.83c11.31 7.701 21.04 17.476 28.87 28.723z" stroke="#F1F1F1" stroke-width=".898" stroke-miterlimit="10" stroke-linejoin="round"/><path d="M641.027 290.739V83.971M645.027 79.299h447.713c.78 0 1.48.605 1.48 1.47V293.94c0 .779-.61 1.471-1.48 1.471H645.027M1062.83 73.936H687.884c-.782 0-1.478-.692-1.478-1.47V4.291c0-.779.696-1.47 1.478-1.47h374.946c.78 0 1.48.691 1.48 1.47v68.173c0 .779-.61 1.47-1.48 1.47z" stroke="#161616" stroke-width=".898" stroke-miterlimit="10"/><path d="M921.824 12.857c0-2.723-2.218-4.931-4.955-4.931s-4.955 2.208-4.955 4.931c0 2.724 2.218 4.931 4.955 4.931s4.955-2.207 4.955-4.93zM915.133 11.04l3.478 3.547M918.611 11.04l-3.478 3.547M973.203 63.9c0-2.723-2.219-4.931-4.955-4.931-2.737 0-4.955 2.208-4.955 4.931 0 2.724 2.218 4.931 4.955 4.931 2.736 0 4.955-2.207 4.955-4.93zM966.422 62.17l3.564 3.46M969.986 62.17l-3.564 3.46" stroke="#161616" stroke-width=".898" stroke-miterlimit="10"/><path d="M920.869 19.95l5.911 5.883c-2.781 3.46-4.434 7.786-4.434 12.545 0 4.758 1.653 9.084 4.434 12.544l-5.911 5.883c-4.26-4.931-6.781-11.42-6.781-18.427-.087-7.008 2.521-13.497 6.781-18.428zm21.647 2.682c3.564 0 6.78 1.211 9.475 3.115l-5.911 5.883c-1.043-.52-2.261-.866-3.478-.866-1.304 0-2.434.346-3.477.866l-5.912-5.883a15.601 15.601 0 019.303-3.115zm0 31.491c-3.565 0-6.782-1.211-9.476-3.114l5.911-5.883c1.043.519 2.26.865 3.477.865 1.304 0 2.434-.346 3.477-.865l5.912 5.883c-2.434 1.903-5.737 3.114-9.301 3.114zm-6.695-19.292c-.521 1.038-.869 2.249-.869 3.46 0 1.298.348 2.423.869 3.46l-5.911 5.884c-1.999-2.596-3.13-5.883-3.13-9.43 0-3.547 1.218-6.748 3.13-9.43l5.911 6.056zm13.475 7.007c.522-1.038.87-2.25.87-3.46 0-1.298-.348-2.423-.87-3.461l5.912-5.883c1.999 2.596 3.129 5.883 3.129 9.43 0 3.547-1.217 6.748-3.129 9.43l-5.912-6.056zm-25.211 18.168l5.912-5.883c3.478 2.769 7.824 4.413 12.605 4.413 4.781 0 9.128-1.644 12.606-4.413l5.911 5.883c-4.955 4.24-11.475 6.748-18.517 6.748-7.128 0-13.561-2.595-18.517-6.748zm40.164-3.2l-5.912-5.884c2.782-3.46 4.434-7.786 4.434-12.544 0-4.759-1.652-9.084-4.434-12.545l5.912-5.883c4.259 4.931 6.78 11.42 6.78 18.428.087 7.007-2.521 13.41-6.78 18.427zm-3.217-40.057l-5.824 5.883c-3.478-2.768-7.825-4.412-12.606-4.412s-9.127 1.644-12.605 4.412l-5.912-5.883c4.956-4.24 11.476-6.748 18.517-6.748 7.042 0 13.475 2.509 18.43 6.748z" fill="#161616"/><path d="M973.203 12.857c0-2.723-2.219-4.931-4.955-4.931-2.737 0-4.955 2.208-4.955 4.931 0 2.724 2.218 4.931 4.955 4.931 2.736 0 4.955-2.207 4.955-4.93zM969.986 11.04l-3.564 3.547M969.986 14.587l-3.564-3.547M921.824 63.9c0-2.723-2.218-4.931-4.955-4.931s-4.955 2.208-4.955 4.931c0 2.724 2.218 4.931 4.955 4.931s4.955-2.207 4.955-4.93zM918.611 62.17l-3.478 3.46M918.611 65.63l-3.478-3.46M850.192 12.857c0-2.723-2.218-4.931-4.955-4.931s-4.956 2.208-4.956 4.931c0 2.724 2.219 4.931 4.956 4.931 2.737 0 4.955-2.207 4.955-4.93zM843.41 11.04l3.564 3.547M846.974 11.04l-3.564 3.547M901.482 63.9c0-2.723-2.218-4.931-4.955-4.931s-4.955 2.208-4.955 4.931c0 2.724 2.218 4.931 4.955 4.931s4.955-2.207 4.955-4.93zM894.789 62.17l3.477 3.46M898.266 62.17l-3.477 3.46" stroke="#161616" stroke-width=".898" stroke-miterlimit="10"/><path d="M849.148 19.95l5.911 5.883c-2.781 3.46-4.433 7.786-4.433 12.545 0 4.758 1.652 9.084 4.433 12.544l-5.911 5.883c-4.26-4.931-6.781-11.42-6.781-18.427 0-7.008 2.521-13.497 6.781-18.428zm21.733 2.682c3.565 0 6.781 1.211 9.476 3.115l-5.911 5.883c-1.043-.52-2.261-.866-3.478-.866-1.304 0-2.434.346-3.477.866l-5.912-5.883a15.404 15.404 0 019.302-3.115zm0 31.491c-3.564 0-6.781-1.211-9.475-3.114l5.911-5.883c1.043.519 2.26.865 3.478.865 1.303 0 2.434-.346 3.477-.865l5.911 5.883a15.404 15.404 0 01-9.302 3.114zM864.1 34.831c-.521 1.038-.869 2.249-.869 3.46 0 1.298.348 2.423.869 3.46l-5.911 5.884c-1.999-2.596-3.13-5.883-3.13-9.43 0-3.547 1.218-6.748 3.13-9.43l5.911 6.056zm13.475 7.007c.522-1.038.87-2.25.87-3.46 0-1.298-.348-2.423-.87-3.461l5.912-5.883c1.999 2.596 3.129 5.883 3.129 9.43 0 3.547-1.216 6.748-3.129 9.43l-5.912-6.056zm-25.211 18.168l5.912-5.883c3.478 2.769 7.824 4.413 12.605 4.413 4.781 0 9.128-1.644 12.606-4.413l5.912 5.883c-4.956 4.24-11.476 6.748-18.518 6.748-7.041 0-13.561-2.595-18.517-6.748zm40.251-3.2l-5.912-5.884c2.782-3.46 4.434-7.786 4.434-12.544 0-4.759-1.652-9.084-4.434-12.545l5.912-5.883c4.259 4.931 6.781 11.42 6.781 18.428 0 7.007-2.609 13.41-6.781 18.427zm-3.216-40.057l-5.912 5.883c-3.478-2.768-7.825-4.412-12.606-4.412s-9.127 1.644-12.605 4.412l-5.912-5.883c4.956-4.24 11.476-6.748 18.517-6.748 7.042 0 13.475 2.509 18.518 6.748z" fill="#161616"/><path d="M901.482 12.857c0-2.723-2.218-4.931-4.955-4.931s-4.955 2.208-4.955 4.931c0 2.724 2.218 4.931 4.955 4.931s4.955-2.207 4.955-4.93zM898.266 11.04l-3.477 3.547M898.266 14.587l-3.477-3.547M850.192 63.9c0-2.723-2.218-4.931-4.955-4.931s-4.956 2.208-4.956 4.931c0 2.724 2.219 4.931 4.956 4.931 2.737 0 4.955-2.207 4.955-4.93zM846.974 62.17l-3.564 3.46M846.974 65.63l-3.564-3.46M778.469 12.857c0-2.723-2.218-4.931-4.955-4.931-2.736 0-4.955 2.208-4.955 4.931 0 2.724 2.219 4.931 4.955 4.931 2.737 0 4.955-2.207 4.955-4.93zM771.777 11.04l3.478 3.547M775.255 11.04l-3.478 3.547M829.762 63.9c0-2.723-2.218-4.931-4.955-4.931-2.736 0-4.955 2.208-4.955 4.931 0 2.724 2.219 4.931 4.955 4.931 2.737 0 4.955-2.207 4.955-4.93zM823.068 62.17l3.564 3.46M826.632 62.17l-3.564 3.46" stroke="#161616" stroke-width=".898" stroke-miterlimit="10"/><path d="M777.429 19.95l5.912 5.883c-2.783 3.46-4.434 7.786-4.434 12.545 0 4.758 1.651 9.084 4.434 12.544l-5.912 5.883c-4.26-4.931-6.781-11.42-6.781-18.427 0-7.008 2.608-13.497 6.781-18.428zm21.733 2.682c3.565 0 6.782 1.211 9.476 3.115l-5.911 5.883c-1.044-.52-2.26-.866-3.478-.866-1.303 0-2.434.346-3.477.866l-5.911-5.883a15.401 15.401 0 019.301-3.115zm0 31.491c-3.564 0-6.78-1.211-9.476-3.114l5.912-5.883c1.043.519 2.261.865 3.478.865 1.304 0 2.434-.346 3.477-.865l5.912 5.883a15.407 15.407 0 01-9.303 3.114zm-6.693-19.292c-.522 1.038-.87 2.249-.87 3.46 0 1.298.348 2.423.87 3.46l-5.912 5.97c-2-2.595-3.129-5.883-3.129-9.43 0-3.547 1.216-6.748 3.129-9.43l5.912 5.97zm13.475 7.007c.521-1.038.868-2.25.868-3.46 0-1.298-.347-2.423-.868-3.461l5.911-5.883c1.999 2.596 3.13 5.883 3.13 9.43 0 3.547-1.218 6.748-3.13 9.43l-5.911-6.056zm-25.299 18.168l5.912-5.883c3.477 2.769 7.824 4.413 12.605 4.413 4.782 0 9.128-1.644 12.606-4.413l5.912 5.883c-4.956 4.24-11.476 6.748-18.518 6.748-7.041 0-13.475-2.595-18.517-6.748zm40.251-3.2l-5.911-5.884c2.781-3.46 4.433-7.786 4.433-12.544 0-4.759-1.652-9.084-4.433-12.545l5.911-5.883c4.26 4.931 6.781 11.42 6.781 18.428 0 7.007-2.521 13.41-6.781 18.427zm-3.216-40.057l-5.912 5.883c-3.478-2.768-7.824-4.412-12.606-4.412-4.781 0-9.128 1.644-12.605 4.412l-5.912-5.883c4.956-4.24 11.476-6.748 18.517-6.748 7.042 0 13.562 2.509 18.518 6.748z" fill="#161616"/><path d="M829.762 12.857c0-2.723-2.218-4.931-4.955-4.931-2.736 0-4.955 2.208-4.955 4.931 0 2.724 2.219 4.931 4.955 4.931 2.737 0 4.955-2.207 4.955-4.93zM826.632 11.04l-3.564 3.547M826.632 14.587l-3.564-3.547M778.469 63.9c0-2.723-2.218-4.931-4.955-4.931-2.736 0-4.955 2.208-4.955 4.931 0 2.724 2.219 4.931 4.955 4.931 2.737 0 4.955-2.207 4.955-4.93zM775.255 62.17l-3.478 3.46M775.255 65.63l-3.478-3.46M696.23 187.356a3.556 3.556 0 00-3.564-3.547 3.555 3.555 0 00-3.564 3.547 3.555 3.555 0 003.564 3.547 3.556 3.556 0 003.564-3.547zM693.883 186.144l-2.434 2.423M693.883 188.567l-2.434-2.423" stroke="#161616" stroke-width=".898" stroke-miterlimit="10"/><path d="M980.766 46.51V17.528c0-4.153 3.39-7.527 7.563-7.527h61.291c4.17 0 7.56 3.374 7.56 7.527V46.51c0 4.153-3.39 7.526-7.56 7.526h-61.291c-4.173.087-7.563-3.373-7.563-7.526z" fill="#161616"/><path d="M710.662 38.032V12.25c0-1.21 1.043-2.249 2.26-2.249h34.687c1.217 0 2.261 1.038 2.261 2.25v25.78c0 1.212-1.044 2.25-2.261 2.25h-34.687c-1.217-.087-2.26-1.038-2.26-2.25zM995.545 44.607V19.345c0-1.73 1.478-3.201 3.216-3.201h40.429c1.74 0 3.21 1.47 3.21 3.2v25.263c0 1.73-1.47 3.2-3.21 3.2h-40.429c-1.738 0-3.216-1.384-3.216-3.2z" fill="#161616" stroke="#F1F1F1" stroke-width=".898" stroke-miterlimit="10"/><path d="M1015.45 25.486v1.99h7.04v-1.99h-7.04zM1006.85 34.053v1.99h7.04v-1.99h-7.04zM1024.06 34.053v1.99h7.04v-1.99h-7.04z" fill="#fff"/><path d="M696.23 102.744a3.556 3.556 0 00-3.564-3.547 3.555 3.555 0 00-3.564 3.547 3.555 3.555 0 003.564 3.547 3.556 3.556 0 003.564-3.547zM693.883 101.532l-2.434 2.422M693.883 103.954l-2.434-2.422M696.23 86.394a3.556 3.556 0 00-3.564-3.547 3.555 3.555 0 00-3.564 3.547 3.555 3.555 0 003.564 3.547 3.556 3.556 0 003.564-3.547zM693.883 85.095l-2.434 2.509M693.883 87.604l-2.434-2.51M893.832 86.394a3.556 3.556 0 00-3.565-3.547 3.556 3.556 0 00-3.564 3.547 3.556 3.556 0 003.564 3.547 3.556 3.556 0 003.565-3.547zM891.572 85.095l-2.521 2.509M891.572 87.604l-2.521-2.51M696.23 288.318a3.556 3.556 0 00-3.564-3.547 3.555 3.555 0 00-3.564 3.547 3.555 3.555 0 003.564 3.547 3.556 3.556 0 003.564-3.547zM693.883 287.106l-2.434 2.509M693.883 289.615l-2.434-2.509M660.154 86.394a3.556 3.556 0 00-3.564-3.547 3.556 3.556 0 00-3.565 3.547 3.556 3.556 0 003.565 3.547 3.556 3.556 0 003.564-3.547zM657.806 85.095l-2.521 2.509M657.806 87.604l-2.521-2.51M660.154 288.318a3.556 3.556 0 00-3.564-3.547 3.556 3.556 0 00-3.565 3.547 3.556 3.556 0 003.565 3.547 3.556 3.556 0 003.564-3.547zM657.806 287.105l-2.521 2.509M657.806 289.614l-2.521-2.509M696.23 271.966a3.555 3.555 0 00-3.564-3.547 3.554 3.554 0 00-3.564 3.547 3.555 3.555 0 003.564 3.547 3.556 3.556 0 003.564-3.547zM693.883 270.668l-2.434 2.509M693.883 273.177l-2.434-2.509M1091.78 102.744c0-1.958-1.6-3.547-3.56-3.547-1.97 0-3.57 1.589-3.57 3.547 0 1.959 1.6 3.547 3.57 3.547 1.96 0 3.56-1.588 3.56-3.547zM1089.52 101.532l-2.52 2.422M1089.52 103.954l-2.52-2.422M1091.78 86.394c0-1.96-1.6-3.547-3.56-3.547-1.97 0-3.57 1.588-3.57 3.547s1.6 3.547 3.57 3.547c1.96 0 3.56-1.588 3.56-3.547zM1089.52 85.095l-2.52 2.509M1089.52 87.604l-2.52-2.51M1091.78 288.318c0-1.959-1.6-3.547-3.56-3.547-1.97 0-3.57 1.588-3.57 3.547s1.6 3.547 3.57 3.547c1.96 0 3.56-1.588 3.56-3.547zM1089.52 287.106l-2.52 2.509M1089.52 289.615l-2.52-2.509M893.832 288.318a3.556 3.556 0 00-3.565-3.547 3.556 3.556 0 00-3.564 3.547 3.556 3.556 0 003.564 3.547 3.556 3.556 0 003.565-3.547zM891.572 287.106l-2.521 2.509M891.572 289.615l-2.521-2.509M1091.78 271.966c0-1.96-1.6-3.547-3.56-3.547-1.97 0-3.57 1.587-3.57 3.547 0 1.959 1.6 3.547 3.57 3.547 1.96 0 3.56-1.588 3.56-3.547zM1089.52 270.668l-2.52 2.509M1089.52 273.177l-2.52-2.509M1091.78 187.356c0-1.959-1.6-3.547-3.56-3.547-1.97 0-3.57 1.588-3.57 3.547s1.6 3.547 3.57 3.547c1.96 0 3.56-1.588 3.56-3.547zM1089.52 186.144l-2.52 2.423M1089.52 188.567l-2.52-2.423" stroke="#161616" stroke-width=".898" stroke-miterlimit="10"/><path d="M750.566 89.162h9.129M750.566 86.307h9.129M827.414 89.162h9.128M827.414 86.307h9.128M692.059 144.53v9.171M694.926 144.53v9.171M692.059 221.01v9.17M694.926 221.01v9.17M1085.7 144.53v9.171M1088.57 144.53v9.171M1085.7 221.01v9.17M1088.57 221.01v9.17M944.078 89.162h9.128M944.078 86.307h9.128M1020.84 89.162h9.22M1020.84 86.307h9.22M750.566 288.404h9.129M750.566 285.549h9.129M827.414 288.404h9.128M827.414 285.549h9.128M944.078 288.405h9.128M944.078 285.549h9.128M1020.84 288.404h9.22M1020.84 285.549h9.22" stroke="#161616" stroke-width=".898" stroke-miterlimit="10" stroke-linecap="round"/><path d="M686.406 4.292v58.916h1.217V4.465c0-.26.174-.433.435-.433h374.682c.26 0 .44.173.44.433v58.743h1.22V4.292c0-.779-.7-1.47-1.48-1.47H687.884c-.782 0-1.478.691-1.478 1.47z" fill="#161616"/><path d="M646.156 83.971h-5.129V290.74h5.129v2.856h34.774c2 0 3.651-1.644 3.651-3.634V84.75c0-1.99-1.651-3.634-3.651-3.634h-34.774v2.855z" stroke="#161616" stroke-width=".898" stroke-miterlimit="10"/><path d="M676.584 99.717v175.277c0 1.991 1.652 3.634 3.651 3.634h4.347V96.083h-4.347c-1.999 0-3.651 1.558-3.651 3.634zM641.027 80.338h-2.695v6.402h2.695v-2.768h5.129v-2.855h-1.13V79.3h4.347V76.53h-8.346v3.807zM641.027 294.373h-2.695v-6.402h2.695v2.768h5.129v2.855h-1.13v1.73h4.347v2.856h-8.346v-3.807zM651.373 73.07v6.23h13.475v-6.23h-13.475z" stroke="#161616" stroke-width=".898" stroke-miterlimit="10"/><path d="M677.976 69.87h-28.601v3.2h28.862c3.477 0 6.259-2.768 6.259-6.229V39.936h-3.216v26.646a3.294 3.294 0 01-3.304 3.287z" stroke="#161616" stroke-width=".898" stroke-miterlimit="10"/><path d="M678.062 45.472v5.537c0 .605.522 1.124 1.131 1.124h2.086v-7.872h-2.086c-.609 0-1.131.519-1.131 1.21z" stroke="#161616" stroke-width=".898" stroke-miterlimit="10"/><path d="M684.496 45.732v5.018h1.913v-5.018h-1.913zM650.418 133.37v19.293h7.476V133.37h-7.476zM650.418 255.095v7.441h7.476v-7.441h-7.476zM654.156 226.545v7.441h7.477v-7.441h-7.477zM655.547 174.724v19.293h10.519v-19.293h-10.519z" fill="#161616"/><path d="M653.635 179.83v9.084h10.519v-9.084h-10.519z" fill="#161616"/><path d="M651.635 181.645v5.537h10.519v-5.537h-10.519z" fill="#161616"/><path d="M669.804 172.907v23.705h-19.386v-23.705a.87.87 0 01.869-.865h17.561c.522 0 .956.433.956.865z" stroke="#161616" stroke-width=".898" stroke-miterlimit="10"/><path d="M655.547 199.381v19.293h10.519v-19.293h-10.519z" fill="#161616"/><path d="M653.633 204.485v9.084h10.519v-9.084h-10.519z" fill="#161616"/><path d="M651.635 206.215v5.537h10.519v-5.537h-10.519z" fill="#161616"/><path d="M669.803 196.698v23.706a.868.868 0 01-.869.864h-17.561a.868.868 0 01-.869-.864v-23.706h19.299z" stroke="#161616" stroke-width=".898" stroke-miterlimit="10"/><path d="M650.418 109.666v19.292h7.476v-19.292h-7.476zM662.066 165.035a3.209 3.209 0 00-3.217-3.201 3.209 3.209 0 00-3.216 3.201c0 1.767 1.44 3.2 3.216 3.2a3.209 3.209 0 003.217-3.2zM662.066 242.897a3.209 3.209 0 00-3.217-3.201 3.209 3.209 0 00-3.216 3.201 3.209 3.209 0 003.216 3.202 3.209 3.209 0 003.217-3.202z" fill="#161616"/><path d="M686.406 79.299v216.025M1087.61 79.3v-1.73h8.43v8.565h-1.82M1087.61 295.498v1.817h8.43v-8.565h-1.82" stroke="#161616" stroke-width=".898" stroke-miterlimit="10"/><path d="M684.496 88.643V285.98h1.913V88.643h-1.913z" fill="#161616"/><path d="M794.033 173.687c7.389 0 13.388 5.969 13.388 13.322M794.033 200.246c-7.39 0-13.388-5.969-13.388-13.323M794.031 162.093c13.823 0 25.037 11.16 25.037 24.916M794.034 211.838c-13.824 0-25.038-11.16-25.038-24.915M794.033 222.74c-19.821 0-35.904-16.005-35.904-35.73M794.031 151.192c19.821 0 35.904 16.005 35.904 35.73M794.032 245.665c-32.601 0-59.028-26.3-59.028-58.742M794.033 128.266c32.6 0 59.028 26.3 59.028 58.742M794.032 256.827c-38.772 0-70.155-31.318-70.155-69.817M794.033 117.105c38.772 0 70.156 31.318 70.156 69.817M794.032 267.381c-44.684 0-80.848-35.99-80.848-80.458M794.033 106.551c44.684 0 80.849 35.989 80.849 80.458M794.033 277.59c-50.335 0-91.107-40.576-91.107-90.667M794.033 96.343c50.335 0 91.107 40.575 91.107 90.667M794.033 235.111c-26.689 0-48.336-21.542-48.336-48.101M794.033 138.82c26.688 0 48.335 21.542 48.335 48.102" stroke="#161616" stroke-width=".898" stroke-miterlimit="10" stroke-linecap="round" stroke-linejoin="round"/><path d="M887.052 103.177a9.142 9.142 0 01-1.999 5.71 8.932 8.932 0 01-6.869 3.201c-1.043 0-1.825-.779-1.825-1.817 0-1.039.782-1.817 1.825-1.817 1.566 0 3.131-.692 4.087-1.903 1.043-1.211 1.39-2.856 1.13-4.413-.435-2.076-2.086-3.72-4.086-4.066-1.652-.346-3.217.087-4.434 1.125-1.217 1.039-1.912 2.509-1.912 4.066 0 .606.086 1.298.348 1.817.956 2.509.26 5.451-1.739 7.44l-70.156 69.817a10.9 10.9 0 01-15.388 0l-70.155-69.817c-.956-.952-2.434-1.297-3.825-.865-1.478.519-3.043.606-4.608.346a8.885 8.885 0 01-7.041-7.007 9.099 9.099 0 011.825-7.44 8.931 8.931 0 016.868-3.201c4.955 0 8.954 3.979 8.954 8.91 0 1.038-.782 1.817-1.825 1.817-1.044 0-1.826-.779-1.826-1.817 0-2.941-2.347-5.277-5.303-5.277-1.565 0-3.13.692-4.086 1.904-1.043 1.211-1.391 2.854-1.13 4.411.435 2.077 2.086 3.72 4.173 4.066a6 6 0 002.782-.172c2.695-.953 5.651-.26 7.563 1.73l70.155 69.817c2.87 2.854 7.477 2.854 10.259 0l70.156-69.817c.956-.952 1.391-2.423.956-3.634-.348-.951-.521-2.076-.521-3.114a8.87 8.87 0 013.216-6.835c2.087-1.73 4.782-2.335 7.476-1.817 3.478.693 6.347 3.46 6.955 6.922v1.73zM887.05 271.533a9.14 9.14 0 01-1.999 5.71 8.928 8.928 0 01-6.868 3.201c-4.955 0-8.954-3.979-8.954-8.911 0-1.038.782-1.817 1.825-1.817s1.826.779 1.826 1.817c0 2.942 2.347 5.277 5.303 5.277 1.564 0 3.13-.691 4.085-1.902 1.044-1.212 1.392-2.856 1.131-4.413-.435-2.076-2.086-3.72-4.173-4.066a6.027 6.027 0 00-2.782.172c-2.694.953-5.65.26-7.563-1.729l-70.156-69.818c-2.868-2.854-7.476-2.854-10.258 0l-70.156 69.731c-.956.951-1.391 2.422-.956 3.634.348.951.522 2.076.522 3.114a8.866 8.866 0 01-3.217 6.834c-2.086 1.731-4.781 2.336-7.476 1.818-3.478-.693-6.347-3.461-6.955-6.922a9.097 9.097 0 011.826-7.44c1.651-2.076 4.259-3.201 6.867-3.201 1.044 0 1.826.779 1.826 1.817 0 1.039-.782 1.817-1.826 1.817-1.564 0-3.129.692-4.086 1.903-1.043 1.211-1.391 2.855-1.13 4.413.435 2.076 2.087 3.719 4.086 4.066 1.652.346 3.217-.087 4.434-1.125 1.217-1.039 1.912-2.509 1.912-4.066 0-.606-.087-1.298-.347-1.817-.957-2.509-.261-5.451 1.738-7.441l70.156-69.817a10.9 10.9 0 0115.387 0l70.33 69.904c.957.952 2.434 1.298 3.825.866 1.478-.52 3.043-.606 4.608-.346a8.886 8.886 0 017.042 7.007c.173.519.173 1.124.173 1.73zM1002.24 187.354c0 8.306-6.782 15.141-15.213 15.141-8.346 0-15.215-6.748-15.215-15.141 0-8.391 6.782-15.139 15.215-15.139 8.431 0 15.213 6.834 15.213 15.139zm-26.689 0c0 6.316 5.216 11.507 11.562 11.507 6.346 0 11.563-5.191 11.563-11.507 0-6.315-5.217-11.506-11.563-11.506-6.433 0-11.562 5.191-11.562 11.506z" fill="#F1F1F1" stroke="#161616" stroke-width=".898" stroke-miterlimit="10"/><path d="M1013.89 187.355c0 14.708-12 26.733-26.863 26.733-14.866 0-26.863-11.939-26.863-26.733s11.997-26.733 26.863-26.733c14.863 0 26.863 12.026 26.863 26.733zm-49.988 0c0 12.717 10.432 23.1 23.212 23.1 12.779 0 23.216-10.383 23.216-23.1 0-12.717-10.437-23.099-23.216-23.099-12.866 0-23.212 10.382-23.212 23.099z" fill="#F1F1F1" stroke="#161616" stroke-width=".898" stroke-miterlimit="10"/><path d="M1024.76 187.355c0 20.678-16.96 37.548-37.733 37.548-20.778 0-37.73-16.87-37.73-37.548 0-20.676 16.952-37.546 37.73-37.546 20.863 0 37.733 16.87 37.733 37.546zm-71.812 0c0 18.688 15.301 33.915 34.079 33.915 18.773 0 34.073-15.227 34.073-33.915 0-18.686-15.3-33.913-34.073-33.913-18.778 0-34.079 15.227-34.079 33.913z" fill="#F1F1F1" stroke="#161616" stroke-width=".898" stroke-miterlimit="10"/><path d="M1037.27 187.355c0 27.598-22.51 50.005-50.245 50.005-27.732 0-50.248-22.407-50.248-50.005 0-27.597 22.516-50.004 50.248-50.004 27.735 0 50.245 22.407 50.245 50.004zm-96.841 0c0 25.608 20.863 46.372 46.596 46.372 25.735 0 46.595-20.764 46.595-46.372s-20.86-46.371-46.595-46.371c-25.733 0-46.596 20.763-46.596 46.371z" fill="#F1F1F1" stroke="#161616" stroke-width=".898" stroke-miterlimit="10"/><path d="M1047.88 187.355c0 33.395-27.3 60.474-60.77 60.474-33.555 0-60.766-27.166-60.766-60.474 0-33.394 27.297-60.473 60.766-60.473 33.47 0 60.77 27.079 60.77 60.473zm-117.972 0c0 31.405 25.646 56.84 57.116 56.84 31.466 0 57.116-25.521 57.116-56.84 0-31.318-25.65-56.84-57.116-56.84-31.47 0-57.116 25.436-57.116 56.84z" fill="#F1F1F1" stroke="#161616" stroke-width=".898" stroke-miterlimit="10"/><path d="M1059.01 187.355c0 39.538-32.26 71.634-71.985 71.634-39.729 0-71.982-32.096-71.982-71.634 0-39.537 32.253-71.633 71.982-71.633 39.725 0 71.985 32.096 71.985 71.633zm-140.316 0c0 37.461 30.688 68 68.331 68 37.645 0 68.325-30.539 68.325-68 0-37.46-30.68-68-68.325-68-37.643 0-68.331 30.453-68.331 68z" fill="#F1F1F1" stroke="#161616" stroke-width=".898" stroke-miterlimit="10"/><path d="M1069.7 187.354c0 45.334-37.04 82.189-82.589 82.189-45.554 0-82.588-36.855-82.588-82.189 0-45.333 37.034-82.188 82.588-82.188 45.549 0 82.589 36.855 82.589 82.188zm-161.612 0c0 43.344 35.469 78.555 78.936 78.555 43.556 0 78.936-35.298 78.936-78.555 0-43.257-35.47-78.554-78.936-78.554-43.554 0-78.936 35.211-78.936 78.554z" fill="#F1F1F1" stroke="#161616" stroke-width=".898" stroke-miterlimit="10"/><path d="M1079.87 187.355c0 50.957-41.64 92.398-92.844 92.398-51.205 0-92.846-41.441-92.846-92.398 0-50.956 41.641-92.396 92.846-92.396 51.204 0 92.844 41.44 92.844 92.396zm-182.039 0c0 48.968 39.99 88.764 89.195 88.764 49.204 0 89.194-39.796 89.194-88.764 0-48.966-39.99-88.763-89.194-88.763-49.205 0-89.195 39.797-89.195 88.763z" fill="#F1F1F1" stroke="#161616" stroke-width=".898" stroke-miterlimit="10"/><rect x="980.203" y="180.36" width="14.375" height="14.375" rx="7.188" fill="#A0F200"/><path d="M907.393 271.534c0-2.723-2.218-4.93-4.955-4.93-2.736 0-4.956 2.207-4.956 4.93 0 2.724 2.22 4.932 4.956 4.932 2.737 0 4.955-2.208 4.955-4.932zM907.393 103.178c0-2.724-2.218-4.932-4.955-4.932-2.736 0-4.956 2.208-4.956 4.932 0 2.723 2.22 4.93 4.956 4.93 2.737 0 4.955-2.207 4.955-4.93zM1076.57 103.178c0-2.724-2.22-4.932-4.96-4.932a4.937 4.937 0 00-4.95 4.932c0 2.723 2.21 4.93 4.95 4.93s4.96-2.207 4.96-4.93zM1076.57 271.534c0-2.723-2.22-4.93-4.96-4.93a4.936 4.936 0 00-4.95 4.93 4.937 4.937 0 004.95 4.932c2.74 0 4.96-2.208 4.96-4.932z" fill="#F1F1F1" stroke="#161616" stroke-width=".898" stroke-miterlimit="10"/><path d="M900.004 271.533h4.955M902.439 269.023v4.932M900.004 103.178h4.955M902.439 100.755v4.931M1069.18 271.533h4.96M1071.61 269.023v4.932M1069.18 103.179h4.95M1071.61 100.755v4.931" stroke="#161616" stroke-width=".898" stroke-miterlimit="10"/><path d="M713.965 271.534c0-2.723-2.218-4.93-4.955-4.93s-4.955 2.207-4.955 4.93c0 2.724 2.218 4.932 4.955 4.932s4.955-2.208 4.955-4.932zM713.965 103.178c0-2.724-2.218-4.932-4.955-4.932s-4.955 2.208-4.955 4.932c0 2.723 2.218 4.93 4.955 4.93s4.955-2.207 4.955-4.93zM883.051 103.178c0-2.724-2.218-4.932-4.955-4.932s-4.955 2.208-4.955 4.932c0 2.723 2.218 4.93 4.955 4.93s4.955-2.207 4.955-4.93zM883.051 271.533c0-2.723-2.218-4.93-4.955-4.93s-4.955 2.207-4.955 4.93c0 2.724 2.218 4.932 4.955 4.932s4.955-2.208 4.955-4.932z" fill="#F1F1F1" stroke="#161616" stroke-width=".898" stroke-miterlimit="10"/><path d="M706.488 271.533h4.956M709.012 269.023v4.932M706.488 103.179h4.956M709.012 100.755v4.931M875.662 271.533h4.956M878.098 269.023v4.932M875.662 103.178h4.956M878.098 100.755v4.931" stroke="#161616" stroke-width=".898" stroke-miterlimit="10"/><path d="M991.285 32.061a2.775 2.775 0 00-2.782-2.768 2.776 2.776 0 00-2.782 2.768 2.776 2.776 0 002.782 2.769 2.775 2.775 0 002.782-2.769zM1052.31 32.061a2.771 2.771 0 00-2.78-2.768c-1.53 0-2.78 1.24-2.78 2.768a2.778 2.778 0 002.78 2.769c1.54 0 2.78-1.24 2.78-2.769z" stroke="#F1F1F1" stroke-width=".898" stroke-miterlimit="10" stroke-linejoin="round"/><path d="M716.051 15.278V34.83h28.514V15.279h-28.514z" stroke="#161616" stroke-width=".898" stroke-miterlimit="10"/><path d="M718.834 34.917V15.192M731.787 34.917V15.192M741.002 25.055c0-1.816-1.246-3.287-2.782-3.287-1.537 0-2.782 1.471-2.782 3.287 0 1.816 1.245 3.288 2.782 3.288 1.536 0 2.782-1.472 2.782-3.288zM722.746 25.056h4.956" stroke="#F1F1F1" stroke-width=".898" stroke-miterlimit="10" stroke-linejoin="round"/><path d="M714.922 35.955h30.687V14.24h-30.687v21.715zm29.644-20.59v19.552h-28.514V15.365h28.514z" fill="#F1F1F1"/><path d="M987.461 173.6c7.389 0 13.389 5.969 13.389 13.323M987.458 200.246c-7.389 0-13.388-5.969-13.388-13.323M987.461 162.007c13.819 0 25.039 11.16 25.039 24.916M987.46 211.838c-13.824 0-25.038-11.16-25.038-24.915M987.462 222.74c-19.82 0-35.903-16.005-35.903-35.73M987.461 151.192c19.819 0 35.899 16.005 35.899 35.73M987.46 245.665c-32.601 0-59.028-26.3-59.028-58.742M987.461 128.18c32.599 0 59.029 26.301 59.029 58.743M987.46 256.827c-38.772 0-70.155-31.318-70.155-69.817M987.461 117.105c38.769 0 70.159 31.318 70.159 69.817M987.462 267.381c-44.685 0-80.849-35.99-80.849-80.458M987.461 106.466c44.679 0 80.849 35.989 80.849 80.458M987.46 277.59c-50.334 0-91.106-40.576-91.106-90.667M987.461 96.256c50.329 0 91.109 40.575 91.109 90.667M987.461 235.024c-26.689 0-48.336-21.542-48.336-48.101M987.461 138.82c26.689 0 48.339 21.542 48.339 48.102" stroke="#161616" stroke-width=".898" stroke-miterlimit="10" stroke-linecap="round" stroke-linejoin="round"/><path d="M1080.57 103.177c0 2.076-.7 4.065-2 5.71a8.934 8.934 0 01-6.87 3.201c-1.04 0-1.83-.779-1.83-1.817 0-1.039.79-1.817 1.83-1.817 1.57 0 3.13-.692 4.09-1.903 1.04-1.211 1.39-2.856 1.13-4.413-.44-2.076-2.09-3.72-4.09-4.066-1.65-.346-3.22.087-4.43 1.125-1.22 1.039-1.92 2.509-1.92 4.066 0 .606.09 1.298.35 1.817.96 2.509.26 5.451-1.74 7.44l-70.152 69.817a10.9 10.9 0 01-15.388 0l-70.155-69.817c-.957-.952-2.435-1.297-3.826-.865-1.478.519-3.042.606-4.607.346a8.886 8.886 0 01-7.042-7.007 9.1 9.1 0 011.826-7.44 8.929 8.929 0 016.867-3.201c4.956 0 8.955 3.979 8.955 8.91 0 1.038-.782 1.817-1.826 1.817-1.043 0-1.825-.779-1.825-1.817 0-2.941-2.348-5.277-5.304-5.277-1.564 0-3.129.692-4.085 1.904-1.044 1.211-1.392 2.854-1.13 4.411.435 2.077 2.086 3.72 4.172 4.066a6.004 6.004 0 002.783-.172c2.694-.953 5.65-.26 7.563 1.73l70.155 69.817c2.869 2.854 7.477 2.854 10.259 0l70.16-69.817c.95-1.038 1.39-2.423.95-3.634-.35-.951-.52-2.076-.52-3.114a8.873 8.873 0 013.22-6.835c2.08-1.73 4.78-2.335 7.47-1.817 3.48.693 6.35 3.46 6.96 6.922-.09.519 0 1.124 0 1.73zM1080.57 271.533c0 2.076-.7 4.066-2 5.71a8.931 8.931 0 01-6.87 3.201c-4.96 0-8.95-3.979-8.95-8.911 0-1.038.78-1.817 1.82-1.817s1.83.779 1.83 1.817c0 2.942 2.34 5.277 5.3 5.277 1.56 0 3.13-.691 4.09-1.902 1.04-1.212 1.39-2.856 1.13-4.413-.44-2.076-2.09-3.72-4.18-4.066a6.024 6.024 0 00-2.78.172c-2.69.953-5.65.26-7.56-1.729l-70.158-69.818c-2.869-2.854-7.476-2.854-10.259 0l-70.242 69.731c-.956.951-1.391 2.422-.956 3.634.348.951.522 2.076.522 3.114a8.87 8.87 0 01-3.217 6.834c-2.087 1.731-4.781 2.336-7.476 1.818-3.478-.693-6.347-3.461-6.955-6.922a9.096 9.096 0 011.825-7.44 8.932 8.932 0 016.868-3.201c1.043 0 1.826.779 1.826 1.817 0 1.039-.783 1.817-1.826 1.817-1.565 0-3.129.692-4.086 1.903-1.043 1.211-1.391 2.855-1.13 4.413.435 2.076 2.087 3.719 4.086 4.066 1.652.346 3.216-.087 4.434-1.125 1.217-1.039 1.912-2.509 1.912-4.066 0-.606-.087-1.298-.347-1.817-.957-2.509-.262-5.451 1.738-7.441l70.156-69.817a10.9 10.9 0 0115.387 0l70.418 69.904c.95.952 2.43 1.298 3.82.866 1.48-.52 3.05-.606 4.61-.346a8.869 8.869 0 017.04 7.007c.09.519.18 1.124.18 1.73z" fill="#F1F1F1" stroke="#161616" stroke-width=".898" stroke-miterlimit="10"/><path d="M787.25 193.324a9.11 9.11 0 0112.867 0l70.155 69.817c1.478 1.471 3.738 1.903 5.737 1.297 1.131-.345 2.435-.519 3.739-.259 2.782.519 5.042 2.769 5.564 5.537M709.009 264.093c-4.434 0-7.911 3.979-6.955 8.565M799.943 180.694a9.105 9.105 0 01-12.865 0l-70.244-69.903c-1.477-1.471-3.738-1.903-5.737-1.298-1.13.346-2.434.52-3.738.26-2.782-.519-5.042-2.769-5.564-5.537M878.184 109.926c4.433 0 7.911-3.98 6.954-8.566M980.854 193.324a9.107 9.107 0 0112.865 0l70.241 69.817c1.48 1.471 3.74 1.903 5.74 1.297 1.13-.345 2.43-.519 3.74-.259 2.78.519 5.04 2.769 5.56 5.537M902.698 264.094c-4.434 0-7.911 3.979-6.955 8.565M993.632 180.694a9.105 9.105 0 01-12.865 0l-70.243-69.903c-1.478-1.471-3.738-1.903-5.738-1.298-1.13.346-2.434.52-3.738.26-2.782-.519-5.043-2.769-5.564-5.537M1071.79 109.926c4.43 0 7.91-3.98 6.95-8.566" stroke="#161616" stroke-width=".898" stroke-miterlimit="10" stroke-linecap="round" stroke-linejoin="round"/><mask id="bwa" style="mask-type:luminance" maskUnits="userSpaceOnUse" x="647" y="109" width="51" height="150"><path d="M697.238 109.676v149.062h-49.845V109.676h49.845z" fill="#C4C4C4"/></mask><g mask="url(#bwa)" stroke-width="2.246" stroke-linecap="round"><path d="M654.039 112.999c25.16 0 33.705 126.75 43.199 126.75M654.039 117.271c25.16 0 33.705 127.226 43.199 127.226M654.039 121.544c25.16 0 33.705 127.699 43.199 127.699" stroke="#A0F200"/><path d="M654.039 125.342c25.16 0 33.705 128.648 43.199 128.648" stroke="#FF005E"/></g><mask id="bwb" style="mask-type:luminance" maskUnits="userSpaceOnUse" x="651" y="131" width="212" height="183"><path d="M862.438 295.876h-40.35V131.985H651.664v181.343h210.774v-17.452z" fill="#C4C4C4"/></mask><g mask="url(#bwb)" stroke-width="2.246" stroke-linecap="round"><path d="M654.039 144.805c25.16 0 93.045 197.482 186.089 149.061" stroke="#A0F200"/><path d="M654.039 148.603c25.16 0 87.348 194.159 180.393 145.738" stroke="#FF005E"/><path d="M654.039 140.533c25.16 0 97.792 202.704 190.836 154.283M654.039 136.26c25.16 0 103.489 206.502 196.533 158.081" stroke="#A0F200"/></g><mask id="bwc" style="mask-type:luminance" maskUnits="userSpaceOnUse" x="649" y="18" width="37" height="52"><path d="M685.994 69.409h-36.226v-50.88h36.226v50.88z" fill="#C4C4C4"/></mask><g mask="url(#bwc)" stroke-width="2.246" stroke-linecap="round"><path d="M654.989 69.8c0-15.191-7.121-45.573 31.331-45.573" stroke="#A0F200"/><path d="M660.17 69.8c0-14.559-5.943-43.675 26.151-43.675" stroke="#FF005E"/></g></g><path d="M1 187.019c0-47.963 36.723-83.935 86.098-83.935 39.06 0 73.427 22.976 81.039 61.504H133.75c-6.507-20.385-25.105-31.347-46.652-31.347-15.552 0-28.701 5.603-37.96 15.178-9.26 9.574-14.603 23.089-14.603 38.867 0 31.588 21.97 54.046 52.288 54.046 21.831 0 40.42-11.765 46.926-31.883h34.382c-8.153 39.322-42.795 61.772-81.584 61.772C37.724 270.953 1 234.981 1 187.019zM352.288 166.18v101.037h-33.339v-94.376c0-12.45-2.916-22.106-9.07-28.65-6.162-6.55-15.492-9.903-28.146-9.903-14.609 0-25.939 4.633-33.609 13.242-7.663 8.602-11.618 21.111-11.618 36.765v82.922h-33.34V43.034h33.34v91.7l.854-1.341c11.8-18.518 29.892-29.622 55.427-29.622 18.551 0 33.41 5.892 43.635 16.606 10.227 10.717 15.866 26.31 15.866 45.803zM430.352 52.963c0 11.796-9.05 20.473-21.655 20.473-12.058 0-21.381-8.677-21.381-20.473 0-11.517 9.31-19.937 21.381-19.937 12.617 0 21.655 8.42 21.655 19.937zm-37.849 53.067h32.935v161.187h-32.935V106.03zM465.379 43.034h34.028v224.183h-34.028V43.034zM574.889 193.352v73.865h-33.448V43.034h33.448V177.66l.789-.761 72.221-69.664h42.998l-81.209 75.663-.353.33.349.332 87.885 83.658h-43.297l-78.597-74.196-.786-.741v1.072zM1116.97 71.055l33.46-7.003v43.877h68.81v30.005h-68.81v66.836c0 11.794 2.87 20.984 8.52 27.229 5.65 6.253 14.05 9.483 24.97 9.483 10.49 0 22.32-3.404 35.17-7.852l5.91 26.093c-9.2 5.257-28.33 11.498-47.19 11.498-17.1 0-32.3-5.168-43.23-15.828-10.92-10.659-17.61-26.858-17.61-49.024v-68.435h-31.08v-30.272h31.08V71.054z" fill="#161616" stroke="#161616" stroke-width=".733"/><defs><clipPath id="bwclip0_601_2800"><path fill="#fff" transform="translate(902.039 105.79)" d="M0 0h168.906v164.219H0z"/></clipPath><clipPath id="bwclip1_601_2800"><path fill="#fff" transform="translate(708.875 105.79)" d="M0 0h168.906v164.219H0z"/></clipPath><clipPath id="bwclip2_601_2800"><path fill="#fff" transform="translate(637 1)" d="M0 0h460v310H0z"/></clipPath></defs></svg>