<?xml version="1.0" encoding="utf-8"?><svg width="188" height="50" fill="none" xmlns="http://www.w3.org/2000/svg" viewBox="0 0 188 50"><path d="M14.18 1.614L.684 24.99 14.18 48.365h26.992L54.667 24.99 41.172 1.614H14.18z" fill="#FEFEFE"/><path d="M40.581 17.669l-3.564 5.94-8.29-14.35-.129-.237H11.914l3.425-5.93h16.828l8.414 14.577z" fill="#749737"/><path d="M48.696 17.799l-8.41 14.57-6.93-.114 8.206-14.22.218-.36-.005-.006-8.337-14.441h6.843l8.415 14.57z" fill="#353879"/><path d="M52.64 24.895L44.226 39.47H27.4l-3.368-6.064h16.523l.32.005.006-.005 2.468-4.277 5.873-10.16 3.42 5.925z" fill="#353879"/><path d="M43.474 40.505l-3.42 5.93H23.226l-8.413-14.57 3.563-5.952 8.285 14.35.016.03.119.212h16.678z" fill="#7E797F"/><path d="M13.613 31.856l8.341 14.442h-6.848L6.691 31.722l8.415-14.57 6.931.113-8.316 14.406-.108.185z" fill="#7E797F"/><path d="M31.356 16.114H14.823l-.31-.005v.005L6.171 30.556 2.75 24.63l8.414-14.575h16.823l3.368 6.058z" fill="#749737"/><path d="M87.427 13.952h2.425v2.705h-2.425v-2.705zm6.031 5.277h2.267v2.015c.672-.83 1.385-1.427 2.136-1.789.75-.363 1.587-.544 2.506-.544 2.015 0 3.376.703 4.083 2.108.389.77.583 1.87.583 3.301v9.108h-2.426V24.48c0-.866-.128-1.564-.384-2.095-.424-.883-1.194-1.325-2.307-1.325-.566 0-1.03.057-1.392.172-.654.194-1.23.583-1.723 1.166-.398.47-.657.953-.776 1.452-.12.5-.18 1.213-.18 2.141v7.438H93.46V19.23zm23.873.392c.94.472 1.655 1.084 2.147 1.835.475.717.791 1.552.949 2.506.141.654.211 1.697.211 3.13H110.31c.044 1.444.382 2.603 1.013 3.475.631.874 1.609 1.31 2.933 1.31 1.237 0 2.223-.413 2.961-1.239a4.232 4.232 0 00.876-1.665h2.346c-.062.522-.267 1.103-.617 1.744-.349.641-.738 1.165-1.168 1.571-.719.707-1.609 1.184-2.67 1.432a8.09 8.09 0 01-1.935.212c-1.756 0-3.245-.643-4.466-1.929s-1.832-3.087-1.832-5.402c0-2.28.615-4.133 1.845-5.556s2.837-2.134 4.823-2.134c1.001 0 1.972.237 2.912.71zm.854 5.574c-.096-1.034-.32-1.86-.67-2.479-.648-1.149-1.731-1.724-3.247-1.724-1.087 0-1.999.396-2.735 1.187-.736.791-1.126 1.797-1.169 3.016h7.821zm5.542-5.966h2.267v2.453c.186-.478.641-1.058 1.366-1.744.724-.684 1.559-1.027 2.506-1.027.044 0 .119.005.225.013.106.01.287.027.543.053v2.52a3.483 3.483 0 00-.391-.054 5.23 5.23 0 00-.39-.013c-1.203 0-2.127.387-2.772 1.16a4.05 4.05 0 00-.967 2.672v8.166h-2.387V19.23zm9.546-5.277h8.715c1.722 0 3.114.49 4.173 1.465 1.059.977 1.589 2.35 1.589 4.117 0 1.52-.472 2.844-1.418 3.97-.945 1.128-2.392 1.691-4.34 1.691h-6.081v8.233h-2.638V13.952zm10.233 2.678c-.58-.273-1.374-.41-2.383-.41h-5.212v6.748h5.212c1.176 0 2.13-.252 2.863-.756.733-.503 1.099-1.392 1.099-2.665 0-1.432-.526-2.404-1.579-2.917zm14.917 8.205c.548-.07.915-.3 1.101-.688.106-.213.158-.519.158-.919 0-.816-.289-1.408-.867-1.776-.577-.368-1.404-.552-2.48-.552-1.244 0-2.126.337-2.646 1.012-.291.373-.481.928-.569 1.666h-2.228c.045-1.756.612-2.976 1.702-3.664 1.09-.686 2.354-1.029 3.794-1.029 1.668 0 3.024.317 4.065.954 1.033.636 1.549 1.626 1.549 2.97v8.18c0 .248.052.446.153.597.101.15.316.224.643.224.106 0 .225-.006.358-.019a5.9 5.9 0 00.424-.06v1.763a6.412 6.412 0 01-.848.2 6.13 6.13 0 01-.796.04c-.822 0-1.419-.293-1.79-.876-.194-.309-.331-.747-.411-1.312-.486.637-1.184 1.19-2.094 1.657-.911.468-1.914.703-3.009.703-1.318 0-2.394-.4-3.229-1.199s-1.253-1.798-1.253-2.999c0-1.315.411-2.335 1.233-3.059.822-.724 1.901-1.17 3.235-1.337l3.805-.477zm-5.025 6.447c.504.397 1.1.595 1.79.595.839 0 1.652-.194 2.439-.582 1.326-.645 1.989-1.699 1.989-3.164v-1.919c-.292.186-.666.341-1.124.465a9.545 9.545 0 01-1.35.266l-1.442.185c-.865.115-1.515.296-1.95.543-.739.414-1.107 1.076-1.107 1.984 0 .687.252 1.23.755 1.627zM165.98 19.23h2.267v2.453c.185-.478.641-1.058 1.365-1.744.725-.684 1.561-1.027 2.506-1.027.044 0 .119.005.226.013.105.01.287.027.543.053v2.52a3.514 3.514 0 00-.391-.054 5.238 5.238 0 00-.391-.013c-1.202 0-2.126.387-2.771 1.16a4.05 4.05 0 00-.968 2.672v8.166h-2.386V19.23zm8.922-5.277h2.294V25.26l6.12-6.03h3.048l-5.457 5.278 5.763 8.92h-3.049l-4.466-7.225-1.959 1.895v5.33h-2.294V13.952zm-87.475 5.343h2.425v14.133h-2.425V19.295zM65.06 13.952h3.78l5.6 16.467L80 13.952h3.754v19.476h-2.519V21.933c0-.397.01-1.055.028-1.975.017-.919.026-1.904.026-2.956l-5.561 16.426h-2.614L67.5 17.002v.596c0 .478.014 1.205.04 2.181.027.977.04 1.695.04 2.154v11.495h-2.52V13.952z" fill="#2B2B2A"/></svg>