<?xml version="1.0" encoding="utf-8"?><svg width="54" height="54" fill="none" xmlns="http://www.w3.org/2000/svg" viewBox="0 0 54 54"><g fill="#009482"><path d="M52.56 21.57C48.977 15.38 43.23 8 36.197 8H9.603C4.307 8 0 13.585 0 20.447v13.519c0 6.862 4.307 12.447 9.603 12.447h26.594c7.025 0 12.78-7.38 16.362-13.57 1.921-3.317 1.921-7.956 0-11.273zM51.28 32.097c-2.777 4.794-8.428 12.839-15.084 12.839H9.603c-4.484 0-8.126-4.92-8.126-10.97V20.447c0-6.05 3.642-10.97 8.126-10.97h26.594c6.656 0 12.307 8.045 15.084 12.84 1.67 2.88 1.67 6.899 0 9.78z"/><path d="M45.475 22.73a4.483 4.483 0 00-4.477 4.477 4.483 4.483 0 004.477 4.477 4.483 4.483 0 004.477-4.477 4.483 4.483 0 00-4.477-4.477zm0 7.476c-1.655 0-2.999-1.344-2.999-2.999s1.344-3 3-3c1.654 0 2.998 1.345 2.998 3s-1.344 3-2.999 3zM12.262 23.477c-.864 0-1.588.214-2.157.635v-.288a.183.183 0 00-.184-.185H8.25a.183.183 0 00-.184.185v7.601c0 .104.08.185.184.185h1.67a.183.183 0 00.184-.185v-4.89c.148-.347.377-.628.665-.828.303-.206.636-.31 1.005-.31.584 0 1.02.14 1.285.421.266.288.407.768.407 1.44v4.167c0 .104.08.185.184.185h1.67a.183.183 0 00.184-.185v-4.3c-.007-2.422-1.093-3.648-3.243-3.648zM20.374 23.46c-1.278 0-2.29.392-3.007 1.168-.716.776-1.078 1.773-1.078 2.977 0 1.249.398 2.253 1.174 3.007.776.746 1.817 1.123 3.088 1.123 1.344 0 2.43-.547 3.236-1.626a.2.2 0 00-.015-.243l-1.027-1.012c-.037-.037-.096-.067-.14-.052a.188.188 0 00-.133.074c-.466.628-1.079.93-1.884.93-.613 0-1.123-.147-1.515-.428-.34-.244-.546-.576-.635-1.012h5.43c.096 0 .17-.067.184-.163.06-.465.09-.827.09-1.093 0-1.093-.363-1.987-1.065-2.66-.716-.65-1.625-.99-2.703-.99zm-.074 1.877c.502 0 .901.126 1.197.37.25.206.413.487.494.857h-3.53c.11-.348.302-.628.576-.843.332-.258.753-.384 1.263-.384zM35.554 23.639h-1.699a.182.182 0 00-.177.133l-1.315 4.306-1.625-4.314a.182.182 0 00-.17-.118h-1.256a.186.186 0 00-.17.118l-1.603 4.314-1.41-4.306a.184.184 0 00-.178-.126H24.23c-.06 0-.118.03-.148.074a.175.175 0 00-.022.17l2.541 7.601a.184.184 0 00.178.126h1.3c.074 0 .147-.044.17-.118l1.684-4.477 1.67 4.477c.029.074.095.118.17.118h1.329a.191.191 0 00.177-.126l2.453-7.601a.18.18 0 00-.03-.163c-.03-.066-.088-.088-.148-.088z"/></g></svg>