<?xml version="1.0" encoding="utf-8"?><svg xmlns="http://www.w3.org/2000/svg" width="22" height="22" fill="none" viewBox="0 0 22 22"><path d="M8 1h6c5 0 7 2 7 7v6c0 5-2 7-7 7H8c-5 0-7-2-7-7V8c0-5 2-7 7-7zM7.57 14.27l6.54-6.54" stroke="#161616" stroke-width="1.5" stroke-linecap="round" stroke-linejoin="round"/><path d="M7.98 9.37a1.23 1.23 0 100-2.46 1.23 1.23 0 000 2.46zM14.519 15.09a1.23 1.23 0 100-2.46 1.23 1.23 0 000 2.46z" stroke="#161616" stroke-width="1.5" stroke-linecap="round" stroke-linejoin="round"/></svg>