<?xml version="1.0" encoding="utf-8"?><svg width="54" height="54" fill="none" xmlns="http://www.w3.org/2000/svg" viewBox="0 0 54 54"><g fill="#009482" clip-path="url(#bbclip0_391_25225)"><path d="M37.807 28.796a.589.589 0 00.094-.175.351.351 0 01.024-.074 12.089 12.089 0 001.266-5.373c0-6.72-5.467-12.193-12.192-12.193-4.077 0-7.686 2.02-9.898 5.105a.438.438 0 00-.063.088 12.117 12.117 0 00-2.225 7c0 6.719 5.466 12.191 12.192 12.191 4.687 0 8.764-2.674 10.802-6.57zm.118-5.23c-.074-.137-.15-.274-.243-.405-1.589-2.225-5.267-2.543-8.14-2.562l6.358-3.521a.49.49 0 00.124-.1 10.857 10.857 0 011.926 6.19c-.006.136-.025.267-.025.398zM27 12.228c3.247 0 6.158 1.428 8.165 3.684h-16.33c2.006-2.25 4.917-3.684 8.165-3.684zm0 21.89c-6.034 0-10.946-4.91-10.946-10.945 0-2.218.667-4.288 1.808-6.014h15.315L26.91 20.63c-.299.05-.536.356-.536.667a.63.63 0 00.306.536c.174.1.38.113.56.038.225 0 .462-.006.718-.006 2.686-.044 7.174-.106 8.707 2.025.692.966.724 2.381.1 4.195C34.96 31.657 31.27 34.12 27 34.12z"/><path d="M53.814 41.293l-9.992-9.992c-.012-.068-.019-.13-.043-.2l-1.035-3.253a.814.814 0 01.23-.848l2.525-2.3c.43-.386.673-.947.673-1.52 0-.574-.243-1.135-.673-1.528l-2.525-2.3a.817.817 0 01-.23-.847l1.035-3.254a2.063 2.063 0 00-1.528-2.643l-3.34-.73a.818.818 0 01-.624-.623l-.73-3.334a2.066 2.066 0 00-2.642-1.527l-3.254 1.034a.817.817 0 01-.847-.23l-2.3-2.525a2.068 2.068 0 00-3.054 0l-2.3 2.525a.817.817 0 01-.848.23l-3.254-1.034a2.063 2.063 0 00-2.643 1.527l-.73 3.334a.818.818 0 01-.623.624l-3.334.729a2.066 2.066 0 00-1.527 2.643l1.034 3.254a.814.814 0 01-.23.847l-2.506 2.294c-.43.393-.673.947-.673 1.527s.243 1.135.673 1.521l2.524 2.3a.817.817 0 01.231.848l-1.035 3.254c-.018.062-.025.13-.043.199L.184 41.293a.624.624 0 00.411 1.066l6.838.305.306 6.838a.63.63 0 00.623.598.627.627 0 00.442-.18l9.874-9.874c.13-.012.268-.043.399-.08l3.253-1.035a.814.814 0 01.848.23l2.3 2.525a2.068 2.068 0 003.054 0l2.3-2.525a.817.817 0 01.848-.23l3.254 1.034c.13.044.262.069.399.081l9.867 9.867a.628.628 0 001.066-.417l.305-6.838 6.838-.305a.63.63 0 00.555-.4.637.637 0 00-.15-.66zM8.917 48.031l-.268-5.99a.618.618 0 00-.593-.592l-5.99-.274 8.365-8.365c.025.043.063.08.088.118.05.069.093.137.15.193.037.044.086.075.13.119.056.056.112.112.18.156.07.05.144.087.219.13.05.025.087.057.137.081.087.038.175.063.268.088.044.012.087.037.137.043l3.341.73c.056.012.1.037.15.056a.82.82 0 01.473.567l.73 3.335c.03.137.075.268.13.392.02.044.044.075.063.119.044.08.087.162.137.23.038.05.075.094.112.138.044.056.094.112.144.162.05.05.106.093.168.137.031.025.056.05.087.068l-8.358 8.359zm23.137-10.297a2.071 2.071 0 00-2.15.573l-2.3 2.525a.832.832 0 01-1.203 0l-2.3-2.525a2.065 2.065 0 00-1.528-.673c-.205 0-.417.031-.623.1l-3.254 1.035a.83.83 0 01-.249.037c-.006 0-.012-.006-.019-.006a.818.818 0 01-.573-.268c-.025-.031-.056-.056-.081-.088a.846.846 0 01-.125-.274v-.006l-.729-3.335a2.065 2.065 0 00-1.57-1.577l-3.335-.73c-.007 0-.007-.005-.013-.005a.847.847 0 01-.274-.125.497.497 0 01-.081-.081.75.75 0 01-.131-.15.968.968 0 01-.106-.212v-.012a.88.88 0 01-.031-.287v-.006a.788.788 0 01.037-.174l1.035-3.254a2.071 2.071 0 00-.574-2.15l-2.524-2.3a.816.816 0 010-1.21l2.524-2.3a2.071 2.071 0 00.574-2.15l-1.035-3.254a.828.828 0 01.069-.655.817.817 0 01.53-.386l3.334-.73a2.057 2.057 0 001.571-1.57l.73-3.329a.802.802 0 01.386-.53.78.78 0 01.654-.068l3.254 1.035a2.071 2.071 0 002.15-.574l2.3-2.524a.832.832 0 011.203 0l2.3 2.524a2.071 2.071 0 002.15.574l3.255-1.035a.828.828 0 01.654.069c.2.118.337.305.386.53l.73 3.334a2.057 2.057 0 001.57 1.57l3.335.73c.225.05.418.187.53.387a.78.78 0 01.069.654l-1.035 3.254a2.071 2.071 0 00.573 2.15l2.525 2.3a.794.794 0 01.268.605c0 .23-.094.449-.268.605l-2.525 2.3a2.071 2.071 0 00-.573 2.15l1.035 3.254a.872.872 0 01.037.174v.007c.006.1 0 .193-.031.286v.013a.96.96 0 01-.106.212.75.75 0 01-.131.15c-.031.024-.05.055-.081.08a.845.845 0 01-.274.125c-.007 0-.007.006-.013.006l-3.334.73a2.067 2.067 0 00-1.303.922 2.039 2.039 0 00-.275.654l-.716 3.329a.843.843 0 01-.125.274c-.025.031-.05.063-.081.087a.798.798 0 01-.262.194.99.99 0 01-.124.043c-.057.013-.113.032-.175.032a.721.721 0 01-.28-.032l-3.248-1.028zm13.887 3.709a.617.617 0 00-.592.592l-.268 5.99-8.352-8.346c.031-.02.056-.05.08-.069.057-.044.113-.087.17-.137.05-.05.099-.106.143-.156.037-.044.08-.087.112-.137.05-.075.093-.15.137-.23.019-.038.044-.076.062-.12.056-.124.1-.255.131-.392l.73-3.335a.817.817 0 01.623-.623l3.334-.73c.044-.005.082-.03.125-.043.094-.025.193-.056.28-.093.044-.019.082-.05.125-.075.081-.044.162-.087.237-.137.063-.044.119-.1.175-.156.043-.037.093-.075.13-.119.057-.062.1-.13.15-.199a.829.829 0 00.087-.118l8.372 8.364-5.99.269z"/></g><defs><clipPath id="bbclip0_391_25225"><path fill="#fff" d="M0 0h54v54H0z"/></clipPath></defs></svg>