<?xml version="1.0" encoding="utf-8"?><svg xmlns="http://www.w3.org/2000/svg" width="22" height="22" fill="none" viewBox="0 0 22 22"><path d="M11 4.555h10" stroke="#161616" stroke-width="1.5" stroke-miterlimit="10" stroke-linecap="round" stroke-linejoin="round"/><path d="M13.22.995h5.56c1.78 0 2.22.44 2.22 2.2v4.11c0 1.76-.44 2.2-2.22 2.2h-5.56c-1.78 0-2.22-.44-2.22-2.2v-4.11c0-1.76.44-2.2 2.22-2.2z" stroke="#161616" stroke-width="1.5" stroke-linecap="round" stroke-linejoin="round"/><path d="M1 16.055h10" stroke="#161616" stroke-width="1.5" stroke-miterlimit="10" stroke-linecap="round" stroke-linejoin="round"/><path d="M3.22 12.495h5.56c1.78 0 2.22.44 2.22 2.2v4.11c0 1.76-.44 2.2-2.22 2.2H3.22c-1.78 0-2.22-.44-2.22-2.2v-4.11c0-1.76.44-2.2 2.22-2.2zM21 13.995c0 3.87-3.13 7-7 7l1.05-1.75M1 7.995c0-3.87 3.13-7 7-7l-1.05 1.75" stroke="#161616" stroke-width="1.5" stroke-linecap="round" stroke-linejoin="round"/></svg>