<?xml version="1.0" encoding="utf-8"?><svg width="196" height="47" fill="none" xmlns="http://www.w3.org/2000/svg" viewBox="0 0 196 47"><g clip-path="url(#beclip0_601_3382)"><path d="M59.795 33.356a4.595 4.595 0 01-3.097 1.007c-3.692 0-5.404-2.017-5.404-5.044v-5.891h-1.63v-2.97h1.63v-4.625h3.965v4.625h3.395v2.97h-3.395v5.92c0 1.116.57 1.66 1.418 1.66a1.518 1.518 0 001.222-.49l1.896 2.838zM21.027 29.923a3.353 3.353 0 01-2.259.735c-2.694 0-3.942-1.472-3.942-3.68V22.68h-1.19v-2.167h1.19V17.14h2.892v3.373h2.477v2.167h-2.477V27c0 .814.417 1.211 1.035 1.211a1.106 1.106 0 00.891-.358l1.383 2.071zM73.65 28.419h-9.213c.22 1.8 1.116 2.892 2.99 2.892 1.33 0 2.198-.466 3.15-1.882l2.797 1.391c-1.003 2.18-3.15 3.557-5.865 3.557-4.755 0-7.009-3.027-7.009-7.09 0-4.062 2.527-7.114 6.87-7.114 3.941 0 6.358 2.782 6.358 7.09a9.049 9.049 0 01-.078 1.156zm-9.128-2.672h5.46c-.272-1.583-1.084-2.49-2.66-2.49-1.577 0-2.474.989-2.8 2.49zM87.123 21.358l-1.655 2.918a3.34 3.34 0 00-2.126-.627c-1.63 0-3.207 1.363-3.207 3.625v6.82h-3.948V20.458h3.544l.22 2.1c.921-1.445 2.307-2.373 3.898-2.373 1.59 0 2.459.38 3.274 1.174zM99.155 21.358L97.5 24.276a3.333 3.333 0 00-2.126-.627c-1.63 0-3.207 1.363-3.207 3.625v6.82H88.21V20.458h3.543l.22 2.1c.922-1.445 2.307-2.373 3.898-2.373 1.591 0 2.47.38 3.285 1.174zM112.114 25.42v8.673h-3.328l-.188-1.337a7.23 7.23 0 01-4.482 1.608c-2.583 0-4.401-1.608-4.401-4.173s2.253-4.607 6.626-3.913l1.931.302v-1.174c0-1.583-1.332-2.209-2.689-2.209a4.216 4.216 0 00-3.342 1.637l-2.363-2.263c1.491-1.636 3.232-2.373 6.084-2.373 3.533-.014 6.152 1.608 6.152 5.223zm-6.627 6.027a4.149 4.149 0 002.771-1.228v-1.39l-1.088-.218c-2.636-.519-3.345.434-3.345 1.377 0 .943.684 1.459 1.662 1.459z" fill="#FED90B"/><path d="M114.506 27.274c0-4.12 2.608-7.09 6.626-7.09a7.591 7.591 0 013.37.712v3.678a3.829 3.829 0 00-2.743-1.067c-2.066 0-3.341 1.583-3.341 3.764 0 2.18 1.275 3.784 3.341 3.784a3.775 3.775 0 002.743-1.067v3.629c-.978.597-2.31.76-3.37.76-4.018-.013-6.626-2.966-6.626-7.103zM21.914 25.648c0-3.045 1.928-5.241 4.9-5.241a5.614 5.614 0 012.49.526v2.719a2.836 2.836 0 00-2.027-.789c-1.527 0-2.47 1.17-2.47 2.783 0 1.612.943 2.798 2.47 2.798a2.79 2.79 0 002.028-.789v2.683c-.723.442-1.708.562-2.492.562-2.97-.01-4.899-2.193-4.899-5.252zM138.031 21.358l-1.658 2.918a3.332 3.332 0 00-2.126-.627c-1.63 0-3.207 1.363-3.207 3.625v6.82h-3.958V20.458h3.544l.219 2.1c.922-1.445 2.307-2.373 3.898-2.373 1.591 0 2.474.38 3.288 1.174zM152.4 34.093c0 4.144-2.881 6.87-7.364 6.87a10.354 10.354 0 01-4.319-.844v-3.792a7.146 7.146 0 004.376 1.363c1.874 0 3.341-1.17 3.341-3.597v-1.39a5.484 5.484 0 01-3.897 1.66 5.394 5.394 0 01-5.002-3.431 5.444 5.444 0 01-.378-2.104v-8.37h3.966v7.88a2.514 2.514 0 00.744 1.809 2.516 2.516 0 001.811.727c1.52 0 2.771-1.117 2.771-2.537v-7.879h3.922l.029 13.635zM169.595 27.273c0 3.981-2.605 7.09-6.301 7.09a5.159 5.159 0 01-3.72-1.472v8.046l-3.898-.028V20.458h3.898v1.199a5.176 5.176 0 013.72-1.473c3.696 0 6.301 3.109 6.301 7.09zm-3.898 0c0-2.017-1.279-3.624-3.189-3.624a3.146 3.146 0 00-1.819.63 3.165 3.165 0 00-1.115 1.575V28.7c.2.626.591 1.173 1.117 1.564a3.122 3.122 0 001.817.617c1.913-.007 3.178-1.605 3.178-3.608h.011zM181.115 33.356a4.595 4.595 0 01-3.097 1.007c-3.696 0-5.407-2.017-5.407-5.044v-5.891h-1.631v-2.97h1.631v-4.625h3.968v4.625h3.395v2.97h-3.395v5.92c0 1.116.571 1.66 1.418 1.66a1.517 1.517 0 001.222-.49l1.896 2.838zM181.818 27.273c0-3.981 2.963-7.09 7.087-7.09a6.925 6.925 0 016.587 4.348c.35.87.52 1.803.5 2.742a7.128 7.128 0 01-2.075 5.03 7.074 7.074 0 01-5.012 2.084 7.073 7.073 0 01-5.011-2.084 7.13 7.13 0 01-2.076-5.03zm10.277 0c0-2.017-1.304-3.625-3.19-3.625-1.927 0-3.189 1.608-3.189 3.625s1.251 3.6 3.189 3.6c1.879 0 3.183-1.598 3.183-3.6h.007z" fill="#B1CB0E"/><path d="M18.823.817v7.745L6.637 15.57v16.492l12.186 7.06v7.695L0 35.947V11.741L18.823.817z" fill="#FED90B"/><path d="M23.033 46.817v-7.744l12.19-7.008V15.573l-12.19-7.061V.817l18.824 10.875v24.2L23.033 46.818z" fill="#B1CB0E"/></g><defs><clipPath id="beclip0_601_3382"><path fill="#fff" transform="translate(0 .817)" d="M0 0h196v46H0z"/></clipPath></defs></svg>