<?xml version="1.0" encoding="utf-8"?><svg width="32" height="32" fill="none" xmlns="http://www.w3.org/2000/svg" viewBox="0 0 32 32"><path d="M16 32c8.837 0 16-7.163 16-16S24.837 0 16 0 0 7.163 0 16s7.163 16 16 16z" fill="#2AABEE"/><path fill-rule="evenodd" clip-rule="evenodd" d="M7.243 15.831c4.665-2.032 7.775-3.372 9.331-4.019 4.443-1.848 5.367-2.17 5.969-2.18.132-.002.428.03.62.186a.674.674 0 01.227.434c.022.124.048.408.027.63-.24 2.53-1.283 8.669-1.813 11.503-.224 1.199-.665 1.6-1.093 1.64-.93.085-1.635-.614-2.535-1.204-1.408-.923-2.203-1.498-3.57-2.399-1.58-1.04-.556-1.613.344-2.548.236-.244 4.33-3.968 4.409-4.306.01-.042.02-.2-.075-.283-.093-.083-.231-.055-.33-.032-.142.032-2.392 1.52-6.75 4.46-.638.44-1.217.653-1.735.642-.571-.012-1.67-.323-2.487-.589-1.002-.325-1.798-.498-1.729-1.05.036-.289.433-.584 1.19-.885z" fill="#fff"/></svg>