<?xml version="1.0" encoding="utf-8"?><svg width="25" height="25" fill="none" xmlns="http://www.w3.org/2000/svg" viewBox="0 0 25 25"><g clip-path="url(#cmclip0_440_12414)" stroke="#161616" stroke-width="1.5" stroke-linecap="round" stroke-linejoin="round"><path d="M15.8 2.5v10c0 1.1-.9 2-2 2h-11v-8c0-2.21 1.79-4 4-4h9z"/><path d="M22.8 14.5v3c0 1.66-1.34 3-3 3h-1c0-1.1-.9-2-2-2s-2 .9-2 2h-4c0-1.1-.9-2-2-2s-2 .9-2 2h-1c-1.66 0-3-1.34-3-3v-3h11c1.1 0 2-.9 2-2v-7h1.84c.72 0 1.38.39 1.74 1.01l1.71 2.99H19.8c-.55 0-1 .45-1 1v3c0 .55.45 1 1 1h3z"/><path d="M8.8 22.5a2 2 0 100-4 2 2 0 000 4zM16.8 22.5a2 2 0 100-4 2 2 0 000 4zM22.8 12.5v2h-3c-.55 0-1-.45-1-1v-3c0-.55.45-1 1-1h1.29l1.71 3z"/></g><defs><clipPath id="cmclip0_440_12414"><path fill="#fff" transform="translate(.8 .5)" d="M0 0h24v24H0z"/></clipPath></defs></svg>