<?xml version="1.0" encoding="utf-8"?><svg width="32" height="32" fill="none" xmlns="http://www.w3.org/2000/svg" viewBox="0 0 32 32"><g clip-path="url(#bnclip0_223_2165)"><mask id="bna" style="mask-type:luminance" maskUnits="userSpaceOnUse" x="0" y="0" width="32" height="32"><path d="M31.683 0H0v31.683h31.683V0z" fill="#fff"/></mask><g mask="url(#bna)"><path d="M0 15.208c0-7.17 0-10.754 2.227-12.98C4.454 0 8.04 0 15.207 0h1.268c7.17 0 10.754 0 12.981 2.227 2.227 2.227 2.227 5.812 2.227 12.98v1.268c0 7.17 0 10.754-2.227 12.981-2.227 2.227-5.812 2.227-12.98 2.227h-1.268c-7.17 0-10.754 0-12.98-2.227C0 27.229 0 23.644 0 16.476v-1.268z" fill="#07F"/><path d="M16.858 22.825c-7.221 0-11.34-4.95-11.511-13.188h3.617c.119 6.046 2.785 8.607 4.897 9.135V9.637h3.406v5.214c2.086-.224 4.277-2.6 5.017-5.214h3.406c-.568 3.22-2.944 5.597-4.634 6.574 1.69.792 4.396 2.865 5.426 6.614h-3.75c-.805-2.508-2.811-4.449-5.465-4.713v4.713h-.409z" fill="#fff"/></g></g><defs><clipPath id="bnclip0_223_2165"><path fill="#fff" d="M0 0h32v32H0z"/></clipPath></defs></svg>