<svg width="226" height="120" viewBox="0 0 226 120" fill="none" xmlns="http://www.w3.org/2000/svg">
<g id="Frame 1000002530">
<g id="Group 1000002206">
<path id="Vector" d="M74.343 67.5865C74.0138 67.7248 73.948 67.9421 74.1455 68.2383L85.4628 85.1452C85.5021 85.201 85.525 85.2665 85.5289 85.3346C85.5329 85.4027 85.5179 85.4709 85.4854 85.5318C85.4529 85.5927 85.4042 85.644 85.3446 85.6803C85.2849 85.7166 85.2166 85.7364 85.1468 85.7377L72.4667 85.7673C72.0651 85.7739 71.7523 85.6093 71.5285 85.2735L55.1056 60.6243C54.671 59.9725 54.8488 59.6631 55.6388 59.696C58.562 59.8277 61.6958 59.8968 65.0403 59.9034C75.8243 59.9133 76.0317 45.4852 64.5366 45.5346C58.2624 45.5543 51.9816 45.5543 45.6942 45.5346C45.3124 45.5346 45.0161 45.3733 44.8054 45.0507L38.0703 34.6715C38.0276 34.6059 38.0034 34.5299 38.0003 34.4516C37.9973 34.3733 38.0154 34.2957 38.0528 34.2268C38.0903 34.158 38.1456 34.1006 38.213 34.0607C38.2804 34.0208 38.3574 33.9998 38.4357 34C48.1532 34.079 57.9234 34.1514 67.7462 34.2173C87.349 34.3456 92.4744 60.3182 74.343 67.5865Z" fill="#A01514"/>
<path id="Vector_2" d="M108.295 66.0743L108.354 85.1834C108.354 85.3274 108.297 85.4656 108.195 85.5674C108.093 85.6693 107.955 85.7265 107.811 85.7265L102.537 85.766C102.466 85.766 102.395 85.752 102.33 85.7247C102.264 85.6974 102.204 85.6574 102.153 85.6069C102.103 85.5565 102.063 85.4966 102.036 85.4307C102.008 85.3648 101.994 85.2942 101.994 85.2229L101.896 66.0546C101.896 65.9105 101.838 65.7723 101.736 65.6705C101.635 65.5686 101.496 65.5114 101.352 65.5114H94.4593C94.3871 65.5114 94.3156 65.497 94.2491 65.4691C94.1825 65.4412 94.1222 65.4003 94.0717 65.3488C94.0211 65.2974 93.9813 65.2363 93.9546 65.1693C93.9279 65.1022 93.9148 65.0305 93.9161 64.9584L93.9754 60.4552C93.9779 60.3128 94.0363 60.1772 94.1379 60.0775C94.2395 59.9777 94.3762 59.9219 94.5185 59.9219L115.682 59.9713C115.822 59.9738 115.956 60.0308 116.056 60.1303C116.155 60.2297 116.212 60.3639 116.215 60.5045L116.254 64.9189C116.254 65.0629 116.197 65.2011 116.095 65.3029C115.994 65.4048 115.855 65.462 115.711 65.462L108.838 65.5312C108.694 65.5312 108.556 65.5884 108.454 65.6902C108.352 65.7921 108.295 65.9303 108.295 66.0743Z" fill="#A01514"/>
<path id="Vector_3" d="M136.638 74.943L126.279 74.9232C126.061 74.9232 125.851 75.0093 125.696 75.1627C125.541 75.3161 125.452 75.5246 125.449 75.7429L125.39 79.4265C125.389 79.5354 125.409 79.6435 125.45 79.7447C125.49 79.8458 125.55 79.938 125.626 80.0159C125.702 80.0939 125.793 80.1561 125.893 80.199C125.993 80.2419 126.101 80.2646 126.21 80.2659L138.515 80.4436C138.626 80.4448 138.736 80.4685 138.839 80.5132C138.941 80.558 139.033 80.6228 139.109 80.7039C139.186 80.7851 139.245 80.8808 139.284 80.9854C139.323 81.09 139.34 81.2013 139.334 81.3127L139.127 85.0061C139.117 85.2175 139.026 85.4171 138.874 85.5639C138.722 85.7108 138.519 85.7939 138.307 85.7962L119.771 85.9048C119.661 85.9061 119.552 85.8856 119.451 85.8445C119.349 85.8034 119.256 85.7425 119.178 85.6653C119.1 85.5882 119.038 85.4963 118.996 85.395C118.953 85.2937 118.932 85.185 118.932 85.0752L119.06 60.8013C119.063 60.5847 119.15 60.3777 119.303 60.2245C119.456 60.0714 119.663 59.9842 119.88 59.9816L138.001 59.8829C138.112 59.8815 138.222 59.9024 138.324 59.9441C138.426 59.9858 138.52 60.0476 138.598 60.1258C138.676 60.204 138.738 60.2971 138.779 60.3995C138.821 60.5019 138.842 60.6117 138.841 60.7223L138.831 64.6429C138.828 64.8594 138.741 65.0664 138.588 65.2196C138.435 65.3728 138.228 65.46 138.011 65.4625L126.259 65.5218C126.044 65.5243 125.839 65.6101 125.686 65.7611C125.533 65.9122 125.445 66.1167 125.44 66.3316L125.4 68.5634C125.399 68.6724 125.419 68.7805 125.459 68.8816C125.5 68.9828 125.56 69.075 125.636 69.1529C125.712 69.2309 125.803 69.293 125.903 69.3359C126.003 69.3788 126.111 69.4016 126.22 69.4028L136.974 69.4127C137.088 69.4137 137.201 69.4382 137.305 69.4847C137.41 69.5313 137.503 69.5989 137.58 69.6832C137.657 69.7676 137.716 69.8669 137.752 69.975C137.789 70.0831 137.803 70.1976 137.794 70.3114L137.468 74.1826C137.451 74.3904 137.356 74.584 137.202 74.725C137.048 74.8659 136.847 74.9437 136.638 74.943Z" fill="#A01514"/>
<path id="Vector_4" d="M163.686 82.2236C157.652 88.1193 147.036 86.6182 143.125 79.6461C135.511 66.0969 152.428 53.1995 163.489 63.6083C163.659 63.7665 163.761 63.9845 163.774 64.2165C163.787 64.4485 163.709 64.6765 163.558 64.8526L161.188 67.6573C160.786 68.1247 160.335 68.184 159.835 67.835C158.916 67.1931 157.909 66.3734 156.773 66.0179C151.638 64.4477 147.332 67.8745 147.648 73.2764C148.024 79.7251 154.867 82.5297 159.775 77.8586C160.309 77.3451 160.822 77.3616 161.316 77.908L163.735 80.5744C164.249 81.1406 164.232 81.6903 163.686 82.2236Z" fill="#A01514"/>
<path id="Vector_5" d="M173.295 75.5237L173.374 85.182C173.376 85.2528 173.363 85.3232 173.337 85.3891C173.311 85.4549 173.271 85.5149 173.222 85.5655C173.172 85.616 173.113 85.6562 173.048 85.6836C172.982 85.711 172.912 85.7251 172.841 85.7251L167.647 85.7646C167.576 85.7659 167.505 85.7531 167.44 85.7269C167.374 85.7007 167.314 85.6616 167.263 85.612C167.213 85.5623 167.172 85.5031 167.145 85.4377C167.118 85.3724 167.104 85.3022 167.104 85.2313L167.143 60.434C167.143 60.2926 167.199 60.1569 167.299 60.0569C167.399 59.9569 167.535 59.9007 167.676 59.9007L172.634 59.881C172.775 59.881 172.911 59.9372 173.011 60.0372C173.111 60.1372 173.167 60.2728 173.167 60.4142L173.147 69.075C173.147 69.2165 173.204 69.3521 173.304 69.4521C173.404 69.5521 173.539 69.6083 173.681 69.6083L181.285 69.5984C181.426 69.5984 181.562 69.5423 181.662 69.4423C181.762 69.3422 181.818 69.2066 181.818 69.0652V60.4439C181.818 60.3024 181.874 60.1668 181.974 60.0668C182.074 59.9668 182.21 59.9106 182.351 59.9106L187.467 59.8711C187.537 59.8711 187.606 59.8849 187.671 59.9117C187.736 59.9385 187.794 59.9778 187.844 60.0273C187.893 60.0768 187.933 60.1356 187.959 60.2003C187.986 60.265 188 60.3343 188 60.4044V85.1918C188 85.2619 187.986 85.3312 187.959 85.3959C187.933 85.4606 187.893 85.5194 187.844 85.5689C187.794 85.6184 187.736 85.6577 187.671 85.6845C187.606 85.7113 187.537 85.7251 187.467 85.7251L182.341 85.7449C182.2 85.7449 182.064 85.6887 181.964 85.5887C181.864 85.4887 181.808 85.353 181.808 85.2116L181.828 75.4842C181.828 75.3428 181.772 75.2072 181.672 75.1072C181.572 75.0071 181.436 74.951 181.295 74.951L173.829 74.9905C173.687 74.9905 173.552 75.0467 173.452 75.1467C173.352 75.2467 173.295 75.3823 173.295 75.5237Z" fill="#A01514"/>
<path id="Vector_6" d="M40.3613 85.3823L40.391 61.3256C40.3899 61.2441 40.4154 61.1644 40.4636 61.0986C40.5119 61.0328 40.5802 60.9846 40.6584 60.9611C40.7365 60.9377 40.8201 60.9404 40.8966 60.9687C40.9731 60.9971 41.0383 61.0495 41.0822 61.1182L57.0509 85.1749C57.0886 85.2317 57.11 85.2977 57.1131 85.3657C57.1161 85.4338 57.1005 85.5014 57.068 85.5613C57.0355 85.6211 56.9874 85.671 56.9287 85.7056C56.87 85.7402 56.803 85.7582 56.7349 85.7576H40.7366C40.6371 85.7576 40.5416 85.7181 40.4712 85.6477C40.4009 85.5773 40.3613 85.4818 40.3613 85.3823Z" fill="#A01514"/>
<path id="Vector_7" d="M91.1114 69.0608L83.0532 69.1171C82.7369 69.1193 82.4823 69.3775 82.4845 69.6939L82.5144 73.9797C82.5166 74.296 82.7748 74.5507 83.0912 74.5485L91.1494 74.4922C91.4657 74.49 91.7203 74.2318 91.7181 73.9155L91.6882 69.6296C91.686 69.3133 91.4278 69.0586 91.1114 69.0608Z" fill="#A01514"/>
</g>
</g>
</svg>
