<svg width="227" height="120" viewBox="0 0 227 120" fill="none" xmlns="http://www.w3.org/2000/svg">
<g id="Frame 1000002530">
<path id="Vector" d="M59.932 68.2306C63.5578 67.7732 66.4867 64.8589 66.9493 61.2485C67.1108 60.0162 66.9856 58.7635 66.5834 57.5869C66.1812 56.4104 65.5128 55.3415 64.6296 54.4628C63.7465 53.584 62.6722 52.9189 61.4898 52.5188C60.3073 52.1186 59.0483 51.994 57.8098 52.1547C54.1812 52.615 51.2523 55.5293 50.7926 59.1369C50.6311 60.3692 50.7562 61.6219 51.1584 62.7984C51.5606 63.975 52.2291 65.0438 53.1122 65.9226C53.9954 66.8013 55.0696 67.4664 56.2521 67.8666C57.4345 68.2668 58.6935 68.3913 59.932 68.2306ZM60.4264 45.0777C63.9171 45.4433 67.1759 46.9902 69.6578 49.4597C72.1398 51.9292 73.6944 55.1717 74.0619 58.6449C75.0189 68.2536 66.9695 76.2628 57.3096 75.3106C53.8194 74.9443 50.5613 73.3971 48.08 70.9277C45.5986 68.4582 44.0444 65.2161 43.677 61.7433C42.72 52.1346 50.7694 44.1254 60.4264 45.0777ZM82.2559 45.6789H104.609C105.459 45.6789 105.939 46.6456 105.427 47.3187L89.9613 67.6207H102.079C104.288 67.6207 106.025 69.6201 105.569 71.8986C105.233 73.5701 103.657 74.7093 101.946 74.7093H77.6703C76.8289 74.7093 76.3518 73.7513 76.8578 73.0868L92.3351 52.7675H82.3889C80.6773 52.7675 79.1015 51.6254 78.7661 49.9568C78.3064 47.6784 80.047 45.6789 82.2559 45.6789ZM179.263 45.7595C181.57 45.2762 183.6 47.0138 183.6 49.2232V73.6851C183.6 74.5396 182.608 75.0142 181.937 74.4849L162.655 59.2635V71.1708C162.655 73.3802 160.625 75.1178 158.318 74.6345C156.664 74.2893 155.531 72.7559 155.531 71.0758V46.7002C155.531 45.8458 156.522 45.3711 157.193 45.9005L176.478 61.1219V49.3182C176.478 47.6381 177.615 46.1076 179.266 45.7595H179.263ZM129.055 45C140.86 45 150.43 51.8009 150.43 60.1898C150.43 68.5787 140.86 75.3796 129.055 75.3796C117.25 75.3796 107.679 68.5787 107.679 60.1898C107.679 51.8009 117.25 45 129.055 45ZM129.055 52.0886C120.898 52.0886 114.804 56.3665 114.804 60.1898C114.804 64.0131 120.898 68.291 129.055 68.291C137.211 68.291 143.306 64.016 143.306 60.1898C143.306 56.3636 137.211 52.0886 129.055 52.0886Z" fill="#959BAD"/>
</g>
</svg>
