<svg width="227" height="120" viewBox="0 0 227 120" fill="none" xmlns="http://www.w3.org/2000/svg">
<g id="Frame 1000002530">
<g id="Group 1000002207">
<path id="Vector" d="M169.8 41H199.182C201.886 41.2455 203.473 42.8981 203.8 45.5718V50.0702C203.656 50.7472 203.249 51.1686 202.58 51.3343C202.198 51.4286 202.03 51.4198 201.682 51.2983C201.224 51.1388 200.891 50.8352 200.725 50.3727C200.641 50.1424 200.604 49.7545 200.605 49.5128C200.606 48.3335 200.606 47.1544 200.603 45.9755C200.603 45.6701 200.575 45.4297 200.519 45.2542C200.341 44.6932 199.976 44.3282 199.425 44.159C199.229 44.0987 198.927 44.0685 198.518 44.0685C189.048 44.069 179.578 44.069 170.108 44.0685C169.517 44.0685 168.921 44.2849 168.587 44.7949C168.326 45.1928 168.274 45.5421 168.274 46.0577C168.275 51.2238 168.275 56.3899 168.274 61.5561C168.274 62.0534 168.306 62.4022 168.372 62.6025C168.825 63.9989 170.396 63.8243 171.53 63.8046C171.537 63.8045 171.543 63.8026 171.549 63.799C171.555 63.7954 171.559 63.7904 171.562 63.7844C171.565 63.7784 171.566 63.7717 171.566 63.765C171.565 63.7583 171.563 63.7519 171.559 63.7464C171.452 63.5933 171.543 63.4345 171.552 63.3042C171.636 62.135 172.216 61.1195 173.198 60.4925C174.123 59.9028 175.155 59.7833 176.295 60.1338C176.86 60.3078 177.339 60.6127 177.818 60.9424C177.826 60.9482 177.836 60.9517 177.846 60.9522C177.857 60.9527 177.867 60.9503 177.876 60.9453C177.885 60.9403 177.893 60.9329 177.898 60.9239C177.903 60.9149 177.905 60.9046 177.905 60.8943C177.9 60.7863 177.898 60.6874 177.898 60.5975C177.894 57.4552 177.89 54.3128 177.888 51.1705C177.887 49.7254 178.638 48.5379 179.948 47.9406C180.636 47.6268 181.469 47.604 182.222 47.7565C183.435 48.002 184.42 49.0497 184.727 50.2145C184.874 50.7694 184.861 51.4141 184.86 52.0404C184.859 53.1894 184.855 54.3324 184.85 55.4696C184.85 55.4759 184.851 55.482 184.854 55.4878C184.856 55.4936 184.86 55.4988 184.864 55.5032C184.869 55.5075 184.874 55.5109 184.88 55.5132C184.886 55.5155 184.892 55.5166 184.898 55.5164C185.702 55.5017 186.43 55.7144 187.081 56.1548C187.173 56.2172 187.357 56.3659 187.633 56.6008C187.705 56.6628 187.788 56.6837 187.874 56.6603C188.934 56.3731 190.118 56.6122 190.975 57.3044C191.052 57.3664 191.212 57.5237 191.455 57.7764C191.523 57.8472 191.567 57.9384 191.627 58.0212C191.639 58.0389 191.656 58.0486 191.677 58.0503C191.819 58.0609 191.916 58.0596 191.97 58.0465C192.245 57.9803 192.508 57.9668 192.76 58.006C192.987 58.0421 193.202 58.0598 193.396 58.1187C194.957 58.5881 195.94 59.8143 195.978 61.4523C195.996 62.2166 195.998 62.9849 195.982 63.7572C195.982 63.7639 195.983 63.7705 195.986 63.7768C195.988 63.783 195.992 63.7886 195.997 63.7934C196.001 63.7982 196.007 63.8019 196.013 63.8045C196.019 63.8071 196.025 63.8084 196.032 63.8084C196.824 63.8101 197.621 63.8086 198.422 63.804C199.176 63.7989 199.817 63.6825 200.291 63.0562C200.474 62.8132 200.605 62.4051 200.605 62.1033C200.605 60.8396 200.605 59.576 200.606 58.3123C200.606 58.1313 200.639 57.9561 200.663 57.7764C200.747 57.1405 201.13 56.685 201.748 56.5154C201.963 56.4572 202.383 56.4363 202.57 56.4825C203.281 56.6605 203.691 57.1159 203.8 57.8485V62.2343C203.674 63.2852 203.352 64.2918 202.693 65.1308C201.631 66.4828 199.957 66.8504 198.342 66.8466C197.571 66.8445 196.809 66.8445 196.055 66.8466C196.006 66.847 195.983 66.8715 195.984 66.92C196.028 68.8655 195.892 70.8528 195.301 72.6806C194.957 73.7429 194.495 74.9393 194.101 76.0972C193.927 76.6046 193.794 76.9466 193.703 77.1234C193.046 78.3871 191.996 79.0841 190.552 79.2144H184.407C183.114 79.1309 182.057 78.602 181.235 77.6276C181.024 77.3779 180.82 77.1238 180.621 76.8652C176.636 71.6688 174.116 68.3781 173.062 66.9934C172.99 66.8985 172.902 66.851 172.799 66.851C171.414 66.8536 170.51 66.8498 170.086 66.8397C169.768 66.8316 169.416 66.7945 169.031 66.7283C166.89 66.3588 165.478 64.8397 165.166 62.6981C165.129 62.442 165.111 62.0211 165.111 61.4352C165.112 56.3691 165.112 51.3027 165.111 46.2361C165.111 45.6857 165.136 45.2652 165.185 44.9746C165.291 44.3541 165.487 43.799 165.775 43.3093C166.651 41.8168 168.103 41.1107 169.8 41ZM191.782 62.3026C191.61 63.2517 190.511 63.6509 189.833 62.9727C189.591 62.7301 189.47 62.429 189.47 62.0692C189.471 61.3572 189.467 60.6454 189.458 59.9339C189.453 59.5612 189.178 59.391 188.85 59.3271C188.767 59.3111 188.659 59.3317 188.526 59.3891C188.232 59.5161 188.084 59.7289 188.084 60.0275C188.083 60.5134 188.079 60.9985 188.071 61.4827C188.056 62.4349 187.113 62.8872 186.309 62.4273C185.873 62.178 185.801 61.8224 185.801 61.3093C185.801 60.629 185.801 59.9486 185.8 59.2683C185.8 59.0312 185.773 58.8564 185.721 58.7438C185.485 58.2446 184.818 58.1535 184.495 58.6318C184.387 58.7912 184.343 59.1335 184.344 59.3005C184.349 60.026 184.351 60.7521 184.349 61.4789C184.348 61.8895 184.212 62.1862 183.893 62.4153C183.686 62.5625 183.437 62.6285 183.146 62.6133C182.654 62.588 182.321 62.3417 182.146 61.8743C182.093 61.7313 182.067 61.5411 182.067 61.3036C182.068 57.9217 182.068 54.5395 182.067 51.1572C182.067 50.9834 182.04 50.8501 181.985 50.7573C181.85 50.5296 181.619 50.43 181.292 50.4587C180.852 50.4979 180.675 50.7339 180.675 51.1623C180.675 55.5881 180.676 60.0142 180.676 64.4405C180.676 64.7446 180.647 64.973 180.589 65.1257C180.417 65.5781 179.902 65.9722 179.381 65.8685C178.877 65.7685 178.623 65.4705 178.257 65.1352C177.578 64.5122 176.899 63.8888 176.22 63.265C175.842 62.9176 175.362 62.6019 174.825 62.7829C174.475 62.9012 174.237 63.375 174.294 63.7205C174.33 63.9377 174.411 64.1364 174.535 64.3165C174.629 64.4544 174.853 64.7539 175.207 65.2149C177.804 68.6036 180.399 71.9935 182.994 75.3847C183.302 75.7884 183.778 76.3534 184.282 76.3888C184.554 76.4084 184.821 76.4629 185.085 76.4629C186.678 76.4635 188.274 76.4445 189.867 76.4673C190.634 76.478 191.034 76.3806 191.305 75.6397C191.668 74.6494 192.026 73.6575 192.378 72.6642C192.904 71.1837 193.203 69.8158 193.203 68.2797C193.203 66.0564 193.203 63.8331 193.203 61.6098C193.203 61.2328 193.062 60.9778 192.78 60.8449C192.347 60.6406 191.81 60.9727 191.811 61.4586C191.811 61.7364 191.829 62.0388 191.782 62.3026Z" fill="#959BAD"/>
<path id="Vector_2" d="M23.8008 57.2281V49.7566C23.8636 49.264 24.018 48.7994 24.2639 48.3628C24.901 47.2322 26.1082 46.6641 27.3761 46.6641C30.4868 46.6645 33.5973 46.6645 36.7076 46.6641C36.9983 46.6641 37.3116 46.7107 37.6478 46.8039C38.7867 47.1196 39.6104 47.9332 39.8774 49.0911C39.9951 49.6035 39.9698 50.2622 39.9654 50.8563C39.9637 51.1136 39.9339 51.3183 39.8761 51.4706C39.7154 51.8962 39.4145 52.1883 38.9733 52.3469C38.7227 52.4367 38.4482 52.4323 38.1786 52.4209C37.5915 52.395 37.1107 51.8489 36.9519 51.3491C36.8259 50.9512 36.8569 50.4001 36.8677 49.9465C36.8685 49.9145 36.8628 49.8827 36.8511 49.8529C36.8394 49.8232 36.8219 49.7961 36.7995 49.7732C36.7772 49.7503 36.7505 49.7322 36.721 49.7198C36.6915 49.7073 36.6599 49.701 36.6279 49.701C33.5345 49.701 30.4605 49.701 27.4058 49.701C27.0971 49.701 26.9326 49.8066 26.9345 50.1274C26.9442 51.5839 26.9438 53.7732 26.9332 56.6953C26.9326 56.8301 26.9674 56.932 27.0313 57.0414C27.0553 57.0823 27.091 57.1028 27.1382 57.1028L36.6596 57.1022C36.7916 57.1022 36.8584 57.0362 36.8601 56.9041C36.8715 56.0759 36.7747 55.3357 37.4295 54.7562C38.2457 54.0343 39.6326 54.4063 39.916 55.4977C39.9481 55.6221 39.9643 55.8079 39.9647 56.0551C39.9647 56.534 39.9983 57.0838 39.928 57.5121C39.7199 58.7883 38.7544 59.8366 37.4599 60.0828C37.2596 60.1207 36.9253 60.1397 36.4571 60.1397C33.4269 60.141 30.3968 60.1408 27.3666 60.1391C26.8731 60.1391 26.5022 60.1093 26.2537 60.0499C24.8472 59.7145 24.0115 58.6333 23.8008 57.2281Z" fill="#959BAD"/>
<path id="Vector_3" d="M45.123 55.3372C45.1323 55.3364 45.1435 55.3332 45.1565 55.3277C45.1667 55.3235 45.1761 55.3168 45.185 55.3075C45.3463 55.1392 45.5539 54.9804 45.7 54.8564C48.4881 52.4842 51.2772 50.1137 54.0673 47.7449C54.5975 47.2945 55.0739 46.7611 55.799 46.6738C56.5595 46.5821 57.3763 47.149 57.5009 47.9265C57.5262 48.0828 57.5541 48.2321 57.5541 48.3922C57.5558 51.6518 57.5555 54.9114 57.5534 58.171C57.553 58.5937 57.5216 58.8997 57.4592 59.0891C56.9853 60.5297 54.8246 60.5069 54.4412 58.9828C54.4079 58.8499 54.3913 58.6377 54.3913 58.3463C54.3913 56.0855 54.3913 53.8251 54.3913 51.5651C54.3913 51.5577 54.3893 51.5504 54.3855 51.544C54.3816 51.5376 54.3761 51.5324 54.3695 51.5289C54.3629 51.5254 54.3554 51.5237 54.3479 51.5241C54.3403 51.5245 54.333 51.5268 54.3267 51.531C54.0623 51.7068 53.8547 51.9321 53.6149 52.1352C50.5945 54.6862 47.5755 57.2391 44.558 59.7939C44.3243 59.9917 44.0805 60.1058 43.8266 60.1362C43.5217 60.1729 43.1091 60.14 42.8327 59.9862C42.4885 59.7951 42.181 59.4877 42.0519 59.1074C42.011 58.9872 41.9906 58.7968 41.9906 58.5361C41.9901 55.1377 41.9901 51.7391 41.9906 48.3403C41.9906 48.0569 42.0188 47.838 42.0753 47.6836C42.2006 47.3415 42.4258 47.0762 42.751 46.8877C43.595 46.3992 44.7105 46.7706 45.0135 47.7222C45.0663 47.8867 45.0926 48.1526 45.0926 48.52C45.0926 50.78 45.092 53.0429 45.0907 55.3087C45.0907 55.3128 45.0915 55.3167 45.0932 55.3204C45.0948 55.3241 45.0973 55.3274 45.1003 55.3301C45.1034 55.3328 45.107 55.3348 45.1109 55.336C45.1148 55.3373 45.1189 55.3377 45.123 55.3372Z" fill="#959BAD"/>
<path id="Vector_4" d="M65.0055 49.7044C63.5929 49.6981 62.1791 49.6975 60.764 49.7025C60.3949 49.7038 60.1256 49.6745 59.956 49.6146C59.5283 49.464 58.9716 48.9591 59.0095 48.4359C59.0116 48.4093 58.9975 48.3615 58.9671 48.2923C58.9587 48.2729 58.9568 48.2528 58.9615 48.2322C59.031 47.919 59.0247 47.6672 59.2322 47.3755C59.5777 46.8921 60.052 46.6511 60.6552 46.6523C64.4715 46.6608 68.2879 46.6648 72.1043 46.6644C72.5101 46.6644 72.8034 46.6954 72.9844 46.7574C73.4627 46.9206 73.848 47.3129 73.9834 47.8159C74.027 47.9772 74.0808 48.117 74.0599 48.286C73.9747 48.9604 73.6291 49.4062 73.023 49.6235C72.8787 49.6749 72.6961 49.7006 72.4751 49.7006C71.0557 49.7015 69.6415 49.7017 68.2322 49.7013C68.2258 49.7013 68.2195 49.7025 68.2136 49.7049C68.2077 49.7074 68.2023 49.7109 68.1978 49.7154C68.1933 49.7198 68.1897 49.7251 68.1872 49.731C68.1848 49.7368 68.1835 49.743 68.1835 49.7494C68.1844 52.6226 68.1844 55.4866 68.1835 58.3413C68.1835 58.6758 68.158 58.9234 68.107 59.0841C67.6597 60.4905 65.6104 60.5082 65.103 59.1252C65.0486 58.9767 65.0213 58.7747 65.0213 58.5191C65.0205 55.6138 65.0205 52.6808 65.0213 49.7203C65.0213 49.7161 65.0197 49.712 65.0167 49.7091C65.0137 49.7061 65.0097 49.7044 65.0055 49.7044Z" fill="#959BAD"/>
<path id="Vector_5" d="M87.716 51.5316C87.7147 51.5285 87.7127 51.5257 87.7102 51.5236C87.7076 51.5214 87.7046 51.5198 87.7013 51.519C87.6981 51.5182 87.6947 51.5182 87.6914 51.519C87.6881 51.5197 87.6851 51.5212 87.6825 51.5234C84.4988 54.222 81.3147 56.9231 78.1302 59.6268C77.798 59.909 77.4665 60.1298 77.0267 60.1399C76.6889 60.1475 76.4858 60.1596 76.2182 60.0159C75.8267 59.8059 75.5597 59.5026 75.4172 59.1061C75.3619 58.9526 75.3343 58.7413 75.3343 58.4722C75.3339 55.0101 75.3339 51.5482 75.3343 48.0866C75.3343 47.9904 75.3678 47.8527 75.4349 47.6734C75.6355 47.1401 76.1087 46.7883 76.6592 46.6902C77.0394 46.6232 77.5677 46.7573 77.8733 47.0047C78.3472 47.3894 78.4826 47.881 78.4851 48.4978C78.4944 50.7439 78.4996 52.9872 78.5009 55.2277C78.5008 55.2348 78.5027 55.2416 78.5063 55.2476C78.5099 55.2536 78.5152 55.2585 78.5215 55.2617C78.5278 55.2649 78.5348 55.2663 78.5419 55.2658C78.549 55.2653 78.5558 55.2628 78.5616 55.2588C78.8217 55.0708 79.0786 54.8374 79.2937 54.6552C83.4977 51.0868 86.2516 48.7477 87.5553 47.638C87.9413 47.309 88.3386 46.9167 88.7726 46.7624C89.3471 46.5574 89.8826 46.6607 90.379 47.0724C90.5908 47.2479 90.739 47.4693 90.8238 47.7367C90.874 47.8949 90.8991 48.152 90.8991 48.508C90.8987 51.8233 90.8989 55.1385 90.8997 58.4538C90.8997 58.7229 90.8727 58.9362 90.8187 59.0935C90.6462 59.5984 90.2963 59.9314 89.7691 60.0925C89.5445 60.1608 89.1307 60.1741 88.8985 60.102C88.0994 59.8527 87.7344 59.251 87.735 58.433C87.7358 56.1599 87.7346 53.8869 87.7312 51.6138C87.7308 51.583 87.7257 51.5556 87.716 51.5316Z" fill="#959BAD"/>
<path id="Vector_6" d="M100.068 51.2203C100.06 51.218 100.052 51.2183 100.045 51.2211C100.037 51.224 100.031 51.2293 100.027 51.2362C98.4435 53.8749 96.8634 56.5086 95.2868 59.1372C95.1147 59.4244 94.9645 59.6241 94.8363 59.7363C94.1783 60.3121 93.1508 60.3171 92.5864 59.5997C92.2844 59.2154 92.1906 58.7856 92.3049 58.3103C92.3458 58.1407 92.4494 57.9209 92.6155 57.651C93.1116 56.8456 93.624 55.9472 94.0663 55.212C95.5177 52.7964 96.9678 50.3801 98.4167 47.9633C98.5135 47.8019 98.6647 47.4799 98.8368 47.28C99.3374 46.6996 99.9499 46.5294 100.674 46.7694C100.978 46.8706 101.223 47.0739 101.409 47.3793C103.413 50.6849 105.413 53.9932 107.409 57.3043C107.679 57.7522 107.837 58.0783 107.883 58.2824C108.015 58.8734 107.794 59.5339 107.282 59.8863C106.536 60.3994 105.477 60.1539 104.993 59.346C103.395 56.6773 101.803 54.0054 100.209 51.3349C100.174 51.2767 100.127 51.2385 100.068 51.2203Z" fill="#959BAD"/>
<path id="Vector_7" d="M112.209 55.2658C112.238 55.2604 112.273 55.2401 112.314 55.2051C115.435 52.5415 118.577 49.9019 121.687 47.2269C122.464 46.5588 123.42 46.4044 124.174 47.2376C124.522 47.6229 124.558 47.9994 124.558 48.5631C124.558 51.9316 124.558 55.3 124.559 58.6684C124.559 59.3758 123.968 59.987 123.32 60.1129C122.517 60.2691 121.744 59.8876 121.479 59.0961C121.422 58.9253 121.394 58.6788 121.393 58.3565C121.392 56.0974 121.392 53.8351 121.393 51.5697C121.393 51.5634 121.391 51.5572 121.388 51.5517C121.385 51.5462 121.38 51.5416 121.375 51.5384C121.369 51.5352 121.363 51.5334 121.357 51.5332C121.351 51.533 121.344 51.5345 121.339 51.5374C121.268 51.5741 121.198 51.6222 121.128 51.6817C118.001 54.3427 114.874 57.0036 111.746 59.6643C111.514 59.8613 111.27 60.003 111.012 60.0895C110.642 60.2141 110.068 60.1685 109.721 59.9344C109.412 59.7265 109.197 59.4561 109.075 59.1233C109.02 58.9711 108.993 58.7589 108.993 58.4869C108.992 55.1517 108.992 51.8168 108.993 48.4821C108.993 48.2008 109.01 47.9853 109.046 47.8355C109.26 46.9346 110.215 46.4683 111.072 46.7581C111.515 46.908 111.993 47.3515 112.071 47.8501C112.132 48.2428 112.162 48.638 112.161 49.0357C112.157 51.0911 112.155 53.1531 112.155 55.2215C112.155 55.2574 112.173 55.2722 112.209 55.2658Z" fill="#959BAD"/>
<path id="Vector_8" d="M139.172 51.919C139.174 50.7164 139.174 49.5027 139.173 48.2779C139.171 47.201 140.246 46.3956 141.268 46.7613C141.807 46.9536 142.235 47.4598 142.306 48.0406C142.375 48.6208 142.341 49.5255 142.341 50.0589C142.341 52.8659 142.339 55.6729 142.335 58.48C142.334 59.2588 141.901 59.9459 141.126 60.1161C140.31 60.2951 139.512 59.8529 139.257 59.081C139.2 58.906 139.171 58.6504 139.171 58.3142C139.172 57.2032 139.172 56.0937 139.173 54.9856C139.173 54.9771 139.169 54.9689 139.163 54.9628C139.157 54.9568 139.149 54.9534 139.14 54.9534H130.111C130.079 54.9534 130.063 54.9696 130.063 55.0021C130.063 56.2485 130.058 57.4921 130.049 58.733C130.045 59.3974 129.504 59.9193 128.929 60.0933C128.361 60.2641 127.7 60.0674 127.307 59.6523C126.964 59.2885 126.9 58.8735 126.899 58.3363C126.898 55.0797 126.898 51.823 126.899 48.5664C126.899 48.196 126.929 47.9227 126.99 47.7464C127.166 47.2301 127.622 46.8233 128.161 46.7069C129.076 46.5089 130.038 47.227 130.046 48.1836C130.057 49.4342 130.063 50.684 130.063 51.9329C130.063 51.9456 130.068 51.9579 130.077 51.9669C130.086 51.9759 130.098 51.981 130.111 51.981L139.111 51.9797C139.151 51.9797 139.172 51.9595 139.172 51.919Z" fill="#959BAD"/>
<path id="Vector_9" d="M146.365 46.6797H146.289C145.437 46.6797 144.746 47.3706 144.746 48.2228V58.5976C144.746 59.4499 145.437 60.1408 146.289 60.1408H146.365C147.217 60.1408 147.908 59.4499 147.908 58.5976V48.2228C147.908 47.3706 147.217 46.6797 146.365 46.6797Z" fill="#959BAD"/>
<path id="Vector_10" d="M153.115 53.4681C155.128 54.7663 157.144 56.0735 159.162 57.3895C160.183 58.0557 160.031 59.7595 158.779 60.1119C158.684 60.1385 158.399 60.1916 158.288 60.1701C158.184 60.1499 158.08 60.1372 157.974 60.1322C157.731 60.1195 157.289 59.8228 157.055 59.6709C154.532 58.0331 152.007 56.3974 149.481 54.7638C149.133 54.5386 148.795 54.1191 148.788 53.7009C148.779 53.196 148.775 52.836 149.086 52.4279C149.233 52.2343 149.466 52.104 149.677 51.9667C152.045 50.4254 154.422 48.8981 156.789 47.355C157.353 46.9874 158.017 46.5085 158.771 46.7267C159.213 46.855 159.531 47.1378 159.726 47.5752C159.784 47.703 159.865 48.082 159.838 48.2325C159.735 48.7988 159.648 49.1518 159.147 49.4777C157.463 50.5714 155.778 51.6649 154.092 52.7582C153.771 52.967 153.445 53.1833 153.114 53.4073C153.109 53.4108 153.105 53.4154 153.102 53.4208C153.099 53.4261 153.098 53.4321 153.098 53.4381C153.098 53.4442 153.1 53.45 153.103 53.4553C153.105 53.4605 153.11 53.4649 153.115 53.4681Z" fill="#959BAD"/>
</g>
</g>
</svg>
