<svg width="226" height="120" viewBox="0 0 226 120" fill="none" xmlns="http://www.w3.org/2000/svg">
<path d="M108.172 70.0431H111.343L115.776 53.5746V70.0431H119.343V48.2773H114.442L110.01 64.2413L105.577 48.2773H100.568V70.0431H103.631V53.5746L108.172 70.0431ZM134.262 59.2683C134.262 55.4125 132.352 53.971 128.388 53.971C125.902 53.971 123.956 54.7278 122.803 55.4125V58.4755C123.776 57.7188 125.974 56.926 127.92 56.926C129.758 56.926 130.514 57.6107 130.514 59.2323V60.0972H129.938C124.244 60.0972 121.649 62.0071 121.649 65.2143C121.649 68.4215 123.559 70.2233 126.478 70.2233C128.676 70.2233 129.649 69.5386 130.334 68.7819H130.514C130.514 69.1782 130.694 69.7548 130.803 70.0431H134.478C134.37 68.7819 134.298 67.4485 134.298 66.1873C134.262 66.1873 134.262 59.2683 134.262 59.2683ZM130.514 66.2954C130.046 66.98 129.181 67.5566 127.812 67.5566C126.262 67.5566 125.505 66.5837 125.505 65.2503C125.505 63.4125 126.767 62.7638 130.046 62.7638H130.622V66.3314H130.514V66.2954ZM140.713 54.2593H137.253V74.5836H141.001V68.2413C141.974 69.6828 143.307 70.3674 144.965 70.3674C148.64 70.3674 151.127 67.4846 151.127 62.1873C151.127 56.89 148.713 54.0071 145.145 54.0071C143.415 54.0071 141.974 54.7638 140.893 56.3134C140.929 56.2773 140.713 54.2593 140.713 54.2593ZM143.92 67.4485C142.01 67.4485 140.929 65.8269 140.929 62.2593C140.929 58.5837 141.974 56.962 144.1 56.962C146.118 56.962 147.163 58.5836 147.163 62.1512C147.163 65.8269 146.118 67.4485 143.92 67.4485ZM162.767 70.0431H167.019L161.037 61.5746L166.334 54.2593H162.586L157.289 61.5746V54.2593H153.541V70.0431H157.289V62.3314L162.767 70.0431ZM179.523 68.9981V65.935C178.37 66.6918 176.46 67.3764 174.622 67.3764C171.92 67.3764 170.875 66.1152 170.658 63.4125H179.595V61.3945C179.595 55.917 177.181 53.899 173.433 53.899C168.893 53.899 166.694 57.3584 166.694 62.1873C166.694 67.6647 169.397 70.3674 174.118 70.3674C176.749 70.3314 178.478 69.7548 179.523 68.9981ZM173.469 56.962C175.307 56.962 175.884 58.5116 175.884 60.4215V60.7098H170.658C170.767 58.2233 171.74 56.962 173.469 56.962ZM193.001 57.2503V54.2593H180.496V57.2503H184.929V70.0431H188.676V57.2503H193.001Z" fill="black"/>
<path d="M78.3339 73.9009C86.3339 73.9009 92.7843 67.4504 92.7843 59.4504C92.7843 51.4504 86.3339 45 78.3339 45C70.3339 45 63.8834 51.4504 63.8834 59.4504C63.8113 67.4504 70.3699 73.9009 78.3339 73.9009Z" fill="#FED42B"/>
<path d="M47.4504 73.9009C55.4312 73.9009 61.9009 67.4312 61.9009 59.4504C61.9009 51.4697 55.4312 45 47.4504 45C39.4697 45 33 51.4697 33 59.4504C33 67.4312 39.4697 73.9009 47.4504 73.9009Z" fill="#FC3F1D"/>
<path d="M49.5395 53.108H48.098C45.6115 53.108 44.3503 54.3692 44.3503 56.2791C44.3503 58.4053 45.2151 59.4503 47.053 60.7116L48.4944 61.7566L44.3503 68.2071H40.9629L44.9269 62.3332C42.6205 60.7116 41.3593 59.162 41.3593 56.4593C41.3593 53.0719 43.6656 50.7656 48.098 50.7656H52.5305V68.099H49.6476V53.0719H49.5395V53.108Z" fill="white"/>
<mask id="mask0_533_26488" style="mask-type:luminance" maskUnits="userSpaceOnUse" x="63" y="45" width="30" height="29">
<path d="M78.3339 73.9009C86.3339 73.9009 92.7843 67.4504 92.7843 59.4504C92.7843 51.4504 86.3339 45 78.3339 45C70.3339 45 63.8834 51.4504 63.8834 59.4504C63.8113 67.4504 70.3699 73.9009 78.3339 73.9009Z" fill="white"/>
</mask>
<g mask="url(#mask0_533_26488)">
<path d="M71.2344 52.927L58.5137 69.5757L61.9011 73.4316L71.3425 60.927L70.3695 67.7739L75.6668 69.6117L82.1173 59.3054C81.829 61.2153 81.3605 65.6478 85.5767 67.0171C92.2074 69.0352 98.0092 57.1072 100.676 51.0532L96.82 49.0352C93.829 55.3054 89.2164 62.2243 87.3785 61.7559C85.5407 61.2874 87.1984 55.4135 88.2434 51.6297V51.5216L82.3695 49.5036L75.3425 60.9631L76.3155 54.6928L71.2344 52.927Z" fill="black"/>
</g>
</svg>
