<svg width="226" height="120" viewBox="0 0 226 120" fill="none" xmlns="http://www.w3.org/2000/svg">
<g id="Frame 1000002530">
<g id="Group 1000002207">
<path id="Vector" d="M168.999 41H198.381C201.086 41.2455 202.672 42.8981 202.999 45.5718V50.0702C202.855 50.7472 202.449 51.1686 201.78 51.3343C201.398 51.4286 201.229 51.4198 200.881 51.2983C200.423 51.1388 200.09 50.8352 199.924 50.3727C199.84 50.1424 199.803 49.7545 199.804 49.5128C199.805 48.3335 199.805 47.1544 199.803 45.9755C199.802 45.6701 199.774 45.4297 199.718 45.2542C199.54 44.6932 199.175 44.3282 198.624 44.159C198.428 44.0987 198.126 44.0685 197.717 44.0685C188.247 44.069 178.777 44.069 169.308 44.0685C168.717 44.0685 168.121 44.2849 167.786 44.7949C167.525 45.1928 167.473 45.5421 167.473 46.0577C167.474 51.2238 167.474 56.3899 167.473 61.5561C167.473 62.0534 167.505 62.4022 167.571 62.6025C168.024 63.9989 169.595 63.8243 170.729 63.8046C170.736 63.8045 170.742 63.8026 170.748 63.799C170.754 63.7954 170.758 63.7904 170.761 63.7844C170.764 63.7784 170.766 63.7717 170.765 63.765C170.765 63.7583 170.762 63.7519 170.758 63.7464C170.651 63.5933 170.742 63.4345 170.751 63.3042C170.835 62.135 171.415 61.1195 172.398 60.4925C173.322 59.9028 174.354 59.7833 175.495 60.1338C176.06 60.3078 176.539 60.6127 177.017 60.9424C177.025 60.9482 177.035 60.9517 177.046 60.9522C177.056 60.9527 177.066 60.9503 177.075 60.9453C177.084 60.9403 177.092 60.9329 177.097 60.9239C177.102 60.9149 177.105 60.9046 177.104 60.8943C177.1 60.7863 177.097 60.6874 177.097 60.5975C177.093 57.4552 177.09 54.3128 177.087 51.1705C177.086 49.7254 177.837 48.5379 179.147 47.9406C179.835 47.6268 180.668 47.604 181.422 47.7565C182.634 48.002 183.619 49.0497 183.926 50.2145C184.073 50.7694 184.06 51.4141 184.059 52.0404C184.058 53.1894 184.055 54.3324 184.049 55.4696C184.049 55.4759 184.05 55.482 184.053 55.4878C184.055 55.4936 184.059 55.4988 184.063 55.5032C184.068 55.5075 184.073 55.5109 184.079 55.5132C184.085 55.5155 184.091 55.5166 184.097 55.5164C184.901 55.5017 185.629 55.7144 186.281 56.1548C186.373 56.2172 186.556 56.3659 186.832 56.6008C186.905 56.6628 186.987 56.6837 187.073 56.6603C188.133 56.3731 189.318 56.6122 190.174 57.3044C190.251 57.3664 190.411 57.5237 190.654 57.7764C190.722 57.8472 190.766 57.9384 190.826 58.0212C190.838 58.0389 190.855 58.0486 190.877 58.0503C191.018 58.0609 191.115 58.0596 191.169 58.0465C191.444 57.9803 191.707 57.9668 191.959 58.006C192.186 58.0421 192.401 58.0598 192.595 58.1187C194.156 58.5881 195.139 59.8143 195.178 61.4523C195.196 62.2166 195.197 62.9849 195.181 63.7572C195.181 63.7639 195.183 63.7705 195.185 63.7768C195.187 63.783 195.191 63.7886 195.196 63.7934C195.2 63.7982 195.206 63.8019 195.212 63.8045C195.218 63.8071 195.225 63.8084 195.231 63.8084C196.023 63.8101 196.82 63.8086 197.622 63.804C198.375 63.7989 199.017 63.6825 199.49 63.0562C199.673 62.8132 199.804 62.4051 199.804 62.1033C199.804 60.8396 199.804 59.576 199.805 58.3123C199.805 58.1313 199.839 57.9561 199.862 57.7764C199.946 57.1405 200.33 56.685 200.948 56.5154C201.162 56.4572 201.582 56.4363 201.769 56.4825C202.48 56.6605 202.891 57.1159 202.999 57.8485V62.2343C202.873 63.2852 202.552 64.2918 201.892 65.1308C200.83 66.4828 199.156 66.8504 197.541 66.8466C196.771 66.8445 196.008 66.8445 195.254 66.8466C195.206 66.847 195.182 66.8715 195.183 66.92C195.227 68.8655 195.091 70.8528 194.5 72.6806C194.156 73.7429 193.695 74.9393 193.3 76.0972C193.126 76.6046 192.994 76.9466 192.902 77.1234C192.245 78.3871 191.195 79.0841 189.752 79.2144H183.606C182.314 79.1309 181.256 78.602 180.434 77.6276C180.224 77.3779 180.019 77.1238 179.82 76.8652C175.835 71.6688 173.316 68.3781 172.262 66.9934C172.189 66.8985 172.101 66.851 171.998 66.851C170.613 66.8536 169.709 66.8498 169.285 66.8397C168.967 66.8316 168.615 66.7945 168.231 66.7283C166.09 66.3588 164.677 64.8397 164.366 62.6981C164.328 62.442 164.31 62.0211 164.311 61.4352C164.311 56.3691 164.311 51.3027 164.311 46.2361C164.311 45.6857 164.335 45.2652 164.385 44.9746C164.49 44.3541 164.687 43.799 164.974 43.3093C165.85 41.8168 167.302 41.1107 168.999 41ZM190.981 62.3026C190.809 63.2517 189.71 63.6509 189.032 62.9727C188.79 62.7301 188.669 62.429 188.669 62.0692C188.67 61.3572 188.666 60.6454 188.657 59.9339C188.652 59.5612 188.377 59.391 188.05 59.3271C187.966 59.3111 187.858 59.3317 187.725 59.3891C187.431 59.5161 187.284 59.7289 187.283 60.0275C187.282 60.5134 187.278 60.9985 187.27 61.4827C187.255 62.4349 186.312 62.8872 185.508 62.4273C185.072 62.178 185 61.8224 185 61.3093C185 60.629 185 59.9486 184.999 59.2683C184.999 59.0312 184.972 58.8564 184.92 58.7438C184.684 58.2446 184.018 58.1535 183.694 58.6318C183.587 58.7912 183.542 59.1335 183.543 59.3005C183.548 60.026 183.55 60.7521 183.548 61.4789C183.547 61.8895 183.411 62.1862 183.092 62.4153C182.886 62.5625 182.637 62.6285 182.345 62.6133C181.853 62.588 181.52 62.3417 181.346 61.8743C181.293 61.7313 181.266 61.5411 181.266 61.3036C181.267 57.9217 181.267 54.5395 181.267 51.1572C181.267 50.9834 181.239 50.8501 181.184 50.7573C181.049 50.5296 180.818 50.43 180.491 50.4587C180.051 50.4979 179.875 50.7339 179.875 51.1623C179.875 55.5881 179.875 60.0142 179.875 64.4405C179.875 64.7446 179.846 64.973 179.788 65.1257C179.616 65.5781 179.101 65.9722 178.58 65.8685C178.076 65.7685 177.822 65.4705 177.457 65.1352C176.777 64.5122 176.098 63.8888 175.419 63.265C175.042 62.9176 174.561 62.6019 174.024 62.7829C173.674 62.9012 173.436 63.375 173.493 63.7205C173.53 63.9377 173.61 64.1364 173.734 64.3165C173.828 64.4544 174.052 64.7539 174.406 65.2149C177.003 68.6036 179.598 71.9935 182.193 75.3847C182.502 75.7884 182.977 76.3534 183.481 76.3888C183.753 76.4084 184.021 76.4629 184.284 76.4629C185.877 76.4635 187.473 76.4445 189.066 76.4673C189.833 76.478 190.233 76.3806 190.505 75.6397C190.867 74.6494 191.225 73.6575 191.578 72.6642C192.103 71.1837 192.402 69.8158 192.402 68.2797C192.402 66.0564 192.402 63.8331 192.402 61.6098C192.402 61.2328 192.261 60.9778 191.979 60.8449C191.547 60.6406 191.009 60.9727 191.01 61.4586C191.011 61.7364 191.028 62.0388 190.981 62.3026Z" fill="#F1521B"/>
<path id="Vector_2" d="M23 57.2281V49.7566C23.0628 49.264 23.2172 48.7994 23.4631 48.3628C24.1002 47.2322 25.3074 46.6641 26.5753 46.6641C29.686 46.6645 32.7966 46.6645 35.9069 46.6641C36.1975 46.6641 36.5109 46.7107 36.847 46.8039C37.9859 47.1196 38.8096 47.9332 39.0766 49.0911C39.1943 49.6035 39.169 50.2622 39.1646 50.8563C39.1629 51.1136 39.1331 51.3183 39.0754 51.4706C38.9147 51.8962 38.6137 52.1883 38.1725 52.3469C37.922 52.4367 37.6474 52.4323 37.3779 52.4209C36.7907 52.395 36.3099 51.8489 36.1511 51.3491C36.0252 50.9512 36.0562 50.4001 36.0669 49.9465C36.0677 49.9145 36.062 49.8827 36.0503 49.8529C36.0386 49.8232 36.0211 49.7961 35.9987 49.7732C35.9764 49.7503 35.9497 49.7322 35.9202 49.7198C35.8908 49.7073 35.8591 49.701 35.8271 49.701C32.7337 49.701 29.6597 49.701 26.6051 49.701C26.2963 49.701 26.1318 49.8066 26.1337 50.1274C26.1434 51.5839 26.143 53.7732 26.1324 56.6953C26.1318 56.8301 26.1666 56.932 26.2305 57.0414C26.2546 57.0823 26.2902 57.1028 26.3374 57.1028L35.8588 57.1022C35.9908 57.1022 36.0576 57.0362 36.0593 56.9041C36.0707 56.0759 35.9739 55.3357 36.6288 54.7562C37.4449 54.0343 38.8318 54.4063 39.1152 55.4977C39.1473 55.6221 39.1635 55.8079 39.1639 56.0551C39.1639 56.534 39.1975 57.0838 39.1272 57.5121C38.9191 58.7883 37.9536 59.8366 36.6591 60.0828C36.4588 60.1207 36.1245 60.1397 35.6563 60.1397C32.6262 60.141 29.596 60.1408 26.5658 60.1391C26.0723 60.1391 25.7014 60.1093 25.4529 60.0499C24.0465 59.7145 23.2107 58.6333 23 57.2281Z" fill="#F1521B"/>
<path id="Vector_3" d="M44.3222 55.3372C44.3315 55.3364 44.3427 55.3332 44.3557 55.3277C44.3659 55.3235 44.3754 55.3168 44.3842 55.3075C44.5456 55.1392 44.7531 54.9804 44.8992 54.8564C47.6873 52.4842 50.4764 50.1137 53.2665 47.7449C53.7967 47.2945 54.2731 46.7611 54.9982 46.6738C55.7587 46.5821 56.5755 47.149 56.7001 47.9265C56.7254 48.0828 56.7533 48.2321 56.7533 48.3922C56.755 51.6518 56.7548 54.9114 56.7527 58.171C56.7522 58.5937 56.7208 58.8997 56.6584 59.0891C56.1845 60.5297 54.0239 60.5069 53.6405 58.9828C53.6071 58.8499 53.5905 58.6377 53.5905 58.3463C53.5905 56.0855 53.5905 53.8251 53.5905 51.5651C53.5905 51.5577 53.5885 51.5504 53.5847 51.544C53.5809 51.5376 53.5753 51.5324 53.5687 51.5289C53.5621 51.5254 53.5546 51.5237 53.5471 51.5241C53.5396 51.5245 53.5322 51.5268 53.5259 51.531C53.2615 51.7068 53.054 51.9321 52.8142 52.1352C49.7937 54.6862 46.7747 57.2391 43.7572 59.7939C43.5235 59.9917 43.2798 60.1058 43.0258 60.1362C42.7209 60.1729 42.3084 60.14 42.0319 59.9862C41.6877 59.7951 41.3802 59.4877 41.2511 59.1074C41.2102 58.9872 41.1898 58.7968 41.1898 58.5361C41.1893 55.1377 41.1893 51.7391 41.1898 48.3403C41.1898 48.0569 41.218 47.838 41.2745 47.6836C41.3998 47.3415 41.6251 47.0762 41.9503 46.8877C42.7943 46.3992 43.9097 46.7706 44.2128 47.7222C44.2655 47.8867 44.2918 48.1526 44.2918 48.52C44.2918 50.78 44.2912 53.0429 44.2899 55.3087C44.2899 55.3128 44.2907 55.3167 44.2924 55.3204C44.294 55.3241 44.2965 55.3274 44.2995 55.3301C44.3026 55.3328 44.3062 55.3348 44.3101 55.336C44.314 55.3373 44.3181 55.3377 44.3222 55.3372Z" fill="#F1521B"/>
<path id="Vector_4" d="M64.2048 49.7044C62.7922 49.6981 61.3783 49.6975 59.9632 49.7025C59.5941 49.7038 59.3248 49.6745 59.1553 49.6146C58.7276 49.464 58.1708 48.9591 58.2088 48.4359C58.2109 48.4093 58.1967 48.3615 58.1664 48.2923C58.1579 48.2729 58.156 48.2528 58.1607 48.2322C58.2303 47.919 58.2239 47.6672 58.4315 47.3755C58.7769 46.8921 59.2512 46.6511 59.8544 46.6523C63.6708 46.6608 67.4871 46.6648 71.3035 46.6644C71.7093 46.6644 72.0026 46.6954 72.1836 46.7574C72.6619 46.9206 73.0472 47.3129 73.1826 47.8159C73.2263 47.9772 73.28 48.117 73.2592 48.286C73.174 48.9604 72.8283 49.4062 72.2222 49.6235C72.0779 49.6749 71.8953 49.7006 71.6743 49.7006C70.2549 49.7015 68.8407 49.7017 67.4315 49.7013C67.4251 49.7013 67.4187 49.7025 67.4128 49.7049C67.4069 49.7074 67.4015 49.7109 67.397 49.7154C67.3925 49.7198 67.3889 49.7251 67.3865 49.731C67.384 49.7368 67.3827 49.743 67.3827 49.7494C67.3836 52.6226 67.3836 55.4866 67.3827 58.3413C67.3827 58.6758 67.3572 58.9234 67.3062 59.0841C66.8589 60.4905 64.8096 60.5082 64.3022 59.1252C64.2478 58.9767 64.2206 58.7747 64.2206 58.5191C64.2197 55.6138 64.2197 52.6808 64.2206 49.7203C64.2206 49.7161 64.2189 49.712 64.2159 49.7091C64.213 49.7061 64.2089 49.7044 64.2048 49.7044Z" fill="#F1521B"/>
<path id="Vector_5" d="M86.9152 51.5316C86.9139 51.5285 86.9119 51.5257 86.9094 51.5236C86.9068 51.5214 86.9038 51.5198 86.9005 51.519C86.8973 51.5182 86.8939 51.5182 86.8906 51.519C86.8873 51.5197 86.8843 51.5212 86.8817 51.5234C83.698 54.222 80.5139 56.9231 77.3294 59.6268C76.9972 59.909 76.6657 60.1298 76.226 60.1399C75.8881 60.1475 75.685 60.1596 75.4174 60.0159C75.026 59.8059 74.759 59.5026 74.6164 59.1061C74.5611 58.9526 74.5335 58.7413 74.5335 58.4722C74.5331 55.0101 74.5331 51.5482 74.5335 48.0866C74.5335 47.9904 74.5671 47.8527 74.6341 47.6734C74.8347 47.1401 75.3079 46.7883 75.8584 46.6902C76.2386 46.6232 76.7669 46.7573 77.0725 47.0047C77.5464 47.3894 77.6818 47.881 77.6843 48.4978C77.6936 50.7439 77.6989 52.9872 77.7001 55.2277C77.7 55.2348 77.7019 55.2416 77.7055 55.2476C77.7092 55.2536 77.7144 55.2585 77.7207 55.2617C77.727 55.2649 77.7341 55.2663 77.7411 55.2658C77.7482 55.2653 77.7551 55.2628 77.7609 55.2588C78.0209 55.0708 78.2778 54.8374 78.4929 54.6552C82.6969 51.0868 85.4508 48.7477 86.7545 47.638C87.1405 47.309 87.5378 46.9167 87.9718 46.7624C88.5463 46.5574 89.0818 46.6607 89.5782 47.0724C89.79 47.2479 89.9382 47.4693 90.023 47.7367C90.0732 47.8949 90.0983 48.152 90.0983 48.508C90.0979 51.8233 90.0981 55.1385 90.0989 58.4538C90.0989 58.7229 90.0719 58.9362 90.0179 59.0935C89.8454 59.5984 89.4956 59.9314 88.9683 60.0925C88.7437 60.1608 88.3299 60.1741 88.0977 60.102C87.2987 59.8527 86.9336 59.251 86.9342 58.433C86.9351 56.1599 86.9338 53.8869 86.9304 51.6138C86.93 51.583 86.9249 51.5556 86.9152 51.5316Z" fill="#F1521B"/>
<path id="Vector_6" d="M99.2672 51.2203C99.2597 51.218 99.2515 51.2183 99.244 51.2211C99.2366 51.224 99.2303 51.2293 99.2261 51.2362C97.6427 53.8749 96.0626 56.5086 94.486 59.1372C94.3139 59.4244 94.1637 59.6241 94.0355 59.7363C93.3775 60.3121 92.35 60.3171 91.7857 59.5997C91.4837 59.2154 91.3898 58.7856 91.5041 58.3103C91.545 58.1407 91.6486 57.9209 91.8148 57.651C92.3108 56.8456 92.8233 55.9472 93.2655 55.212C94.7169 52.7964 96.167 50.3801 97.6159 47.9633C97.7127 47.8019 97.8639 47.4799 98.036 47.28C98.5367 46.6996 99.1491 46.5294 99.8733 46.7694C100.177 46.8706 100.422 47.0739 100.608 47.3793C102.612 50.6849 104.612 53.9932 106.608 57.3043C106.878 57.7522 107.036 58.0783 107.082 58.2824C107.214 58.8734 106.993 59.5339 106.481 59.8863C105.735 60.3994 104.676 60.1539 104.192 59.346C102.595 56.6773 101.003 54.0054 99.4083 51.3349C99.3733 51.2767 99.3263 51.2385 99.2672 51.2203Z" fill="#F1521B"/>
<path id="Vector_7" d="M111.408 55.2658C111.437 55.2604 111.472 55.2401 111.513 55.2051C114.634 52.5415 117.776 49.9019 120.887 47.2269C121.663 46.5588 122.619 46.4044 123.373 47.2376C123.722 47.6229 123.757 47.9994 123.757 48.5631C123.757 51.9316 123.757 55.3 123.758 58.6684C123.758 59.3758 123.167 59.987 122.519 60.1129C121.717 60.2691 120.943 59.8876 120.678 59.0961C120.622 58.9253 120.593 58.6788 120.592 58.3565C120.592 56.0974 120.591 53.8351 120.592 51.5697C120.592 51.5634 120.59 51.5572 120.587 51.5517C120.584 51.5462 120.579 51.5416 120.574 51.5384C120.569 51.5352 120.562 51.5334 120.556 51.5332C120.55 51.533 120.544 51.5345 120.538 51.5374C120.467 51.5741 120.397 51.6222 120.327 51.6817C117.2 54.3427 114.073 57.0036 110.945 59.6643C110.714 59.8613 110.469 60.003 110.211 60.0895C109.841 60.2141 109.267 60.1685 108.92 59.9344C108.611 59.7265 108.396 59.4561 108.275 59.1233C108.219 58.9711 108.192 58.7589 108.192 58.4869C108.191 55.1517 108.191 51.8168 108.192 48.4821C108.192 48.2008 108.21 47.9853 108.245 47.8355C108.459 46.9346 109.415 46.4683 110.271 46.7581C110.714 46.908 111.192 47.3515 111.27 47.8501C111.331 48.2428 111.361 48.638 111.36 49.0357C111.356 51.0911 111.355 53.1531 111.355 55.2215C111.355 55.2574 111.372 55.2722 111.408 55.2658Z" fill="#F1521B"/>
<path id="Vector_8" d="M138.371 51.919C138.373 50.7164 138.373 49.5027 138.372 48.2779C138.371 47.201 139.445 46.3956 140.467 46.7613C141.006 46.9536 141.435 47.4598 141.505 48.0406C141.574 48.6208 141.54 49.5255 141.54 50.0589C141.54 52.8659 141.538 55.6729 141.534 58.48C141.533 59.2588 141.1 59.9459 140.325 60.1161C139.509 60.2951 138.711 59.8529 138.457 59.081C138.399 58.906 138.37 58.6504 138.37 58.3142C138.371 57.2032 138.371 56.0937 138.372 54.9856C138.372 54.9771 138.368 54.9689 138.362 54.9628C138.356 54.9568 138.348 54.9534 138.34 54.9534H129.31C129.278 54.9534 129.262 54.9696 129.262 55.0021C129.262 56.2485 129.257 57.4921 129.248 58.733C129.244 59.3974 128.703 59.9193 128.128 60.0933C127.56 60.2641 126.899 60.0674 126.506 59.6523C126.163 59.2885 126.099 58.8735 126.098 58.3363C126.097 55.0797 126.097 51.823 126.098 48.5664C126.098 48.196 126.128 47.9227 126.189 47.7464C126.365 47.2301 126.821 46.8233 127.36 46.7069C128.275 46.5089 129.237 47.227 129.245 48.1836C129.257 49.4342 129.262 50.684 129.262 51.9329C129.262 51.9456 129.267 51.9579 129.276 51.9669C129.285 51.9759 129.297 51.981 129.31 51.981L138.31 51.9797C138.351 51.9797 138.371 51.9595 138.371 51.919Z" fill="#F1521B"/>
<path id="Vector_9" d="M145.564 46.6797H145.488C144.636 46.6797 143.945 47.3706 143.945 48.2228V58.5976C143.945 59.4499 144.636 60.1408 145.488 60.1408H145.564C146.417 60.1408 147.107 59.4499 147.107 58.5976V48.2228C147.107 47.3706 146.417 46.6797 145.564 46.6797Z" fill="#F1521B"/>
<path id="Vector_10" d="M152.314 53.4681C154.328 54.7663 156.343 56.0735 158.361 57.3895C159.382 58.0557 159.23 59.7595 157.978 60.1119C157.883 60.1385 157.598 60.1916 157.487 60.1701C157.384 60.1499 157.279 60.1372 157.173 60.1322C156.931 60.1195 156.488 59.8228 156.254 59.6709C153.731 58.0331 151.206 56.3974 148.68 54.7638C148.332 54.5386 147.995 54.1191 147.987 53.7009C147.978 53.196 147.974 52.836 148.285 52.4279C148.432 52.2343 148.665 52.104 148.876 51.9667C151.244 50.4254 153.622 48.8981 155.989 47.355C156.552 46.9874 157.217 46.5085 157.97 46.7267C158.412 46.855 158.73 47.1378 158.926 47.5752C158.983 47.703 159.064 48.082 159.037 48.2325C158.934 48.7988 158.848 49.1518 158.346 49.4777C156.662 50.5714 154.977 51.6649 153.291 52.7582C152.97 52.967 152.644 53.1833 152.313 53.4073C152.308 53.4108 152.304 53.4154 152.301 53.4208C152.299 53.4261 152.297 53.4321 152.297 53.4381C152.297 53.4442 152.299 53.45 152.302 53.4553C152.305 53.4605 152.309 53.4649 152.314 53.4681Z" fill="#F1521B"/>
</g>
</g>
</svg>
