<svg width="226" height="120" viewBox="0 0 226 120" fill="none" xmlns="http://www.w3.org/2000/svg">
<g clip-path="url(#clip0_533_26937)">
<rect width="225.6" height="120" rx="8" fill="white"/>
<g clip-path="url(#clip1_533_26937)">
<path d="M79.4991 28H73V78.8109H79.4991V28Z" fill="#2D76B3"/>
<path d="M98.0538 28H91.5547V78.8109H98.0538V28Z" fill="#2D76B3"/>
<path d="M110.462 28H103.963V78.8109H110.462V28Z" fill="#2D76B3"/>
<path d="M128.186 28H121.686V78.8109H128.186V28Z" fill="#2D76B3"/>
<path d="M140.593 28H134.094V78.8109H140.593V28Z" fill="#2D76B3"/>
<path d="M153.001 28H146.502V78.8109H153.001V28Z" fill="#2D76B3"/>
<mask id="mask0_533_26937" style="mask-type:luminance" maskUnits="userSpaceOnUse" x="73" y="28" width="81" height="65">
<path d="M153.001 28H73V92.8288H153.001V28Z" fill="white"/>
</mask>
<g mask="url(#mask0_533_26937)">
<path d="M73 84.6172H74.8126L75.6103 87.8514C75.7792 88.5249 75.8998 89.2256 76.0451 90.035H76.0723C76.1905 89.2682 76.3382 88.5379 76.4965 87.8514L77.2646 84.6172H79.6468L80.4302 87.8514C80.5885 88.5119 80.7209 89.2126 80.8662 90.035H80.8934C81.0518 89.2008 81.1711 88.5261 81.3283 87.8514L82.1117 84.6172H83.8192L82.1117 91.1872H79.6468L78.8409 87.9565C78.6802 87.2664 78.5632 86.5527 78.4155 85.7681H78.4025C78.2843 86.5515 78.1662 87.2523 78.0066 87.9423L77.196 91.186H74.776L73 84.6172Z" fill="#2D76B3"/>
</g>
<mask id="mask1_533_26937" style="mask-type:luminance" maskUnits="userSpaceOnUse" x="73" y="28" width="81" height="65">
<path d="M153.001 28H73V92.8288H153.001V28Z" fill="white"/>
</mask>
<g mask="url(#mask1_533_26937)">
<path d="M85.9805 84.6172H87.7931L88.5919 87.8514C88.7609 88.5249 88.8802 89.2256 89.0268 90.035H89.0528C89.1721 89.2682 89.3186 88.5379 89.477 87.8514L90.245 84.6172H92.6272L93.4107 87.8514C93.569 88.5119 93.7025 89.2126 93.8479 90.035H93.8751C94.0334 89.2008 94.1528 88.5261 94.3099 87.8514L95.0933 84.6172H96.8008L95.0933 91.1872H92.6272L91.8225 87.9577C91.6618 87.2676 91.5437 86.5539 91.396 85.7693H91.383C91.266 86.5527 91.1466 87.2534 90.9883 87.9435L90.1777 91.1872H87.7577L85.9805 84.6172Z" fill="#2D76B3"/>
</g>
<mask id="mask2_533_26937" style="mask-type:luminance" maskUnits="userSpaceOnUse" x="73" y="28" width="81" height="65">
<path d="M153.001 28H73V92.8288H153.001V28Z" fill="white"/>
</mask>
<g mask="url(#mask2_533_26937)">
<path d="M98.9648 84.6172H100.779L101.576 87.8514C101.745 88.5249 101.865 89.2256 102.011 90.035H102.037C102.156 89.2682 102.303 88.5379 102.461 87.8514L103.231 84.6172H105.612L106.395 87.8514C106.553 88.5119 106.687 89.2126 106.832 90.035H106.858C107.018 89.2008 107.137 88.5261 107.293 87.8514L108.077 84.6172H109.785L108.077 91.1872H105.612L104.807 87.9577C104.646 87.2676 104.528 86.5539 104.38 85.7693H104.366C104.25 86.5527 104.131 87.2534 103.973 87.9435L103.161 91.1872H100.741L98.9648 84.6172Z" fill="#2D76B3"/>
</g>
<mask id="mask3_533_26937" style="mask-type:luminance" maskUnits="userSpaceOnUse" x="73" y="28" width="81" height="65">
<path d="M153.001 28H73V92.8288H153.001V28Z" fill="white"/>
</mask>
<g mask="url(#mask3_533_26937)">
<path d="M111.563 91.2911C110.769 91.2911 110.557 91.0796 110.557 90.3245C110.557 89.5694 110.769 89.3438 111.563 89.3438C112.374 89.3438 112.584 89.5694 112.584 90.3245C112.584 91.0796 112.374 91.2911 111.563 91.2911Z" fill="#2D76B3"/>
</g>
<mask id="mask4_533_26937" style="mask-type:luminance" maskUnits="userSpaceOnUse" x="73" y="28" width="81" height="65">
<path d="M153.001 28H73V92.8288H153.001V28Z" fill="white"/>
</mask>
<g mask="url(#mask4_533_26937)">
<path d="M114.775 89.8077H116.802V85.7547L115.133 86.3928L114.734 85.2927L117.147 84.1016H118.485V89.8077H120.179V91.1855H114.775V89.8077Z" fill="#2D76B3"/>
</g>
<mask id="mask5_533_26937" style="mask-type:luminance" maskUnits="userSpaceOnUse" x="73" y="28" width="81" height="65">
<path d="M153.001 28H73V92.8288H153.001V28Z" fill="white"/>
</mask>
<g mask="url(#mask5_533_26937)">
<path d="M122.24 89.9666L124.334 88.1126C125.368 87.2122 125.873 86.684 125.873 86.1275C125.873 85.5685 125.473 85.2909 124.6 85.2909C123.912 85.2909 123.234 85.4114 122.611 85.5969L122.412 84.2876C123.169 84.0726 124.014 83.9414 124.996 83.9414C126.878 83.9414 127.702 84.6587 127.702 85.8226C127.702 86.9865 127.022 87.692 125.819 88.6337L124.533 89.7161H127.775V91.1873H122.24V89.9666Z" fill="#2D76B3"/>
</g>
<mask id="mask6_533_26937" style="mask-type:luminance" maskUnits="userSpaceOnUse" x="73" y="28" width="81" height="65">
<path d="M153.001 28H73V92.8288H153.001V28Z" fill="white"/>
</mask>
<g mask="url(#mask6_533_26937)">
<path d="M129.928 91.2668C130.538 91.398 131.197 91.4795 131.873 91.4795C133.064 91.4795 133.714 90.9489 133.714 90.1159C133.714 89.2415 133.277 88.8562 130.946 88.8562V87.5564C132.959 87.5564 133.531 86.8569 133.531 86.2212C133.531 85.5594 133.025 85.2936 132.073 85.2936C131.452 85.2936 130.826 85.4035 130.231 85.5713L130.032 84.2608C130.813 84.0611 131.663 83.9453 132.539 83.9453C134.349 83.9453 135.253 84.6047 135.253 85.7958C135.253 86.9231 134.656 87.6486 133.714 88.0622C134.708 88.2477 135.45 88.8692 135.45 90.0072C135.45 91.6378 134.363 92.8289 131.996 92.8289C131.144 92.8289 130.392 92.7521 129.756 92.6056L129.928 91.2668Z" fill="#2D76B3"/>
</g>
<mask id="mask7_533_26937" style="mask-type:luminance" maskUnits="userSpaceOnUse" x="73" y="28" width="81" height="65">
<path d="M153.001 28H73V92.8288H153.001V28Z" fill="white"/>
</mask>
<g mask="url(#mask7_533_26937)">
<path d="M138.462 91.2911C137.668 91.2911 137.455 91.0796 137.455 90.3245C137.455 89.5694 137.668 89.3438 138.462 89.3438C139.27 89.3438 139.48 89.5694 139.48 90.3245C139.482 91.0796 139.27 91.2911 138.462 91.2911Z" fill="#2D76B3"/>
</g>
<mask id="mask8_533_26937" style="mask-type:luminance" maskUnits="userSpaceOnUse" x="73" y="28" width="81" height="65">
<path d="M153.001 28H73V92.8288H153.001V28Z" fill="white"/>
</mask>
<g mask="url(#mask8_533_26937)">
<path d="M141.697 84.6165H143.144L143.246 85.3078C143.829 84.8315 144.373 84.418 144.941 84.418C145.18 84.418 145.339 84.4605 145.499 84.5527L145.286 86.1006C145.126 86.0226 144.956 85.9825 144.729 85.9825C144.386 85.9825 143.987 86.181 143.457 86.5083V91.1853H141.698L141.697 84.6165Z" fill="#2D76B3"/>
</g>
<mask id="mask9_533_26937" style="mask-type:luminance" maskUnits="userSpaceOnUse" x="73" y="28" width="81" height="65">
<path d="M153.001 28H73V92.8288H153.001V28Z" fill="white"/>
</mask>
<g mask="url(#mask9_533_26937)">
<path d="M148.737 84.6172V88.7931C148.737 89.651 148.999 89.8885 149.568 89.8885C150.007 89.8885 150.482 89.69 151.091 89.28V84.6172H152.854V91.1872H151.398L151.303 90.5242C150.511 91.0146 149.805 91.3053 148.961 91.3053C147.585 91.3053 146.973 90.6566 146.973 89.1464V84.6172H148.737Z" fill="#2D76B3"/>
</g>
</g>
</g>
<rect x="0.5" y="0.5" width="224.6" height="119" rx="7.5" stroke="#F1F1F1"/>
<defs>
<clipPath id="clip0_533_26937">
<rect width="225.6" height="120" rx="8" fill="white"/>
</clipPath>
<clipPath id="clip1_533_26937">
<rect width="80" height="64.8288" fill="white" transform="translate(73 28)"/>
</clipPath>
</defs>
</svg>
