<svg width="226" height="120" viewBox="0 0 226 120" fill="none" xmlns="http://www.w3.org/2000/svg">
<g id="Frame 1000002530">
<g id="Group 1000002209">
<path id="Vector" d="M51.4432 61.9844C51.4975 64.6995 53.3627 66.4676 55.9127 66.2167C57.4857 66.062 58.4484 65.1805 58.8008 63.5722C58.8104 63.5291 58.8359 63.5075 58.8773 63.5075H63.6161C63.6207 63.5075 63.6252 63.5084 63.6295 63.5103C63.6337 63.5123 63.6376 63.515 63.6408 63.5186C63.644 63.5221 63.6465 63.5262 63.6481 63.5308C63.6498 63.5354 63.6506 63.5403 63.6504 63.5452C63.4908 69.2757 58.158 71.6151 53.5245 70.6727C47.8758 69.5231 45.605 63.3461 46.9848 57.9029C47.9888 53.9416 51.0265 51.3902 54.871 51.1535C58.4794 50.932 61.8507 52.481 63.0741 56.3469C63.646 58.155 63.6737 59.9843 63.5296 61.8666C63.5267 61.8988 63.5101 61.9149 63.4798 61.9149H51.5064C51.4635 61.9149 51.4425 61.9381 51.4432 61.9844ZM55.1248 55.507C53.4247 55.6445 52.2814 56.5519 51.6948 58.2292C51.6925 58.2356 51.6916 58.2425 51.6923 58.2492C51.693 58.256 51.6953 58.2625 51.6989 58.2682C51.7025 58.2739 51.7073 58.2785 51.713 58.2818C51.7186 58.2851 51.7249 58.2868 51.7314 58.2869H58.8518C58.8968 58.2869 58.9157 58.2634 58.9083 58.2163C58.5791 56.1101 56.9622 55.3574 55.1248 55.507Z" fill="#959BAD"/>
<path id="Vector_2" d="M88.2083 67.724C88.1056 67.9226 88.0004 68.1193 87.8925 68.3141C86.9837 69.962 85.5187 70.644 83.73 70.816C80.5438 71.1211 77.6757 69.3778 77.382 65.738C77.0883 62.1041 79.7026 60.508 82.5153 59.6646C84.0085 59.2178 85.5031 58.7765 86.9993 58.3407C87.5456 58.1816 88.1418 58.0097 88.1773 57.2805C88.2782 55.2145 84.8415 55.3099 83.8208 56.0849C83.0994 56.6327 82.8511 57.5008 82.8445 58.409C82.8445 58.449 82.8256 58.4691 82.788 58.4691H77.8352C77.8064 58.4691 77.7913 58.4534 77.7898 58.4219C77.5837 52.4263 82.7669 50.6571 87.3605 51.2425C91.0288 51.7113 92.9782 54.1755 92.9361 58.111C92.8929 62.1913 92.9361 66.2787 92.9316 70.3601C92.9316 70.4018 92.9121 70.4226 92.8729 70.4226H88.3092C88.2954 70.4226 88.2821 70.4169 88.2724 70.4067C88.2626 70.3965 88.2571 70.3828 88.2571 70.3684L88.2593 67.7381C88.2593 67.6643 88.2423 67.6596 88.2083 67.724ZM84.1455 66.4954C86.5726 66.3929 88.3535 64.4364 88.2216 61.8544C88.2194 61.8112 88.1987 61.7955 88.1596 61.8073C86.7167 62.236 85.2752 62.6695 83.8352 63.1077C83.055 63.3456 82.3147 63.7673 82.2482 64.7368C82.1596 66.0136 83.085 66.5401 84.1455 66.4954Z" fill="#959BAD"/>
<path id="Vector_3" d="M129.408 67.7103C129.408 67.7028 129.406 67.6955 129.401 67.6897C129.397 67.6838 129.391 67.6797 129.384 67.6782C129.377 67.6766 129.37 67.6777 129.364 67.6812C129.357 67.6847 129.353 67.6904 129.35 67.6973C128.361 70.1415 126.098 71.0108 123.71 70.8247C120.602 70.5832 118.358 68.4041 118.507 64.9434C118.673 61.0456 122.317 60.0456 125.167 59.2092C126.211 58.9038 127.255 58.5975 128.299 58.2905C128.771 58.1515 129.299 57.9336 129.324 57.321C129.406 55.3351 126.503 55.3575 125.386 55.8451C124.361 56.2939 124.039 57.2692 123.991 58.4059C123.988 58.4467 123.968 58.4672 123.931 58.4672H118.998C118.956 58.4672 118.934 58.4448 118.933 58.4C118.783 54.2219 121.448 51.753 125.108 51.2559C129.701 50.6305 134.089 52.1464 134.088 57.9618C134.087 62.09 134.086 66.2186 134.084 70.3476C134.084 70.3963 134.061 70.4207 134.016 70.4207H129.471C129.431 70.4207 129.411 70.3999 129.411 70.3582L129.408 67.7103ZM124.745 63.2307C123.784 63.5357 123.275 64.1294 123.44 65.2425C123.721 67.139 126.484 66.4664 127.449 65.8574C128.779 65.0176 129.426 63.5711 129.383 61.8749C129.382 61.8317 129.362 61.816 129.322 61.8278C127.791 62.2809 126.266 62.7485 124.745 63.2307Z" fill="#959BAD"/>
<path id="Vector_4" d="M141.249 67.772V75.4921C141.249 75.5369 141.228 75.5592 141.187 75.5592H136.433C136.391 75.5592 136.369 75.5365 136.369 75.4909V51.6558C136.369 51.6102 136.391 51.5874 136.433 51.5874L141.187 51.5886C141.228 51.5886 141.249 51.6106 141.249 51.6546V54.2849C141.249 54.394 141.267 54.3976 141.304 54.2955C142.024 52.2812 143.864 51.1728 145.874 51.1198C150.52 50.9961 152.481 55.2814 152.734 59.5549C152.872 61.8589 152.734 64.1723 151.988 66.3126C150.926 69.3563 148.511 71.1114 145.406 70.8063C143.455 70.6155 142.078 69.6021 141.274 67.7661C141.257 67.7277 141.249 67.7296 141.249 67.772ZM141.231 59.8329C140.997 61.9955 141.276 65.276 143.716 65.9086C145.706 66.4245 147.364 65.468 147.814 63.2936C148.181 61.5173 148.194 58.9765 147.269 57.3722C146.794 56.5492 146.079 56.0918 145.125 55.9999C143.371 55.8311 142.189 56.5979 141.581 58.3004C141.405 58.7959 141.288 59.3067 141.231 59.8329Z" fill="#959BAD"/>
<path id="Vector_5" d="M174.936 61.9764C174.98 63.9364 176.04 65.6797 177.908 66.1061C179.874 66.5549 181.86 65.8329 182.283 63.5724C182.291 63.5285 182.316 63.5065 182.358 63.5065H187.098C187.128 63.5065 187.143 63.5226 187.143 63.5548C187.032 68.7906 182.546 71.1441 178.205 70.8437C172.185 70.4268 169.248 64.5407 170.306 58.7006C171.046 54.6191 173.88 51.6566 177.814 51.2043C179.917 50.9628 182.222 51.308 183.993 52.6249C186.878 54.7687 187.302 58.4096 187.025 61.8786C187.024 61.9022 187.011 61.9139 186.988 61.9139H174.993C174.954 61.9139 174.935 61.9347 174.936 61.9764ZM180.141 55.6097C178.036 55.1044 175.886 55.9878 175.195 58.2541C175.194 58.2578 175.193 58.2617 175.194 58.2655C175.195 58.2693 175.196 58.2729 175.198 58.2759C175.2 58.279 175.203 58.2815 175.206 58.2833C175.21 58.285 175.213 58.2859 175.217 58.2859H182.365C182.374 58.286 182.383 58.2839 182.391 58.2798C182.399 58.2757 182.406 58.2697 182.411 58.2623C182.417 58.2548 182.421 58.2461 182.423 58.2368C182.425 58.2274 182.425 58.2177 182.424 58.2082C182.13 56.7704 181.369 55.9042 180.141 55.6097Z" fill="#959BAD"/>
<path id="Vector_6" d="M34.6919 63.0271L38.0044 51.6578C38.0105 51.637 38.0228 51.6188 38.0393 51.6058C38.0559 51.5929 38.0758 51.5859 38.0964 51.5859H43.2718C43.3132 51.5859 43.3372 51.6079 43.3439 51.6519L46.1366 70.3678C46.1376 70.374 46.1373 70.3803 46.1357 70.3862C46.1342 70.3922 46.1314 70.3978 46.1276 70.4025C46.1238 70.4072 46.119 70.411 46.1137 70.4136C46.1084 70.4161 46.1026 70.4174 46.0967 70.4173H41.6461C41.6099 70.4173 41.5892 70.3985 41.584 70.3608L39.9748 58.6723C39.9578 58.5482 39.932 58.5463 39.8973 58.6664L36.5493 70.3419C36.5352 70.3922 36.5035 70.4173 36.454 70.4173H32.7325C32.7008 70.4173 32.6801 70.4008 32.6705 70.3678L29.4333 58.8879C29.3978 58.7599 29.3705 58.7618 29.3513 58.8937L27.6767 70.3784C27.6752 70.3892 27.67 70.399 27.662 70.4061C27.6541 70.4132 27.644 70.4172 27.6335 70.4173H23.2216C23.2184 70.4174 23.2152 70.4167 23.2123 70.4152C23.2094 70.4138 23.2068 70.4116 23.2046 70.409C23.2025 70.4063 23.201 70.4031 23.2001 70.3997C23.1992 70.3962 23.199 70.3926 23.1995 70.389L26.0011 51.6095C26.0033 51.5938 26.0118 51.5859 26.0266 51.5859H31.3339C31.3499 51.586 31.3654 51.5915 31.3782 51.6017C31.391 51.6119 31.4003 51.6262 31.4049 51.6425L34.632 63.0271C34.652 63.0969 34.6719 63.0969 34.6919 63.0271Z" fill="#959BAD"/>
<path id="Vector_7" d="M70.4089 56.4421V70.3757C70.4089 70.3866 70.4048 70.3971 70.3975 70.4048C70.3902 70.4125 70.3804 70.4169 70.3701 70.4169H65.5681C65.563 70.4169 65.5579 70.4158 65.5532 70.4137C65.5485 70.4117 65.5443 70.4086 65.5407 70.4048C65.5371 70.401 65.5342 70.3964 65.5322 70.3914C65.5303 70.3864 65.5293 70.3811 65.5293 70.3757V51.635C65.5293 51.6296 65.5303 51.6242 65.5322 51.6192C65.5342 51.6142 65.5371 51.6097 65.5407 51.6058C65.5443 51.602 65.5485 51.599 65.5532 51.5969C65.5579 51.5948 65.563 51.5938 65.5681 51.5938H76.8244C76.8295 51.5938 76.8346 51.5948 76.8393 51.5969C76.844 51.599 76.8483 51.602 76.8519 51.6058C76.8555 51.6097 76.8583 51.6142 76.8603 51.6192C76.8622 51.6242 76.8632 51.6296 76.8632 51.635V56.3596C76.8632 56.365 76.8622 56.3704 76.8603 56.3754C76.8583 56.3804 76.8555 56.3849 76.8519 56.3888C76.8483 56.3926 76.844 56.3956 76.8393 56.3977C76.8346 56.3998 76.8295 56.4008 76.8244 56.4008H70.4476C70.4374 56.4008 70.4275 56.4052 70.4202 56.4129C70.4129 56.4206 70.4089 56.4311 70.4089 56.4421Z" fill="#959BAD"/>
<path id="Vector_8" d="M105.871 63.0271C105.891 63.0969 105.911 63.0969 105.931 63.0271L109.25 51.6342C109.26 51.602 109.28 51.5859 109.311 51.5859H114.543C114.552 51.5858 114.56 51.589 114.566 51.5948C114.573 51.6007 114.577 51.6088 114.579 51.6177L117.378 70.3914C117.378 70.3946 117.378 70.398 117.378 70.4011C117.377 70.4043 117.375 70.4072 117.373 70.4097C117.372 70.4121 117.369 70.4141 117.367 70.4154C117.364 70.4167 117.361 70.4174 117.358 70.4173H112.882C112.848 70.4173 112.828 70.3996 112.823 70.3643L111.206 58.611C111.194 58.5278 111.177 58.5266 111.154 58.6075L107.777 70.3808C107.774 70.3914 107.768 70.4007 107.759 70.4072C107.751 70.4138 107.741 70.4173 107.731 70.4173H103.983C103.966 70.4173 103.949 70.4114 103.936 70.4006C103.922 70.3898 103.912 70.3746 103.907 70.3572L100.652 58.8148C100.63 58.7355 100.613 58.7367 100.601 58.8184L98.917 70.362C98.9118 70.3989 98.8915 70.4173 98.856 70.4173H94.4851C94.4788 70.4172 94.4726 70.4157 94.4668 70.4128C94.4611 70.4099 94.456 70.4058 94.4519 70.4007C94.4478 70.3955 94.4448 70.3895 94.4431 70.3831C94.4414 70.3766 94.441 70.3698 94.4419 70.3631L97.2369 51.6283C97.2406 51.6001 97.2557 51.5859 97.2823 51.5859H102.592C102.616 51.5859 102.632 51.5989 102.64 51.6248L105.871 63.0271Z" fill="#959BAD"/>
<path id="Vector_9" d="M159.469 63.2438V70.3784C159.469 70.3835 159.468 70.3886 159.466 70.3933C159.464 70.398 159.461 70.4023 159.458 70.4059C159.454 70.4095 159.45 70.4124 159.446 70.4144C159.442 70.4163 159.437 70.4173 159.432 70.4173H154.624C154.62 70.4173 154.615 70.4163 154.61 70.4144C154.606 70.4124 154.602 70.4095 154.599 70.4059C154.595 70.4023 154.593 70.398 154.591 70.3933C154.589 70.3886 154.588 70.3835 154.588 70.3784V51.6248C154.588 51.6197 154.589 51.6146 154.591 51.6099C154.593 51.6052 154.595 51.6009 154.599 51.5973C154.602 51.5937 154.606 51.5909 154.61 51.5889C154.615 51.5869 154.62 51.5859 154.624 51.5859H159.432C159.437 51.5859 159.442 51.5869 159.446 51.5889C159.45 51.5909 159.454 51.5937 159.458 51.5973C159.461 51.6009 159.464 51.6052 159.466 51.6099C159.468 51.6146 159.469 51.6197 159.469 51.6248V58.5427C159.469 58.553 159.472 58.5629 159.479 58.5702C159.486 58.5775 159.495 58.5816 159.505 58.5816H161.399C161.406 58.5816 161.412 58.5798 161.418 58.5763C161.423 58.5727 161.428 58.5677 161.431 58.5616L165.207 51.606C165.21 51.5999 165.215 51.5948 165.221 51.5913C165.226 51.5878 165.233 51.5859 165.239 51.5859L170.542 51.5871C170.548 51.5873 170.554 51.5892 170.56 51.5926C170.565 51.596 170.57 51.6009 170.573 51.6067C170.576 51.6125 170.578 51.619 170.578 51.6257C170.578 51.6324 170.576 51.639 170.573 51.6448L165.605 60.7949C165.601 60.8009 165.6 60.8079 165.6 60.8149C165.6 60.822 165.601 60.8289 165.605 60.835L170.949 70.3584C170.952 70.3643 170.954 70.371 170.954 70.3778C170.954 70.3847 170.952 70.3915 170.949 70.3974C170.946 70.4034 170.942 70.4084 170.936 70.4119C170.931 70.4154 170.924 70.4173 170.918 70.4173H165.49C165.483 70.4175 165.477 70.4158 165.471 70.4125C165.466 70.4092 165.461 70.4043 165.457 70.3985L161.399 63.2238C161.396 63.2179 161.391 63.2131 161.385 63.2097C161.38 63.2064 161.373 63.2048 161.367 63.2049H159.505C159.495 63.2049 159.486 63.209 159.479 63.2163C159.472 63.2236 159.469 63.2335 159.469 63.2438Z" fill="#959BAD"/>
<path id="Vector_10" d="M193.215 56.4008H188.235C188.225 56.4008 188.214 56.3964 188.207 56.3884C188.2 56.3805 188.195 56.3697 188.195 56.3584V51.6362C188.195 51.6306 188.196 51.6251 188.198 51.6199C188.2 51.6148 188.203 51.6101 188.207 51.6062C188.211 51.6022 188.215 51.5991 188.22 51.597C188.225 51.5948 188.23 51.5938 188.235 51.5938H203.159C203.164 51.5938 203.169 51.5948 203.174 51.597C203.179 51.5991 203.183 51.6022 203.187 51.6062C203.191 51.6101 203.194 51.6148 203.196 51.6199C203.198 51.6251 203.199 51.6306 203.199 51.6362L203.2 56.3584C203.2 56.3697 203.196 56.3805 203.188 56.3884C203.181 56.3964 203.17 56.4008 203.16 56.4008H198.175C198.164 56.4008 198.154 56.4053 198.147 56.4133C198.139 56.4212 198.135 56.432 198.135 56.4432V70.3745C198.135 70.38 198.134 70.3856 198.132 70.3907C198.13 70.3958 198.127 70.4005 198.123 70.4045C198.12 70.4084 198.115 70.4115 198.11 70.4137C198.106 70.4158 198.1 70.4169 198.095 70.4169H193.294C193.289 70.4169 193.284 70.4158 193.279 70.4137C193.274 70.4115 193.27 70.4084 193.266 70.4045C193.262 70.4005 193.259 70.3958 193.257 70.3907C193.255 70.3856 193.254 70.38 193.254 70.3745V56.4432C193.254 56.432 193.25 56.4212 193.243 56.4133C193.235 56.4053 193.225 56.4008 193.215 56.4008Z" fill="#959BAD"/>
</g>
</g>
</svg>
