<svg width="226" height="120" viewBox="0 0 226 120" fill="none" xmlns="http://www.w3.org/2000/svg">
<g id="Frame 1000002530">
<path id="Vector" d="M59.3324 68.2306C62.9581 67.7732 65.887 64.8589 66.3497 61.2485C66.5112 60.0162 66.386 58.7635 65.9838 57.5869C65.5816 56.4104 64.9132 55.3415 64.03 54.4628C63.1469 53.584 62.0726 52.9189 60.8902 52.5188C59.7077 52.1186 58.4487 51.994 57.2102 52.1547C53.5816 52.615 50.6527 55.5293 50.193 59.1369C50.0314 60.3692 50.1566 61.6219 50.5588 62.7984C50.961 63.975 51.6294 65.0438 52.5126 65.9226C53.3958 66.8013 54.47 67.4664 55.6525 67.8666C56.8349 68.2668 58.0939 68.3913 59.3324 68.2306ZM59.8268 45.0777C63.3175 45.4433 66.5763 46.9902 69.0582 49.4597C71.5402 51.9292 73.0948 55.1717 73.4623 58.6449C74.4193 68.2536 66.3699 76.2628 56.71 75.3106C53.2198 74.9443 49.9617 73.3971 47.4804 70.9277C44.999 68.4582 43.4448 65.2161 43.0774 61.7433C42.1204 52.1346 50.1698 44.1254 59.8268 45.0777ZM81.6563 45.6789H104.009C104.859 45.6789 105.339 46.6456 104.827 47.3187L89.3617 67.6207H101.479C103.688 67.6207 105.426 69.6201 104.969 71.8986C104.634 73.5701 103.058 74.7093 101.346 74.7093H77.0707C76.2293 74.7093 75.7522 73.7513 76.2582 73.0868L91.7355 52.7675H81.7893C80.0777 52.7675 78.5019 51.6254 78.1665 49.9568C77.7068 47.6784 79.4473 45.6789 81.6563 45.6789ZM178.663 45.7595C180.97 45.2762 183 47.0138 183 49.2232V73.6851C183 74.5396 182.008 75.0142 181.337 74.4849L162.055 59.2635V71.1708C162.055 73.3802 160.026 75.1178 157.718 74.6345C156.064 74.2893 154.931 72.7559 154.931 71.0758V46.7002C154.931 45.8458 155.923 45.3711 156.594 45.9005L175.879 61.1219V49.3182C175.879 47.6381 177.015 46.1076 178.666 45.7595H178.663ZM128.455 45C140.26 45 149.831 51.8009 149.831 60.1898C149.831 68.5787 140.26 75.3796 128.455 75.3796C116.65 75.3796 107.08 68.5787 107.08 60.1898C107.08 51.8009 116.65 45 128.455 45ZM128.455 52.0886C120.299 52.0886 114.204 56.3665 114.204 60.1898C114.204 64.0131 120.299 68.291 128.455 68.291C136.612 68.291 142.707 64.016 142.707 60.1898C142.707 56.3636 136.612 52.0886 128.455 52.0886Z" fill="#005BFF"/>
</g>
</svg>
