<svg width="227" height="120" viewBox="0 0 227 120" fill="none" xmlns="http://www.w3.org/2000/svg">
<g id="Frame 1000002530">
<g id="Group 1000002206">
<path id="Vector" d="M75.1438 67.5865C74.8146 67.7248 74.7488 67.9421 74.9463 68.2383L86.2636 85.1452C86.3029 85.201 86.3257 85.2665 86.3297 85.3346C86.3337 85.4027 86.3186 85.4709 86.2862 85.5318C86.2537 85.5927 86.205 85.644 86.1454 85.6803C86.0857 85.7166 86.0173 85.7364 85.9476 85.7377L73.2674 85.7673C72.8658 85.7739 72.5531 85.6093 72.3293 85.2735L55.9063 60.6243C55.4718 59.9725 55.6496 59.6631 56.4396 59.696C59.3628 59.8277 62.4966 59.8968 65.8411 59.9034C76.6251 59.9133 76.8325 45.4852 65.3374 45.5346C59.0632 45.5543 52.7824 45.5543 46.495 45.5346C46.1131 45.5346 45.8169 45.3733 45.6062 45.0507L38.8711 34.6715C38.8284 34.6059 38.8042 34.5299 38.8011 34.4516C38.798 34.3733 38.8162 34.2957 38.8536 34.2268C38.8911 34.158 38.9464 34.1006 39.0138 34.0607C39.0812 34.0208 39.1582 33.9998 39.2365 34C48.954 34.079 58.7241 34.1514 68.547 34.2173C88.1498 34.3456 93.2752 60.3182 75.1438 67.5865Z" fill="#959BAD"/>
<path id="Vector_2" d="M109.096 66.0743L109.155 85.1834C109.155 85.3274 109.098 85.4656 108.996 85.5674C108.894 85.6693 108.756 85.7265 108.612 85.7265L103.338 85.766C103.267 85.766 103.196 85.752 103.13 85.7247C103.064 85.6974 103.005 85.6574 102.954 85.6069C102.904 85.5565 102.864 85.4966 102.836 85.4307C102.809 85.3648 102.795 85.2942 102.795 85.2229L102.696 66.0546C102.696 65.9105 102.639 65.7723 102.537 65.6705C102.435 65.5686 102.297 65.5114 102.153 65.5114H95.26C95.1879 65.5114 95.1164 65.497 95.0499 65.4691C94.9833 65.4412 94.923 65.4003 94.8724 65.3488C94.8219 65.2974 94.7821 65.2363 94.7554 65.1693C94.7287 65.1022 94.7156 65.0305 94.7169 64.9584L94.7761 60.4552C94.7787 60.3128 94.8371 60.1772 94.9387 60.0775C95.0403 59.9777 95.1769 59.9219 95.3193 59.9219L116.482 59.9713C116.623 59.9738 116.757 60.0308 116.857 60.1303C116.956 60.2297 117.013 60.3639 117.016 60.5045L117.055 64.9189C117.055 65.0629 116.998 65.2011 116.896 65.3029C116.794 65.4048 116.656 65.462 116.512 65.462L109.639 65.5312C109.495 65.5312 109.357 65.5884 109.255 65.6902C109.153 65.7921 109.096 65.9303 109.096 66.0743Z" fill="#959BAD"/>
<path id="Vector_3" d="M137.439 74.943L127.08 74.9232C126.861 74.9232 126.652 75.0093 126.497 75.1627C126.341 75.3161 126.253 75.5246 126.25 75.7429L126.191 79.4265C126.19 79.5354 126.21 79.6435 126.25 79.7447C126.291 79.8458 126.351 79.938 126.427 80.0159C126.503 80.0939 126.594 80.1561 126.694 80.199C126.794 80.2419 126.902 80.2646 127.011 80.2659L139.316 80.4436C139.427 80.4448 139.537 80.4685 139.639 80.5132C139.741 80.558 139.834 80.6228 139.91 80.7039C139.987 80.7851 140.046 80.8808 140.085 80.9854C140.123 81.09 140.14 81.2013 140.135 81.3127L139.928 85.0061C139.918 85.2175 139.827 85.4171 139.675 85.5639C139.522 85.7108 139.32 85.7939 139.108 85.7962L120.572 85.9048C120.462 85.9061 120.353 85.8856 120.251 85.8445C120.15 85.8034 120.057 85.7425 119.979 85.6653C119.901 85.5882 119.839 85.4963 119.796 85.395C119.754 85.2937 119.732 85.185 119.732 85.0752L119.861 60.8013C119.863 60.5847 119.951 60.3777 120.104 60.2245C120.257 60.0714 120.464 59.9842 120.68 59.9816L138.802 59.8829C138.913 59.8815 139.022 59.9024 139.125 59.9441C139.227 59.9858 139.32 60.0476 139.398 60.1258C139.477 60.204 139.538 60.2971 139.58 60.3995C139.622 60.5019 139.643 60.6117 139.641 60.7223L139.632 64.6429C139.629 64.8594 139.542 65.0664 139.389 65.2196C139.235 65.3728 139.028 65.46 138.812 65.4625L127.06 65.5218C126.845 65.5243 126.64 65.6101 126.487 65.7611C126.334 65.9122 126.245 66.1167 126.24 66.3316L126.201 68.5634C126.2 68.6724 126.22 68.7805 126.26 68.8816C126.301 68.9828 126.361 69.075 126.437 69.1529C126.513 69.2309 126.604 69.293 126.704 69.3359C126.804 69.3788 126.912 69.4016 127.021 69.4028L137.775 69.4127C137.889 69.4137 138.002 69.4382 138.106 69.4847C138.21 69.5313 138.304 69.5989 138.381 69.6832C138.458 69.7676 138.516 69.8669 138.553 69.975C138.59 70.0831 138.604 70.1976 138.595 70.3114L138.269 74.1826C138.251 74.3904 138.156 74.584 138.003 74.725C137.849 74.8659 137.648 74.9437 137.439 74.943Z" fill="#959BAD"/>
<path id="Vector_4" d="M164.487 82.2236C158.453 88.1193 147.837 86.6182 143.926 79.6461C136.312 66.0969 153.229 53.1995 164.289 63.6083C164.459 63.7665 164.562 63.9845 164.575 64.2165C164.587 64.4485 164.51 64.6765 164.358 64.8526L161.988 67.6573C161.587 68.1247 161.136 68.184 160.635 67.835C159.717 67.1931 158.71 66.3734 157.574 66.0179C152.439 64.4477 148.133 67.8745 148.449 73.2764C148.824 79.7251 155.668 82.5297 160.576 77.8586C161.109 77.3451 161.623 77.3616 162.117 77.908L164.536 80.5744C165.05 81.1406 165.033 81.6903 164.487 82.2236Z" fill="#959BAD"/>
<path id="Vector_5" d="M174.096 75.5237L174.175 85.182C174.177 85.2528 174.164 85.3232 174.138 85.3891C174.111 85.4549 174.072 85.5149 174.023 85.5655C173.973 85.616 173.914 85.6562 173.848 85.6836C173.783 85.711 173.713 85.7251 173.642 85.7251L168.447 85.7646C168.377 85.7659 168.306 85.7531 168.24 85.7269C168.174 85.7007 168.115 85.6616 168.064 85.612C168.013 85.5623 167.973 85.5031 167.946 85.4377C167.918 85.3724 167.904 85.3022 167.904 85.2313L167.944 60.434C167.944 60.2926 168 60.1569 168.1 60.0569C168.2 59.9569 168.336 59.9007 168.477 59.9007L173.435 59.881C173.576 59.881 173.712 59.9372 173.812 60.0372C173.912 60.1372 173.968 60.2728 173.968 60.4142L173.948 69.075C173.948 69.2165 174.004 69.3521 174.104 69.4521C174.204 69.5521 174.34 69.6083 174.481 69.6083L182.085 69.5984C182.227 69.5984 182.363 69.5423 182.463 69.4423C182.563 69.3422 182.619 69.2066 182.619 69.0652V60.4439C182.619 60.3024 182.675 60.1668 182.775 60.0668C182.875 59.9668 183.011 59.9106 183.152 59.9106L188.268 59.8711C188.338 59.8711 188.407 59.8849 188.472 59.9117C188.536 59.9385 188.595 59.9778 188.645 60.0273C188.694 60.0768 188.733 60.1356 188.76 60.2003C188.787 60.265 188.801 60.3343 188.801 60.4044V85.1918C188.801 85.2619 188.787 85.3312 188.76 85.3959C188.733 85.4606 188.694 85.5194 188.645 85.5689C188.595 85.6184 188.536 85.6577 188.472 85.6845C188.407 85.7113 188.338 85.7251 188.268 85.7251L183.142 85.7449C183.001 85.7449 182.865 85.6887 182.765 85.5887C182.665 85.4887 182.609 85.353 182.609 85.2116L182.629 75.4842C182.629 75.3428 182.572 75.2072 182.472 75.1072C182.372 75.0071 182.237 74.951 182.095 74.951L174.63 74.9905C174.488 74.9905 174.352 75.0467 174.252 75.1467C174.152 75.2467 174.096 75.3823 174.096 75.5237Z" fill="#959BAD"/>
<path id="Vector_6" d="M41.1621 85.3823L41.1917 61.3256C41.1906 61.2441 41.2161 61.1644 41.2644 61.0986C41.3126 61.0328 41.381 60.9846 41.4591 60.9611C41.5373 60.9377 41.6209 60.9404 41.6974 60.9687C41.7739 60.9971 41.839 61.0495 41.883 61.1182L57.8517 85.1749C57.8893 85.2317 57.9108 85.2977 57.9138 85.3657C57.9169 85.4338 57.9013 85.5014 57.8688 85.5613C57.8363 85.6211 57.7882 85.671 57.7295 85.7056C57.6708 85.7402 57.6038 85.7582 57.5357 85.7576H41.5374C41.4378 85.7576 41.3424 85.7181 41.272 85.6477C41.2016 85.5773 41.1621 85.4818 41.1621 85.3823Z" fill="#959BAD"/>
<path id="Vector_7" d="M91.9122 69.0608L83.854 69.1171C83.5377 69.1193 83.283 69.3775 83.2852 69.6939L83.3152 73.9797C83.3174 74.296 83.5756 74.5507 83.8919 74.5485L91.9501 74.4922C92.2665 74.49 92.5211 74.2318 92.5189 73.9155L92.489 69.6296C92.4868 69.3133 92.2285 69.0586 91.9122 69.0608Z" fill="#959BAD"/>
</g>
</g>
</svg>
