<svg width="227" height="120" viewBox="0 0 227 120" fill="none" xmlns="http://www.w3.org/2000/svg">
<g id="Frame 1000002530">
<g id="Group 1000002208">
<path id="Vector" d="M108.772 70.0431H111.943L116.375 53.5746V70.0431H119.943V48.2773H115.042L110.609 64.2413L106.177 48.2773H101.168V70.0431H104.231V53.5746L108.772 70.0431ZM134.862 59.2683C134.862 55.4125 132.952 53.971 128.988 53.971C126.501 53.971 124.555 54.7278 123.402 55.4125V58.4755C124.375 57.7188 126.573 56.926 128.519 56.926C130.357 56.926 131.114 57.6107 131.114 59.2323V60.0972H130.537C124.844 60.0972 122.249 62.0071 122.249 65.2143C122.249 68.4215 124.159 70.2233 127.078 70.2233C129.276 70.2233 130.249 69.5386 130.934 68.7819H131.114C131.114 69.1782 131.294 69.7548 131.402 70.0431H135.078C134.97 68.7819 134.898 67.4485 134.898 66.1873C134.862 66.1873 134.862 59.2683 134.862 59.2683ZM131.114 66.2954C130.645 66.98 129.781 67.5566 128.411 67.5566C126.862 67.5566 126.105 66.5837 126.105 65.2503C126.105 63.4125 127.366 62.7638 130.645 62.7638H131.222V66.3314H131.114V66.2954ZM141.312 54.2593H137.853V74.5836H141.6V68.2413C142.573 69.6828 143.907 70.3674 145.564 70.3674C149.24 70.3674 151.727 67.4846 151.727 62.1873C151.727 56.89 149.312 54.0071 145.745 54.0071C144.015 54.0071 142.573 54.7638 141.492 56.3134C141.528 56.2773 141.312 54.2593 141.312 54.2593ZM144.519 67.4485C142.609 67.4485 141.528 65.8269 141.528 62.2593C141.528 58.5837 142.573 56.962 144.699 56.962C146.718 56.962 147.763 58.5836 147.763 62.1512C147.763 65.8269 146.718 67.4485 144.519 67.4485ZM163.366 70.0431H167.618L161.636 61.5746L166.934 54.2593H163.186L157.889 61.5746V54.2593H154.141V70.0431H157.889V62.3314L163.366 70.0431ZM180.123 68.9981V65.935C178.97 66.6918 177.06 67.3764 175.222 67.3764C172.519 67.3764 171.474 66.1152 171.258 63.4125H180.195V61.3945C180.195 55.917 177.781 53.899 174.033 53.899C169.492 53.899 167.294 57.3584 167.294 62.1873C167.294 67.6647 169.997 70.3674 174.718 70.3674C177.348 70.3314 179.078 69.7548 180.123 68.9981ZM174.069 56.962C175.907 56.962 176.483 58.5116 176.483 60.4215V60.7098H171.258C171.366 58.2233 172.339 56.962 174.069 56.962ZM193.6 57.2503V54.2593H181.096V57.2503H185.528V70.0431H189.276V57.2503H193.6Z" fill="#959BAD"/>
<path id="Vector_2" d="M78.9335 73.9009C86.9335 73.9009 93.3839 67.4504 93.3839 59.4504C93.3839 51.4504 86.9335 45 78.9335 45C70.9335 45 64.483 51.4504 64.483 59.4504C64.4109 67.4504 70.9695 73.9009 78.9335 73.9009Z" fill="#959BAD"/>
<path id="Vector_3" d="M48.0501 73.9009C56.0308 73.9009 62.5005 67.4312 62.5005 59.4504C62.5005 51.4697 56.0308 45 48.0501 45C40.0693 45 33.5996 51.4697 33.5996 59.4504C33.5996 67.4312 40.0693 73.9009 48.0501 73.9009Z" fill="#959BAD"/>
<path id="Vector_4" d="M50.1391 53.108H48.6976C46.2111 53.108 44.9499 54.3692 44.9499 56.2791C44.9499 58.4053 45.8148 59.4503 47.6526 60.7116L49.094 61.7566L44.9499 68.2071H41.5625L45.5265 62.3332C43.2202 60.7116 41.9589 59.162 41.9589 56.4593C41.9589 53.0719 44.2652 50.7656 48.6976 50.7656H53.1301V68.099H50.2472V53.0719H50.1391V53.108Z" fill="white"/>
<g id="Group">
<g id="Clip path group">
<mask id="mask0_644_18912" style="mask-type:luminance" maskUnits="userSpaceOnUse" x="64" y="45" width="30" height="29">
<g id="SVGID_2_">
<path id="Vector_5" d="M78.9335 73.9009C86.9335 73.9009 93.3839 67.4504 93.3839 59.4504C93.3839 51.4504 86.9335 45 78.9335 45C70.9335 45 64.483 51.4504 64.483 59.4504C64.4109 67.4504 70.9695 73.9009 78.9335 73.9009Z" fill="white"/>
</g>
</mask>
<g mask="url(#mask0_644_18912)">
<path id="Vector_6" d="M71.834 52.927L59.1133 69.5757L62.5007 73.4316L71.9421 60.927L70.9691 67.7739L76.2664 69.6117L82.7169 59.3054C82.4286 61.2153 81.9601 65.6478 86.1763 67.0171C92.807 69.0352 98.6088 57.1072 101.275 51.0532L97.4196 49.0352C94.4286 55.3054 89.816 62.2243 87.9781 61.7559C86.1403 61.2874 87.798 55.4135 88.843 51.6297V51.5216L82.9691 49.5036L75.9421 60.9631L76.9151 54.6928L71.834 52.927Z" fill="white"/>
</g>
</g>
</g>
</g>
</g>
</svg>
