<svg width="226" height="120" viewBox="0 0 226 120" fill="none" xmlns="http://www.w3.org/2000/svg">
<g id="Frame 1000002530">
<g id="Group 1000002209">
<path id="Vector" d="M51.244 61.9844C51.2983 64.6995 53.1635 66.4676 55.7135 66.2167C57.2865 66.062 58.2492 65.1805 58.6016 63.5722C58.6112 63.5291 58.6367 63.5075 58.678 63.5075H63.4169C63.4215 63.5075 63.426 63.5084 63.4303 63.5103C63.4345 63.5123 63.4383 63.515 63.4415 63.5186C63.4448 63.5221 63.4473 63.5262 63.4489 63.5308C63.4506 63.5354 63.4514 63.5403 63.4512 63.5452C63.2916 69.2757 57.9588 71.6151 53.3253 70.6727C47.6766 69.5231 45.4058 63.3461 46.7856 57.9029C47.7896 53.9416 50.8273 51.3902 54.6718 51.1535C58.2802 50.932 61.6514 52.481 62.8749 56.3469C63.4468 58.155 63.4745 59.9843 63.3304 61.8666C63.3275 61.8988 63.3108 61.9149 63.2805 61.9149H51.3072C51.2643 61.9149 51.2433 61.9381 51.244 61.9844ZM54.9256 55.507C53.2255 55.6445 52.0822 56.5519 51.4956 58.2292C51.4932 58.2356 51.4924 58.2425 51.4931 58.2492C51.4938 58.256 51.4961 58.2625 51.4997 58.2682C51.5033 58.2739 51.5081 58.2785 51.5137 58.2818C51.5194 58.2851 51.5257 58.2868 51.5321 58.2869H58.6526C58.6976 58.2869 58.7165 58.2634 58.7091 58.2163C58.3799 56.1101 56.763 55.3574 54.9256 55.507Z" fill="#6833B0"/>
<path id="Vector_2" d="M88.0091 67.724C87.9064 67.9226 87.8011 68.1193 87.6933 68.3141C86.7845 69.962 85.3194 70.644 83.5307 70.816C80.3446 71.1211 77.4764 69.3778 77.1828 65.738C76.8891 62.1041 79.5034 60.508 82.3161 59.6646C83.8093 59.2178 85.3039 58.7765 86.8 58.3407C87.3464 58.1816 87.9426 58.0097 87.9781 57.2805C88.0789 55.2145 84.6423 55.3099 83.6216 56.0849C82.9002 56.6327 82.6519 57.5008 82.6453 58.409C82.6453 58.449 82.6264 58.4691 82.5887 58.4691H77.636C77.6072 58.4691 77.5921 58.4534 77.5906 58.4219C77.3845 52.4263 82.5677 50.6571 87.1613 51.2425C90.8296 51.7113 92.779 54.1755 92.7369 58.111C92.6936 62.1913 92.7369 66.2787 92.7324 70.3601C92.7324 70.4018 92.7128 70.4226 92.6737 70.4226H88.11C88.0962 70.4226 88.0829 70.4169 88.0731 70.4067C88.0634 70.3965 88.0579 70.3828 88.0579 70.3684L88.0601 67.7381C88.0601 67.6643 88.0431 67.6596 88.0091 67.724ZM83.9463 66.4954C86.3734 66.3929 88.1543 64.4364 88.0224 61.8544C88.0202 61.8112 87.9995 61.7955 87.9604 61.8073C86.5174 62.236 85.076 62.6695 83.636 63.1077C82.8558 63.3456 82.1155 63.7673 82.049 64.7368C81.9604 66.0136 82.8857 66.5401 83.9463 66.4954Z" fill="#6833B0"/>
<path id="Vector_3" d="M129.208 67.7103C129.209 67.7028 129.206 67.6955 129.202 67.6897C129.198 67.6838 129.192 67.6797 129.185 67.6782C129.178 67.6766 129.171 67.6777 129.164 67.6812C129.158 67.6847 129.153 67.6904 129.151 67.6973C128.162 70.1415 125.899 71.0108 123.511 70.8247C120.402 70.5832 118.159 68.4041 118.308 64.9434C118.474 61.0456 122.118 60.0456 124.968 59.2092C126.012 58.9038 127.056 58.5975 128.1 58.2905C128.572 58.1515 129.1 57.9336 129.125 57.321C129.207 55.3351 126.304 55.3575 125.187 55.8451C124.161 56.2939 123.84 57.2692 123.791 58.4059C123.789 58.4467 123.769 58.4672 123.731 58.4672H118.799C118.757 58.4672 118.735 58.4448 118.733 58.4C118.584 54.2219 121.249 51.753 124.908 51.2559C129.502 50.6305 133.89 52.1464 133.888 57.9618C133.888 62.09 133.887 66.2186 133.885 70.3476C133.885 70.3963 133.862 70.4207 133.816 70.4207H129.272C129.232 70.4207 129.212 70.3999 129.212 70.3582L129.208 67.7103ZM124.546 63.2307C123.585 63.5357 123.075 64.1294 123.241 65.2425C123.522 67.139 126.285 66.4664 127.25 65.8574C128.58 65.0176 129.227 63.5711 129.184 61.8749C129.183 61.8317 129.163 61.816 129.123 61.8278C127.592 62.2809 126.067 62.7485 124.546 63.2307Z" fill="#6833B0"/>
<path id="Vector_4" d="M141.049 67.772V75.4921C141.049 75.5369 141.029 75.5592 140.987 75.5592H136.234C136.191 75.5592 136.17 75.5365 136.17 75.4909V51.6558C136.17 51.6102 136.191 51.5874 136.234 51.5874L140.987 51.5886C141.029 51.5886 141.049 51.6106 141.049 51.6546V54.2849C141.049 54.394 141.068 54.3976 141.105 54.2955C141.825 52.2812 143.665 51.1728 145.675 51.1198C150.321 50.9961 152.281 55.2814 152.535 59.5549C152.673 61.8589 152.535 64.1723 151.788 66.3126C150.727 69.3563 148.312 71.1114 145.206 70.8063C143.256 70.6155 141.879 69.6021 141.075 67.7661C141.058 67.7277 141.049 67.7296 141.049 67.772ZM141.032 59.8329C140.798 61.9955 141.077 65.276 143.516 65.9086C145.507 66.4245 147.165 65.468 147.615 63.2936C147.982 61.5173 147.995 58.9765 147.069 57.3722C146.594 56.5492 145.88 56.0918 144.926 55.9999C143.171 55.8311 141.99 56.5979 141.382 58.3004C141.205 58.7959 141.089 59.3067 141.032 59.8329Z" fill="#6833B0"/>
<path id="Vector_5" d="M174.737 61.9764C174.78 63.9364 175.841 65.6797 177.708 66.1061C179.674 66.5549 181.66 65.8329 182.084 63.5724C182.092 63.5285 182.117 63.5065 182.159 63.5065H186.899C186.929 63.5065 186.944 63.5226 186.943 63.5548C186.832 68.7906 182.346 71.1441 178.005 70.8437C171.985 70.4268 169.049 64.5407 170.107 58.7006C170.847 54.6191 173.681 51.6566 177.615 51.2043C179.718 50.9628 182.023 51.308 183.794 52.6249C186.678 54.7687 187.103 58.4096 186.826 61.8786C186.824 61.9022 186.812 61.9139 186.789 61.9139H174.794C174.755 61.9139 174.736 61.9347 174.737 61.9764ZM179.941 55.6097C177.837 55.1044 175.687 55.9878 174.995 58.2541C174.994 58.2578 174.994 58.2617 174.995 58.2655C174.995 58.2693 174.997 58.2729 174.999 58.2759C175.001 58.279 175.004 58.2815 175.007 58.2833C175.01 58.285 175.014 58.2859 175.018 58.2859H182.166C182.175 58.286 182.183 58.2839 182.191 58.2798C182.2 58.2757 182.207 58.2697 182.212 58.2623C182.218 58.2548 182.222 58.2461 182.224 58.2368C182.226 58.2274 182.226 58.2177 182.224 58.2082C181.93 56.7704 181.169 55.9042 179.941 55.6097Z" fill="#6833B0"/>
<path id="Vector_6" d="M34.4927 63.0271L37.8052 51.6578C37.8113 51.637 37.8235 51.6188 37.8401 51.6058C37.8566 51.5929 37.8766 51.5859 37.8972 51.5859H43.0726C43.114 51.5859 43.138 51.6079 43.1447 51.6519L45.9374 70.3678C45.9384 70.374 45.9381 70.3803 45.9365 70.3862C45.935 70.3922 45.9322 70.3978 45.9284 70.4025C45.9246 70.4072 45.9198 70.411 45.9145 70.4136C45.9092 70.4161 45.9034 70.4174 45.8975 70.4173H41.4468C41.4106 70.4173 41.39 70.3985 41.3848 70.3608L39.7756 58.6723C39.7586 58.5482 39.7328 58.5463 39.698 58.6664L36.3501 70.3419C36.336 70.3922 36.3043 70.4173 36.2548 70.4173H32.5333C32.5015 70.4173 32.4808 70.4008 32.4712 70.3678L29.2341 58.8879C29.1986 58.7599 29.1713 58.7618 29.1521 58.8937L27.4775 70.3784C27.476 70.3892 27.4707 70.399 27.4628 70.4061C27.4549 70.4132 27.4448 70.4172 27.4343 70.4173H23.0224C23.0192 70.4174 23.016 70.4167 23.0131 70.4152C23.0102 70.4138 23.0075 70.4116 23.0054 70.409C23.0033 70.4063 23.0018 70.4031 23.0009 70.3997C23 70.3962 22.9998 70.3926 23.0003 70.389L25.8019 51.6095C25.8041 51.5938 25.8126 51.5859 25.8274 51.5859H31.1347C31.1507 51.586 31.1662 51.5915 31.179 51.6017C31.1918 51.6119 31.2011 51.6262 31.2056 51.6425L34.4328 63.0271C34.4528 63.0969 34.4727 63.0969 34.4927 63.0271Z" fill="#6833B0"/>
<path id="Vector_7" d="M70.2096 56.4421V70.3757C70.2096 70.3866 70.2056 70.3971 70.1983 70.4048C70.191 70.4125 70.1811 70.4169 70.1709 70.4169H65.3689C65.3638 70.4169 65.3587 70.4158 65.354 70.4137C65.3493 70.4117 65.345 70.4086 65.3414 70.4048C65.3378 70.401 65.335 70.3964 65.333 70.3914C65.3311 70.3864 65.3301 70.3811 65.3301 70.3757V51.635C65.3301 51.6296 65.3311 51.6242 65.333 51.6192C65.335 51.6142 65.3378 51.6097 65.3414 51.6058C65.345 51.602 65.3493 51.599 65.354 51.5969C65.3587 51.5948 65.3638 51.5938 65.3689 51.5938H76.6252C76.6303 51.5938 76.6354 51.5948 76.6401 51.5969C76.6448 51.599 76.649 51.602 76.6527 51.6058C76.6563 51.6097 76.6591 51.6142 76.6611 51.6192C76.663 51.6242 76.664 51.6296 76.664 51.635V56.3596C76.664 56.365 76.663 56.3704 76.6611 56.3754C76.6591 56.3804 76.6563 56.3849 76.6527 56.3888C76.649 56.3926 76.6448 56.3956 76.6401 56.3977C76.6354 56.3998 76.6303 56.4008 76.6252 56.4008H70.2484C70.2381 56.4008 70.2283 56.4052 70.221 56.4129C70.2137 56.4206 70.2096 56.4311 70.2096 56.4421Z" fill="#6833B0"/>
<path id="Vector_8" d="M105.672 63.0271C105.692 63.0969 105.712 63.0969 105.732 63.0271L109.051 51.6342C109.061 51.602 109.081 51.5859 109.112 51.5859H114.344C114.352 51.5858 114.361 51.589 114.367 51.5948C114.374 51.6007 114.378 51.6088 114.379 51.6177L117.179 70.3914C117.179 70.3946 117.179 70.398 117.178 70.4011C117.178 70.4043 117.176 70.4072 117.174 70.4097C117.172 70.4121 117.17 70.4141 117.167 70.4154C117.165 70.4167 117.162 70.4174 117.159 70.4173H112.683C112.649 70.4173 112.629 70.3996 112.624 70.3643L111.007 58.611C110.995 58.5278 110.978 58.5266 110.955 58.6075L107.578 70.3808C107.575 70.3914 107.569 70.4007 107.56 70.4072C107.552 70.4138 107.542 70.4173 107.532 70.4173H103.783C103.767 70.4173 103.75 70.4114 103.736 70.4006C103.723 70.3898 103.713 70.3746 103.708 70.3572L100.453 58.8148C100.431 58.7355 100.414 58.7367 100.402 58.8184L98.7177 70.362C98.7126 70.3989 98.6923 70.4173 98.6568 70.4173H94.2859C94.2796 70.4172 94.2733 70.4157 94.2676 70.4128C94.2619 70.4099 94.2568 70.4058 94.2527 70.4007C94.2486 70.3955 94.2456 70.3895 94.2439 70.3831C94.2421 70.3766 94.2417 70.3698 94.2427 70.3631L97.0377 51.6283C97.0414 51.6001 97.0565 51.5859 97.0831 51.5859H102.393C102.417 51.5859 102.433 51.5989 102.44 51.6248L105.672 63.0271Z" fill="#6833B0"/>
<path id="Vector_9" d="M159.269 63.2438V70.3784C159.269 70.3835 159.268 70.3886 159.267 70.3933C159.265 70.398 159.262 70.4023 159.259 70.4059C159.255 70.4095 159.251 70.4124 159.247 70.4144C159.242 70.4163 159.238 70.4173 159.233 70.4173H154.425C154.42 70.4173 154.416 70.4163 154.411 70.4144C154.407 70.4124 154.403 70.4095 154.399 70.4059C154.396 70.4023 154.393 70.398 154.391 70.3933C154.39 70.3886 154.389 70.3835 154.389 70.3784V51.6248C154.389 51.6197 154.39 51.6146 154.391 51.6099C154.393 51.6052 154.396 51.6009 154.399 51.5973C154.403 51.5937 154.407 51.5909 154.411 51.5889C154.416 51.5869 154.42 51.5859 154.425 51.5859H159.233C159.238 51.5859 159.242 51.5869 159.247 51.5889C159.251 51.5909 159.255 51.5937 159.259 51.5973C159.262 51.6009 159.265 51.6052 159.267 51.6099C159.268 51.6146 159.269 51.6197 159.269 51.6248V58.5427C159.269 58.553 159.273 58.5629 159.28 58.5702C159.287 58.5775 159.296 58.5816 159.306 58.5816H161.2C161.206 58.5816 161.213 58.5798 161.219 58.5763C161.224 58.5727 161.229 58.5677 161.232 58.5616L165.008 51.606C165.011 51.5999 165.016 51.5948 165.021 51.5913C165.027 51.5878 165.033 51.5859 165.04 51.5859L170.343 51.5871C170.349 51.5873 170.355 51.5892 170.361 51.5926C170.366 51.596 170.371 51.6009 170.374 51.6067C170.377 51.6125 170.378 51.619 170.378 51.6257C170.379 51.6324 170.377 51.639 170.374 51.6448L165.406 60.7949C165.402 60.8009 165.4 60.8079 165.4 60.8149C165.4 60.822 165.402 60.8289 165.406 60.835L170.75 70.3584C170.753 70.3643 170.755 70.371 170.755 70.3778C170.755 70.3847 170.753 70.3915 170.75 70.3974C170.747 70.4034 170.742 70.4084 170.737 70.4119C170.731 70.4154 170.725 70.4173 170.719 70.4173H165.29C165.284 70.4175 165.278 70.4158 165.272 70.4125C165.266 70.4092 165.262 70.4043 165.258 70.3985L161.2 63.2238C161.197 63.2179 161.192 63.2131 161.186 63.2097C161.181 63.2064 161.174 63.2048 161.168 63.2049H159.306C159.296 63.2049 159.287 63.209 159.28 63.2163C159.273 63.2236 159.269 63.2335 159.269 63.2438Z" fill="#6833B0"/>
<path id="Vector_10" d="M193.015 56.4008H188.036C188.025 56.4008 188.015 56.3964 188.008 56.3884C188 56.3805 187.996 56.3697 187.996 56.3584V51.6362C187.996 51.6306 187.997 51.6251 187.999 51.6199C188.001 51.6148 188.004 51.6101 188.008 51.6062C188.011 51.6022 188.016 51.5991 188.021 51.597C188.026 51.5948 188.031 51.5938 188.036 51.5938H202.959C202.965 51.5938 202.97 51.5948 202.975 51.597C202.98 51.5991 202.984 51.6022 202.988 51.6062C202.991 51.6101 202.994 51.6148 202.996 51.6199C202.998 51.6251 202.999 51.6306 202.999 51.6362L203.001 56.3584C203.001 56.3697 202.996 56.3805 202.989 56.3884C202.981 56.3964 202.971 56.4008 202.961 56.4008H197.976C197.965 56.4008 197.955 56.4053 197.948 56.4133C197.94 56.4212 197.936 56.432 197.936 56.4432V70.3745C197.936 70.38 197.935 70.3856 197.933 70.3907C197.931 70.3958 197.928 70.4005 197.924 70.4045C197.92 70.4084 197.916 70.4115 197.911 70.4137C197.906 70.4158 197.901 70.4169 197.896 70.4169H193.095C193.09 70.4169 193.085 70.4158 193.08 70.4137C193.075 70.4115 193.071 70.4084 193.067 70.4045C193.063 70.4005 193.06 70.3958 193.058 70.3907C193.056 70.3856 193.055 70.38 193.055 70.3745V56.4432C193.055 56.432 193.051 56.4212 193.044 56.4133C193.036 56.4053 193.026 56.4008 193.015 56.4008Z" fill="#6833B0"/>
</g>
</g>
</svg>
