<svg width="226" height="120" viewBox="0 0 226 120" fill="none" xmlns="http://www.w3.org/2000/svg">
  <g id="Frame 1000002530">
    <g id="Clip path group">
      <mask id="mask0_533_26372" style="mask-type:luminance" maskUnits="userSpaceOnUse" x="33" y="36" width="160"
        height="48">
        <g id="clip0_3684_4853">
          <path id="Vector" d="M193 36H33V83.9401H193V36Z" fill="white" />
        </g>
      </mask>
      <g mask="url(#mask0_533_26372)">
        <g id="Group">
          <path id="Vector_2"
            d="M192.999 78.4079C192.999 79.5289 192.115 80.4256 191.009 80.4256H155.368C154.262 80.4256 153.377 79.5289 153.377 78.4079V42.0138C153.377 40.8929 154.262 39.9961 155.368 39.9961H190.991C192.096 39.9961 192.981 40.8929 192.981 42.0138L192.999 78.4079Z"
            fill="#F47524" />
          <path id="Vector_3"
            d="M158.631 51.7695H167.035C168.859 51.7695 170.241 52.1993 171.144 53.0773C172.047 53.9554 172.508 55.1885 172.508 56.7952C172.508 58.4393 172.01 59.7284 171.015 60.6625C170.02 61.5967 168.509 62.0638 166.463 62.0638H163.699V68.0983H158.631V51.7695ZM163.699 58.7569H164.952C165.929 58.7569 166.629 58.5888 167.016 58.2525C167.403 57.9349 167.606 57.4678 167.606 56.9634C167.624 56.4776 167.44 55.9919 167.09 55.6556C166.74 55.3006 166.095 55.1138 165.155 55.1138H163.699V58.7569ZM173.614 51.7695H179.105L181.372 58.4953L183.602 51.7695H188.744L183.381 64.3804C183.049 65.1651 182.662 65.9311 182.238 66.6597C181.87 67.2016 181.372 67.6312 180.783 67.8928C180.137 68.2104 179.253 68.3785 178.129 68.3785C177.539 68.3785 176.507 68.2851 175.051 68.117V64.7541C175.917 64.8475 176.526 64.8849 176.931 64.8849C178.092 64.8849 178.811 64.4552 179.069 63.5771L173.614 51.7695Z"
            fill="white" />
          <path id="Vector_4"
            d="M136.828 76.6533V64.1172H123.781V67.7416C123.781 71.0485 123.339 74.019 122.436 76.6346H120.832V83.9396H124.702V80.3899H134.635V83.9396H138.506V76.6346H136.828V76.6533ZM132.018 76.6533H127.061C127.798 73.3651 128.148 70.5814 128.148 68.3395V68.134H132.018V76.6533Z"
            fill="#0F87C9" />
          <path id="Vector_5"
            d="M115.415 60.1211C115.285 61.0179 114.825 61.8212 114.125 62.3817C112.613 63.5214 110.55 63.5214 109.038 62.3817C108.338 61.8399 107.877 61.0366 107.748 60.1398H109.573C109.868 61.0739 110.531 61.5223 111.526 61.5223C112.595 61.5223 113.277 61.0553 113.572 60.1398L115.415 60.1211Z"
            fill="#0F87C9" />
          <path id="Vector_6"
            d="M118.935 64.1172V80.4085H114.419V71.4595L108.633 80.4085H104.062V64.1172H108.614V73.1223L114.438 64.1172H118.935Z"
            fill="#0F87C9" />
          <path id="Vector_7"
            d="M88.3223 64.1172H101.204V67.5922H93.1508V70.1891H100.614V73.5146H93.1508V76.7094H101.444V80.4085H88.3223V64.1172Z"
            fill="#0F87C9" />
          <path id="Vector_8"
            d="M84.5271 65.4249C83.6609 64.5655 82.3524 64.1172 80.6017 64.1172H72.6035V80.4085H77.4319V74.374H80.0672C82.0023 74.374 83.4582 73.907 84.398 72.9915C85.3379 72.076 85.8171 70.7869 85.8171 69.1242C85.8171 67.5175 85.3932 66.2844 84.5271 65.4249ZM80.5833 70.5627C80.2147 70.899 79.5512 71.0672 78.6114 71.0672H77.4319V67.424H78.8141C79.7171 67.424 80.3437 67.6109 80.657 67.9658C80.9887 68.3208 81.173 68.7879 81.1545 69.2736C81.1545 69.7594 80.9518 70.2451 80.5833 70.5627Z"
            fill="#0F87C9" />
          <path id="Vector_9" d="M55.8145 64.1172H70.4655V68.134H65.5449V80.4085H60.735V68.134H55.8145V64.1172Z"
            fill="#0F87C9" />
          <path id="Vector_10"
            d="M122.232 39.9766H127.043V45.6561H132.276V39.9766H137.105V56.2119H132.276V49.6356H127.043V56.2119H122.232V39.9766Z"
            fill="#0F87C9" />
          <path id="Vector_11"
            d="M115.488 36C115.377 36.8968 114.898 37.7001 114.198 38.2419C113.479 38.8211 112.576 39.1387 111.655 39.1013C110.733 39.12 109.83 38.8211 109.111 38.2419C108.411 37.7001 107.951 36.8968 107.84 36H109.665C109.959 36.9155 110.604 37.3825 111.618 37.3825C112.687 37.3825 113.369 36.9155 113.663 36H115.488Z"
            fill="#0F87C9" />
          <path id="Vector_12"
            d="M119.008 39.9766V56.2119H114.492V47.3002L108.724 56.2119H104.172V39.9766H108.706V48.963L114.529 39.9766H119.008Z"
            fill="#0F87C9" />
          <path id="Vector_13"
            d="M96.819 39.9766H91.5666L85.7246 56.2119H90.6267L91.4007 53.5403H96.837L97.6112 56.2119H102.643L96.819 39.9766ZM92.4143 50.0279L94.1098 44.1989L95.8051 50.0279H92.4143Z"
            fill="#0F87C9" />
          <path id="Vector_14"
            d="M84.1038 56.2119H79.3124V43.9747H75.5528V48.963C75.5528 51.0181 75.4423 52.5314 75.2396 53.4842C75.0737 54.381 74.5577 55.147 73.7837 55.6141C73.0097 56.0624 71.7749 56.2866 70.0795 56.2866C69.4713 56.2866 68.8632 56.2306 68.2734 56.1185V52.8116H68.9921C69.6372 52.8116 70.0979 52.6622 70.3559 52.3633C70.6139 52.0644 70.7613 51.5225 70.7613 50.7192V39.9766H84.1038V56.2119Z"
            fill="#0F87C9" />
          <path id="Vector_15"
            d="M51.7969 39.9766H56.5884V45.6561H61.8407V39.9766H66.6506V56.2119H61.8407V49.6356H56.5884V56.2119H51.7969V39.9766Z"
            fill="#0F87C9" />
          <path id="Vector_16"
            d="M47.0982 41.886C45.6975 40.4474 43.7072 39.7188 41.1272 39.7188C38.6024 39.7188 36.6305 40.4474 35.2299 41.942C33.7924 43.3993 33 45.9775 33 48.6117C33 50.5174 33.4607 51.5823 34.1795 52.8341C34.806 54.0111 35.7828 54.9826 36.9622 55.5991C38.1048 56.1783 39.5607 56.4772 41.3114 56.4772C43.0622 56.4772 44.4812 56.1409 45.6238 55.4684C46.7664 54.8145 47.6879 53.8243 48.2776 52.6286C48.8857 51.4142 49.199 49.8635 49.199 47.9578C49.1806 45.3796 48.4987 43.3432 47.0982 41.886ZM43.5414 51.6758C42.97 52.367 42.1776 52.722 41.1456 52.722C40.1136 52.722 39.3395 52.367 38.7683 51.6571C38.197 50.9471 37.9021 49.7701 37.9021 48.126C37.9021 46.4819 38.197 45.2862 38.7867 44.5763C39.358 43.8663 40.2241 43.474 41.1272 43.5113C42.1407 43.5113 42.9332 43.8663 43.5229 44.5763C44.1126 45.2862 44.4075 46.3885 44.4075 47.9205C44.3891 49.7141 44.1126 50.9845 43.5414 51.6758Z"
            fill="#0F87C9" />
          <path id="Vector_17" fill-rule="evenodd" clip-rule="evenodd"
            d="M145.232 57.5039C146.669 57.5039 147.848 58.6996 147.848 60.1569C147.848 61.6142 146.669 62.8099 145.232 62.8099C143.795 62.8099 142.615 61.6142 142.615 60.1569C142.615 58.6996 143.776 57.5039 145.232 57.5039Z"
            fill="#0F87C9" />
          <path id="Vector_18" fill-rule="evenodd" clip-rule="evenodd"
            d="M145.232 54.6621C145.748 54.6621 146.264 54.7742 146.725 54.9984V40.8181C146.725 40.0521 146.117 39.9961 145.361 39.9961H145.084C144.329 39.9961 143.721 40.0521 143.721 40.8181V54.9984C144.2 54.7742 144.715 54.6621 145.232 54.6621Z"
            fill="#0F87C9" />
          <path id="Vector_19" fill-rule="evenodd" clip-rule="evenodd"
            d="M145.233 65.7426C144.716 65.7426 144.2 65.6304 143.74 65.4062V79.5491C143.74 80.3151 144.348 80.4086 145.104 80.4086H145.38C146.135 80.4086 146.744 80.2964 146.744 79.5491V65.4062C146.265 65.6304 145.749 65.7426 145.233 65.7426Z"
            fill="#0F87C9" />
        </g>
      </g>
    </g>
  </g>
</svg>