<svg width="24" height="24" viewBox="0 0 24 24" fill="none" xmlns="http://www.w3.org/2000/svg">
<path d="M15.508 2.41498H8.48805C5.99805 2.41498 5.44805 3.65498 5.12805 5.17498L3.99805 10.585H19.998L18.868 5.17498C18.548 3.65498 17.998 2.41498 15.508 2.41498Z" stroke="#161616" stroke-width="1.5" stroke-linecap="round" stroke-linejoin="round"/>
<path d="M21.9888 19.405C22.0988 20.575 21.1588 21.585 19.9588 21.585H18.0788C16.9988 21.585 16.8488 21.125 16.6588 20.555L16.4588 19.955C16.1788 19.135 15.9988 18.585 14.5588 18.585H9.43876C7.99876 18.585 7.78876 19.205 7.53876 19.955L7.33876 20.555C7.14876 21.125 6.99876 21.585 5.91876 21.585H4.03876C2.83876 21.585 1.89876 20.575 2.00876 19.405L2.56876 13.315C2.70876 11.815 2.99876 10.585 5.61876 10.585H18.3788C20.9988 10.585 21.2888 11.815 21.4288 13.315L21.9888 19.405Z" stroke="#161616" stroke-width="1.5" stroke-linecap="round" stroke-linejoin="round"/>
<path d="M3.99805 7.58496H2.99805" stroke="#161616" stroke-width="1.5" stroke-linecap="round" stroke-linejoin="round"/>
<path d="M20.998 7.58496H19.998" stroke="#161616" stroke-width="1.5" stroke-linecap="round" stroke-linejoin="round"/>
<path d="M11.998 2.58496V4.58496" stroke="#161616" stroke-width="1.5" stroke-linecap="round" stroke-linejoin="round"/>
<path d="M10.498 4.58496H13.498" stroke="#161616" stroke-width="1.5" stroke-linecap="round" stroke-linejoin="round"/>
<path d="M5.99805 14.585H8.99805" stroke="#161616" stroke-width="1.5" stroke-linecap="round" stroke-linejoin="round"/>
<path d="M14.998 14.585H17.998" stroke="#161616" stroke-width="1.5" stroke-linecap="round" stroke-linejoin="round"/>
</svg>
