<svg width="20" height="21" viewBox="0 0 20 21" fill="none" xmlns="http://www.w3.org/2000/svg">
  <path id="Vector"
    d="M5.96571 11.1057C5.63086 10.7709 5.63086 10.228 5.96571 9.89314C6.30057 9.55829 6.84343 9.55829 7.17829 9.89314L9.144 11.8589V1.35714C9.144 0.884 9.528 0.5 10.0011 0.5C10.4743 0.5 10.8583 0.884 10.8583 1.35714V11.8589L12.824 9.89314C13.1589 9.55829 13.7017 9.55829 14.0366 9.89314C14.3714 10.228 14.3714 10.7709 14.0366 11.1057L10.608 14.5343C10.4411 14.7011 10.2217 14.7857 10.0023 14.7857C9.78286 14.7857 9.56343 14.7023 9.39657 14.5343L5.968 11.1057H5.96571ZM19.1429 13.0714C18.6697 13.0714 18.2857 13.4554 18.2857 13.9286V17.3571C18.2857 18.1446 17.6446 18.7857 16.8571 18.7857H3.14286C2.35543 18.7857 1.71429 18.1446 1.71429 17.3571V13.9286C1.71429 13.4554 1.33029 13.0714 0.857143 13.0714C0.384 13.0714 0 13.4554 0 13.9286V17.3571C0 19.0909 1.40914 20.5 3.14286 20.5H16.8571C18.5909 20.5 20 19.0909 20 17.3571V13.9286C20 13.4554 19.616 13.0714 19.1429 13.0714Z"
    fill="#009482" />
</svg>