<svg width="16" height="16" viewBox="0 0 16 16" fill="none" xmlns="http://www.w3.org/2000/svg">
<path d="M2 4.5H1" stroke="#161616" stroke-width="1.5" stroke-miterlimit="10" stroke-linecap="round" stroke-linejoin="round"/>
<path d="M6 6.5C7.10457 6.5 8 5.60457 8 4.5C8 3.39543 7.10457 2.5 6 2.5C4.89543 2.5 4 3.39543 4 4.5C4 5.60457 4.89543 6.5 6 6.5Z" stroke="#161616" stroke-width="1.5" stroke-miterlimit="10" stroke-linecap="round" stroke-linejoin="round"/>
<path d="M15 4.5H10" stroke="#161616" stroke-width="1.5" stroke-miterlimit="10" stroke-linecap="round" stroke-linejoin="round"/>
<path d="M6 11.5H1" stroke="#161616" stroke-width="1.5" stroke-miterlimit="10" stroke-linecap="round" stroke-linejoin="round"/>
<path d="M10 13.5C11.1046 13.5 12 12.6046 12 11.5C12 10.3954 11.1046 9.5 10 9.5C8.89543 9.5 8 10.3954 8 11.5C8 12.6046 8.89543 13.5 10 13.5Z" stroke="#161616" stroke-width="1.5" stroke-miterlimit="10" stroke-linecap="round" stroke-linejoin="round"/>
<path d="M15 11.5H14" stroke="#161616" stroke-width="1.5" stroke-miterlimit="10" stroke-linecap="round" stroke-linejoin="round"/>
</svg>
