<svg width="224" height="50" viewBox="0 0 224 50" fill="none" xmlns="http://www.w3.org/2000/svg">
<g id="H_raskat_white_" clip-path="url(#clip0_813_1107)">
<g id="Group 1000002218">
<path id="Vector" d="M62.9312 15.3301H80.6165C81.7401 15.3301 82.6777 15.4629 83.4162 15.7349C84.1548 16.0072 84.739 16.3805 85.1692 16.8678C85.5995 17.355 85.9015 17.9371 86.0813 18.6207C86.2546 19.304 86.3446 20.076 86.3446 20.9239V22.12C86.3446 22.7465 86.2996 23.3097 86.2095 23.8096C86.1197 24.3159 85.9591 24.7524 85.7216 25.1384C85.4841 25.5181 85.1502 25.8472 84.7198 26.1129C84.2895 26.3851 83.7373 26.5939 83.0694 26.7521V26.8028C83.5126 26.8912 83.9235 27.0052 84.3088 27.1571C84.6942 27.3025 85.0345 27.5367 85.3235 27.8468C85.6124 28.1569 85.8436 28.5619 86.0105 29.0554C86.1776 29.549 86.261 30.1881 86.261 30.9664V34.1685H80.3981V31.903C80.3981 30.9159 80.2246 30.2324 79.8842 29.8465C79.5441 29.4667 78.9147 29.277 77.9964 29.277H68.7878V34.1685H62.9248V15.3301H62.9312ZM68.7878 24.588H78.4781C79.2679 24.588 79.8264 24.4298 80.1541 24.1071C80.4815 23.7843 80.6419 23.2906 80.6419 22.6135V21.987C80.6419 21.1518 80.4238 20.6203 79.9935 20.3735C79.5633 20.133 78.8825 20.0065 77.9449 20.0065H68.7878V24.588Z" fill="white"/>
<path id="Vector_2" d="M98.7764 15.3301H106.405L116.911 34.1622H110.393L108.569 30.8336H96.6895L94.975 34.1622H88.4248L98.7764 15.3301ZM98.8856 26.7773H106.386L102.585 19.7028L98.8856 26.7773Z" fill="white"/>
<path id="Vector_3" d="M118.657 27.9979H124.52C124.52 28.5042 124.572 28.8967 124.681 29.1815C124.784 29.4662 124.944 29.6877 125.156 29.8333C125.368 29.9787 125.631 30.0736 125.945 30.1053C126.261 30.1432 126.633 30.156 127.056 30.156H134.236C134.552 30.156 134.859 30.1432 135.162 30.118C135.462 30.0926 135.727 30.023 135.964 29.9091C136.202 29.7953 136.388 29.6371 136.53 29.4283C136.67 29.2193 136.74 28.9346 136.74 28.5676C136.74 28.15 136.665 27.8334 136.516 27.6057C136.368 27.378 136.015 27.207 135.462 27.0868C134.911 26.9665 134.082 26.8907 132.983 26.8652C131.886 26.84 130.39 26.8274 128.508 26.8274C126.305 26.8274 124.558 26.7514 123.255 26.5932C121.952 26.4349 120.963 26.1503 120.282 25.7327C119.601 25.3149 119.171 24.7391 118.978 24.0051C118.786 23.2709 118.69 22.3218 118.69 21.1575C118.69 20.3095 118.74 19.5121 118.85 18.7781C118.953 18.0441 119.261 17.405 119.761 16.8671C120.263 16.3292 121.034 15.9053 122.074 15.5951C123.115 15.2852 124.552 15.127 126.402 15.127H134.584C136.271 15.127 137.607 15.2598 138.584 15.5319C139.561 15.8039 140.298 16.1837 140.799 16.6772C141.299 17.1709 141.622 17.7594 141.762 18.4302C141.904 19.1072 141.974 19.8602 141.974 20.6954V21.2967H136.112C136.112 20.9487 136.092 20.6576 136.047 20.4107C136.002 20.1704 135.887 19.9679 135.707 19.8097C135.521 19.6514 135.238 19.5375 134.846 19.4551C134.461 19.3793 133.928 19.3413 133.26 19.3413H126.768C126.1 19.3413 125.561 19.4551 125.156 19.6894C124.752 19.9234 124.546 20.2904 124.546 20.7967C124.546 21.2143 124.618 21.5309 124.758 21.7588C124.9 21.9865 125.213 22.1509 125.695 22.2523C126.178 22.3535 126.883 22.4167 127.808 22.4358C128.733 22.4547 129.979 22.461 131.546 22.461C133.818 22.461 135.681 22.5117 137.145 22.6192C138.603 22.7205 139.753 22.9862 140.574 23.3976C141.403 23.8152 141.974 24.4227 142.289 25.2201C142.604 26.0174 142.765 27.0994 142.765 28.4727C142.765 29.7382 142.629 30.757 142.366 31.529C142.102 32.301 141.622 32.9022 140.914 33.3262C140.208 33.7503 139.245 34.035 138.012 34.1742C136.78 34.3133 135.186 34.383 133.234 34.383H126.133C124.796 34.383 123.653 34.307 122.716 34.1614C121.771 34.016 121.002 33.7564 120.404 33.3831C119.807 33.0098 119.364 32.4972 119.081 31.8328C118.798 31.1748 118.657 30.333 118.657 29.3079V27.9979Z" fill="white"/>
<path id="Vector_4" d="M146.379 15.3301H152.242V22.253H154.99L162.381 15.3301H170.356L160.006 24.5373L171.571 34.1622H163.281L154.831 26.9293H152.242V34.1622H146.379V15.3301Z" fill="white"/>
<path id="Vector_5" d="M182.232 15.3301H189.86L200.366 34.1622H193.849L192.025 30.8336H180.145L178.431 34.1622H171.88L182.232 15.3301ZM182.334 26.7773H189.834L186.034 19.7028L182.334 26.7773Z" fill="white"/>
<path id="Vector_6" d="M201.054 15.3301H223.387V20.0129H215.149V34.1622H209.284V20.0129H201.047V15.3301H201.054Z" fill="white"/>
</g>
<g id="Vector_7">
<path d="M24.4019 44.2555C23.9728 44.4988 23.4464 44.4988 23.0176 44.2555L11.3921 37.5765L6.3103 40.4965L20.4702 48.6355C22.4717 49.7882 24.9412 49.7882 26.9426 48.6355L41.2456 40.4197L36.1639 37.4996L24.4019 44.2555Z" fill="url(#paint0_linear_813_1107)"/>
<path d="M44.4095 7.71586L30.1066 -0.5V5.34011L41.8623 12.0959C42.2912 12.3393 42.5574 12.8004 42.5574 13.2935V26.645L47.6393 29.5651V13.2935C47.646 10.9945 46.4112 8.86851 44.4095 7.71586Z" fill="url(#paint1_linear_813_1107)"/>
<path d="M17.5392 -0.5L3.23619 7.71586C1.23469 8.86851 0 10.9945 0 13.2935V29.5651L5.08174 26.645V13.2935C5.08174 12.8004 5.34818 12.3457 5.77707 12.0959L17.5392 5.34011V-0.5Z" fill="url(#paint2_linear_813_1107)"/>
<path d="M14.8613 17.2696L20.8138 13.8501V10.77L14.8613 13.8501V17.2696Z" fill="url(#paint3_linear_813_1107)"/>
<path d="M20.8138 16.6612L14.8613 19.7414V23.161L20.8138 19.7414V16.6612Z" fill="url(#paint4_linear_813_1107)"/>
<path d="M14.8613 28.7709L20.8138 25.3512V22.2773L14.8613 25.3512V28.7709Z" fill="url(#paint5_linear_813_1107)"/>
<path d="M15.447 31.3643L20.3987 34.4893L36.4108 25.4026V19.0245L22.3872 11.3786V17.0201L31.0366 22.1815L15.447 31.3643Z" fill="url(#paint6_linear_813_1107)"/>
</g>
</g>
<defs>
<linearGradient id="paint0_linear_813_1107" x1="26.0003" y1="-0.510747" x2="26.0003" y2="49.5107" gradientUnits="userSpaceOnUse">
<stop stop-color="#00D344"/>
<stop offset="1" stop-color="#009482"/>
</linearGradient>
<linearGradient id="paint1_linear_813_1107" x1="26.0003" y1="-0.510747" x2="26.0003" y2="49.5107" gradientUnits="userSpaceOnUse">
<stop stop-color="#00D344"/>
<stop offset="1" stop-color="#009482"/>
</linearGradient>
<linearGradient id="paint2_linear_813_1107" x1="26.0003" y1="-0.510747" x2="26.0003" y2="49.5107" gradientUnits="userSpaceOnUse">
<stop stop-color="#00D344"/>
<stop offset="1" stop-color="#009482"/>
</linearGradient>
<linearGradient id="paint3_linear_813_1107" x1="26.0003" y1="-0.510747" x2="26.0003" y2="49.5107" gradientUnits="userSpaceOnUse">
<stop stop-color="#00D344"/>
<stop offset="1" stop-color="#009482"/>
</linearGradient>
<linearGradient id="paint4_linear_813_1107" x1="26.0003" y1="-0.510747" x2="26.0003" y2="49.5107" gradientUnits="userSpaceOnUse">
<stop stop-color="#00D344"/>
<stop offset="1" stop-color="#009482"/>
</linearGradient>
<linearGradient id="paint5_linear_813_1107" x1="26.0003" y1="-0.510747" x2="26.0003" y2="49.5107" gradientUnits="userSpaceOnUse">
<stop stop-color="#00D344"/>
<stop offset="1" stop-color="#009482"/>
</linearGradient>
<linearGradient id="paint6_linear_813_1107" x1="26.0003" y1="-0.510747" x2="26.0003" y2="49.5107" gradientUnits="userSpaceOnUse">
<stop stop-color="#00D344"/>
<stop offset="1" stop-color="#009482"/>
</linearGradient>
<clipPath id="clip0_813_1107">
<rect width="223.387" height="50" fill="white"/>
</clipPath>
</defs>
</svg>
