<svg width="170" height="38" viewBox="0 0 170 38" fill="none" xmlns="http://www.w3.org/2000/svg">
<g id="H_raskat_white_" clip-path="url(#clip0_302_16703)">
<path id="Vector" d="M18.5377 33.9994C18.2117 34.1843 17.8118 34.1843 17.4861 33.9994L8.65443 28.9256L4.79395 31.1438L15.5509 37.3268C17.0714 38.2025 18.9474 38.2025 20.4678 37.3268L31.3334 31.0855L27.473 28.8672L18.5377 33.9994Z" fill="#7DAA30"/>
<path id="Vector_2" d="M33.7366 6.24138L22.8711 0V4.43658L31.8016 9.56876C32.1274 9.75366 32.3297 10.104 32.3297 10.4786V20.6214L36.1902 22.8397V10.4786C36.1953 8.73212 35.2573 7.11702 33.7366 6.24138Z" fill="#7DAA30"/>
<path id="Vector_3" d="M13.3241 0L2.45845 6.24138C0.937965 7.11702 0 8.73212 0 10.4786V22.8397L3.86047 20.6214V10.4786C3.86047 10.104 4.06288 9.75854 4.3887 9.56876L13.3241 4.43658V0Z" fill="#7DAA30"/>
<path id="Vector_4" d="M11.29 13.5001L15.812 10.9024V8.5625L11.29 10.9024V13.5001Z" fill="#7DAA30"/>
<path id="Vector_5" d="M15.812 13.0352L11.29 15.3751V17.9729L15.812 15.3751V13.0352Z" fill="#7DAA30"/>
<path id="Vector_6" d="M11.29 22.2377L15.812 19.6398V17.3047L11.29 19.6398V22.2377Z" fill="#7DAA30"/>
<path id="Vector_7" d="M11.7344 24.2061L15.496 26.5801L27.66 19.6771V14.8318L17.0067 9.02344V13.3091L23.5774 17.2302L11.7344 24.2061Z" fill="#7DAA30"/>
<path id="Vector_8" d="M47.8276 11.6523H61.2684C62.1224 11.6523 62.835 11.7533 63.3962 11.96C63.9575 12.167 64.4015 12.4507 64.7285 12.821C65.0555 13.1913 65.285 13.6337 65.4217 14.1532C65.5534 14.6725 65.6218 15.2592 65.6218 15.9037V16.8127C65.6218 17.2888 65.5876 17.7169 65.5191 18.0967C65.4509 18.4815 65.3288 18.8133 65.1483 19.1067C64.9678 19.3952 64.714 19.6454 64.3869 19.8473C64.06 20.0541 63.6403 20.2128 63.1326 20.3331V20.3716C63.4695 20.4388 63.7818 20.5254 64.0746 20.6408C64.3675 20.7514 64.6261 20.9294 64.8458 21.165C65.0654 21.4007 65.241 21.7085 65.3679 22.0836C65.4949 22.4587 65.5583 22.9445 65.5583 23.536V25.9695H61.1025V24.2477C61.1025 23.4975 60.9706 22.9781 60.7119 22.6848C60.4534 22.3962 59.9751 22.252 59.2772 22.252H52.2786V25.9695H47.8228V11.6523H47.8276ZM52.2786 18.6884H59.6432C60.2435 18.6884 60.668 18.5681 60.917 18.3228C61.1659 18.0776 61.2878 17.7024 61.2878 17.1878V16.7116C61.2878 16.0768 61.122 15.6729 60.795 15.4853C60.468 15.3026 59.9506 15.2064 59.238 15.2064H52.2786V18.6884Z" fill="black"/>
<path id="Vector_9" d="M75.0699 11.6484H80.8679L88.8522 25.9608H83.8986L82.5125 23.4311H73.4838L72.1808 25.9608H67.2026L75.0699 11.6484ZM75.1528 20.3483H80.8533L77.9641 14.9717L75.1528 20.3483Z" fill="black"/>
<path id="Vector_10" d="M90.1797 21.278H94.6355C94.6355 21.6628 94.6751 21.9611 94.7575 22.1775C94.8358 22.394 94.9578 22.5622 95.1186 22.6729C95.2802 22.7834 95.4797 22.8555 95.7187 22.8796C95.9586 22.9085 96.2414 22.9182 96.5629 22.9182H102.02C102.259 22.9182 102.493 22.9085 102.723 22.8893C102.951 22.87 103.152 22.8171 103.333 22.7305C103.513 22.644 103.655 22.5238 103.763 22.3651C103.869 22.2063 103.923 21.9899 103.923 21.711C103.923 21.3936 103.865 21.153 103.752 20.9799C103.64 20.8069 103.371 20.6769 102.951 20.5856C102.533 20.4942 101.902 20.4366 101.068 20.4172C100.233 20.398 99.0963 20.3884 97.6664 20.3884C95.9923 20.3884 94.6641 20.3307 93.6743 20.2105C92.6836 20.0901 91.932 19.8738 91.4144 19.5564C90.8968 19.239 90.5702 18.8013 90.4237 18.2435C90.2773 17.6855 90.2049 16.9642 90.2049 16.0793C90.2049 15.4348 90.2427 14.8288 90.3261 14.271C90.4044 13.7131 90.6384 13.2274 91.0188 12.8186C91.4001 12.4098 91.9859 12.0876 92.7762 11.8519C93.5674 11.6163 94.6599 11.4961 96.0655 11.4961H102.284C103.566 11.4961 104.582 11.5971 105.324 11.8039C106.066 12.0106 106.627 12.2992 107.007 12.6743C107.388 13.0495 107.633 13.4967 107.74 14.0065C107.847 14.5211 107.9 15.0934 107.9 15.7281V16.1851H103.445C103.445 15.9206 103.43 15.6994 103.396 15.5117C103.362 15.3291 103.274 15.1752 103.137 15.0549C102.996 14.9347 102.781 14.8481 102.483 14.7855C102.19 14.7279 101.785 14.699 101.278 14.699H96.3441C95.8366 14.699 95.4266 14.7855 95.1186 14.9636C94.8113 15.1414 94.6548 15.4203 94.6548 15.8051C94.6548 16.1225 94.7096 16.3631 94.8164 16.5363C94.9242 16.7093 95.1623 16.8343 95.5285 16.9114C95.8954 16.9883 96.4316 17.0363 97.1344 17.0508C97.8372 17.0652 98.7841 17.0699 99.9751 17.0699C101.702 17.0699 103.118 17.1085 104.231 17.1902C105.338 17.2672 106.213 17.4691 106.836 17.7818C107.467 18.0992 107.9 18.5609 108.14 19.1669C108.379 19.7729 108.501 20.5951 108.501 21.6389C108.501 22.6007 108.398 23.3749 108.198 23.9617C107.998 24.5484 107.633 25.0053 107.095 25.3275C106.559 25.6498 105.826 25.8662 104.89 25.972C103.953 26.0777 102.742 26.1307 101.258 26.1307H95.861C94.8451 26.1307 93.9764 26.0729 93.2644 25.9623C92.5464 25.8517 91.9615 25.6545 91.507 25.3708C91.0533 25.0871 90.7166 24.6975 90.502 24.1926C90.2865 23.6924 90.1797 23.0527 90.1797 22.2736V21.278Z" fill="black"/>
<path id="Vector_11" d="M111.248 11.6484H115.704V16.9098H117.792L123.41 11.6484H129.471L121.604 18.6459L130.394 25.9608H124.093L117.671 20.4639H115.704V25.9608H111.248V11.6484Z" fill="black"/>
<path id="Vector_12" d="M138.496 11.6484H144.293L152.279 25.9608H147.326L145.939 23.4311H136.911L135.608 25.9608H130.629L138.496 11.6484ZM138.574 20.3483H144.274L141.386 14.9717L138.574 20.3483Z" fill="black"/>
<path id="Vector_13" d="M152.801 11.6484H169.774V15.2074H163.513V25.9608H159.056V15.2074H152.795V11.6484H152.801Z" fill="black"/>
</g>
<defs>
<clipPath id="clip0_302_16703">
<rect width="169.774" height="38" fill="white"/>
</clipPath>
</defs>
</svg>
