<svg width="188" height="50" viewBox="0 0 188 50" fill="none" xmlns="http://www.w3.org/2000/svg">
<path d="M14.1796 1.61426L0.683594 24.9893L14.1796 48.3653H41.1716L54.6666 24.9893L41.1716 1.61426H14.1796Z" fill="#FEFEFE"/>
<path d="M40.5811 17.6688L37.0171 23.6088L28.7271 9.25977L28.5981 9.02177H11.9141L15.3391 3.09277H32.1671L40.5811 17.6688Z" fill="#749737"/>
<path d="M48.6955 17.7985L40.2865 32.3695L33.3555 32.2555L41.5625 18.0355L41.7795 17.6745L41.7745 17.6695L33.4385 3.22754H40.2815L48.6955 17.7985Z" fill="#353879"/>
<path d="M52.6402 24.8947L44.2263 39.4707H27.3993L24.0312 33.4067H40.5543L40.8743 33.4117L40.8803 33.4067L43.3482 29.1297L49.2213 18.9697L52.6402 24.8947Z" fill="#353879"/>
<path d="M43.4735 40.5051L40.0545 46.4341H23.2265L14.8125 31.8641L18.3765 25.9131L26.6615 40.2621L26.6775 40.2931L26.7955 40.5051H43.4735Z" fill="#7E797F"/>
<path d="M13.6134 31.8564L21.9544 46.2984H15.1064L6.69141 31.7224L15.1064 17.1514L22.0374 17.2654L13.7214 31.6714L13.6134 31.8564Z" fill="#7E797F"/>
<path d="M31.356 16.1137H14.823L14.513 16.1087V16.1137L6.17095 30.5557L2.75195 24.6307L11.165 10.0557H27.988L31.356 16.1137Z" fill="#749737"/>
<path d="M87.4266 13.9521H89.8525V16.6571H87.4266V13.9521ZM93.4585 19.2291H95.7255V21.2441C96.3975 20.4141 97.1096 19.8171 97.8605 19.4551C98.6115 19.0921 99.4475 18.9111 100.367 18.9111C102.382 18.9111 103.743 19.6141 104.45 21.0191C104.839 21.7881 105.033 22.8881 105.033 24.3201V33.4281H102.607V24.4791C102.607 23.6131 102.479 22.9151 102.223 22.3841C101.799 21.5011 101.029 21.0591 99.9156 21.0591C99.3495 21.0591 98.8856 21.1161 98.5236 21.2311C97.8696 21.4251 97.2946 21.8141 96.8006 22.3971C96.4026 22.8661 96.1436 23.3501 96.0246 23.8491C95.9056 24.3491 95.8456 25.0621 95.8456 25.9901V33.4281H93.4585V19.2291ZM117.331 19.6211C118.271 20.0931 118.986 20.7051 119.478 21.4561C119.953 22.1731 120.269 23.0081 120.427 23.9621C120.568 24.6161 120.638 25.6591 120.638 27.0911H110.31C110.354 28.5361 110.692 29.6951 111.323 30.5671C111.954 31.4411 112.932 31.8771 114.256 31.8771C115.493 31.8771 116.479 31.4641 117.217 30.6381C117.628 30.1591 117.921 29.6041 118.093 28.9731H120.439C120.377 29.4951 120.172 30.0761 119.822 30.7171C119.473 31.3581 119.084 31.8821 118.654 32.2881C117.935 32.9951 117.045 33.4721 115.984 33.7201C115.413 33.8611 114.768 33.9321 114.049 33.9321C112.293 33.9321 110.804 33.2891 109.583 32.0031C108.362 30.7171 107.751 28.9161 107.751 26.6011C107.751 24.3201 108.366 22.4681 109.596 21.0451C110.826 19.6221 112.433 18.9111 114.419 18.9111C115.42 18.9111 116.391 19.1481 117.331 19.6211ZM118.185 25.1951C118.089 24.1611 117.865 23.3351 117.515 22.7161C116.867 21.5671 115.784 20.9921 114.268 20.9921C113.181 20.9921 112.269 21.3881 111.533 22.1791C110.797 22.9701 110.407 23.9761 110.364 25.1951H118.185ZM123.727 19.2291H125.994V21.6821C126.18 21.2041 126.635 20.6241 127.36 19.9381C128.084 19.2541 128.919 18.9111 129.866 18.9111C129.91 18.9111 129.985 18.9161 130.091 18.9241C130.197 18.9331 130.378 18.9511 130.634 18.9771V21.4961C130.493 21.4691 130.362 21.4521 130.243 21.4431C130.124 21.4341 129.993 21.4301 129.853 21.4301C128.65 21.4301 127.726 21.8171 127.081 22.5901C126.436 23.3631 126.114 24.2541 126.114 25.2621V33.4281H123.727V19.2291ZM133.273 13.9521H141.988C143.71 13.9521 145.102 14.4411 146.161 15.4171C147.22 16.3941 147.75 17.7661 147.75 19.5341C147.75 21.0541 147.278 22.3781 146.332 23.5041C145.387 24.6321 143.94 25.1951 141.992 25.1951H135.911V33.4281H133.273V13.9521ZM143.506 16.6301C142.926 16.3571 142.132 16.2191 141.123 16.2191H135.911V22.9681H141.123C142.299 22.9681 143.253 22.7161 143.986 22.2121C144.719 21.7091 145.085 20.8201 145.085 19.5471C145.085 18.1151 144.559 17.1431 143.506 16.6301ZM158.423 24.8351C158.971 24.7651 159.338 24.5351 159.524 24.1471C159.63 23.9341 159.682 23.6281 159.682 23.2281C159.682 22.4121 159.393 21.8201 158.815 21.4521C158.238 21.0841 157.411 20.9001 156.335 20.9001C155.091 20.9001 154.209 21.2371 153.689 21.9121C153.398 22.2851 153.208 22.8401 153.12 23.5781H150.892C150.937 21.8221 151.504 20.6021 152.594 19.9141C153.684 19.2281 154.948 18.8851 156.388 18.8851C158.056 18.8851 159.412 19.2021 160.453 19.8391C161.486 20.4751 162.002 21.4651 162.002 22.8091V30.9891C162.002 31.2371 162.054 31.4351 162.155 31.5861C162.256 31.7361 162.471 31.8101 162.798 31.8101C162.904 31.8101 163.023 31.8041 163.156 31.7911C163.288 31.7781 163.43 31.7571 163.58 31.7311V33.4941C163.209 33.6011 162.926 33.6671 162.732 33.6931C162.537 33.7201 162.271 33.7331 161.936 33.7331C161.114 33.7331 160.517 33.4411 160.146 32.8581C159.952 32.5491 159.815 32.1111 159.735 31.5461C159.249 32.1831 158.551 32.7351 157.641 33.2031C156.73 33.6712 155.727 33.9061 154.632 33.9061C153.314 33.9061 152.238 33.5061 151.403 32.7071C150.568 31.9081 150.15 30.9091 150.15 29.7081C150.15 28.3931 150.561 27.3731 151.383 26.6491C152.205 25.9251 153.284 25.4791 154.618 25.3121L158.423 24.8351ZM153.398 31.2821C153.902 31.6791 154.498 31.8771 155.188 31.8771C156.027 31.8771 156.84 31.6831 157.627 31.2951C158.953 30.6501 159.616 29.5961 159.616 28.1311V26.2121C159.324 26.3981 158.95 26.5531 158.492 26.6771C158.033 26.8011 157.583 26.8901 157.142 26.9431L155.7 27.1281C154.835 27.2431 154.185 27.4241 153.75 27.6711C153.011 28.0851 152.643 28.7471 152.643 29.6551C152.643 30.3421 152.895 30.8851 153.398 31.2821ZM165.98 19.2291H168.247V21.6821C168.432 21.2041 168.888 20.6241 169.612 19.9381C170.337 19.2541 171.173 18.9111 172.118 18.9111C172.162 18.9111 172.237 18.9161 172.344 18.9241C172.449 18.9331 172.631 18.9511 172.887 18.9771V21.4961C172.745 21.4691 172.615 21.4521 172.496 21.4431C172.377 21.4341 172.246 21.4301 172.105 21.4301C170.903 21.4301 169.979 21.8171 169.334 22.5901C168.689 23.3631 168.366 24.2541 168.366 25.2621V33.4281H165.98V19.2291ZM174.902 13.9521H177.196V25.2601L183.316 19.2291H186.364L180.907 24.5081L186.67 33.4281H183.621L179.155 26.2031L177.196 28.0981V33.4281H174.902V13.9521ZM87.4266 19.2951H89.8525V33.4281H87.4266V19.2951ZM65.0605 13.9521H68.8406L74.4406 30.4191L80.0005 13.9521H83.7545V33.4281H81.2355V21.9331C81.2355 21.5361 81.2446 20.8781 81.2626 19.9581C81.2796 19.0391 81.2886 18.0541 81.2886 17.0021L75.7275 33.4281H73.1135L67.5005 17.0021V17.5981C67.5005 18.0761 67.5136 18.8031 67.5406 19.7791C67.5666 20.7561 67.5796 21.4741 67.5796 21.9331V33.4281H65.0605V13.9521Z" fill="#2B2B2A"/>
</svg>
