<svg width="24" height="25" viewBox="0 0 24 25" fill="none" xmlns="http://www.w3.org/2000/svg">
<path d="M13.7299 4.01038L15.4899 7.53038C15.7299 8.02038 16.3699 8.49038 16.9099 8.58038L20.0999 9.11038C22.1399 9.45038 22.6199 10.9304 21.1499 12.3904L18.6699 14.8704C18.2499 15.2904 18.0199 16.1004 18.1499 16.6804L18.8599 19.7504C19.4199 22.1804 18.1299 23.1204 15.9799 21.8504L12.9899 20.0804C12.4499 19.7604 11.5599 19.7604 11.0099 20.0804L8.01991 21.8504C5.87991 23.1204 4.57991 22.1704 5.13991 19.7504L5.84991 16.6804C5.97991 16.1004 5.74991 15.2904 5.32991 14.8704L2.84991 12.3904C1.38991 10.9304 1.85991 9.45038 3.89991 9.11038L7.08991 8.58038C7.61991 8.49038 8.25991 8.02038 8.49991 7.53038L10.2599 4.01038C11.2199 2.10038 12.7799 2.10038 13.7299 4.01038Z" stroke="#161616" stroke-width="1.5" stroke-linecap="round" stroke-linejoin="round"/>
</svg>
