<svg width="300" height="70" viewBox="0 0 300 70" fill="none" xmlns="http://www.w3.org/2000/svg">
<g clip-path="url(#clip0_718_19960)">
<path d="M84.6289 23.2848H108.338C109.844 23.2848 111.101 23.4644 112.094 23.8288C113.081 24.1933 113.868 24.695 114.444 25.35C115.02 26.0049 115.426 26.7813 115.669 27.7003C115.902 28.614 116.023 29.6493 116.023 30.7901V32.3957C116.023 33.2355 115.966 33.9908 115.844 34.6616C115.723 35.3429 115.506 35.9239 115.189 36.4415C114.872 36.9486 114.423 37.3922 113.847 37.7461C113.272 38.1105 112.532 38.3905 111.634 38.6017V38.6704C112.231 38.7866 112.78 38.9397 113.298 39.1457C113.816 39.3412 114.27 39.6528 114.661 40.07C115.047 40.4873 115.358 41.0313 115.58 41.6915C115.802 42.3517 115.918 43.2074 115.918 44.2531V48.5471H108.059V45.5102C108.059 44.1845 107.826 43.2707 107.372 42.7531C106.918 42.2461 106.073 41.9873 104.842 41.9873H92.4986V48.5471H84.6395V23.2901H84.6506L84.6289 23.2848ZM92.4828 35.6968H105.476C106.533 35.6968 107.283 35.4855 107.721 35.0524C108.159 34.6193 108.375 33.9591 108.375 33.0507V32.2109C108.375 31.0912 108.085 30.3781 107.504 30.0454C106.928 29.7232 106.015 29.5542 104.758 29.5542H92.4828V35.6968Z" fill="white"/>
<path d="M132.682 23.2848H142.907L156.993 48.5313H148.257L145.812 44.0683H129.888L127.59 48.5313H118.807L132.682 23.2848ZM132.83 38.6334H142.886L137.789 29.1475L132.83 38.6334Z" fill="white"/>
<path d="M159.339 40.2636H167.198C167.198 40.945 167.267 41.4679 167.414 41.8482C167.552 42.2284 167.768 42.5242 168.053 42.7196C168.339 42.9151 168.693 43.0418 169.11 43.0841C169.532 43.1369 170.034 43.1527 170.599 43.1527H180.222C180.645 43.1527 181.057 43.1369 181.464 43.0999C181.865 43.0682 182.219 42.9732 182.536 42.82C182.853 42.6668 183.106 42.4555 183.296 42.1756C183.487 41.8957 183.576 41.5154 183.576 41.0242C183.576 40.4643 183.476 40.0418 183.275 39.7355C183.075 39.4291 182.605 39.202 181.86 39.0383C181.12 38.8746 180.011 38.7742 178.538 38.7425C177.064 38.7108 175.062 38.6897 172.538 38.6897C169.585 38.6897 167.24 38.5893 165.497 38.3781C163.749 38.1668 162.423 37.7865 161.509 37.2267C160.596 36.6668 160.02 35.8957 159.761 34.9133C159.502 33.9309 159.376 32.658 159.376 31.0946C159.376 29.9591 159.444 28.8869 159.587 27.9045C159.724 26.9221 160.136 26.0612 160.807 25.3429C161.478 24.6193 162.513 24.0541 163.907 23.6369C165.302 23.2196 167.23 23.0084 169.712 23.0084H180.682C182.943 23.0084 184.733 23.1879 186.043 23.5524C187.353 23.9168 188.34 24.4239 189.011 25.0893C189.682 25.7496 190.115 26.5418 190.3 27.4397C190.49 28.3482 190.585 29.357 190.585 30.4767V31.2848H182.726C182.726 30.82 182.7 30.4291 182.636 30.0964C182.578 29.7742 182.425 29.5048 182.182 29.2883C181.934 29.077 181.553 28.9239 181.031 28.8129C180.513 28.7126 179.8 28.6598 178.907 28.6598H170.203C169.311 28.6598 168.587 28.8129 168.043 29.1246C167.499 29.4362 167.224 29.9327 167.224 30.6087C167.224 31.1686 167.319 31.5911 167.509 31.8974C167.7 32.2038 168.122 32.4256 168.767 32.5577C169.416 32.695 170.362 32.7795 171.597 32.8059C172.839 32.8323 174.508 32.8376 176.61 32.8376C179.657 32.8376 182.156 32.9062 184.115 33.0489C186.069 33.1862 187.612 33.5401 188.71 34.0946C189.825 34.6545 190.585 35.4679 191.013 36.5401C191.436 37.607 191.652 39.0594 191.652 40.9027C191.652 42.5982 191.472 43.9661 191.119 45.0013C190.765 46.0365 190.12 46.8446 189.17 47.4098C188.224 47.9802 186.936 48.3605 185.282 48.5453C183.629 48.7302 181.495 48.8253 178.876 48.8253H169.353C167.562 48.8253 166.031 48.7249 164.774 48.5295C163.506 48.3341 162.476 47.9855 161.673 47.4837C160.876 46.982 160.279 46.2953 159.899 45.408C159.518 44.526 159.328 43.3957 159.328 42.0224V40.2636H159.339Z" fill="white"/>
<path d="M196.5 23.2848H204.359V32.5648H208.046L217.954 23.2848H228.644L214.769 35.6281L230.271 48.5313H219.158L207.829 38.8341H204.359V48.5313H196.5V23.2848Z" fill="white"/>
<path d="M244.563 23.2848H254.788L268.874 48.5313H260.138L257.693 44.0683H241.768L239.471 48.5313H230.688L244.563 23.2848ZM244.7 38.6334H254.756L249.659 29.1475L244.7 38.6334Z" fill="white"/>
<path d="M269.8 23.2848H299.736V29.5595H288.692V48.5313H280.833V29.5595H269.789V23.2848H269.8Z" fill="white"/>
<path d="M37.168 8.51324L55.4373 19.0608C56.2771 19.5467 56.7947 20.4499 56.7947 21.4164V42.5115L64.0993 46.7263V21.4164C64.0993 17.8354 62.1873 14.5238 59.0869 12.7333L37.168 0.0783997V8.51324Z" fill="url(#paint0_linear_718_19960)"/>
<path d="M51.7769 51.1994L33.5075 61.7467C33.0955 61.9843 32.6254 62.1111 32.1501 62.1111C31.6747 62.1111 31.2046 61.9843 30.7927 61.7467L12.5233 51.1994L5.21875 55.4139L27.1378 68.0694C28.6906 68.9673 30.4177 69.4104 32.1501 69.4104C33.8825 69.4104 35.6096 68.962 37.1624 68.0694L59.0815 55.4139L51.7769 51.1994Z" fill="url(#paint1_linear_718_19960)"/>
<path d="M7.50577 42.5074V21.4123C7.50577 20.4457 8.02866 19.5426 8.86316 19.0567L27.1325 8.50913V0.0742798L5.21349 12.7292C2.11314 14.5197 0.201172 17.8313 0.201172 21.4123V46.7222L7.50577 42.5074Z" fill="url(#paint2_linear_718_19960)"/>
<path d="M27.1327 16.951L19.8281 21.1657V25.4703L27.1327 21.2502V16.951Z" fill="url(#paint3_linear_718_19960)"/>
<path d="M27.1327 25.5543L19.8281 29.7744V34.0737L27.1327 29.8589V25.5543Z" fill="url(#paint4_linear_718_19960)"/>
<path d="M27.1327 34.1659L19.8281 38.3807V42.6853L27.1327 38.4705V34.1659Z" fill="url(#paint5_linear_718_19960)"/>
<path d="M30.8563 19.1008V27.5356L42.1908 34.0744L19.8281 46.9881L27.1327 51.2029L49.4954 38.2944V29.8596L30.8563 19.1008Z" fill="url(#paint6_linear_718_19960)"/>
</g>
<defs>
<linearGradient id="paint0_linear_718_19960" x1="50.6363" y1="69.3" x2="50.6363" y2="-0.597654" gradientUnits="userSpaceOnUse">
<stop stop-color="#009482"/>
<stop offset="0.22" stop-color="#009A7B"/>
<stop offset="0.55" stop-color="#00AE68"/>
<stop offset="0.93" stop-color="#00CD49"/>
<stop offset="1" stop-color="#00D443"/>
</linearGradient>
<linearGradient id="paint1_linear_718_19960" x1="32.1501" y1="69.2995" x2="32.1501" y2="-0.598118" gradientUnits="userSpaceOnUse">
<stop stop-color="#009482"/>
<stop offset="0.22" stop-color="#009A7B"/>
<stop offset="0.55" stop-color="#00AE68"/>
<stop offset="0.93" stop-color="#00CD49"/>
<stop offset="1" stop-color="#00D443"/>
</linearGradient>
<linearGradient id="paint2_linear_718_19960" x1="13.6642" y1="69.3016" x2="13.6642" y2="-0.596491" gradientUnits="userSpaceOnUse">
<stop stop-color="#009482"/>
<stop offset="0.22" stop-color="#009A7B"/>
<stop offset="0.55" stop-color="#00AE68"/>
<stop offset="0.93" stop-color="#00CD49"/>
<stop offset="1" stop-color="#00D443"/>
</linearGradient>
<linearGradient id="paint3_linear_718_19960" x1="23.4778" y1="69.3032" x2="23.4778" y2="-0.594814" gradientUnits="userSpaceOnUse">
<stop stop-color="#009482"/>
<stop offset="0.22" stop-color="#009A7B"/>
<stop offset="0.55" stop-color="#00AE68"/>
<stop offset="0.93" stop-color="#00CD49"/>
<stop offset="1" stop-color="#00D443"/>
</linearGradient>
<linearGradient id="paint4_linear_718_19960" x1="23.4778" y1="-249.294" x2="23.4778" y2="-0.595353" gradientUnits="userSpaceOnUse">
<stop stop-color="#009482"/>
<stop offset="0.22" stop-color="#009A7B"/>
<stop offset="0.55" stop-color="#00AE68"/>
<stop offset="0.93" stop-color="#00CD49"/>
<stop offset="1" stop-color="#00D443"/>
</linearGradient>
<linearGradient id="paint5_linear_718_19960" x1="23.4778" y1="69.3053" x2="23.4778" y2="-0.592884" gradientUnits="userSpaceOnUse">
<stop stop-color="#009482"/>
<stop offset="0.22" stop-color="#009A7B"/>
<stop offset="0.55" stop-color="#00AE68"/>
<stop offset="0.93" stop-color="#00CD49"/>
<stop offset="1" stop-color="#00D443"/>
</linearGradient>
<linearGradient id="paint6_linear_718_19960" x1="34.6591" y1="69.3032" x2="34.6591" y2="-0.594676" gradientUnits="userSpaceOnUse">
<stop stop-color="#009482"/>
<stop offset="0.22" stop-color="#009A7B"/>
<stop offset="0.55" stop-color="#00AE68"/>
<stop offset="0.93" stop-color="#00CD49"/>
<stop offset="1" stop-color="#00D443"/>
</linearGradient>
<clipPath id="clip0_718_19960">
<rect width="300" height="69.7183" fill="white"/>
</clipPath>
</defs>
</svg>
